<?xml version="1.0" encoding="utf-8"?>
<!-- Generator: Adobe Illustrator 27.0.0, SVG Export Plug-In . SVG Version: 6.00 Build 0)  -->
<svg version="1.1" id="Layer_1" xmlns="http://www.w3.org/2000/svg" xmlns:xlink="http://www.w3.org/1999/xlink" x="0px" y="0px"
	 viewBox="0 0 1024 1024" style="enable-background:new 0 0 1024 1024;" xml:space="preserve">
<g>
	<path d="M552.4,177.4c-16,7.6-28.9,14.4-28.9,15c0,0.6,16.4,11.7,36.1,24.6c19.9,12.9,52,33.7,71.5,46.4c31,20.3,36.1,23,40.4,21.4
		c6.6-1.9,64.5-34.1,64.5-35.5c-0.2-1-38.2-22.6-114.8-65.5c-28.7-16.2-37-20.5-38.4-20.3C581.8,163.5,568.2,169.8,552.4,177.4z
		 M633.3,215.8c0.8,0.2,3.1,1.9,5.5,4.3c8,8-3.9,12.9-15.8,6.6c-6-3.1-7.4-6.4-3.9-9.9C620.8,215,625.1,214.6,633.3,215.8z"/>
	<path style="fill:#39B54A;" d="M450.4,227.3c-25.7,12.7-50.7,24.8-55.6,27.1l-8.6,3.9l33.9,22.4c18.7,12.1,42.3,27.5,52.2,33.7
		c53,34.3,71.7,47.2,73.5,51.1c1.4,2.7,2.1,39,1.9,107.6c0,56.9,0.6,103.5,1.4,103.5s10.5-4.9,21.4-10.9
		c22.2-12.3,28.5-15.6,51.3-28.1c8.6-4.7,19.5-10.9,24.4-13.6l8.8-5.1V411.7v-107l-26.7-17.5c-90.6-59.3-127.3-82.9-129.6-82.9
		C497.8,204.3,476,214.6,450.4,227.3z"/>
	<path d="M357.8,272.5c-1.6,1-17.7,9-35.7,17.7c-17.9,8.8-33.1,16.6-33.5,17.4c-0.6,1,3.9,4.5,9.7,8c23.2,14.2,58.5,36.3,101,63
		c34.3,21.6,45.6,27.9,49.7,27.3c2.9-0.4,16.8-7,30.6-14.8c14-8,28.3-15.6,32-17.2l6.6-2.7l-4.9-3.9c-2.7-2.3-14.6-10.1-26.1-17.7
		c-21.8-13.8-61-39.4-99.6-64.7C365.6,270.3,363.1,269.4,357.8,272.5z M413.6,335.8c5.5,2.1,6.8,3.7,6.2,7.2
		c-0.6,3.9-1.8,4.5-8.8,4.3c-9-0.2-14.2-3.3-14.2-8.6c0-3.1,2.3-4.7,8.4-5.7C406,333.1,409.9,334.3,413.6,335.8z"/>
	<path d="M697,296.3c-20.9,11.5-19.5,9.7-19.5,26.1v14.8l14.8-8.2c8.2-4.5,18.5-10.1,23-12.5c4.3-2.3,10.9-6.2,14.6-8.4l6.4-4.1
		l-4.5-2.9c-11.5-7-19.7-11.1-21.8-11.1C708.7,290.2,702.9,293,697,296.3z"/>
	<path d="M695.7,351.6c-18.7,9.9-18.3,9.6-17.7,26.7l0.6,14.8l28.9-15.8c32-17.7,31.2-16.4,12.7-26.5l-10.9-6L695.7,351.6z"/>
	<path d="M299,355.9c-6.2,2.9-11.3,5.7-11.3,6.4c0,1,114,73.1,149.9,94.7l10.5,6.2l9.9-5.5c5.5-3.1,14.8-8.4,20.7-11.7
		c5.8-3.3,18.3-10.1,27.7-15c10.9-5.7,17.5-10.3,18.3-13.1c1.9-5.5,2.1-24.8,0.6-25.9c-1.6-0.8-17.7,7.6-48.5,25.1
		c-27.5,15.8-32,16-54.6,1.2c-33.7-22-108.6-68-110.3-67.8C310.9,350.9,305,353.2,299,355.9z"/>
	<path d="M697,407.4c-21.1,11.5-19.5,9.6-19.5,27.1v15.6l16.2-8.6c8.8-4.7,20.5-11.3,25.7-14.4c5.5-3.1,11.5-6.4,13.6-7.2
		c3.7-1.6,3.7-1.6-0.8-4.7c-5.1-3.5-23.6-14.2-24.2-13.8C708,401.3,702.9,404.1,697,407.4z"/>
	<path d="M299,413c-6.2,3.1-11.3,6-11.3,6.4S305,431,326.3,444c21.1,13.3,42.9,26.7,48.2,30.2c31.6,20.5,72.1,44.8,74.3,44.3
		c1.4-0.2,12.3-6,24.6-12.7c12.1-6.6,27.1-14.8,33.1-17.9c19.7-10.1,19.9-10.3,20.1-26.3c0-7.6-0.6-14.4-1.4-14.8
		c-0.8-0.6-9.6,3.7-19.5,9.2c-50.5,28.1-55.8,30.8-60.6,29.4c-2.3-0.6-30.6-17.4-62.8-37.4c-64.1-40-65.9-40.9-69.6-40.9
		C311.3,407.2,305,409.7,299,413z"/>
	<path d="M696.1,464.7c-7.6,3.9-14.8,8-16.2,9.4c-1.8,1.8-2.3,7-1.9,17.4l0.6,15l8-4.3c4.3-2.5,17.4-9.6,28.9-16
		c11.5-6.2,20.3-12.1,19.3-12.9c-0.8-1-4.9-3.5-9-5.7c-4.1-2.3-9.4-5.5-11.7-7C710.1,458.1,708.5,458.5,696.1,464.7z"/>
	<path d="M300.3,468.6c-5.3,2.5-10.3,5.5-11.3,6.4c-1.4,1.4,4.3,5.8,16.6,12.9c4.3,2.3,70.6,43.7,84.4,52.6
		c21.8,14,48.3,30.4,53.4,32.9c4.9,2.5,6,2.5,11.1-0.6c3.1-1.9,12.3-7,20.3-11.3c8-4.5,21.1-11.5,29-16s15-8,15.8-8
		c4.1,0,6.6-7.2,6.6-20.7c0.2-8-0.2-14.4-1-14.4c-0.6,0-13.5,6.6-28.3,14.8c-41.1,22.8-45,24.6-50.3,24.6c-2.9,0-30-15.8-67.5-39.2
		c-34.5-21.4-64.3-39.2-66.1-39C311.4,463.7,305.8,465.9,300.3,468.6z"/>
	<path d="M300.7,525.1c-11.7,6-16.6,10.5-11.1,10.5c1,0,29.4,17.4,63.4,38.4c33.7,21.2,63,39.4,64.9,40.5c1.9,1,9.2,5.5,16,9.7
		c6.8,4.3,13.6,7.6,15.2,7.2c4.7-1.2,73.5-39.4,75.4-42.1c1.2-1.6,1.9-8.8,1.9-16c-0.2-11.1-0.8-13.5-3.3-12.9
		c-1.8,0.2-18.3,9-37,19.3c-21.4,12.1-35.7,18.9-39.2,18.7c-3.3,0-19.5-9-41.9-23.2c-20.1-12.7-45.2-28.3-55.9-34.9
		c-10.7-6.6-23-14.2-27.3-17l-8-4.9L300.7,525.1z"/>
	<path d="M407.2,691.6c-6.2,2.5-10.9,10.9-10.7,19.1c0.6,19.1,29,25,39.2,8C446,701.8,426.9,683.6,407.2,691.6z"/>
	<path d="M334.5,702.9c-2.7,1-2.7,156.3,0,156.5c1.2,0,5.1,0.2,8.8,0.2c3.7,0,10.9-0.2,16.2-0.2l9.2-0.2v-76.8
		c0-42.3-0.8-77.6-1.6-78.4C365.6,702.5,338.3,701.8,334.5,702.9z"/>
	<path d="M746.6,703.1c-0.4,0.4-0.8,35.9-0.8,78.6c0,60.6,0.6,77.6,2.5,77.8c2.7,0.2,23.6,0.2,29.6,0c3.9-0.2,4.1-1.4,4.1-35.9
		c0.2-44.6,2.1-49.9,20.1-52.6c8.6-1.4,18.7,3.5,22.2,10.9c2.1,4.3,2.9,14.4,2.9,40.7c0,19.3,0.4,35.5,1,36.1
		c1,0.8,22.8,1.4,32.6,0.8c2.5-0.2,2.9-5.8,2.7-39.6c-0.2-43.1-1.6-51.3-10.3-63.4c-12.1-16.8-38.8-21.4-58.7-9.9
		c-5.3,3.1-9.7,6.6-9.7,8c0,1.8-0.4,1.8-1.6,0c-0.8-1.4-1.4-13.1-1.2-25.9c0.2-15-0.6-24-1.9-24.8
		C777.9,702.5,747.9,701.8,746.6,703.1z"/>
	<path d="M211.8,712.1c-22.6,6.2-41.1,25-48,48.5c-9.4,32.4,0.8,66.9,25.1,85.2c27.7,20.9,72.3,19.1,96.5-3.9
		c8.4-8,19.7-25.9,19.7-31.4c0-1.2-7.2-1.9-18.9-1.9h-19.1l-7.2,7.8c-17.7,18.9-47.6,13.5-59.1-10.9c-3.7-7.8-4.3-30-1-38.6
		c5.7-15.2,18.7-24.4,34.7-24.6c9.9,0,21.8,5.7,27.7,13.1c4.1,5.3,4.9,5.5,23.6,5.7l19.3,0.2l-1.2-5.1
		c-2.7-11.5-15.6-28.1-27.7-35.7C259.2,709.7,232.9,706.4,211.8,712.1z"/>
	<path d="M654.5,740.7c-31.8,4.9-49.7,29-48.2,64.7c1.6,32.8,23,53.8,56.5,55c19.1,0.6,32-3.7,42.9-14.4
		c7.4-7.2,17.2-25.1,15.4-28.1c-0.6-0.8-9.2-1.6-19.1-1.6c-17,0-18.1,0.2-20.5,4.7c-4.5,8.2-16.4,11.3-26.1,6.8
		c-8-3.5-12.1-12.9-12.1-27.1c0.2-15.6,4.5-24.6,13.6-28.5c8.4-3.5,20.5-0.2,23.4,6.4c1,2.5,3.7,4.7,5.8,4.7
		c13.1,1,34.7,0.6,35.3-0.6c1.4-2.1-6.2-17.7-11.9-24.6c-6.4-7.8-19.1-15.4-28.3-16.8C667.6,739.2,664.7,739.2,654.5,740.7z"/>
	<path d="M399.8,742.3c-0.4,0.8-0.8,27.3-0.6,59.1v57.9l7.6,0.2c4.1,0,11.5,0,16.4,0s9.6,0,10.7,0c1.2-0.2,1.8-22.2,1.4-59.3
		l-0.4-58.9h-17.2C408.1,741.1,400.1,741.7,399.8,742.3z"/>
	<path d="M466.8,741.3c-1.4,0.4-0.4,116.6,1,117.4c1,0.8,9,1.2,17.5,1.2h15.8l1-37.8c1-40.4,1.9-43.9,11.3-48.9
		c5.7-2.9,17.5-2.9,23.4,0.2c9.2,4.9,10.7,12.3,10.9,49.3c0.2,18.9,0.8,34.9,1.6,35.7c1.2,1.4,12.1,1.8,28.5,1.2l6.2-0.2v-38.6
		c0-46.4-1.9-55.6-14.4-67.8c-15.8-15.8-44.1-17-60.6-2.3l-6.8,5.8v-7.6v-7.6h-17.5C475,741.1,466.8,741.1,466.8,741.3z"/>
</g>
</svg>
