<?xml version="1.0" encoding="UTF-8"?>
<svg id="uuid-7b20cfe1-1b43-49dc-9003-64e1388690d0" data-name="Layer 1" xmlns="http://www.w3.org/2000/svg" viewBox="0 0 1024 1024">
  <rect x="-6.07" y="-5.66" width="1037.64" height="1037.64" fill="#222"/>
  <g>
    <path d="M153.35,412.91c7.03-12.9,16.88-22.75,29.55-30.02,12.66-7.03,26.97-10.79,42.91-10.79,19.46,0,36.58,5.16,50.42,15.48,14.07,10.55,23.45,24.62,28.14,42.44h-44.32c-3.28-7.03-7.97-12.19-14.07-15.71s-12.9-5.63-20.64-5.63c-12.66,0-22.51,4.46-30.02,12.9-7.5,8.68-11.72,20.17-11.72,34.71s3.75,26.03,11.72,34.71c7.5,8.68,17.82,12.9,30.02,12.9,7.5,0,14.54-1.64,20.64-5.63,6.1-3.52,10.79-8.68,14.07-15.71h44.32c-4.69,17.82-14.07,32.13-28.14,42.44-14.07,10.32-30.72,15.24-50.42,15.24-15.95,0-30.25-3.52-42.91-10.79-12.43-7.03-22.51-17.35-29.55-29.78-7.03-12.9-10.55-27.2-10.55-43.62,.23-15.71,3.75-30.25,10.55-43.15Z" fill="#fff"/>
    <path d="M375.89,362.5v177.28h-37.29v-177.28h37.29Z" fill="#fff"/>
    <path d="M410.13,399.08c-3.99-3.75-6.33-8.68-6.33-14.3s2.11-10.55,6.33-14.54c3.99-3.75,9.38-5.63,15.95-5.63s11.72,1.88,15.95,5.63c3.99,3.75,6.33,8.68,6.33,14.54s-2.11,10.55-6.33,14.3c-3.99,3.75-9.38,5.63-15.95,5.63-6.57,.23-11.96-1.88-15.95-5.63Zm34.71,18.29v122.17h-37.29v-122.17h37.29Z" fill="#fff"/>
    <path d="M584.83,430.27c8.44,9.15,12.66,22.04,12.66,38.22v71.29h-37.05v-66.6c0-8.21-2.11-14.54-6.33-18.99-4.22-4.69-10.08-6.8-17.12-6.8s-12.66,2.11-17.12,6.8c-4.22,4.69-6.33,10.79-6.33,18.99v66.36h-37.29v-122.17h37.05v16.18c3.75-5.39,8.91-9.85,15.48-12.66,6.57-3.28,13.6-4.69,21.57-4.69,14.54,.23,26.03,4.69,34.47,14.07Z" fill="#fff"/>
    <path d="M628.45,445.27c5.16-9.38,12.43-16.88,21.57-22.04,9.15-5.16,19.7-7.5,31.66-7.5,15.48,0,28.14,3.99,38.46,11.96,10.32,8.21,17.12,19.23,20.4,33.77h-39.86c-3.28-9.15-9.85-14.07-19.46-14.07-6.8,0-12.19,2.81-16.41,7.74-3.99,5.39-6.33,12.9-6.33,22.75s2.11,17.59,6.33,22.75c3.99,5.39,9.38,7.74,16.41,7.74,9.85,0,15.95-4.69,19.46-14.07h39.86c-3.28,14.3-10.08,25.56-20.4,33.53-10.32,8.21-22.98,12.19-38.22,12.19-11.96,0-22.51-2.34-31.66-7.5-9.15-5.16-16.41-12.43-21.57-22.04-5.16-9.38-7.74-20.64-7.74-33.3-.47-11.26,2.34-22.28,7.5-31.89Z" fill="#fff"/>
    <path d="M873.5,430.27c8.44,9.15,12.66,22.04,12.66,38.22v71.29h-37.05v-66.6c0-8.21-2.11-14.54-6.33-18.99-4.22-4.69-10.08-6.8-17.12-6.8s-12.66,2.11-17.12,6.8c-4.22,4.69-6.33,10.79-6.33,18.99v66.36h-37.29v-177.05h37.29v71.52c3.75-5.39,8.91-9.85,15.48-12.9,6.57-3.28,13.84-4.92,22.28-4.92,13.84,.23,24.86,4.69,33.53,14.07Z" fill="#fff"/>
  </g>
  <g>
    <g>
      <path d="M487.6,613.58l-15.05,35.05h-13.71l-1.12-21.35-8.76,21.35h-13.71l-2.92-35.05h12.36l-.22,23.37,9.44-23.37h13.03l1.35,23.37,8.09-23.37h11.23Z" fill="#fff"/>
      <path d="M518.16,616.95c2.7,2.47,4.04,5.84,4.04,10.11,0,1.35,0,2.7-.22,3.82-.22,1.35-.45,2.25-.67,2.92h-23.14v1.12c0,1.57,.45,2.7,1.12,3.6,.67,.67,1.8,1.12,3.15,1.12,2.02,0,3.6-.9,4.94-2.7h13.03c-.9,2.47-2.47,4.49-4.27,6.52-1.8,1.8-4.04,3.37-6.74,4.49-2.47,1.12-5.39,1.57-8.09,1.57-4.49,0-8.31-1.35-11.01-3.82-2.7-2.47-4.04-5.84-4.04-10.34,0-1.35,.22-2.47,.45-4.04,.67-3.6,2.02-6.97,4.04-9.66s4.49-4.72,7.41-6.29c2.92-1.57,6.07-2.25,9.66-2.25,3.82,.22,7.64,1.35,10.34,3.82Zm-8.31,10.11c0-1.35-.45-2.25-1.35-3.15-.9-.67-2.02-1.12-3.15-1.12-1.57,0-2.92,.45-4.04,1.35-1.12,.9-2.02,2.25-2.47,3.82h11.01v-.9Z" fill="#fff"/>
      <path d="M528.27,621.67c1.8-2.7,4.04-4.72,6.52-6.29s5.17-2.25,8.09-2.25c2.47,0,4.49,.45,6.07,1.35,1.57,.9,2.7,2.25,3.37,3.82l.9-4.94h12.36l-6.29,35.05h-12.36l.9-4.94c-1.12,1.57-2.7,2.92-4.72,3.82s-4.04,1.35-6.52,1.35c-3.6,0-6.52-1.12-8.76-3.6s-3.37-5.84-3.37-9.89c0-1.35,.22-2.92,.45-4.49,.45-3.15,1.57-6.29,3.37-8.99Zm21.8,7.86c0-1.8-.45-3.15-1.57-4.04-.9-.9-2.25-1.35-3.82-1.35-1.8,0-3.6,.67-4.94,2.02-1.57,1.35-2.47,3.15-2.7,5.39-.22,.67-.22,1.12-.22,1.8,0,1.8,.45,3.15,1.57,4.04,.9,.9,2.25,1.35,3.82,1.35,1.8,0,3.6-.67,4.94-2.02,1.57-1.35,2.47-3.15,2.7-5.39,.22-.67,.22-1.35,.22-1.8Z" fill="#fff"/>
      <path d="M586.69,602.57l-8.31,46.29h-12.36l8.31-46.29h12.36Z" fill="#fff"/>
      <path d="M601.97,635.6v.67c0,.67,.22,1.12,.67,1.57s1.12,.45,2.02,.45h3.6l-1.8,10.56h-5.62c-7.64,0-11.46-3.15-11.46-9.66,0-1.12,.22-2.25,.45-3.6l2.02-11.68h-4.27l1.8-10.11h4.27l1.57-8.54h12.36l-1.57,8.54h6.29l-1.8,10.11h-6.29l-2.25,11.68Z" fill="#fff"/>
      <path d="M649.16,616.28c2.02,2.02,2.92,4.72,2.92,8.31,0,1.12-.22,2.47-.45,3.82l-3.6,20.45h-12.36l3.37-18.87c.22-.67,.22-1.12,.22-1.8,0-1.57-.45-2.7-1.35-3.6-.9-.9-2.02-1.35-3.6-1.35-1.8,0-3.15,.45-4.49,1.57-1.12,1.12-2.02,2.47-2.47,4.27l-3.37,19.32h-12.36l8.31-46.29h12.36l-2.92,16.18c1.35-1.57,3.15-2.92,5.17-3.82,2.02-.9,4.27-1.57,6.74-1.57,3.37,.45,6.07,1.35,7.86,3.37Z" fill="#fff"/>
    </g>
    <g>
      <path d="M220.98,623.69c-1.12,2.02-2.7,3.6-4.94,4.72s-5.17,1.8-8.76,1.8h-7.86v17.75h-7.19v-43.59h15.05c3.37,0,6.07,.67,8.54,1.8,2.25,1.12,4.04,2.7,5.17,4.72,1.12,2.02,1.8,4.04,1.8,6.52-.22,2.25-.9,4.27-1.8,6.29Zm-7.86-1.12c1.35-1.12,2.02-2.92,2.02-5.17,0-4.72-2.7-7.19-8.09-7.19h-7.86v14.16h7.86c2.7,0,4.72-.45,6.07-1.8Z" fill="#fff"/>
      <path d="M240.53,614.25c1.8-.9,3.82-1.57,6.07-1.57v7.41h-1.8c-2.7,0-4.94,.67-6.29,2.02-1.35,1.35-2.25,3.82-2.25,7.41v18.2h-7.19v-34.38h7.19v4.94c1.12-1.57,2.7-2.92,4.27-4.04Z" fill="#fff"/>
      <path d="M253.79,607.51c-.9-.9-1.35-2.02-1.35-3.15,0-1.35,.45-2.47,1.35-3.15,.9-.9,2.02-1.35,3.15-1.35,1.35,0,2.25,.45,3.15,1.35s1.35,2.02,1.35,3.15c0,1.35-.45,2.47-1.35,3.15-.9,.9-2.02,1.35-3.15,1.35-1.35,0-2.25-.45-3.15-1.35Zm6.74,5.84v34.6h-7.19v-34.6h7.19Z" fill="#fff"/>
      <path d="M283.22,641.44l9.66-28.09h7.64l-13.26,34.6h-8.54l-13.03-34.6h7.64l9.89,28.09Z" fill="#fff"/>
      <path d="M305.69,621.22c1.35-2.7,3.37-4.72,5.84-6.29s5.17-2.25,8.31-2.25c2.7,0,5.17,.45,7.19,1.57,2.02,1.12,3.6,2.47,4.94,4.04v-4.94h7.19v34.6h-7.19v-5.17c-1.12,1.57-2.92,2.92-4.94,4.04-2.02,1.12-4.49,1.57-7.19,1.57-2.92,0-5.62-.67-8.09-2.25s-4.49-3.6-5.84-6.29c-1.35-2.7-2.25-5.84-2.25-9.21,0-3.6,.67-6.74,2.02-9.44Zm24.72,3.15c-.9-1.8-2.25-3.15-3.82-4.04-1.57-.9-3.37-1.35-5.17-1.35s-3.6,.45-5.17,1.35c-1.57,.9-2.92,2.25-3.82,4.04-.9,1.8-1.57,3.82-1.57,6.07,0,2.47,.45,4.49,1.57,6.29,.9,1.8,2.25,3.15,3.82,4.04s3.37,1.35,5.17,1.35,3.6-.45,5.17-1.35c1.57-.9,2.92-2.25,3.82-4.04,.9-1.8,1.57-3.82,1.57-6.29-.22-2.25-.67-4.27-1.57-6.07Z" fill="#fff"/>
      <path d="M356.69,619.2v19.1c0,1.35,.22,2.25,.9,2.7s1.57,.9,3.15,.9h4.49v5.84h-5.62c-3.15,0-5.62-.67-7.41-2.25s-2.47-4.04-2.47-7.41v-19.1h-4.27v-5.62h4.04v-8.54h7.19v8.54h8.31v5.84h-8.31Z" fill="#fff"/>
      <path d="M403.21,633.35h-26.29c.22,2.7,1.12,4.94,3.15,6.74,1.8,1.57,4.04,2.47,6.74,2.47,3.82,0,6.52-1.57,8.09-4.72h7.64c-1.12,3.15-2.92,5.84-5.62,7.86-2.7,2.02-6.07,3.15-10.11,3.15-3.37,0-6.29-.67-8.76-2.25-2.7-1.57-4.72-3.6-6.07-6.29-1.57-2.7-2.25-5.84-2.25-9.44s.67-6.74,2.25-9.44c1.35-2.7,3.37-4.72,6.07-6.29s5.62-2.25,8.99-2.25c3.15,0,6.07,.67,8.76,2.02,2.47,1.35,4.49,3.37,5.84,6.07s2.02,5.62,2.02,8.76c-.22,1.35-.45,2.47-.45,3.6Zm-7.41-5.84c0-2.7-.9-4.72-2.92-6.29-1.8-1.57-4.04-2.47-6.74-2.47-2.47,0-4.49,.67-6.29,2.25s-2.7,3.6-3.15,6.29h19.1v.22Z" fill="#fff"/>
    </g>
    <g>
      <path d="M698.28,619.34h-6.29v28.76h-7.19v-28.76h-4.04v-5.84h4.04v-2.47c0-4.04,1.12-6.97,3.15-8.76,2.02-1.8,5.39-2.7,9.89-2.7v5.84c-2.25,0-3.6,.45-4.49,1.12-.9,.9-1.35,2.25-1.35,4.27v2.47h6.29v6.07h0Z" fill="#fff"/>
      <path d="M710.86,646.53c-2.7-1.57-4.72-3.6-6.29-6.29-1.57-2.7-2.25-5.84-2.25-9.44s.67-6.52,2.25-9.44c1.57-2.7,3.6-4.72,6.29-6.29,2.7-1.35,5.62-2.25,8.99-2.25s6.29,.67,8.99,2.25c2.7,1.57,4.72,3.6,6.29,6.29,1.57,2.7,2.25,5.84,2.25,9.44s-.9,6.52-2.47,9.44c-1.57,2.7-3.82,4.72-6.52,6.29-2.7,1.57-5.84,2.25-8.99,2.25-2.92-.22-5.84-.9-8.54-2.25Zm13.93-5.39c1.57-.9,2.92-2.25,3.82-4.04,.9-1.8,1.57-3.82,1.57-6.29s-.45-4.72-1.35-6.29c-.9-1.8-2.25-3.15-3.82-3.82-1.57-.9-3.37-1.35-5.17-1.35s-3.6,.45-5.17,1.35c-1.57,.9-2.92,2.25-3.82,3.82-.9,1.8-1.35,3.82-1.35,6.29,0,3.82,.9,6.52,2.92,8.54,1.8,2.02,4.27,3.15,7.19,3.15,1.8,0,3.6-.45,5.17-1.35Z" fill="#fff"/>
      <path d="M756.02,614.4c1.8-.9,3.82-1.57,6.07-1.57v7.41h-1.8c-2.7,0-4.94,.67-6.29,2.02-1.35,1.35-2.25,3.82-2.25,7.41v18.2h-7.19v-34.38h7.19v4.94c1.12-1.57,2.47-2.92,4.27-4.04Z" fill="#fff"/>
      <path d="M784.78,621.36c1.35-2.7,3.37-4.72,5.84-6.29,2.47-1.57,5.17-2.25,8.31-2.25,2.7,0,5.17,.45,7.19,1.57,2.02,1.12,3.6,2.47,4.94,4.04v-4.94h7.19v34.6h-7.19v-5.17c-1.12,1.57-2.92,2.92-4.94,4.04-2.02,1.12-4.49,1.57-7.19,1.57-2.92,0-5.62-.67-8.09-2.25s-4.49-3.6-5.84-6.29c-1.35-2.7-2.25-5.84-2.25-9.21-.22-3.6,.67-6.74,2.02-9.44Zm24.72,3.15c-.9-1.8-2.25-3.15-3.82-4.04-1.57-.9-3.37-1.35-5.17-1.35s-3.6,.45-5.17,1.35c-1.57,.9-2.92,2.25-3.82,4.04-.9,1.8-1.57,3.82-1.57,6.07,0,2.47,.45,4.49,1.57,6.29,.9,1.8,2.25,3.15,3.82,4.04,1.57,.9,3.37,1.35,5.17,1.35s3.6-.45,5.17-1.35c1.57-.9,2.92-2.25,3.82-4.04,.9-1.8,1.57-3.82,1.57-6.29-.22-2.25-.67-4.27-1.57-6.07Z" fill="#fff"/>
      <path d="M834.67,601.81v46.29h-7.19v-46.29h7.19Z" fill="#fff"/>
      <path d="M851.07,601.81v46.29h-6.97v-46.29h6.97Z" fill="#fff"/>
    </g>
  </g>
</svg>