<?xml version="1.0" encoding="utf-8"?>
<!-- Generator: Adobe Illustrator 27.0.0, SVG Export Plug-In . SVG Version: 6.00 Build 0)  -->
<svg version="1.1" id="Layer_1" xmlns="http://www.w3.org/2000/svg" xmlns:xlink="http://www.w3.org/1999/xlink" x="0px" y="0px"
	 viewBox="0 0 1024 1024" style="enable-background:new 0 0 1024 1024;" xml:space="preserve">
<style type="text/css">
	.st0{fill:#1E1E1C;}
</style>
<g>
	<path class="st0" d="M153.4,412.9c7-12.9,16.9-22.7,29.5-30c12.7-7,27-10.8,42.9-10.8c19.5,0,36.6,5.2,50.4,15.5
		c14.1,10.6,23.4,24.6,28.1,42.4h-44.3c-3.3-7-8-12.2-14.1-15.7c-6.1-3.5-12.9-5.6-20.6-5.6c-12.7,0-22.5,4.5-30,12.9
		c-7.5,8.7-11.7,20.2-11.7,34.7c0,14.5,3.8,26,11.7,34.7c7.5,8.7,17.8,12.9,30,12.9c7.5,0,14.5-1.6,20.6-5.6
		c6.1-3.5,10.8-8.7,14.1-15.7h44.3c-4.7,17.8-14.1,32.1-28.1,42.4c-14.1,10.3-30.7,15.2-50.4,15.2c-15.9,0-30.3-3.5-42.9-10.8
		c-12.4-7-22.5-17.4-29.5-29.8c-7-12.9-10.6-27.2-10.6-43.6C143,440.4,146.6,425.8,153.4,412.9z"/>
	<path class="st0" d="M375.9,362.5v177.3h-37.3V362.5H375.9z"/>
	<path class="st0" d="M410.1,399.1c-4-3.8-6.3-8.7-6.3-14.3c0-5.9,2.1-10.6,6.3-14.5c4-3.8,9.4-5.6,15.9-5.6s11.7,1.9,15.9,5.6
		c4,3.8,6.3,8.7,6.3,14.5c0,5.6-2.1,10.6-6.3,14.3c-4,3.8-9.4,5.6-15.9,5.6C419.5,404.9,414.1,402.8,410.1,399.1z M444.8,417.4
		v122.2h-37.3V417.4H444.8z"/>
	<path class="st0" d="M584.8,430.3c8.4,9.1,12.7,22,12.7,38.2v71.3h-37.1v-66.6c0-8.2-2.1-14.5-6.3-19c-4.2-4.7-10.1-6.8-17.1-6.8
		s-12.7,2.1-17.1,6.8c-4.2,4.7-6.3,10.8-6.3,19v66.4h-37.3V417.4h37.1v16.2c3.8-5.4,8.9-9.8,15.5-12.7c6.6-3.3,13.6-4.7,21.6-4.7
		C564.9,416.4,576.4,420.9,584.8,430.3z"/>
	<path class="st0" d="M628.4,445.3c5.2-9.4,12.4-16.9,21.6-22c9.1-5.2,19.7-7.5,31.7-7.5c15.5,0,28.1,4,38.5,12
		c10.3,8.2,17.1,19.2,20.4,33.8h-39.9c-3.3-9.1-9.8-14.1-19.5-14.1c-6.8,0-12.2,2.8-16.4,7.7c-4,5.4-6.3,12.9-6.3,22.7
		c0,10.1,2.1,17.6,6.3,22.7c4,5.4,9.4,7.7,16.4,7.7c9.8,0,15.9-4.7,19.5-14.1h39.9c-3.3,14.3-10.1,25.6-20.4,33.5
		c-10.3,8.2-23,12.2-38.2,12.2c-12,0-22.5-2.3-31.7-7.5s-16.4-12.4-21.6-22c-5.2-9.4-7.7-20.6-7.7-33.3
		C620.5,465.9,623.3,454.9,628.4,445.3z"/>
	<path class="st0" d="M873.5,430.3c8.4,9.1,12.7,22,12.7,38.2v71.3h-37.1v-66.6c0-8.2-2.1-14.5-6.3-19c-4.2-4.7-10.1-6.8-17.1-6.8
		c-7,0-12.7,2.1-17.1,6.8c-4.2,4.7-6.3,10.8-6.3,19v66.4h-37.3v-177h37.3V434c3.8-5.4,8.9-9.8,15.5-12.9c6.6-3.3,13.8-4.9,22.3-4.9
		C853.8,416.4,864.8,420.9,873.5,430.3z"/>
</g>
<g>
	<g>
		<path class="st0" d="M487.6,613.6l-15.1,35.1h-13.7l-1.1-21.3l-8.8,21.3h-13.7l-2.9-35.1h12.4l-0.2,23.4l9.4-23.4h13l1.3,23.4
			l8.1-23.4H487.6z"/>
		<path class="st0" d="M518.2,617c2.7,2.5,4,5.8,4,10.1c0,1.3,0,2.7-0.2,3.8c-0.2,1.3-0.4,2.2-0.7,2.9h-23.1c0,0.2,0,0.7,0,1.1
			c0,1.6,0.4,2.7,1.1,3.6c0.7,0.7,1.8,1.1,3.1,1.1c2,0,3.6-0.9,4.9-2.7h13c-0.9,2.5-2.5,4.5-4.3,6.5c-1.8,1.8-4,3.4-6.7,4.5
			c-2.5,1.1-5.4,1.6-8.1,1.6c-4.5,0-8.3-1.3-11-3.8c-2.7-2.5-4-5.8-4-10.3c0-1.3,0.2-2.5,0.4-4c0.7-3.6,2-7,4-9.7
			c2-2.7,4.5-4.7,7.4-6.3c2.9-1.6,6.1-2.2,9.7-2.2C511.6,613.4,515.5,614.5,518.2,617z M509.8,627.1c0-1.3-0.4-2.2-1.3-3.1
			c-0.9-0.7-2-1.1-3.1-1.1c-1.6,0-2.9,0.4-4,1.3c-1.1,0.9-2,2.2-2.5,3.8h11C509.8,627.5,509.8,627.3,509.8,627.1z"/>
		<path class="st0" d="M528.3,621.7c1.8-2.7,4-4.7,6.5-6.3c2.5-1.6,5.2-2.2,8.1-2.2c2.5,0,4.5,0.4,6.1,1.3c1.6,0.9,2.7,2.2,3.4,3.8
			l0.9-4.9h12.4l-6.3,35.1h-12.4l0.9-4.9c-1.1,1.6-2.7,2.9-4.7,3.8c-2,0.9-4,1.3-6.5,1.3c-3.6,0-6.5-1.1-8.8-3.6
			c-2.2-2.5-3.4-5.8-3.4-9.9c0-1.3,0.2-2.9,0.4-4.5C525.4,627.5,526.5,624.4,528.3,621.7z M550.1,629.5c0-1.8-0.4-3.1-1.6-4
			c-0.9-0.9-2.2-1.3-3.8-1.3c-1.8,0-3.6,0.7-4.9,2c-1.6,1.3-2.5,3.1-2.7,5.4c-0.2,0.7-0.2,1.1-0.2,1.8c0,1.8,0.4,3.1,1.6,4
			c0.9,0.9,2.2,1.3,3.8,1.3c1.8,0,3.6-0.7,4.9-2c1.6-1.3,2.5-3.1,2.7-5.4C550.1,630.7,550.1,630,550.1,629.5z"/>
		<path class="st0" d="M586.7,602.6l-8.3,46.3H566l8.3-46.3H586.7z"/>
		<path class="st0" d="M602,635.6c0,0.2,0,0.4,0,0.7c0,0.7,0.2,1.1,0.7,1.6c0.4,0.4,1.1,0.4,2,0.4h3.6l-1.8,10.6h-5.6
			c-7.6,0-11.5-3.1-11.5-9.7c0-1.1,0.2-2.2,0.4-3.6l2-11.7h-4.3l1.8-10.1h4.3l1.6-8.5h12.4l-1.6,8.5h6.3l-1.8,10.1h-6.3L602,635.6z"
			/>
		<path class="st0" d="M649.2,616.3c2,2,2.9,4.7,2.9,8.3c0,1.1-0.2,2.5-0.4,3.8l-3.6,20.4h-12.4L639,630c0.2-0.7,0.2-1.1,0.2-1.8
			c0-1.6-0.4-2.7-1.3-3.6c-0.9-0.9-2-1.3-3.6-1.3c-1.8,0-3.1,0.4-4.5,1.6c-1.1,1.1-2,2.5-2.5,4.3l-3.4,19.3h-12.4l8.3-46.3h12.4
			l-2.9,16.2c1.3-1.6,3.1-2.9,5.2-3.8s4.3-1.6,6.7-1.6C644.7,613.4,647.4,614.3,649.2,616.3z"/>
	</g>
	<g>
		<path class="st0" d="M221,623.7c-1.1,2-2.7,3.6-4.9,4.7c-2.2,1.1-5.2,1.8-8.8,1.8h-7.9V648h-7.2v-43.6h15.1c3.4,0,6.1,0.7,8.5,1.8
			c2.2,1.1,4,2.7,5.2,4.7c1.1,2,1.8,4,1.8,6.5C222.6,619.6,221.9,621.7,221,623.7z M213.1,622.6c1.3-1.1,2-2.9,2-5.2
			c0-4.7-2.7-7.2-8.1-7.2h-7.9v14.2h7.9C209.7,624.4,211.8,623.9,213.1,622.6z"/>
		<path class="st0" d="M240.5,614.3c1.8-0.9,3.8-1.6,6.1-1.6v7.4h-1.8c-2.7,0-4.9,0.7-6.3,2c-1.3,1.3-2.2,3.8-2.2,7.4v18.2h-7.2
			v-34.4h7.2v4.9C237.4,616.7,239,615.4,240.5,614.3z"/>
		<path class="st0" d="M253.8,607.5c-0.9-0.9-1.3-2-1.3-3.1c0-1.3,0.4-2.5,1.3-3.1c0.9-0.9,2-1.3,3.1-1.3c1.3,0,2.2,0.4,3.1,1.3
			c0.9,0.9,1.3,2,1.3,3.1c0,1.3-0.4,2.5-1.3,3.1c-0.9,0.9-2,1.3-3.1,1.3C255.6,608.9,254.7,608.4,253.8,607.5z M260.5,613.4V648
			h-7.2v-34.6H260.5z"/>
		<path class="st0" d="M283.2,641.4l9.7-28.1h7.6L287.3,648h-8.5l-13-34.6h7.6L283.2,641.4z"/>
		<path class="st0" d="M305.7,621.2c1.3-2.7,3.4-4.7,5.8-6.3c2.5-1.6,5.2-2.2,8.3-2.2c2.7,0,5.2,0.4,7.2,1.6c2,1.1,3.6,2.5,4.9,4
			v-4.9h7.2V648H332v-5.2c-1.1,1.6-2.9,2.9-4.9,4c-2,1.1-4.5,1.6-7.2,1.6c-2.9,0-5.6-0.7-8.1-2.2c-2.5-1.6-4.5-3.6-5.8-6.3
			s-2.2-5.8-2.2-9.2C303.7,627.1,304.3,623.9,305.7,621.2z M330.4,624.4c-0.9-1.8-2.2-3.1-3.8-4s-3.4-1.3-5.2-1.3
			c-1.8,0-3.6,0.4-5.2,1.3c-1.6,0.9-2.9,2.2-3.8,4c-0.9,1.8-1.6,3.8-1.6,6.1c0,2.5,0.4,4.5,1.6,6.3c0.9,1.8,2.2,3.1,3.8,4
			c1.6,0.9,3.4,1.3,5.2,1.3c1.8,0,3.6-0.4,5.2-1.3c1.6-0.9,2.9-2.2,3.8-4c0.9-1.8,1.6-3.8,1.6-6.3
			C331.8,628.2,331.3,626.2,330.4,624.4z"/>
		<path class="st0" d="M356.7,619.2v19.1c0,1.3,0.2,2.2,0.9,2.7s1.6,0.9,3.1,0.9h4.5v5.8h-5.6c-3.1,0-5.6-0.7-7.4-2.2
			c-1.8-1.6-2.5-4-2.5-7.4V619h-4.3v-5.6h4v-8.5h7.2v8.5h8.3v5.8H356.7z"/>
		<path class="st0" d="M403.2,633.4h-26.3c0.2,2.7,1.1,4.9,3.1,6.7c1.8,1.6,4,2.5,6.7,2.5c3.8,0,6.5-1.6,8.1-4.7h7.6
			c-1.1,3.1-2.9,5.8-5.6,7.9c-2.7,2-6.1,3.1-10.1,3.1c-3.4,0-6.3-0.7-8.8-2.2c-2.7-1.6-4.7-3.6-6.1-6.3c-1.6-2.7-2.2-5.8-2.2-9.4
			c0-3.6,0.7-6.7,2.2-9.4c1.3-2.7,3.4-4.7,6.1-6.3c2.7-1.6,5.6-2.2,9-2.2c3.1,0,6.1,0.7,8.8,2c2.5,1.3,4.5,3.4,5.8,6.1
			c1.3,2.7,2,5.6,2,8.8C403.4,631.1,403.2,632.2,403.2,633.4z M395.8,627.5c0-2.7-0.9-4.7-2.9-6.3c-1.8-1.6-4-2.5-6.7-2.5
			c-2.5,0-4.5,0.7-6.3,2.2s-2.7,3.6-3.1,6.3h19.1V627.5z"/>
	</g>
	<g>
		<path class="st0" d="M698.3,619.3H692v28.8h-7.2v-28.8h-4v-5.8h4V611c0-4,1.1-7,3.1-8.8c2-1.8,5.4-2.7,9.9-2.7v5.8
			c-2.2,0-3.6,0.4-4.5,1.1c-0.9,0.9-1.3,2.2-1.3,4.3v2.5h6.3L698.3,619.3L698.3,619.3z"/>
		<path class="st0" d="M710.9,646.5c-2.7-1.6-4.7-3.6-6.3-6.3c-1.6-2.7-2.2-5.8-2.2-9.4c0-3.6,0.7-6.5,2.2-9.4
			c1.6-2.7,3.6-4.7,6.3-6.3c2.7-1.3,5.6-2.2,9-2.2s6.3,0.7,9,2.2c2.7,1.6,4.7,3.6,6.3,6.3c1.6,2.7,2.2,5.8,2.2,9.4
			c0,3.6-0.9,6.5-2.5,9.4c-1.6,2.7-3.8,4.7-6.5,6.3c-2.7,1.6-5.8,2.2-9,2.2C716.5,648.5,713.6,647.9,710.9,646.5z M724.8,641.1
			c1.6-0.9,2.9-2.2,3.8-4c0.9-1.8,1.6-3.8,1.6-6.3s-0.4-4.7-1.3-6.3c-0.9-1.8-2.2-3.1-3.8-3.8c-1.6-0.9-3.4-1.3-5.2-1.3
			c-1.8,0-3.6,0.4-5.2,1.3c-1.6,0.9-2.9,2.2-3.8,3.8c-0.9,1.8-1.3,3.8-1.3,6.3c0,3.8,0.9,6.5,2.9,8.5c1.8,2,4.3,3.1,7.2,3.1
			C721.4,642.5,723.2,642,724.8,641.1z"/>
		<path class="st0" d="M756,614.4c1.8-0.9,3.8-1.6,6.1-1.6v7.4h-1.8c-2.7,0-4.9,0.7-6.3,2c-1.3,1.3-2.2,3.8-2.2,7.4v18.2h-7.2v-34.4
			h7.2v4.9C752.9,616.9,754.2,615.5,756,614.4z"/>
		<path class="st0" d="M784.8,621.4c1.3-2.7,3.4-4.7,5.8-6.3c2.5-1.6,5.2-2.2,8.3-2.2c2.7,0,5.2,0.4,7.2,1.6c2,1.1,3.6,2.5,4.9,4
			v-4.9h7.2v34.6h-7.2v-5.2c-1.1,1.6-2.9,2.9-4.9,4c-2,1.1-4.5,1.6-7.2,1.6c-2.9,0-5.6-0.7-8.1-2.2s-4.5-3.6-5.8-6.3
			c-1.3-2.7-2.2-5.8-2.2-9.2C782.5,627.2,783.4,624.1,784.8,621.4z M809.5,624.5c-0.9-1.8-2.2-3.1-3.8-4c-1.6-0.9-3.4-1.3-5.2-1.3
			s-3.6,0.4-5.2,1.3c-1.6,0.9-2.9,2.2-3.8,4c-0.9,1.8-1.6,3.8-1.6,6.1c0,2.5,0.4,4.5,1.6,6.3c0.9,1.8,2.2,3.1,3.8,4
			c1.6,0.9,3.4,1.3,5.2,1.3s3.6-0.4,5.2-1.3c1.6-0.9,2.9-2.2,3.8-4c0.9-1.8,1.6-3.8,1.6-6.3C810.8,628.3,810.4,626.3,809.5,624.5z"
			/>
		<path class="st0" d="M834.7,601.8v46.3h-7.2v-46.3H834.7z"/>
		<path class="st0" d="M851.1,601.8v46.3h-7v-46.3H851.1z"/>
	</g>
</g>
</svg>
