<?xml version="1.0" encoding="utf-8"?>
<!-- Generator: Adobe Illustrator 26.2.1, SVG Export Plug-In . SVG Version: 6.00 Build 0)  -->
<svg version="1.1" id="uuid-7a21642a-307e-bfac-45df33a25ee0"
	 xmlns="http://www.w3.org/2000/svg" xmlns:xlink="http://www.w3.org/1999/xlink" x="0px" y="0px" viewBox="0 0 484.4 80"
	 style="enable-background:new 0 0 484.4 80;" xml:space="preserve">
<path style="fill:#1E1E1C;" d="M5,23.7c3-5.5,7.2-9.7,12.6-12.8c5.4-3,11.5-4.6,18.3-4.6c8.3,0,15.6,2.2,21.5,6.6
	c6,4.5,10,10.5,12,18.1H50.5c-1.4-3-3.4-5.2-6-6.7c-2.6-1.5-5.5-2.4-8.8-2.4c-5.4,0-9.6,1.9-12.8,5.5c-3.2,3.7-5,8.6-5,14.8
	s1.6,11.1,5,14.8c3.2,3.7,7.6,5.5,12.8,5.5c3.2,0,6.2-0.7,8.8-2.4c2.6-1.5,4.6-3.7,6-6.7h18.9c-2,7.6-6,13.7-12,18.1
	S44.3,78,35.9,78c-6.8,0-12.9-1.5-18.3-4.6C12.3,70.4,8,66,5,60.7c-3-5.5-4.5-11.6-4.5-18.6C0.6,35.4,2.1,29.2,5,23.7z"/>
<path style="fill:#1E1E1C;" d="M99.9,2.2v75.6H84V2.2H99.9z"/>
<path style="fill:#1E1E1C;" d="M114.5,17.8c-1.7-1.6-2.7-3.7-2.7-6.1c0-2.5,0.9-4.5,2.7-6.2c1.7-1.6,4-2.4,6.8-2.4s5,0.8,6.8,2.4
	c1.7,1.6,2.7,3.7,2.7,6.2c0,2.4-0.9,4.5-2.7,6.1c-1.7,1.6-4,2.4-6.8,2.4C118.5,20.3,116.2,19.4,114.5,17.8z M129.3,25.6v52.1h-15.9
	V25.6H129.3z"/>
<path style="fill:#1E1E1C;" d="M189,31.1c3.6,3.9,5.4,9.4,5.4,16.3v30.4h-15.8V49.4c0-3.5-0.9-6.2-2.7-8.1c-1.8-2-4.3-2.9-7.3-2.9
	c-3,0-5.4,0.9-7.3,2.9c-1.8,2-2.7,4.6-2.7,8.1v28.3h-15.9V25.6h15.8v6.9c1.6-2.3,3.8-4.2,6.6-5.4c2.8-1.4,5.8-2,9.2-2
	C180.5,25.2,185.4,27.1,189,31.1z"/>
<path style="fill:#1E1E1C;" d="M207.6,37.5c2.2-4,5.3-7.2,9.2-9.4c3.9-2.2,8.4-3.2,13.5-3.2c6.6,0,12,1.7,16.4,5.1
	c4.4,3.5,7.3,8.2,8.7,14.4h-17c-1.4-3.9-4.2-6-8.3-6c-2.9,0-5.2,1.2-7,3.3c-1.7,2.3-2.7,5.5-2.7,9.7c0,4.3,0.9,7.5,2.7,9.7
	c1.7,2.3,4,3.3,7,3.3c4.2,0,6.8-2,8.3-6h17c-1.4,6.1-4.3,10.9-8.7,14.3c-4.4,3.5-9.8,5.2-16.3,5.2c-5.1,0-9.6-1-13.5-3.2
	c-3.9-2.2-7-5.3-9.2-9.4c-2.2-4-3.3-8.8-3.3-14.2C204.2,46.3,205.4,41.6,207.6,37.5z"/>
<path style="fill:#1E1E1C;" d="M312.1,31.1c3.6,3.9,5.4,9.4,5.4,16.3v30.4h-15.8V49.4c0-3.5-0.9-6.2-2.7-8.1c-1.8-2-4.3-2.9-7.3-2.9
	c-3,0-5.4,0.9-7.3,2.9c-1.8,2-2.7,4.6-2.7,8.1v28.3h-15.9V2.2h15.9v30.5c1.6-2.3,3.8-4.2,6.6-5.5c2.8-1.4,5.9-2.1,9.5-2.1
	C303.7,25.2,308.4,27.1,312.1,31.1z"/>
<path style="fill:#1E1E1C;" d="M410.6,34l-6.7,15.6h-6.1l-0.5-9.5l-3.9,9.5h-6.1L386,34h5.5l-0.1,10.4l4.2-10.4h5.8l0.6,10.4
	l3.6-10.4H410.6z"/>
<path style="fill:#1E1E1C;" d="M424.2,35.5c1.2,1.1,1.8,2.6,1.8,4.5c0,0.6,0,1.2-0.1,1.7c-0.1,0.6-0.2,1-0.3,1.3h-10.3
	c0,0.1,0,0.3,0,0.5c0,0.7,0.2,1.2,0.5,1.6c0.3,0.3,0.8,0.5,1.4,0.5c0.9,0,1.6-0.4,2.2-1.2h5.8c-0.4,1.1-1.1,2-1.9,2.9
	c-0.8,0.8-1.8,1.5-3,2c-1.1,0.5-2.4,0.7-3.6,0.7c-2,0-3.7-0.6-4.9-1.7c-1.2-1.1-1.8-2.6-1.8-4.6c0-0.6,0.1-1.1,0.2-1.8
	c0.3-1.6,0.9-3.1,1.8-4.3c0.9-1.2,2-2.1,3.3-2.8c1.3-0.7,2.7-1,4.3-1C421.3,33.9,423,34.4,424.2,35.5z M420.5,40
	c0-0.6-0.2-1-0.6-1.4c-0.4-0.3-0.9-0.5-1.4-0.5c-0.7,0-1.3,0.2-1.8,0.6c-0.5,0.4-0.9,1-1.1,1.7h4.9C420.5,40.2,420.5,40.1,420.5,40z
	"/>
<path style="fill:#1E1E1C;" d="M428.7,37.6c0.8-1.2,1.8-2.1,2.9-2.8c1.1-0.7,2.3-1,3.6-1c1.1,0,2,0.2,2.7,0.6c0.7,0.4,1.2,1,1.5,1.7
	l0.4-2.2h5.5l-2.8,15.6H437l0.4-2.2c-0.5,0.7-1.2,1.3-2.1,1.7c-0.9,0.4-1.8,0.6-2.9,0.6c-1.6,0-2.9-0.5-3.9-1.6
	c-1-1.1-1.5-2.6-1.5-4.4c0-0.6,0.1-1.3,0.2-2C427.4,40.2,427.9,38.8,428.7,37.6z M438.4,41.1c0-0.8-0.2-1.4-0.7-1.8
	c-0.4-0.4-1-0.6-1.7-0.6c-0.8,0-1.6,0.3-2.2,0.9c-0.7,0.6-1.1,1.4-1.2,2.4c-0.1,0.3-0.1,0.5-0.1,0.8c0,0.8,0.2,1.4,0.7,1.8
	c0.4,0.4,1,0.6,1.7,0.6c0.8,0,1.6-0.3,2.2-0.9c0.7-0.6,1.1-1.4,1.2-2.4C438.4,41.6,438.4,41.3,438.4,41.1z"/>
<path style="fill:#1E1E1C;" d="M454.7,29.1L451,49.7h-5.5l3.7-20.6H454.7z"/>
<path style="fill:#1E1E1C;" d="M461.5,43.8c0,0.1,0,0.2,0,0.3c0,0.3,0.1,0.5,0.3,0.7s0.5,0.2,0.9,0.2h1.6l-0.8,4.7H461
	c-3.4,0-5.1-1.4-5.1-4.3c0-0.5,0.1-1,0.2-1.6l0.9-5.2h-1.9l0.8-4.5h1.9l0.7-3.8h5.5l-0.7,3.8h2.8l-0.8,4.5h-2.8L461.5,43.8z"/>
<path style="fill:#1E1E1C;" d="M482.5,35.2c0.9,0.9,1.3,2.1,1.3,3.7c0,0.5-0.1,1.1-0.2,1.7l-1.6,9.1h-5.5l1.5-8.4
	c0.1-0.3,0.1-0.5,0.1-0.8c0-0.7-0.2-1.2-0.6-1.6c-0.4-0.4-0.9-0.6-1.6-0.6c-0.8,0-1.4,0.2-2,0.7c-0.5,0.5-0.9,1.1-1.1,1.9l-1.5,8.6
	h-5.5l3.7-20.6h5.5l-1.3,7.2c0.6-0.7,1.4-1.3,2.3-1.7c0.9-0.4,1.9-0.7,3-0.7C480.5,33.9,481.7,34.3,482.5,35.2z"/>
<path style="fill:#1E1E1C;" d="M399.6,12.6c-0.5,0.9-1.2,1.6-2.2,2.1c-1,0.5-2.3,0.8-3.9,0.8h-3.5v7.9h-3.2V4h6.7
	c1.5,0,2.7,0.3,3.8,0.8c1,0.5,1.8,1.2,2.3,2.1c0.5,0.9,0.8,1.8,0.8,2.9C400.3,10.8,400,11.7,399.6,12.6z M396.1,12.1
	c0.6-0.5,0.9-1.3,0.9-2.3c0-2.1-1.2-3.2-3.6-3.2h-3.5v6.3h3.5C394.6,12.9,395.5,12.7,396.1,12.1z"/>
<path style="fill:#1E1E1C;" d="M408.3,8.4c0.8-0.4,1.7-0.7,2.7-0.7v3.3h-0.8c-1.2,0-2.2,0.3-2.8,0.9c-0.6,0.6-1,1.7-1,3.3v8.1h-3.2
	V8h3.2v2.2C406.9,9.5,407.6,8.9,408.3,8.4z"/>
<path style="fill:#1E1E1C;" d="M414.2,5.4c-0.4-0.4-0.6-0.9-0.6-1.4c0-0.6,0.2-1.1,0.6-1.4c0.4-0.4,0.9-0.6,1.4-0.6
	c0.6,0,1,0.2,1.4,0.6s0.6,0.9,0.6,1.4c0,0.6-0.2,1.1-0.6,1.4c-0.4,0.4-0.9,0.6-1.4,0.6C415,6,414.6,5.8,414.2,5.4z M417.2,8v15.4
	H414V8H417.2z"/>
<path style="fill:#1E1E1C;" d="M427.3,20.5L431.6,8h3.4l-5.9,15.4h-3.8L419.5,8h3.4L427.3,20.5z"/>
<path style="fill:#1E1E1C;" d="M437.3,11.5c0.6-1.2,1.5-2.1,2.6-2.8c1.1-0.7,2.3-1,3.7-1c1.2,0,2.3,0.2,3.2,0.7
	c0.9,0.5,1.6,1.1,2.2,1.8V8h3.2v15.4h-3.2v-2.3c-0.5,0.7-1.3,1.3-2.2,1.8c-0.9,0.5-2,0.7-3.2,0.7c-1.3,0-2.5-0.3-3.6-1
	c-1.1-0.7-2-1.6-2.6-2.8c-0.6-1.2-1-2.6-1-4.1C436.4,14.1,436.7,12.7,437.3,11.5z M448.3,12.9c-0.4-0.8-1-1.4-1.7-1.8
	c-0.7-0.4-1.5-0.6-2.3-0.6c-0.8,0-1.6,0.2-2.3,0.6c-0.7,0.4-1.3,1-1.7,1.8c-0.4,0.8-0.7,1.7-0.7,2.7c0,1.1,0.2,2,0.7,2.8
	c0.4,0.8,1,1.4,1.7,1.8c0.7,0.4,1.5,0.6,2.3,0.6c0.8,0,1.6-0.2,2.3-0.6c0.7-0.4,1.3-1,1.7-1.8c0.4-0.8,0.7-1.7,0.7-2.8
	C448.9,14.6,448.7,13.7,448.3,12.9z"/>
<path style="fill:#1E1E1C;" d="M460,10.6v8.5c0,0.6,0.1,1,0.4,1.2s0.7,0.4,1.4,0.4h2v2.6h-2.5c-1.4,0-2.5-0.3-3.3-1
	c-0.8-0.7-1.1-1.8-1.1-3.3v-8.5H455V8h1.8V4.2h3.2V8h3.7v2.6H460z"/>
<path style="fill:#1E1E1C;" d="M480.7,16.9h-11.7c0.1,1.2,0.5,2.2,1.4,3c0.8,0.7,1.8,1.1,3,1.1c1.7,0,2.9-0.7,3.6-2.1h3.4
	c-0.5,1.4-1.3,2.6-2.5,3.5c-1.2,0.9-2.7,1.4-4.5,1.4c-1.5,0-2.8-0.3-3.9-1c-1.2-0.7-2.1-1.6-2.7-2.8c-0.7-1.2-1-2.6-1-4.2
	c0-1.6,0.3-3,1-4.2c0.6-1.2,1.5-2.1,2.7-2.8c1.2-0.7,2.5-1,4-1c1.4,0,2.7,0.3,3.9,0.9c1.1,0.6,2,1.5,2.6,2.7s0.9,2.5,0.9,3.9
	C480.8,15.9,480.7,16.4,480.7,16.9z M477.4,14.3c0-1.2-0.4-2.1-1.3-2.8c-0.8-0.7-1.8-1.1-3-1.1c-1.1,0-2,0.3-2.8,1
	c-0.8,0.7-1.2,1.6-1.4,2.8H477.4z"/>
<path style="fill:#1E1E1C;" d="M393.1,64h-2.8v12.8h-3.2V64h-1.8v-2.6h1.8v-1.1c0-1.8,0.5-3.1,1.4-3.9c0.9-0.8,2.4-1.2,4.4-1.2v2.6
	c-1,0-1.6,0.2-2,0.5c-0.4,0.4-0.6,1-0.6,1.9v1.1h2.8V64z"/>
<path style="fill:#1E1E1C;" d="M398.7,76.1c-1.2-0.7-2.1-1.6-2.8-2.8s-1-2.6-1-4.2c0-1.6,0.3-2.9,1-4.2c0.7-1.2,1.6-2.1,2.8-2.8
	c1.2-0.6,2.5-1,4-1c1.5,0,2.8,0.3,4,1c1.2,0.7,2.1,1.6,2.8,2.8c0.7,1.2,1,2.6,1,4.2c0,1.6-0.4,2.9-1.1,4.2c-0.7,1.2-1.7,2.1-2.9,2.8
	c-1.2,0.7-2.6,1-4,1C401.2,77,399.9,76.7,398.7,76.1z M404.9,73.7c0.7-0.4,1.3-1,1.7-1.8c0.4-0.8,0.7-1.7,0.7-2.8
	c0-1.1-0.2-2.1-0.6-2.8c-0.4-0.8-1-1.4-1.7-1.7c-0.7-0.4-1.5-0.6-2.3-0.6c-0.8,0-1.6,0.2-2.3,0.6c-0.7,0.4-1.3,1-1.7,1.7
	c-0.4,0.8-0.6,1.7-0.6,2.8c0,1.7,0.4,2.9,1.3,3.8c0.8,0.9,1.9,1.4,3.2,1.4C403.4,74.3,404.2,74.1,404.9,73.7z"/>
<path style="fill:#1E1E1C;" d="M418.8,61.8c0.8-0.4,1.7-0.7,2.7-0.7v3.3h-0.8c-1.2,0-2.2,0.3-2.8,0.9c-0.6,0.6-1,1.7-1,3.3v8.1h-3.2
	V61.4h3.2v2.2C417.4,62.9,418,62.3,418.8,61.8z"/>
<path style="fill:#1E1E1C;" d="M431.6,64.9c0.6-1.2,1.5-2.1,2.6-2.8c1.1-0.7,2.3-1,3.7-1c1.2,0,2.3,0.2,3.2,0.7
	c0.9,0.5,1.6,1.1,2.2,1.8v-2.2h3.2v15.4h-3.2v-2.3c-0.5,0.7-1.3,1.3-2.2,1.8c-0.9,0.5-2,0.7-3.2,0.7c-1.3,0-2.5-0.3-3.6-1
	c-1.1-0.7-2-1.6-2.6-2.8c-0.6-1.2-1-2.6-1-4.1C430.6,67.5,431,66.1,431.6,64.9z M442.6,66.3c-0.4-0.8-1-1.4-1.7-1.8
	c-0.7-0.4-1.5-0.6-2.3-0.6c-0.8,0-1.6,0.2-2.3,0.6c-0.7,0.4-1.3,1-1.7,1.8c-0.4,0.8-0.7,1.7-0.7,2.7c0,1.1,0.2,2,0.7,2.8
	c0.4,0.8,1,1.4,1.7,1.8c0.7,0.4,1.5,0.6,2.3,0.6c0.8,0,1.6-0.2,2.3-0.6c0.7-0.4,1.3-1,1.7-1.8c0.4-0.8,0.7-1.7,0.7-2.8
	C443.2,68,443,67.1,442.6,66.3z"/>
<path style="fill:#1E1E1C;" d="M453.8,56.2v20.6h-3.2V56.2H453.8z"/>
<path style="fill:#1E1E1C;" d="M461.1,56.2v20.6H458V56.2H461.1z"/>
<g>
	<rect x="354.1" y="1.9" style="fill:#1E1E1C;" width="3" height="76.2"/>
</g>
</svg>
