<?xml version="1.0" encoding="utf-8"?>
<!-- Generator: Adobe Illustrator 27.0.0, SVG Export Plug-In . SVG Version: 6.00 Build 0)  -->
<svg version="1.1" id="uuid-7a21642a-307e-4864-bfac-45df33a25ee0"
	 xmlns="http://www.w3.org/2000/svg" xmlns:xlink="http://www.w3.org/1999/xlink" x="0px" y="0px" viewBox="0 0 358.5 80"
	 style="enable-background:new 0 0 358.5 80;" xml:space="preserve">
<path style="fill:#23130A;" d="M92.5,24.7c2.4-4.4,5.8-7.8,10.1-10.3c4.3-2.4,9.2-3.7,14.7-3.7c6.7,0,12.5,1.8,17.3,5.3
	c4.8,3.6,8,8.4,9.6,14.5H129c-1.1-2.4-2.7-4.2-4.8-5.4c-2.1-1.2-4.4-1.9-7.1-1.9c-4.3,0-7.7,1.5-10.3,4.4c-2.6,3-4,6.9-4,11.9
	s1.3,8.9,4,11.9c2.6,3,6.1,4.4,10.3,4.4c2.6,0,5-0.6,7.1-1.9c2.1-1.2,3.7-3,4.8-5.4h15.2c-1.6,6.1-4.8,11-9.6,14.5
	s-10.6,5.3-17.3,5.3c-5.5,0-10.4-1.2-14.7-3.7c-4.3-2.4-7.7-5.9-10.1-10.2c-2.4-4.4-3.6-9.3-3.6-14.9C88.9,34.1,90.1,29.1,92.5,24.7
	z"/>
<path style="fill:#23130A;" d="M168.2,8.3v59.8h-13.8V8.3H168.2z"/>
<path style="fill:#23130A;" d="M180.8,16.2c-1.5-1.4-2.3-3.2-2.3-5.3c0-2.2,0.8-3.9,2.3-5.4c1.5-1.4,3.5-2.1,5.9-2.1
	s4.3,0.7,5.9,2.1c1.5,1.4,2.3,3.2,2.3,5.4c0,2.1-0.8,3.9-2.3,5.3s-3.5,2.1-5.9,2.1C184.3,18.4,182.3,17.6,180.8,16.2z M193.6,23
	v45.1h-13.8V23H193.6z"/>
<path style="fill:#23130A;" d="M245.3,27.7c3.1,3.4,4.7,8.1,4.7,14.1v26.3h-13.7V43.6c0-3-0.8-5.4-2.3-7c-1.6-1.7-3.7-2.5-6.3-2.5
	c-2.6,0-4.7,0.8-6.3,2.5s-2.3,4-2.3,7v24.5h-13.8V23H219v6c1.4-2,3.3-3.6,5.7-4.7c2.4-1.2,5-1.7,8-1.7
	C238,22.6,242.2,24.3,245.3,27.7z"/>
<path style="fill:#23130A;" d="M261.4,33.3c1.9-3.5,4.6-6.2,8-8.1s7.3-2.8,11.7-2.8c5.7,0,10.4,1.5,14.2,4.4c3.8,3,6.3,7.1,7.5,12.5
	h-14.7c-1.2-3.4-3.6-5.2-7.2-5.2c-2.5,0-4.5,1-6.1,2.9c-1.5,2-2.3,4.8-2.3,8.4c0,3.7,0.8,6.5,2.3,8.4c1.5,2,3.5,2.9,6.1,2.9
	c3.6,0,5.9-1.7,7.2-5.2h14.7c-1.2,5.3-3.7,9.4-7.5,12.4s-8.5,4.5-14.1,4.5c-4.4,0-8.3-0.9-11.7-2.8c-3.4-1.9-6.1-4.6-8-8.1
	s-2.9-7.6-2.9-12.3C258.5,40.9,259.5,36.8,261.4,33.3z"/>
<path style="fill:#23130A;" d="M351.9,27.7c3.1,3.4,4.7,8.1,4.7,14.1v26.3h-13.7V43.6c0-3-0.8-5.4-2.3-7c-1.6-1.7-3.7-2.5-6.3-2.5
	c-2.6,0-4.7,0.8-6.3,2.5c-1.6,1.7-2.3,4-2.3,7v24.5h-13.8V8.3h13.8v20.8c1.4-2,3.3-3.6,5.7-4.8c2.4-1.2,5.1-1.8,8.2-1.8
	C344.6,22.6,348.7,24.3,351.9,27.7z"/>
<path style="fill:#484B4C;" d="M2,43.4c1.4-0.7,2.8-1.4,4.3-2c0.2-0.1,0.6,0.1,0.9,0.3c6.4,4,12.8,8,19.2,12
	c1.2,0.7,2.1,0.8,3.3,0.1c3.4-2,6.9-3.8,10.3-5.7c0.3-0.1,0.5-0.3,0.9-0.5c0,1.7,0,3.3,0,4.9c0,0.2-0.3,0.4-0.5,0.5
	c-4,2.2-7.9,4.4-11.9,6.5c-0.2,0.1-0.6,0.1-0.8,0c-8.5-5.3-17-10.6-25.5-15.9C2.2,43.6,2.2,43.6,2,43.4z"/>
<path style="fill:#484B4C;" d="M40.9,66c0,1.7,0,3.3,0,4.8c0,0.2-0.2,0.5-0.4,0.6c-4,2.2-7.9,4.4-11.9,6.5c-0.2,0.1-0.6,0.1-0.8,0
	c-8.5-5.3-17.1-10.6-25.6-16c0,0,0,0-0.1-0.1c1.4-0.7,2.8-1.4,4.3-2.1C6.6,59.6,7,59.8,7.3,60c6.4,4,12.8,8,19.2,12
	c1.2,0.7,2.1,0.8,3.3,0.1c3.4-1.9,6.8-3.8,10.2-5.6C40.2,66.3,40.4,66.2,40.9,66z"/>
<path style="fill:#484B4C;" d="M2,52.6c1.4-0.7,2.8-1.4,4.3-2.1c0.2-0.1,0.6,0.1,0.9,0.3c6.4,4,12.8,8,19.2,12
	c1.2,0.7,2.1,0.8,3.3,0.1c3.4-1.9,6.8-3.8,10.2-5.6c0.3-0.2,0.6-0.3,1-0.5c0,1.7,0,3.3,0,4.9c0,0.2-0.3,0.4-0.4,0.5
	c-4,2.2-7.9,4.4-11.9,6.5c-0.2,0.1-0.6,0.1-0.8,0c-8.5-5.3-17-10.6-25.5-15.9C2.2,52.8,2.1,52.7,2,52.6z"/>
<path style="fill:#484B4C;" d="M2,34.3c1.4-0.7,2.6-1.3,3.9-1.9c0.2-0.1,0.7,0.1,0.9,0.2c6.5,4,12.9,8,19.3,12.1
	c1.3,0.8,2.3,0.9,3.7,0.1c3.4-2,6.8-3.8,10.2-5.6c0.2-0.1,0.4-0.2,0.8-0.4c0,1.1-0.1,2,0,2.9c0.2,1.4-0.3,2.2-1.7,2.9
	c-3.6,1.8-7,3.8-10.5,5.7c-0.4,0.2-0.7,0.3-1.1,0C19.1,45,10.7,39.8,2.3,34.5C2.3,34.5,2.2,34.4,2,34.3z"/>
<path style="fill:#484B4C;" d="M65.3,39.4c0-1.7,0-3.3,0-4.9c0-0.2,0.2-0.4,0.4-0.5c1.4-0.8,2.8-1.6,4.3-2.4c0.2-0.1,0.5-0.1,0.7,0
	c1.4,0.8,2.8,1.6,4.4,2.5C71.8,35.8,68.6,37.6,65.3,39.4z"/>
<path style="fill:#484B4C;" d="M65.3,57.7c0-1.7,0-3.3,0-4.8c0-0.2,0.2-0.5,0.4-0.6c1.4-0.8,2.8-1.6,4.2-2.3
	c0.2-0.1,0.6-0.2,0.7-0.1c1.4,0.8,2.8,1.6,4.3,2.4C71.8,54.2,68.6,55.9,65.3,57.7z"/>
<path style="fill:#484B4C;" d="M65.3,48.5c0-1.7,0-3.3,0-4.8c0-0.2,0.2-0.5,0.4-0.6c1.4-0.8,2.8-1.6,4.2-2.3
	c0.2-0.1,0.5-0.2,0.7-0.1c1.5,0.8,2.9,1.6,4.4,2.5C71.8,45,68.6,46.7,65.3,48.5z"/>
<path style="fill:#484B4C;" d="M65.3,30.2c0-1.6,0-3.1,0-4.5c0-0.2,0.2-0.5,0.4-0.6c1.5-0.8,3-1.7,4.5-2.5c0.2-0.1,0.5-0.1,0.7-0.1
	c1.3,0.7,2.6,1.5,4.1,2.3C71.8,26.6,68.6,28.4,65.3,30.2z"/>
<path style="fill:#484B4C;" d="M38.9,35.1C31,29.9,23,24.8,15.1,19.6c-0.4-0.3-0.7-0.2-1.1,0c-3.8,1.9-7.6,3.7-11.4,5.6
	c-0.2,0.1-0.3,0.2-0.6,0.3c0.3,0.2,0.5,0.4,0.8,0.5c7.8,4.9,15.6,9.7,23.3,14.6c1.5,1,2.5,1,4,0.1c3-1.8,6.2-3.4,9.3-5.2
	C39.3,35.3,39.1,35.2,38.9,35.1z M22.4,32c-1,0-2.1-0.5-2.5-1.2s0.2-1.3,1.3-1.3c1.1,0,2.2,0.6,2.5,1.3C24,31.5,23.4,32,22.4,32z"/>
<path style="fill:#484B4C;" d="M70,13.1C63.5,9.5,57.1,5.8,50.7,2.2c-0.3-0.1-0.7-0.3-1-0.2c-3.2,1.5-6.3,3.1-9.6,4.7
	c0.2,0.1,0.3,0.2,0.4,0.3c7.6,4.9,15.2,9.8,22.8,14.8c0.4,0.3,0.8,0.2,1.2,0c3.3-1.8,6.6-3.6,9.9-5.4c0.2-0.1,0.3-0.2,0.6-0.4
	C73.3,15,71.6,14,70,13.1z M58.2,12.8c-1,0-2.1-0.5-2.5-1.2s0.2-1.3,1.3-1.3s2.2,0.6,2.5,1.3S59.2,12.8,58.2,12.8z"/>
<path style="fill:#39B54A;" d="M18.3,17.5c0.9-0.5,1.7-0.9,2.6-1.3c5-2.4,9.9-4.9,14.9-7.3c0.6-0.3,0.9-0.3,1.5,0.1
	c8,5.2,16,10.4,24,15.6c0.5,0.3,0.7,0.7,0.7,1.2c0,11,0,22,0,33.1c0,0.5-0.1,0.9-0.6,1.1c-5.5,3-10.9,6-16.4,9
	c-0.1,0.1-0.2,0.1-0.5,0.2c0-0.4,0-0.7,0-1c0-10.7,0-21.4,0-32.2c0-1.1-0.4-1.8-1.3-2.4c-8-5.2-16-10.4-24-15.6
	C18.8,17.9,18.6,17.7,18.3,17.5z"/>
</svg>
