<?xml version="1.0" encoding="utf-8"?>
<!-- Generator: Adobe Illustrator 27.0.0, SVG Export Plug-In . SVG Version: 6.00 Build 0)  -->
<svg version="1.1" id="uuid-7a21642a-307e-bfac-45df33a25ee0"
	 xmlns="http://www.w3.org/2000/svg" xmlns:xlink="http://www.w3.org/1999/xlink" x="0px" y="0px" viewBox="0 0 324 80"
	 style="enable-background:new 0 0 324 80;" xml:space="preserve">
<path style="fill:#ffffff;" d="M5.4,26.5c2.9-5.3,7-9.4,12.1-12.4c5.2-2.9,11.1-4.4,17.7-4.4c8.1,0,15,2.2,20.8,6.4
	c5.8,4.3,9.6,10.1,11.5,17.4H49.3c-1.3-2.9-3.2-5-5.8-6.5c-2.5-1.4-5.3-2.3-8.5-2.3c-5.2,0-9.3,1.8-12.4,5.3
	c-3.1,3.6-4.8,8.3-4.8,14.3s1.6,10.7,4.8,14.3c3.1,3.6,7.3,5.3,12.4,5.3c3.1,0,6-0.7,8.5-2.3c2.5-1.4,4.4-3.6,5.8-6.5h18.3
	c-1.9,7.3-5.8,13.2-11.5,17.4c-5.8,4.2-12.7,6.4-20.8,6.4c-6.6,0-12.5-1.4-17.7-4.4c-5.2-2.9-9.3-7.1-12.1-12.3
	c-2.9-5.3-4.3-11.2-4.3-17.9C1.1,37.8,2.5,31.8,5.4,26.5z"/>
<path style="fill:#ffffff;" d="M96.4,6.8v71.9H79.8V6.8H96.4z"/>
<path style="fill:#ffffff;" d="M111.6,16.3c-1.8-1.7-2.8-3.8-2.8-6.4c0-2.6,1-4.7,2.8-6.5c1.8-1.7,4.2-2.5,7.1-2.5
	c2.9,0,5.2,0.8,7.1,2.5c1.8,1.7,2.8,3.8,2.8,6.5c0,2.5-1,4.7-2.8,6.4s-4.2,2.5-7.1,2.5C115.8,19,113.4,18,111.6,16.3z M127,24.5
	v54.2h-16.6V24.5H127z"/>
<path style="fill:#ffffff;" d="M189.1,30.1c3.7,4.1,5.6,9.7,5.6,16.9v31.6h-16.5V49.3c0-3.6-1-6.5-2.8-8.4c-1.9-2-4.4-3-7.6-3
	c-3.1,0-5.6,1-7.6,3c-1.9,2-2.8,4.8-2.8,8.4v29.5H141V24.5h16.5v7.2c1.7-2.4,4-4.3,6.9-5.6c2.9-1.4,6-2,9.6-2
	C180.3,24,185.4,26.1,189.1,30.1z"/>
<path style="fill:#ffffff;" d="M208.5,36.9c2.3-4.2,5.5-7.5,9.6-9.7c4.1-2.3,8.8-3.4,14.1-3.4c6.9,0,12.5,1.8,17.1,5.3
	c4.6,3.6,7.6,8.5,9,15h-17.7c-1.4-4.1-4.3-6.3-8.7-6.3c-3,0-5.4,1.2-7.3,3.5c-1.8,2.4-2.8,5.8-2.8,10.1c0,4.4,1,7.8,2.8,10.1
	c1.8,2.4,4.2,3.5,7.3,3.5c4.3,0,7.1-2,8.7-6.3h17.7c-1.4,6.4-4.4,11.3-9,14.9c-4.6,3.6-10.2,5.4-16.9,5.4c-5.3,0-10-1.1-14.1-3.4
	c-4.1-2.3-7.3-5.5-9.6-9.7c-2.3-4.2-3.5-9.1-3.5-14.8C205,46,206.2,41.1,208.5,36.9z"/>
<path style="fill:#ffffff;" d="M317.2,30.1c3.7,4.1,5.6,9.7,5.6,16.9v31.6h-16.5V49.3c0-3.6-1-6.5-2.8-8.4c-1.9-2-4.4-3-7.6-3
	c-3.1,0-5.6,1-7.6,3c-1.9,2-2.8,4.8-2.8,8.4v29.5h-16.6V6.8h16.6v25c1.7-2.4,4-4.3,6.9-5.8c2.9-1.4,6.1-2.2,9.9-2.2
	C308.5,24,313.4,26.1,317.2,30.1z"/>
</svg>
