<?xml version="1.0" encoding="UTF-8"?>
<svg id="uuid-7a21642a-307e-4864-bfac-45df33a25ee0" data-name="Layer 1" xmlns="http://www.w3.org/2000/svg" viewBox="0 0 394 80">
  <g>
    <path d="M118.52,24.7c2.42-4.39,5.8-7.8,10.13-10.25,4.33-2.45,9.24-3.67,14.74-3.67,6.73,0,12.49,1.78,17.28,5.33,4.79,3.55,7.99,8.4,9.61,14.53h-15.18c-1.13-2.37-2.73-4.17-4.8-5.41-2.07-1.24-4.43-1.86-7.07-1.86-4.25,0-7.7,1.48-10.34,4.44-2.64,2.96-3.96,6.92-3.96,11.87s1.32,8.91,3.96,11.87c2.64,2.96,6.08,4.44,10.34,4.44,2.64,0,4.99-.62,7.07-1.86,2.07-1.24,3.67-3.04,4.8-5.41h15.18c-1.61,6.14-4.82,10.97-9.61,14.49-4.79,3.53-10.55,5.29-17.28,5.29-5.49,0-10.4-1.22-14.74-3.67-4.33-2.45-7.71-5.85-10.13-10.21s-3.63-9.34-3.63-14.94,1.21-10.59,3.63-14.98Z" fill="#fff"/>
    <path d="M194.17,8.35v59.75h-13.81V8.35h13.81Z" fill="#fff"/>
    <path d="M206.81,16.22c-1.53-1.43-2.3-3.19-2.3-5.29s.77-3.94,2.3-5.37c1.53-1.43,3.51-2.14,5.93-2.14s4.32,.71,5.85,2.14c1.53,1.43,2.3,3.22,2.3,5.37s-.77,3.86-2.3,5.29c-1.53,1.43-3.49,2.14-5.85,2.14s-4.4-.71-5.93-2.14Zm12.8,6.82v45.05h-13.81V23.04h13.81Z" fill="#fff"/>
    <path d="M271.32,27.68c3.15,3.42,4.72,8.11,4.72,14.09v26.32h-13.73v-24.46c0-3.01-.78-5.36-2.34-7.02-1.56-1.67-3.66-2.5-6.3-2.5s-4.74,.84-6.3,2.5c-1.56,1.67-2.34,4.01-2.34,7.02v24.46h-13.81V23.04h13.81v5.97c1.4-1.99,3.28-3.56,5.65-4.72,2.37-1.16,5.03-1.74,7.99-1.74,5.27,0,9.49,1.71,12.64,5.13Z" fill="#fff"/>
    <path d="M287.39,33.3c1.91-3.5,4.57-6.19,7.99-8.07,3.42-1.88,7.33-2.83,11.75-2.83,5.65,0,10.38,1.48,14.17,4.44,3.79,2.96,6.28,7.13,7.47,12.51h-14.7c-1.24-3.44-3.63-5.17-7.19-5.17-2.53,0-4.55,.98-6.06,2.95-1.51,1.97-2.26,4.78-2.26,8.44s.75,6.47,2.26,8.44c1.51,1.97,3.53,2.95,6.06,2.95,3.55,0,5.95-1.72,7.19-5.17h14.7c-1.18,5.28-3.69,9.42-7.51,12.43-3.82,3.02-8.53,4.52-14.13,4.52-4.41,0-8.33-.94-11.75-2.83-3.42-1.88-6.08-4.57-7.99-8.07-1.91-3.5-2.87-7.59-2.87-12.27s.96-8.77,2.87-12.27Z" fill="#fff"/>
    <path d="M377.86,27.68c3.12,3.42,4.68,8.11,4.68,14.09v26.32h-13.73v-24.46c0-3.01-.78-5.36-2.34-7.02-1.56-1.67-3.66-2.5-6.3-2.5s-4.74,.84-6.3,2.5c-1.56,1.67-2.34,4.01-2.34,7.02v24.46h-13.81V8.35h13.81V29.1c1.4-1.99,3.31-3.58,5.73-4.76,2.42-1.18,5.14-1.78,8.16-1.78,5.17,0,9.31,1.71,12.43,5.13Z" fill="#fff"/>
  </g>
  <path d="M2.05,43.44c1.43-.7,2.83-1.41,4.26-2.05,.21-.09,.61,.14,.87,.3,6.41,3.99,12.82,7.96,19.19,12,1.16,.74,2.1,.79,3.3,.1,3.4-1.95,6.86-3.8,10.3-5.68,.26-.14,.52-.27,.92-.47,0,1.71,.01,3.31-.02,4.9,0,.17-.26,.4-.45,.5-3.96,2.19-7.92,4.36-11.89,6.52-.21,.11-.59,.11-.79-.01-8.51-5.29-17.01-10.6-25.51-15.91-.04-.03-.07-.08-.17-.2Z" fill="#b3b3b3"/>
  <path d="M40.88,65.96c0,1.73,.02,3.28-.02,4.83,0,.2-.24,.48-.44,.59-3.95,2.19-7.92,4.37-11.89,6.53-.21,.11-.6,.12-.79,0-8.54-5.31-17.06-10.64-25.59-15.97-.02-.01-.04-.04-.13-.14,1.44-.7,2.83-1.42,4.27-2.06,.21-.09,.61,.12,.87,.28,6.41,3.99,12.82,7.96,19.2,12.01,1.16,.73,2.09,.81,3.3,.11,3.37-1.94,6.82-3.77,10.23-5.64,.28-.15,.57-.31,1-.54Z" fill="#b3b3b3"/>
  <path d="M2.03,52.62c1.44-.7,2.84-1.42,4.27-2.06,.21-.09,.61,.13,.87,.29,6.41,3.99,12.82,7.96,19.19,12,1.16,.74,2.1,.79,3.3,.1,3.37-1.94,6.81-3.77,10.23-5.64,.28-.15,.56-.3,.99-.53,0,1.73,.01,3.32-.02,4.92,0,.17-.26,.4-.45,.51-3.96,2.19-7.92,4.36-11.89,6.52-.21,.11-.59,.11-.79-.01-8.51-5.29-17.02-10.61-25.52-15.92-.04-.03-.07-.07-.18-.18Z" fill="#b3b3b3"/>
  <path d="M2,34.29c1.37-.67,2.63-1.33,3.91-1.89,.24-.1,.67,.07,.94,.23,6.45,4.01,12.92,8,19.33,12.08,1.29,.82,2.32,.9,3.66,.11,3.36-1.96,6.81-3.77,10.22-5.64,.21-.12,.43-.22,.82-.42,0,1.05-.09,2,.02,2.92,.18,1.43-.33,2.21-1.66,2.88-3.57,1.81-7.04,3.81-10.54,5.75-.39,.21-.68,.29-1.11,.02-8.4-5.26-16.81-10.51-25.22-15.75-.09-.06-.17-.13-.38-.29Z" fill="#b3b3b3"/>
  <path d="M65.34,39.36c0-1.72-.01-3.3,.02-4.87,0-.18,.21-.43,.39-.53,1.42-.81,2.84-1.59,4.28-2.36,.18-.1,.5-.14,.66-.05,1.43,.78,2.83,1.59,4.37,2.46-3.28,1.8-6.45,3.54-9.72,5.34Z" fill="#b3b3b3"/>
  <path d="M65.34,57.7c0-1.71-.02-3.26,.02-4.81,0-.21,.22-.49,.41-.59,1.39-.79,2.8-1.56,4.21-2.31,.21-.11,.56-.17,.74-.07,1.43,.77,2.84,1.59,4.34,2.44-3.28,1.8-6.45,3.54-9.72,5.34Z" fill="#b3b3b3"/>
  <path d="M65.34,48.53c0-1.71-.02-3.26,.02-4.81,0-.21,.21-.49,.4-.6,1.39-.8,2.8-1.56,4.21-2.32,.19-.1,.51-.19,.67-.1,1.45,.78,2.88,1.61,4.42,2.48-3.27,1.8-6.42,3.53-9.73,5.35Z" fill="#b3b3b3"/>
  <path d="M65.34,30.19c0-1.62-.02-3.08,.02-4.55,0-.2,.24-.47,.44-.58,1.49-.84,2.99-1.67,4.5-2.47,.18-.1,.49-.15,.65-.06,1.33,.72,2.65,1.48,4.1,2.31-3.27,1.8-6.41,3.53-9.72,5.35Z" fill="#b3b3b3"/>
  <path d="M38.92,35.09c-7.95-5.17-15.9-10.33-23.84-15.51-.4-.26-.7-.24-1.11-.04-3.78,1.87-7.57,3.72-11.36,5.58-.18,.09-.34,.2-.58,.34,.31,.2,.53,.36,.75,.5,7.79,4.86,15.61,9.67,23.33,14.62,1.49,.95,2.54,1.02,4.04,.11,3.01-1.84,6.16-3.44,9.33-5.18-.23-.17-.4-.31-.57-.42Zm-16.55-3.04c-1.03,0-2.14-.53-2.49-1.21-.36-.7,.22-1.28,1.31-1.28s2.23,.58,2.52,1.28c.29,.67-.32,1.21-1.35,1.21Z" fill="#b3b3b3"/>
  <path d="M69.97,13.09c-6.43-3.63-12.85-7.26-19.29-10.87-.27-.15-.71-.28-.94-.17-3.17,1.51-6.32,3.06-9.57,4.66,.2,.14,.3,.23,.42,.3,7.59,4.92,15.18,9.84,22.76,14.77,.44,.29,.76,.23,1.18,0,3.29-1.82,6.58-3.63,9.87-5.44,.18-.1,.35-.22,.62-.39-1.74-.99-3.39-1.92-5.04-2.86Zm-11.79-.28c-1.03,0-2.14-.53-2.49-1.21-.36-.7,.22-1.28,1.31-1.28s2.23,.58,2.52,1.28c.29,.68-.32,1.21-1.35,1.21Z" fill="#b3b3b3"/>
  <path d="M18.26,17.47c.91-.46,1.73-.87,2.55-1.28,4.96-2.43,9.93-4.85,14.89-7.31,.55-.27,.95-.28,1.48,.07,7.99,5.2,16,10.39,24.01,15.56,.49,.32,.68,.66,.67,1.25-.02,11.02-.01,22.03,0,33.05,0,.49-.05,.86-.56,1.13-5.48,2.98-10.94,5.99-16.41,9-.12,.06-.24,.11-.5,.23v-1c0-10.72-.01-21.43,.02-32.15,0-1.1-.38-1.82-1.31-2.42-8.01-5.17-16-10.38-24-15.57-.24-.16-.48-.33-.83-.56Z" fill="#39b54a"/>
</svg>