<?xml version="1.0" encoding="UTF-8"?>
<svg xmlns="http://www.w3.org/2000/svg" xmlns:xlink="http://www.w3.org/1999/xlink" viewBox="0 0 600 1024">
  <defs>
    <clipPath id="uuid-407a060b-6555-4afb-bfea-d16511356d2f">
      <path d="M476.11,1001.77H118.73c-25.06,0-43.57-18.32-43.57-43.38l.58-892.78c0-25.06,21.79-43.38,46.85-43.38H479.98c25.06,0,43.57,18.32,43.57,43.38l-.58,892.78c0,25.06-21.79,43.38-46.85,43.38Z" fill="none"/>
    </clipPath>
    <radialGradient id="uuid-36d90a5c-e1ec-43c6-80f5-da4116e4fab7" cx="52.63" cy="1099.56" fx="52.63" fy="1099.56" r="597.52" gradientTransform="translate(253.4 -330.56) scale(1.18 .71)" gradientUnits="userSpaceOnUse">
      <stop offset=".07" stop-color="#218f00"/>
      <stop offset=".08" stop-color="#208c00"/>
      <stop offset=".3" stop-color="#145a00"/>
      <stop offset=".51" stop-color="#0b3300"/>
      <stop offset=".71" stop-color="#051700"/>
      <stop offset=".87" stop-color="#010600"/>
      <stop offset="1" stop-color="#000"/>
    </radialGradient>
    <radialGradient id="uuid-2a34b342-f520-4ee2-977c-9c29f6666dfa" cx="-2903.32" cy="-2677.98" fx="-2903.32" fy="-2677.98" r="15.15" gradientTransform="translate(-2223.13 -2818.12) rotate(-171.04)" gradientUnits="userSpaceOnUse">
      <stop offset="0" stop-color="#ab9377"/>
      <stop offset=".01" stop-color="#9b856c"/>
      <stop offset=".05" stop-color="#766652"/>
      <stop offset=".09" stop-color="#564a3c"/>
      <stop offset=".13" stop-color="#3b3329"/>
      <stop offset=".18" stop-color="#25201a"/>
      <stop offset=".24" stop-color="#14110e"/>
      <stop offset=".31" stop-color="#080706"/>
      <stop offset=".41" stop-color="#010101"/>
      <stop offset=".68" stop-color="#000"/>
    </radialGradient>
    <radialGradient id="uuid-d3bf7d7b-4790-4294-91a8-df6e8849098c" cx="-2802.33" cy="-2795.72" fx="-2802.33" fy="-2795.72" r="22.98" xlink:href="#uuid-2a34b342-f520-4ee2-977c-9c29f6666dfa"/>
    <radialGradient id="uuid-35b3be1e-11f6-44c5-a7c2-0b79c6bbedf5" cx="-2822.01" cy="-2914.2" fx="-2822.01" fy="-2914.2" r="25.98" xlink:href="#uuid-2a34b342-f520-4ee2-977c-9c29f6666dfa"/>
    <radialGradient id="uuid-424a2320-ed63-4122-b52d-235b4d397583" cx="-3266.62" cy="-2635.44" fx="-3266.62" fy="-2635.44" r="16.11" xlink:href="#uuid-2a34b342-f520-4ee2-977c-9c29f6666dfa"/>
    <radialGradient id="uuid-c706437b-9070-4442-819d-b2954a155ccb" cx="-3236.56" cy="-2835.93" fx="-3236.56" fy="-2835.93" r="50.57" gradientTransform="translate(-2065.44 -2943.42) rotate(-168.35)" xlink:href="#uuid-2a34b342-f520-4ee2-977c-9c29f6666dfa"/>
    <radialGradient id="uuid-1b7cf6d9-aab9-4338-887f-d5a7ff4c8270" cx="-3107.16" cy="-2857.8" fx="-3107.16" fy="-2857.8" r="21.24" xlink:href="#uuid-2a34b342-f520-4ee2-977c-9c29f6666dfa"/>
    <radialGradient id="uuid-d5969240-12a7-469f-b2d8-fc68fb1bf6a2" cx="-2980.66" cy="-2972.41" fx="-2980.66" fy="-2972.41" r="55.44" gradientTransform="translate(-2104.53 -2901.57) rotate(-169.06)" xlink:href="#uuid-2a34b342-f520-4ee2-977c-9c29f6666dfa"/>
    <radialGradient id="uuid-136f9fba-5f35-4df0-a0fd-d62b11d930bd" cx="-3218.18" cy="-2883.78" fx="-3218.18" fy="-2883.78" r="4.49" xlink:href="#uuid-2a34b342-f520-4ee2-977c-9c29f6666dfa"/>
    <radialGradient id="uuid-73cfee6a-05aa-439f-aeb9-05d28eabac22" cx="-2991.07" cy="-2888.85" fx="-2991.07" fy="-2888.85" r="13.88" xlink:href="#uuid-2a34b342-f520-4ee2-977c-9c29f6666dfa"/>
    <radialGradient id="uuid-ffb4b532-ca8e-4925-b135-77203230ea78" cx="-2863.21" cy="-2684.57" fx="-2863.21" fy="-2684.57" r="70.12" gradientTransform="translate(3193.09 -2243.7) rotate(-83.17)" xlink:href="#uuid-2a34b342-f520-4ee2-977c-9c29f6666dfa"/>
    <radialGradient id="uuid-effeda38-be7e-4638-864a-fe233b2a010a" cx="-2676.93" cy="-2625.16" fx="-2676.93" fy="-2625.16" r="50.11" gradientTransform="translate(246.98 -3549.93) rotate(-130.85)" xlink:href="#uuid-2a34b342-f520-4ee2-977c-9c29f6666dfa"/>
    <radialGradient id="uuid-a78fffc0-6315-4ab0-ba70-cbb05ec73bf2" cx="-3128.26" cy="-2608.29" fx="-3128.26" fy="-2608.29" r="38.54" xlink:href="#uuid-2a34b342-f520-4ee2-977c-9c29f6666dfa"/>
    <radialGradient id="uuid-5348acae-d4e1-45b3-b2f3-0891b7cfba21" cx="-3049.94" cy="-2782.72" fx="-3049.94" fy="-2782.72" r="18.29" xlink:href="#uuid-2a34b342-f520-4ee2-977c-9c29f6666dfa"/>
    <radialGradient id="uuid-a86c825e-5be2-4dc9-8641-34fa416b44b6" cx="-2753.68" cy="-2583.48" fx="-2753.68" fy="-2583.48" r="42.93" xlink:href="#uuid-2a34b342-f520-4ee2-977c-9c29f6666dfa"/>
    <radialGradient id="uuid-baea2a58-84f6-486d-8855-f573be8b0ea9" cx="-2764.94" cy="-2809.52" fx="-2764.94" fy="-2809.52" r="58.11" gradientTransform="translate(-439.54 -3520.89) rotate(-142.89)" xlink:href="#uuid-2a34b342-f520-4ee2-977c-9c29f6666dfa"/>
    <radialGradient id="uuid-0bcb6413-06b3-4a82-9222-1013a01c2aa6" cx="-3417.57" cy="-2861.02" fx="-3417.57" fy="-2861.02" r="113.34" gradientTransform="translate(3313.49 -3075.05) rotate(-94.15)" xlink:href="#uuid-2a34b342-f520-4ee2-977c-9c29f6666dfa"/>
    <radialGradient id="uuid-695a22b0-0473-4a0a-8b32-a99c8235f90e" cx="-2677.37" cy="-2875.72" fx="-2677.37" fy="-2875.72" r="89.58" gradientTransform="translate(-415 -3470.27) rotate(-142.72)" xlink:href="#uuid-2a34b342-f520-4ee2-977c-9c29f6666dfa"/>
    <radialGradient id="uuid-2e5d879b-288e-4682-84c5-986e5c0fdd31" cx="-3013.04" cy="-2615.44" fx="-3013.04" fy="-2615.44" r="107.72" gradientTransform="translate(688.02 -3740.35) rotate(-126.04)" xlink:href="#uuid-2a34b342-f520-4ee2-977c-9c29f6666dfa"/>
    <radialGradient id="uuid-1a52ab7e-5857-4d28-8f0b-ac7f5f0a7cfb" cx="-2582.67" cy="-2961.22" fx="-2582.67" fy="-2961.22" r="141.17" gradientTransform="translate(741.84 -3321.25) rotate(-126.04)" xlink:href="#uuid-2a34b342-f520-4ee2-977c-9c29f6666dfa"/>
    <radialGradient id="uuid-51c6476e-7bd9-4647-9701-256d65ff1574" cx="-2579.88" cy="-2644.03" fx="-2579.88" fy="-2644.03" r="153.11" gradientTransform="translate(533.65 -3446.14) rotate(-126.04)" xlink:href="#uuid-2a34b342-f520-4ee2-977c-9c29f6666dfa"/>
    <radialGradient id="uuid-d1d95d26-78db-4c7a-8834-a3203672f344" cx="-2788.89" cy="-2661.56" fx="-2788.89" fy="-2661.56" r="160.94" gradientTransform="translate(628.59 -3575.58) rotate(-126.04)" xlink:href="#uuid-2a34b342-f520-4ee2-977c-9c29f6666dfa"/>
    <radialGradient id="uuid-e4c66fba-827d-4d7b-af32-8527099e4671" cx="-2557.55" cy="-2775.73" fx="-2557.55" fy="-2775.73" r="202.15" gradientTransform="translate(610.71 -3378.95) rotate(-126.04)" xlink:href="#uuid-2a34b342-f520-4ee2-977c-9c29f6666dfa"/>
    <radialGradient id="uuid-87c6cf95-d09d-4592-a66f-99ae45bc75ee" cx="-2623.77" cy="-2821.36" fx="-2623.77" fy="-2821.36" r="124.5" gradientTransform="translate(666.95 -3403.95) rotate(-126.04)" xlink:href="#uuid-2a34b342-f520-4ee2-977c-9c29f6666dfa"/>
    <radialGradient id="uuid-e108681c-eb7e-42e0-8915-9dfdb3980f2b" cx="-3015.51" cy="-2706.13" fx="-3015.51" fy="-2706.13" r="74.36" gradientTransform="translate(748.22 -3705.73) rotate(-126.04)" xlink:href="#uuid-2a34b342-f520-4ee2-977c-9c29f6666dfa"/>
    <radialGradient id="uuid-9e3dcd83-5ef1-4733-b01d-26f99d5acc23" cx="-2869.33" cy="-2988.4" fx="-2869.33" fy="-2988.4" r="109.44" gradientTransform="translate(874.1 -3497.53) rotate(-126.04)" xlink:href="#uuid-2a34b342-f520-4ee2-977c-9c29f6666dfa"/>
    <radialGradient id="uuid-30d2b179-7e44-4cfe-8f8f-82d3d13fac02" cx="-3006.12" cy="-2680.44" fx="-3006.12" fy="-2680.44" r="87.03" gradientTransform="translate(727.69 -3709.86) rotate(-126.04)" xlink:href="#uuid-2a34b342-f520-4ee2-977c-9c29f6666dfa"/>
    <radialGradient id="uuid-00686fef-af2e-4f7d-aa88-6a486a85e9ee" cx="-3315.44" cy="-2750.23" fx="-3315.44" fy="-2750.23" r="207.14" gradientTransform="translate(896.83 -3883.92) rotate(-126.04)" xlink:href="#uuid-2a34b342-f520-4ee2-977c-9c29f6666dfa"/>
    <radialGradient id="uuid-b7560ec3-938b-4ce0-8e6e-f3acd9673003" cx="-3262.63" cy="-2871.46" fx="-3262.63" fy="-2871.46" r="65.65" gradientTransform="translate(-151.55 -3762.32) rotate(-140.67)" xlink:href="#uuid-2a34b342-f520-4ee2-977c-9c29f6666dfa"/>
    <radialGradient id="uuid-1a48f7f4-4c05-44a1-8f46-3d55e90fbeb7" cx="-2800.39" cy="-2750.18" fx="-2800.39" fy="-2750.18" r="94.24" gradientTransform="translate(3236.23 -2044.6) rotate(-81.8)" xlink:href="#uuid-2a34b342-f520-4ee2-977c-9c29f6666dfa"/>
    <radialGradient id="uuid-c6e9f5c5-f24f-4810-bd95-7de208c6f090" cx="-3010.1" cy="-2583.86" fx="-3010.1" fy="-2583.86" r="214.39" gradientTransform="translate(666.23 -3751.04) rotate(-126.04)" xlink:href="#uuid-2a34b342-f520-4ee2-977c-9c29f6666dfa"/>
    <radialGradient id="uuid-d304ef5d-2c65-4581-b474-ce8488f49a31" cx="-2969.55" cy="-2937.39" fx="-2969.55" fy="-2937.39" r="96.4" gradientTransform="translate(2596.74 -2911.04) rotate(-100.55)" xlink:href="#uuid-2a34b342-f520-4ee2-977c-9c29f6666dfa"/>
    <radialGradient id="uuid-aec664aa-169e-4a41-a84c-e38df9be8496" cx="-3410.34" cy="-2882.71" fx="-3410.34" fy="-2882.71" r="110.62" gradientTransform="translate(1021.23 -3892.95) rotate(-126.04)" xlink:href="#uuid-2a34b342-f520-4ee2-977c-9c29f6666dfa"/>
    <radialGradient id="uuid-7c410a48-021e-4912-982b-71e9220c2815" cx="-3342.35" cy="-2675.03" fx="-3342.35" fy="-2675.03" r="119.61" gradientTransform="translate(858.48 -3931.53) rotate(-126.04)" xlink:href="#uuid-2a34b342-f520-4ee2-977c-9c29f6666dfa"/>
    <radialGradient id="uuid-68bd9633-7b6a-4ccc-af61-ef0a4bf94396" cx="-2735.39" cy="-2592.66" fx="-2735.39" fy="-2592.66" r="66.75" xlink:href="#uuid-2a34b342-f520-4ee2-977c-9c29f6666dfa"/>
    <clipPath id="uuid-fde2a1df-4b67-42ee-8db1-cad92371f0e6">
      <rect x="-460.96" y="-28.49" width="1548.71" height="1032.47" fill="none"/>
    </clipPath>
    <radialGradient id="uuid-66c3592f-ef17-4083-926c-8633d6a90b1c" cx="257.51" cy="-5.49" fx="257.51" fy="-5.49" r="1580.25" gradientUnits="userSpaceOnUse">
      <stop offset="0" stop-color="#665847"/>
      <stop offset=".08" stop-color="#55493b"/>
      <stop offset=".24" stop-color="#362f26"/>
      <stop offset=".4" stop-color="#1e1a15"/>
      <stop offset=".58" stop-color="#0d0b09"/>
      <stop offset=".77" stop-color="#030202"/>
      <stop offset="1" stop-color="#000"/>
    </radialGradient>
  </defs>
  <g isolation="isolate">
    <g id="uuid-572e0799-f51c-4955-83b7-f92122c5e96f" data-name="Layer 1">
      <g>
        <g opacity=".7">
          <g clip-path="url(#uuid-407a060b-6555-4afb-bfea-d16511356d2f)">
            <g>
              <rect x="-460.96" y="-28.49" width="1548.71" height="1032.47" fill="#142600"/>
              <ellipse cx="315.43" cy="454.86" rx="704.23" ry="426.81" fill="url(#uuid-36d90a5c-e1ec-43c6-80f5-da4116e4fab7)" mix-blend-mode="screen"/>
              <g>
                <path id="uuid-7ca4c6ac-81a6-45b3-b147-8f553bbca72d" data-name="shape" d="M225.18,294.5c-8.27-1.3-13.91-9.06-12.61-17.33,1.3-8.27,9.06-13.91,17.33-12.61,8.27,1.3,13.91,9.06,12.61,17.33-1.3,8.27-9.06,13.91-17.33,12.61Z" fill="url(#uuid-2a34b342-f520-4ee2-977c-9c29f6666dfa)" mix-blend-mode="color-dodge" opacity=".88"/>
                <path id="uuid-6734c30c-aa66-4518-a1a3-1e46eeab63be" data-name="shape 1" d="M105.86,402.8c-12.54-1.98-21.1-13.75-19.12-26.29,1.98-12.54,13.75-21.1,26.29-19.12,12.54,1.98,21.1,13.75,19.12,26.29-1.98,12.54-13.75,21.1-26.29,19.12Z" fill="url(#uuid-d3bf7d7b-4790-4294-91a8-df6e8849098c)" mix-blend-mode="color-dodge" opacity=".52"/>
                <path id="uuid-60c7d773-2f90-4001-b27e-5a9d41605a23" data-name="shape 3" d="M106.37,525.86c-14.17-2.24-23.85-15.54-21.62-29.71,2.24-14.18,15.54-23.85,29.71-21.62,14.17,2.24,23.85,15.54,21.62,29.71-2.24,14.17-15.54,23.85-29.71,21.62Z" fill="url(#uuid-35b3be1e-11f6-44c5-a7c2-0b79c6bbedf5)" mix-blend-mode="color-dodge" opacity=".96"/>
                <path id="uuid-ef7a2b65-3657-45ed-ab5b-be621b2c3ace" data-name="shape 4" d="M590.52,310.01c-8.79-1.39-14.79-9.63-13.4-18.42,1.39-8.79,9.63-14.79,18.42-13.4,8.79,1.39,14.79,9.63,13.4,18.42-1.39,8.79-9.63,14.79-18.42,13.4Z" fill="url(#uuid-424a2320-ed63-4122-b52d-235b4d397583)" mix-blend-mode="color-dodge" opacity=".7"/>
                <circle id="uuid-4434ee0b-bd34-40e2-a196-8a94275b8272" data-name="shape 6" cx="532.11" cy="487.47" r="50.57" transform="translate(-22.23 25.43) rotate(-2.68)" fill="url(#uuid-c706437b-9070-4442-819d-b2954a155ccb)" mix-blend-mode="color-dodge" opacity=".15"/>
                <path id="uuid-6be1689c-ca9c-42c0-9e27-5e808c5142ea" data-name="shape 22" d="M397.57,509.89c-11.59-1.83-19.5-12.7-17.67-24.29,1.83-11.59,12.7-19.5,24.29-17.67,11.59,1.83,19.5,12.7,17.67,24.29-1.83,11.59-12.7,19.5-24.29,17.67Z" fill="url(#uuid-1b7cf6d9-aab9-4338-887f-d5a7ff4c8270)" mix-blend-mode="color-dodge" opacity=".31"/>
                <circle id="uuid-564786e7-c05e-4630-9797-84a319103646" data-name="shape 23" cx="258.06" cy="582.41" r="55.44" transform="translate(-19.91 9.23) rotate(-1.97)" fill="url(#uuid-d5969240-12a7-469f-b2d8-fc68fb1bf6a2)" mix-blend-mode="color-dodge" opacity=".29"/>
                <path id="uuid-16f559ec-7457-42eb-955d-4a7dd8cb37be" data-name="shape 29" d="M505.8,536.31c-2.45-.39-4.12-2.69-3.74-5.14,.39-2.45,2.69-4.12,5.14-3.74,2.45,.39,4.12,2.69,3.74,5.14s-2.69,4.12-5.14,3.74Z" fill="url(#uuid-136f9fba-5f35-4df0-a0fd-d62b11d930bd)" mix-blend-mode="color-dodge" opacity=".33"/>
                <path id="uuid-8039bd97-e14d-4dba-a333-5698b6dd6114" data-name="shape 30" d="M279.2,515.2c-7.57-1.19-12.74-8.3-11.55-15.87,1.19-7.57,8.3-12.74,15.87-11.55,7.57,1.19,12.74,8.3,11.55,15.87-1.19,7.57-8.3,12.74-15.87,11.55Z" fill="url(#uuid-73cfee6a-05aa-439f-aeb9-05d28eabac22)" mix-blend-mode="color-dodge" opacity=".7"/>
                <circle id="uuid-6827c290-a30f-4601-9241-765961b2e4a7" data-name="shape 31" cx="186.89" cy="279.78" r="70.12" transform="translate(-99.65 456.15) rotate(-87.87)" fill="url(#uuid-ffb4b532-ca8e-4925-b135-77203230ea78)" mix-blend-mode="color-dodge" opacity=".72"/>
                <circle id="uuid-dd1f7698-763b-43bc-8a65-9fbd2315aaf7" data-name="shape 35" cx="12.14" cy="192.08" r="50.11" transform="translate(-121.08 53.18) rotate(-40.19)" fill="url(#uuid-effeda38-be7e-4638-864a-fe233b2a010a)" mix-blend-mode="color-dodge" opacity=".21"/>
                <path id="uuid-67832dd6-b0f7-4231-a56a-9c1eae5cc346" data-name="shape 38" d="M454.59,283.79c-21.02-3.32-35.38-23.05-32.06-44.07,3.32-21.02,23.05-35.38,44.07-32.06s35.38,23.05,32.06,44.07c-3.32,21.02-23.05,35.38-44.07,32.06Z" fill="url(#uuid-a78fffc0-6315-4ab0-ba70-cbb05ec73bf2)" mix-blend-mode="color-dodge" opacity=".5"/>
                <path id="uuid-cc7a66ed-e18e-40bc-8545-fa8728cf598c" data-name="shape 39" d="M353.21,423.9c-9.98-1.57-16.79-10.94-15.22-20.92,1.57-9.98,10.94-16.79,20.92-15.22,9.98,1.57,16.79,10.94,15.22,20.92-1.57,9.98-10.94,16.79-20.92,15.22Z" fill="url(#uuid-5348acae-d4e1-45b3-b2f3-0891b7cfba21)" mix-blend-mode="color-dodge" opacity=".22"/>
                <path id="uuid-c2a1b8af-d7d6-49a8-835f-679ae5ecf919" data-name="shape 41" d="M87.76,205.26c-23.42-3.69-39.41-25.67-35.71-49.09,3.69-23.42,25.67-39.41,49.09-35.71,23.42,3.69,39.41,25.67,35.71,49.09-3.69,23.42-25.67,39.41-49.09,35.71Z" fill="url(#uuid-a86c825e-5be2-4dc9-8641-34fa416b44b6)" mix-blend-mode="color-dodge" opacity=".18"/>
                <circle id="uuid-820e298d-b535-483d-914d-c9bb373258f7" data-name="shape 47" cx="70.35" cy="387.9" r="58.11" transform="translate(-174.66 79.06) rotate(-28.15)" fill="url(#uuid-baea2a58-84f6-486d-8855-f573be8b0ea9)" mix-blend-mode="color-dodge" opacity=".51"/>
                <circle id="uuid-88d8c4e4-55c8-40fd-aeb7-5fef8ed03dac" data-name="shape 52" cx="706.99" cy="540.45" r="113.34" transform="translate(20.28 1106.44) rotate(-76.89)" fill="url(#uuid-0bcb6413-06b3-4a82-9222-1013a01c2aa6)" mix-blend-mode="color-dodge" opacity=".23"/>
                <circle id="uuid-6df3e8e7-4319-48a3-be16-008dd7ce084a" data-name="shape 57" cx="-26.46" cy="439.65" r="89.58" transform="translate(-211.71 40.05) rotate(-28.32)" fill="url(#uuid-695a22b0-0473-4a0a-8b32-a99c8235f90e)" mix-blend-mode="color-dodge" opacity=".48"/>
                <circle id="uuid-3806d663-a00b-42cd-88c6-0d2b57ce8499" data-name="shape 58" cx="345.67" cy="234.84" r="107.72" transform="translate(-64.81 313.21) rotate(-45)" fill="url(#uuid-2e5d879b-288e-4682-84c5-986e5c0fdd31)" mix-blend-mode="color-dodge" opacity=".12"/>
                <circle id="uuid-f40af956-bc11-4803-a50c-484ac5878139" data-name="shape 61" cx="-133.32" cy="509.35" r="141.17" transform="translate(-399.21 54.91) rotate(-45)" fill="url(#uuid-1a52ab7e-5857-4d28-8f0b-ac7f5f0a7cfb)" mix-blend-mode="color-dodge" opacity=".25"/>
                <circle id="uuid-8226b2f7-3067-40bb-88f2-c2ed5fb92ec9" data-name="shape 62" cx="-86.66" cy="195.6" r="153.11" transform="translate(-163.69 -3.99) rotate(-45)" fill="url(#uuid-51c6476e-7bd9-4647-9701-256d65ff1574)" mix-blend-mode="color-dodge" opacity=".36"/>
                <circle id="uuid-486db4ab-1542-48c5-911a-251629fb8f75" data-name="shape 63" cx="117.07" cy="245.48" r="160.94" transform="translate(-139.29 154.68) rotate(-45)" fill="url(#uuid-d1d95d26-78db-4c7a-8834-a3203672f344)" mix-blend-mode="color-dodge" opacity=".39"/>
                <circle id="uuid-7681cdb2-8f81-4ea6-b8b4-d4861e6ea53f" data-name="shape 65" cx="-129.24" cy="322.21" r="202.15" transform="translate(-265.69 2.99) rotate(-45)" fill="url(#uuid-e4c66fba-827d-4d7b-af32-8527099e4671)" mix-blend-mode="color-dodge" opacity=".36"/>
                <circle id="uuid-0bb5b6e1-66c7-4cd9-8ee2-6e1c7659a2b0" data-name="shape 66" cx="-70.94" cy="377.6" r="124.5" transform="translate(-287.78 60.44) rotate(-45)" fill="url(#uuid-87c6cf95-d09d-4592-a66f-99ae45bc75ee)" mix-blend-mode="color-dodge" opacity=".79"/>
                <circle id="uuid-0dc4004d-d1b1-4c03-bf9d-9951529bdee2" data-name="shape 72" cx="333.98" cy="324.81" r="74.36" transform="translate(-131.86 331.29) rotate(-45)" fill="url(#uuid-e108681c-eb7e-42e0-8915-9dfdb3980f2b)" mix-blend-mode="color-dodge" opacity=".3"/>
                <circle id="uuid-e6fcf671-8d84-46d9-9f06-0efe808810e7" data-name="shape 76" cx="145.6" cy="580.86" r="109.44" transform="translate(-368.09 273.09) rotate(-45)" fill="url(#uuid-9e3dcd83-5ef1-4733-b01d-26f99d5acc23)" mix-blend-mode="color-dodge" opacity=".91"/>
                <circle id="uuid-e97886d0-9bbe-4739-9d1d-c1805a6aaa3a" data-name="shape 78" cx="328.7" cy="297.97" r="87.03" transform="translate(-114.42 319.7) rotate(-45)" fill="url(#uuid-30d2b179-7e44-4cfe-8f8f-82d3d13fac02)" mix-blend-mode="color-dodge" opacity=".89"/>
                <circle id="uuid-073f21cb-c6ca-4f30-a3bd-c24c4c0b545b" data-name="shape 79" cx="623.38" cy="415.1" r="207.15" transform="translate(-110.94 562.38) rotate(-45)" fill="url(#uuid-00686fef-af2e-4f7d-aa88-6a486a85e9ee)" mix-blend-mode="color-dodge" opacity=".73"/>
                <circle id="uuid-7d123c66-80f1-47eb-9102-05af89da4efe" data-name="shape 86" cx="552.32" cy="526.62" r="65.66" transform="translate(-190.45 351.45) rotate(-30.37)" fill="url(#uuid-b7560ec3-938b-4ce0-8e6e-f3acd9673003)" mix-blend-mode="color-dodge" opacity=".33"/>
                <circle id="uuid-a503859b-86bc-4b2a-ae10-ecfc5a22ec5c" data-name="shape 89" cx="114.62" cy="334.81" r="94.24" transform="translate(-221.68 444.97) rotate(-89.24)" fill="url(#uuid-1a48f7f4-4c05-44a1-8f46-3d55e90fbeb7)" mix-blend-mode="color-dodge" opacity=".74"/>
                <circle id="uuid-aa119cbb-111e-4b4a-8661-2e76184cd095" data-name="shape 90" cx="347.69" cy="203.18" r="214.39" transform="translate(-41.84 305.36) rotate(-45)" fill="url(#uuid-c6e9f5c5-f24f-4810-bd95-7de208c6f090)" mix-blend-mode="color-dodge" opacity=".48"/>
                <circle id="uuid-ec9a60f6-a411-4c74-aba5-6dc0fc79a7bd" data-name="shape 91" cx="252.55" cy="546.08" r="96.4" transform="translate(-346.52 601.75) rotate(-70.49)" fill="url(#uuid-d304ef5d-2c65-4581-b474-ce8488f49a31)" mix-blend-mode="color-dodge" opacity=".98"/>
                <circle id="uuid-eab1246f-a73f-45ba-bd3c-18becac10419" data-name="shape 92" cx="696.47" cy="560.75" r="110.62" transform="translate(-192.52 656.72) rotate(-45)" fill="url(#uuid-aec664aa-169e-4a41-a84c-e38df9be8496)" mix-blend-mode="color-dodge" opacity=".72"/>
                <circle id="uuid-596d9c4d-69bb-40ea-a1f1-d523d2512e48" data-name="shape 95" cx="661.68" cy="345.01" r="119.61" transform="translate(-50.16 568.93) rotate(-45)" fill="url(#uuid-7c410a48-021e-4912-982b-71e9220c2815)" mix-blend-mode="color-dodge" opacity=".32"/>
                <path id="uuid-4d9a9a21-790f-4e06-8d30-61487ec56e6d" data-name="shape 100" d="M64.55,235.01c-36.41-5.74-61.28-39.92-55.53-76.33,5.74-36.41,39.92-61.28,76.33-55.53,36.41,5.74,61.28,39.92,55.53,76.33-5.74,36.41-39.92,61.28-76.33,55.53Z" fill="url(#uuid-68bd9633-7b6a-4ccc-af61-ef0a4bf94396)" mix-blend-mode="color-dodge" opacity=".96"/>
              </g>
              <g clip-path="url(#uuid-fde2a1df-4b67-42ee-8db1-cad92371f0e6)">
                <path d="M-493.44,1031.05v-32.6h39.64v32.6h1.85v-32.6h39.65v32.6h1.85v-32.6h39.64v32.6h1.85v-32.6h39.65v32.6h1.85v-32.6h39.64v32.6h1.85v-32.6h39.65v32.6h1.85v-32.6h39.64v32.6h1.85v-32.6h39.65v32.6h1.85v-32.6h39.64v32.6h1.85v-32.6h39.65v32.6h1.85v-32.6H-38.84v32.6h1.85v-32.6H2.66v32.6h1.85v-32.6H44.15v32.6h1.85v-32.6h39.65v32.6h1.85v-32.6h39.64v32.6h1.85v-32.6h39.65v32.6h1.85v-32.6h39.64v32.6h1.85v-32.6h39.65v32.6h1.85v-32.6h39.64v32.6h1.85v-32.6h39.64v32.6h1.85v-32.6h39.65v32.6h1.85v-32.6h39.64v32.6h1.85v-32.6h39.65v32.6h1.85v-32.6h39.64v32.6h1.85v-32.6h39.65v32.6h1.85v-32.6h39.64v32.6h1.85v-32.6h39.65v32.6h1.85v-32.6h39.64v32.6h1.85v-32.6h39.65v32.6h1.85v-32.6h39.64v32.6h1.85v-32.6h39.65v32.6h1.85v-32.6h39.64v32.6h1.85v-32.6h39.65v32.6h1.85v-32.6h39.64v32.6h1.85v-32.6h39.65v32.6h1.85v-32.6h39.64v32.6h1.85v-32.6h39.65v32.6h1.85v-32.6h39.64v32.6h1.85v-32.6h39.65v32.6h1.85V-51.22h-1.85v13.88h-39.65v-13.88h-1.85v13.88h-39.64v-13.88h-1.85v13.88h-39.65v-13.88h-1.85v13.88h-39.64v-13.88h-1.85v13.88h-39.65v-13.88h-1.85v13.88h-39.64v-13.88h-1.85v13.88h-39.65v-13.88h-1.85v13.88h-39.64v-13.88h-1.85v13.88h-39.65v-13.88h-1.85v13.88h-39.64v-13.88h-1.85v13.88h-39.65v-13.88h-1.85v13.88h-39.64v-13.88h-1.85v13.88h-39.65v-13.88h-1.85v13.88h-39.64v-13.88h-1.85v13.88h-39.65v-13.88h-1.85v13.88h-39.64v-13.88h-1.85v13.88h-39.65v-13.88h-1.85v13.88h-39.64v-13.88h-1.85v13.88h-39.65v-13.88h-1.85v13.88h-39.64v-13.88h-1.85v13.88h-39.64v-13.88h-1.85v13.88h-39.65v-13.88h-1.85v13.88h-39.64v-13.88h-1.85v13.88h-39.65v-13.88h-1.85v13.88h-39.64v-13.88h-1.85v13.88H46v-13.88h-1.85v13.88H4.51v-13.88h-1.85v13.88H-36.99v-13.88h-1.85v13.88h-39.64v-13.88h-1.85v13.88h-39.65v-13.88h-1.85v13.88h-39.64v-13.88h-1.85v13.88h-39.65v-13.88h-1.85v13.88h-39.64v-13.88h-1.85v13.88h-39.65v-13.88h-1.85v13.88h-39.64v-13.88h-1.85v13.88h-39.65v-13.88h-1.85v13.88h-39.64v-13.88h-1.85v13.88h-39.65v-13.88h-1.85v13.88h-39.64v-13.88h-1.85V1031.05h1.85ZM1083.4-35.49h39.65V7.62h-39.65V-35.49Zm0,44.96h39.65V52.57h-39.65V9.47Zm0,44.95h39.65v43.1h-39.65V54.42Zm0,44.95h39.65v43.1h-39.65v-43.1Zm0,44.95h39.65v43.1h-39.65v-43.1Zm0,44.96h39.65v43.1h-39.65v-43.1Zm0,44.95h39.65v43.1h-39.65v-43.1Zm0,44.95h39.65v43.1h-39.65v-43.1Zm0,44.95h39.65v43.1h-39.65v-43.1Zm0,44.96h39.65v43.1h-39.65v-43.1Zm0,44.95h39.65v43.1h-39.65v-43.1Zm0,44.95h39.65v43.1h-39.65v-43.1Zm0,44.95h39.65v43.1h-39.65v-43.1Zm0,44.96h39.65v43.1h-39.65v-43.1Zm0,44.95h39.65v43.1h-39.65v-43.1Zm0,44.95h39.65v43.1h-39.65v-43.1Zm0,44.96h39.65v43.1h-39.65v-43.1Zm0,44.95h39.65v43.1h-39.65v-43.1Zm0,44.95h39.65v43.1h-39.65v-43.1Zm0,44.95h39.65v43.1h-39.65v-43.1Zm0,44.95h39.65v43.1h-39.65v-43.1Zm0,44.95h39.65v43.1h-39.65v-43.1Zm0,44.95h39.65v43.1h-39.65v-43.1Zm-41.49-988.98h39.64V7.62h-39.64V-35.49Zm0,44.96h39.64V52.57h-39.64V9.47Zm0,44.95h39.64v43.1h-39.64V54.42Zm0,44.95h39.64v43.1h-39.64v-43.1Zm0,44.95h39.64v43.1h-39.64v-43.1Zm0,44.96h39.64v43.1h-39.64v-43.1Zm0,44.95h39.64v43.1h-39.64v-43.1Zm0,44.95h39.64v43.1h-39.64v-43.1Zm0,44.95h39.64v43.1h-39.64v-43.1Zm0,44.96h39.64v43.1h-39.64v-43.1Zm0,44.95h39.64v43.1h-39.64v-43.1Zm0,44.95h39.64v43.1h-39.64v-43.1Zm0,44.95h39.64v43.1h-39.64v-43.1Zm0,44.96h39.64v43.1h-39.64v-43.1Zm0,44.95h39.64v43.1h-39.64v-43.1Zm0,44.95h39.64v43.1h-39.64v-43.1Zm0,44.96h39.64v43.1h-39.64v-43.1Zm0,44.95h39.64v43.1h-39.64v-43.1Zm0,44.95h39.64v43.1h-39.64v-43.1Zm0,44.95h39.64v43.1h-39.64v-43.1Zm0,44.95h39.64v43.1h-39.64v-43.1Zm0,44.95h39.64v43.1h-39.64v-43.1Zm0,44.95h39.64v43.1h-39.64v-43.1ZM1000.41-35.49h39.65V7.62h-39.65V-35.49Zm0,44.96h39.65V52.57h-39.65V9.47Zm0,44.95h39.65v43.1h-39.65V54.42Zm0,44.95h39.65v43.1h-39.65v-43.1Zm0,44.95h39.65v43.1h-39.65v-43.1Zm0,44.96h39.65v43.1h-39.65v-43.1Zm0,44.95h39.65v43.1h-39.65v-43.1Zm0,44.95h39.65v43.1h-39.65v-43.1Zm0,44.95h39.65v43.1h-39.65v-43.1Zm0,44.96h39.65v43.1h-39.65v-43.1Zm0,44.95h39.65v43.1h-39.65v-43.1Zm0,44.95h39.65v43.1h-39.65v-43.1Zm0,44.95h39.65v43.1h-39.65v-43.1Zm0,44.96h39.65v43.1h-39.65v-43.1Zm0,44.95h39.65v43.1h-39.65v-43.1Zm0,44.95h39.65v43.1h-39.65v-43.1Zm0,44.96h39.65v43.1h-39.65v-43.1Zm0,44.95h39.65v43.1h-39.65v-43.1Zm0,44.95h39.65v43.1h-39.65v-43.1Zm0,44.95h39.65v43.1h-39.65v-43.1Zm0,44.95h39.65v43.1h-39.65v-43.1Zm0,44.95h39.65v43.1h-39.65v-43.1Zm0,44.95h39.65v43.1h-39.65v-43.1ZM958.91-35.49h39.64V7.62h-39.64V-35.49Zm0,44.96h39.64V52.57h-39.64V9.47Zm0,44.95h39.64v43.1h-39.64V54.42Zm0,44.95h39.64v43.1h-39.64v-43.1Zm0,44.95h39.64v43.1h-39.64v-43.1Zm0,44.96h39.64v43.1h-39.64v-43.1Zm0,44.95h39.64v43.1h-39.64v-43.1Zm0,44.95h39.64v43.1h-39.64v-43.1Zm0,44.95h39.64v43.1h-39.64v-43.1Zm0,44.96h39.64v43.1h-39.64v-43.1Zm0,44.95h39.64v43.1h-39.64v-43.1Zm0,44.95h39.64v43.1h-39.64v-43.1Zm0,44.95h39.64v43.1h-39.64v-43.1Zm0,44.96h39.64v43.1h-39.64v-43.1Zm0,44.95h39.64v43.1h-39.64v-43.1Zm0,44.95h39.64v43.1h-39.64v-43.1Zm0,44.96h39.64v43.1h-39.64v-43.1Zm0,44.95h39.64v43.1h-39.64v-43.1Zm0,44.95h39.64v43.1h-39.64v-43.1Zm0,44.95h39.64v43.1h-39.64v-43.1Zm0,44.95h39.64v43.1h-39.64v-43.1Zm0,44.95h39.64v43.1h-39.64v-43.1Zm0,44.95h39.64v43.1h-39.64v-43.1ZM917.42-35.49h39.65V7.62h-39.65V-35.49Zm0,44.96h39.65V52.57h-39.65V9.47Zm0,44.95h39.65v43.1h-39.65V54.42Zm0,44.95h39.65v43.1h-39.65v-43.1Zm0,44.95h39.65v43.1h-39.65v-43.1Zm0,44.96h39.65v43.1h-39.65v-43.1Zm0,44.95h39.65v43.1h-39.65v-43.1Zm0,44.95h39.65v43.1h-39.65v-43.1Zm0,44.95h39.65v43.1h-39.65v-43.1Zm0,44.96h39.65v43.1h-39.65v-43.1Zm0,44.95h39.65v43.1h-39.65v-43.1Zm0,44.95h39.65v43.1h-39.65v-43.1Zm0,44.95h39.65v43.1h-39.65v-43.1Zm0,44.96h39.65v43.1h-39.65v-43.1Zm0,44.95h39.65v43.1h-39.65v-43.1Zm0,44.95h39.65v43.1h-39.65v-43.1Zm0,44.96h39.65v43.1h-39.65v-43.1Zm0,44.95h39.65v43.1h-39.65v-43.1Zm0,44.95h39.65v43.1h-39.65v-43.1Zm0,44.95h39.65v43.1h-39.65v-43.1Zm0,44.95h39.65v43.1h-39.65v-43.1Zm0,44.95h39.65v43.1h-39.65v-43.1Zm0,44.95h39.65v43.1h-39.65v-43.1ZM875.92-35.49h39.64V7.62h-39.64V-35.49Zm0,44.96h39.64V52.57h-39.64V9.47Zm0,44.95h39.64v43.1h-39.64V54.42Zm0,44.95h39.64v43.1h-39.64v-43.1Zm0,44.95h39.64v43.1h-39.64v-43.1Zm0,44.96h39.64v43.1h-39.64v-43.1Zm0,44.95h39.64v43.1h-39.64v-43.1Zm0,44.95h39.64v43.1h-39.64v-43.1Zm0,44.95h39.64v43.1h-39.64v-43.1Zm0,44.96h39.64v43.1h-39.64v-43.1Zm0,44.95h39.64v43.1h-39.64v-43.1Zm0,44.95h39.64v43.1h-39.64v-43.1Zm0,44.95h39.64v43.1h-39.64v-43.1Zm0,44.96h39.64v43.1h-39.64v-43.1Zm0,44.95h39.64v43.1h-39.64v-43.1Zm0,44.95h39.64v43.1h-39.64v-43.1Zm0,44.96h39.64v43.1h-39.64v-43.1Zm0,44.95h39.64v43.1h-39.64v-43.1Zm0,44.95h39.64v43.1h-39.64v-43.1Zm0,44.95h39.64v43.1h-39.64v-43.1Zm0,44.95h39.64v43.1h-39.64v-43.1Zm0,44.95h39.64v43.1h-39.64v-43.1Zm0,44.95h39.64v43.1h-39.64v-43.1ZM834.42-35.49h39.65V7.62h-39.65V-35.49Zm0,44.96h39.65V52.57h-39.65V9.47Zm0,44.95h39.65v43.1h-39.65V54.42Zm0,44.95h39.65v43.1h-39.65v-43.1Zm0,44.95h39.65v43.1h-39.65v-43.1Zm0,44.96h39.65v43.1h-39.65v-43.1Zm0,44.95h39.65v43.1h-39.65v-43.1Zm0,44.95h39.65v43.1h-39.65v-43.1Zm0,44.95h39.65v43.1h-39.65v-43.1Zm0,44.96h39.65v43.1h-39.65v-43.1Zm0,44.95h39.65v43.1h-39.65v-43.1Zm0,44.95h39.65v43.1h-39.65v-43.1Zm0,44.95h39.65v43.1h-39.65v-43.1Zm0,44.96h39.65v43.1h-39.65v-43.1Zm0,44.95h39.65v43.1h-39.65v-43.1Zm0,44.95h39.65v43.1h-39.65v-43.1Zm0,44.96h39.65v43.1h-39.65v-43.1Zm0,44.95h39.65v43.1h-39.65v-43.1Zm0,44.95h39.65v43.1h-39.65v-43.1Zm0,44.95h39.65v43.1h-39.65v-43.1Zm0,44.95h39.65v43.1h-39.65v-43.1Zm0,44.95h39.65v43.1h-39.65v-43.1Zm0,44.95h39.65v43.1h-39.65v-43.1ZM792.93-35.49h39.64V7.62h-39.64V-35.49Zm0,44.96h39.64V52.57h-39.64V9.47Zm0,44.95h39.64v43.1h-39.64V54.42Zm0,44.95h39.64v43.1h-39.64v-43.1Zm0,44.95h39.64v43.1h-39.64v-43.1Zm0,44.96h39.64v43.1h-39.64v-43.1Zm0,44.95h39.64v43.1h-39.64v-43.1Zm0,44.95h39.64v43.1h-39.64v-43.1Zm0,44.95h39.64v43.1h-39.64v-43.1Zm0,44.96h39.64v43.1h-39.64v-43.1Zm0,44.95h39.64v43.1h-39.64v-43.1Zm0,44.95h39.64v43.1h-39.64v-43.1Zm0,44.95h39.64v43.1h-39.64v-43.1Zm0,44.96h39.64v43.1h-39.64v-43.1Zm0,44.95h39.64v43.1h-39.64v-43.1Zm0,44.95h39.64v43.1h-39.64v-43.1Zm0,44.96h39.64v43.1h-39.64v-43.1Zm0,44.95h39.64v43.1h-39.64v-43.1Zm0,44.95h39.64v43.1h-39.64v-43.1Zm0,44.95h39.64v43.1h-39.64v-43.1Zm0,44.95h39.64v43.1h-39.64v-43.1Zm0,44.95h39.64v43.1h-39.64v-43.1Zm0,44.95h39.64v43.1h-39.64v-43.1ZM751.43-35.49h39.65V7.62h-39.65V-35.49Zm0,44.96h39.65V52.57h-39.65V9.47Zm0,44.95h39.65v43.1h-39.65V54.42Zm0,44.95h39.65v43.1h-39.65v-43.1Zm0,44.95h39.65v43.1h-39.65v-43.1Zm0,44.96h39.65v43.1h-39.65v-43.1Zm0,44.95h39.65v43.1h-39.65v-43.1Zm0,44.95h39.65v43.1h-39.65v-43.1Zm0,44.95h39.65v43.1h-39.65v-43.1Zm0,44.96h39.65v43.1h-39.65v-43.1Zm0,44.95h39.65v43.1h-39.65v-43.1Zm0,44.95h39.65v43.1h-39.65v-43.1Zm0,44.95h39.65v43.1h-39.65v-43.1Zm0,44.96h39.65v43.1h-39.65v-43.1Zm0,44.95h39.65v43.1h-39.65v-43.1Zm0,44.95h39.65v43.1h-39.65v-43.1Zm0,44.96h39.65v43.1h-39.65v-43.1Zm0,44.95h39.65v43.1h-39.65v-43.1Zm0,44.95h39.65v43.1h-39.65v-43.1Zm0,44.95h39.65v43.1h-39.65v-43.1Zm0,44.95h39.65v43.1h-39.65v-43.1Zm0,44.95h39.65v43.1h-39.65v-43.1Zm0,44.95h39.65v43.1h-39.65v-43.1ZM709.94-35.49h39.64V7.62h-39.64V-35.49Zm0,44.96h39.64V52.57h-39.64V9.47Zm0,44.95h39.64v43.1h-39.64V54.42Zm0,44.95h39.64v43.1h-39.64v-43.1Zm0,44.95h39.64v43.1h-39.64v-43.1Zm0,44.96h39.64v43.1h-39.64v-43.1Zm0,44.95h39.64v43.1h-39.64v-43.1Zm0,44.95h39.64v43.1h-39.64v-43.1Zm0,44.95h39.64v43.1h-39.64v-43.1Zm0,44.96h39.64v43.1h-39.64v-43.1Zm0,44.95h39.64v43.1h-39.64v-43.1Zm0,44.95h39.64v43.1h-39.64v-43.1Zm0,44.95h39.64v43.1h-39.64v-43.1Zm0,44.96h39.64v43.1h-39.64v-43.1Zm0,44.95h39.64v43.1h-39.64v-43.1Zm0,44.95h39.64v43.1h-39.64v-43.1Zm0,44.96h39.64v43.1h-39.64v-43.1Zm0,44.95h39.64v43.1h-39.64v-43.1Zm0,44.95h39.64v43.1h-39.64v-43.1Zm0,44.95h39.64v43.1h-39.64v-43.1Zm0,44.95h39.64v43.1h-39.64v-43.1Zm0,44.95h39.64v43.1h-39.64v-43.1Zm0,44.95h39.64v43.1h-39.64v-43.1ZM668.44-35.49h39.65V7.62h-39.65V-35.49Zm0,44.96h39.65V52.57h-39.65V9.47Zm0,44.95h39.65v43.1h-39.65V54.42Zm0,44.95h39.65v43.1h-39.65v-43.1Zm0,44.95h39.65v43.1h-39.65v-43.1Zm0,44.96h39.65v43.1h-39.65v-43.1Zm0,44.95h39.65v43.1h-39.65v-43.1Zm0,44.95h39.65v43.1h-39.65v-43.1Zm0,44.95h39.65v43.1h-39.65v-43.1Zm0,44.96h39.65v43.1h-39.65v-43.1Zm0,44.95h39.65v43.1h-39.65v-43.1Zm0,44.95h39.65v43.1h-39.65v-43.1Zm0,44.95h39.65v43.1h-39.65v-43.1Zm0,44.96h39.65v43.1h-39.65v-43.1Zm0,44.95h39.65v43.1h-39.65v-43.1Zm0,44.95h39.65v43.1h-39.65v-43.1Zm0,44.96h39.65v43.1h-39.65v-43.1Zm0,44.95h39.65v43.1h-39.65v-43.1Zm0,44.95h39.65v43.1h-39.65v-43.1Zm0,44.95h39.65v43.1h-39.65v-43.1Zm0,44.95h39.65v43.1h-39.65v-43.1Zm0,44.95h39.65v43.1h-39.65v-43.1Zm0,44.95h39.65v43.1h-39.65v-43.1ZM626.95-35.49h39.64V7.62h-39.64V-35.49Zm0,44.96h39.64V52.57h-39.64V9.47Zm0,44.95h39.64v43.1h-39.64V54.42Zm0,44.95h39.64v43.1h-39.64v-43.1Zm0,44.95h39.64v43.1h-39.64v-43.1Zm0,44.96h39.64v43.1h-39.64v-43.1Zm0,44.95h39.64v43.1h-39.64v-43.1Zm0,44.95h39.64v43.1h-39.64v-43.1Zm0,44.95h39.64v43.1h-39.64v-43.1Zm0,44.96h39.64v43.1h-39.64v-43.1Zm0,44.95h39.64v43.1h-39.64v-43.1Zm0,44.95h39.64v43.1h-39.64v-43.1Zm0,44.95h39.64v43.1h-39.64v-43.1Zm0,44.96h39.64v43.1h-39.64v-43.1Zm0,44.95h39.64v43.1h-39.64v-43.1Zm0,44.95h39.64v43.1h-39.64v-43.1Zm0,44.96h39.64v43.1h-39.64v-43.1Zm0,44.95h39.64v43.1h-39.64v-43.1Zm0,44.95h39.64v43.1h-39.64v-43.1Zm0,44.95h39.64v43.1h-39.64v-43.1Zm0,44.95h39.64v43.1h-39.64v-43.1Zm0,44.95h39.64v43.1h-39.64v-43.1Zm0,44.95h39.64v43.1h-39.64v-43.1ZM585.45-35.49h39.65V7.62h-39.65V-35.49Zm0,44.96h39.65V52.57h-39.65V9.47Zm0,44.95h39.65v43.1h-39.65V54.42Zm0,44.95h39.65v43.1h-39.65v-43.1Zm0,44.95h39.65v43.1h-39.65v-43.1Zm0,44.96h39.65v43.1h-39.65v-43.1Zm0,44.95h39.65v43.1h-39.65v-43.1Zm0,44.95h39.65v43.1h-39.65v-43.1Zm0,44.95h39.65v43.1h-39.65v-43.1Zm0,44.96h39.65v43.1h-39.65v-43.1Zm0,44.95h39.65v43.1h-39.65v-43.1Zm0,44.95h39.65v43.1h-39.65v-43.1Zm0,44.95h39.65v43.1h-39.65v-43.1Zm0,44.96h39.65v43.1h-39.65v-43.1Zm0,44.95h39.65v43.1h-39.65v-43.1Zm0,44.95h39.65v43.1h-39.65v-43.1Zm0,44.96h39.65v43.1h-39.65v-43.1Zm0,44.95h39.65v43.1h-39.65v-43.1Zm0,44.95h39.65v43.1h-39.65v-43.1Zm0,44.95h39.65v43.1h-39.65v-43.1Zm0,44.95h39.65v43.1h-39.65v-43.1Zm0,44.95h39.65v43.1h-39.65v-43.1Zm0,44.95h39.65v43.1h-39.65v-43.1ZM543.95-35.49h39.64V7.62h-39.64V-35.49Zm0,44.96h39.64V52.57h-39.64V9.47Zm0,44.95h39.64v43.1h-39.64V54.42Zm0,44.95h39.64v43.1h-39.64v-43.1Zm0,44.95h39.64v43.1h-39.64v-43.1Zm0,44.96h39.64v43.1h-39.64v-43.1Zm0,44.95h39.64v43.1h-39.64v-43.1Zm0,44.95h39.64v43.1h-39.64v-43.1Zm0,44.95h39.64v43.1h-39.64v-43.1Zm0,44.96h39.64v43.1h-39.64v-43.1Zm0,44.95h39.64v43.1h-39.64v-43.1Zm0,44.95h39.64v43.1h-39.64v-43.1Zm0,44.95h39.64v43.1h-39.64v-43.1Zm0,44.96h39.64v43.1h-39.64v-43.1Zm0,44.95h39.64v43.1h-39.64v-43.1Zm0,44.95h39.64v43.1h-39.64v-43.1Zm0,44.96h39.64v43.1h-39.64v-43.1Zm0,44.95h39.64v43.1h-39.64v-43.1Zm0,44.95h39.64v43.1h-39.64v-43.1Zm0,44.95h39.64v43.1h-39.64v-43.1Zm0,44.95h39.64v43.1h-39.64v-43.1Zm0,44.95h39.64v43.1h-39.64v-43.1Zm0,44.95h39.64v43.1h-39.64v-43.1ZM502.46-35.49h39.65V7.62h-39.65V-35.49Zm0,44.96h39.65V52.57h-39.65V9.47Zm0,44.95h39.65v43.1h-39.65V54.42Zm0,44.95h39.65v43.1h-39.65v-43.1Zm0,44.95h39.65v43.1h-39.65v-43.1Zm0,44.96h39.65v43.1h-39.65v-43.1Zm0,44.95h39.65v43.1h-39.65v-43.1Zm0,44.95h39.65v43.1h-39.65v-43.1Zm0,44.95h39.65v43.1h-39.65v-43.1Zm0,44.96h39.65v43.1h-39.65v-43.1Zm0,44.95h39.65v43.1h-39.65v-43.1Zm0,44.95h39.65v43.1h-39.65v-43.1Zm0,44.95h39.65v43.1h-39.65v-43.1Zm0,44.96h39.65v43.1h-39.65v-43.1Zm0,44.95h39.65v43.1h-39.65v-43.1Zm0,44.95h39.65v43.1h-39.65v-43.1Zm0,44.96h39.65v43.1h-39.65v-43.1Zm0,44.95h39.65v43.1h-39.65v-43.1Zm0,44.95h39.65v43.1h-39.65v-43.1Zm0,44.95h39.65v43.1h-39.65v-43.1Zm0,44.95h39.65v43.1h-39.65v-43.1Zm0,44.95h39.65v43.1h-39.65v-43.1Zm0,44.95h39.65v43.1h-39.65v-43.1ZM460.96-35.49h39.64V7.62h-39.64V-35.49Zm0,44.96h39.64V52.57h-39.64V9.47Zm0,44.95h39.64v43.1h-39.64V54.42Zm0,44.95h39.64v43.1h-39.64v-43.1Zm0,44.95h39.64v43.1h-39.64v-43.1Zm0,44.96h39.64v43.1h-39.64v-43.1Zm0,44.95h39.64v43.1h-39.64v-43.1Zm0,44.95h39.64v43.1h-39.64v-43.1Zm0,44.95h39.64v43.1h-39.64v-43.1Zm0,44.96h39.64v43.1h-39.64v-43.1Zm0,44.95h39.64v43.1h-39.64v-43.1Zm0,44.95h39.64v43.1h-39.64v-43.1Zm0,44.95h39.64v43.1h-39.64v-43.1Zm0,44.96h39.64v43.1h-39.64v-43.1Zm0,44.95h39.64v43.1h-39.64v-43.1Zm0,44.95h39.64v43.1h-39.64v-43.1Zm0,44.96h39.64v43.1h-39.64v-43.1Zm0,44.95h39.64v43.1h-39.64v-43.1Zm0,44.95h39.64v43.1h-39.64v-43.1Zm0,44.95h39.64v43.1h-39.64v-43.1Zm0,44.95h39.64v43.1h-39.64v-43.1Zm0,44.95h39.64v43.1h-39.64v-43.1Zm0,44.95h39.64v43.1h-39.64v-43.1ZM419.47-35.49h39.65V7.62h-39.65V-35.49Zm0,44.96h39.65V52.57h-39.65V9.47Zm0,44.95h39.65v43.1h-39.65V54.42Zm0,44.95h39.65v43.1h-39.65v-43.1Zm0,44.95h39.65v43.1h-39.65v-43.1Zm0,44.96h39.65v43.1h-39.65v-43.1Zm0,44.95h39.65v43.1h-39.65v-43.1Zm0,44.95h39.65v43.1h-39.65v-43.1Zm0,44.95h39.65v43.1h-39.65v-43.1Zm0,44.96h39.65v43.1h-39.65v-43.1Zm0,44.95h39.65v43.1h-39.65v-43.1Zm0,44.95h39.65v43.1h-39.65v-43.1Zm0,44.95h39.65v43.1h-39.65v-43.1Zm0,44.96h39.65v43.1h-39.65v-43.1Zm0,44.95h39.65v43.1h-39.65v-43.1Zm0,44.95h39.65v43.1h-39.65v-43.1Zm0,44.96h39.65v43.1h-39.65v-43.1Zm0,44.95h39.65v43.1h-39.65v-43.1Zm0,44.95h39.65v43.1h-39.65v-43.1Zm0,44.95h39.65v43.1h-39.65v-43.1Zm0,44.95h39.65v43.1h-39.65v-43.1Zm0,44.95h39.65v43.1h-39.65v-43.1Zm0,44.95h39.65v43.1h-39.65v-43.1ZM377.97-35.49h39.64V7.62h-39.64V-35.49Zm0,44.96h39.64V52.57h-39.64V9.47Zm0,44.95h39.64v43.1h-39.64V54.42Zm0,44.95h39.64v43.1h-39.64v-43.1Zm0,44.95h39.64v43.1h-39.64v-43.1Zm0,44.96h39.64v43.1h-39.64v-43.1Zm0,44.95h39.64v43.1h-39.64v-43.1Zm0,44.95h39.64v43.1h-39.64v-43.1Zm0,44.95h39.64v43.1h-39.64v-43.1Zm0,44.96h39.64v43.1h-39.64v-43.1Zm0,44.95h39.64v43.1h-39.64v-43.1Zm0,44.95h39.64v43.1h-39.64v-43.1Zm0,44.95h39.64v43.1h-39.64v-43.1Zm0,44.96h39.64v43.1h-39.64v-43.1Zm0,44.95h39.64v43.1h-39.64v-43.1Zm0,44.95h39.64v43.1h-39.64v-43.1Zm0,44.96h39.64v43.1h-39.64v-43.1Zm0,44.95h39.64v43.1h-39.64v-43.1Zm0,44.95h39.64v43.1h-39.64v-43.1Zm0,44.95h39.64v43.1h-39.64v-43.1Zm0,44.95h39.64v43.1h-39.64v-43.1Zm0,44.95h39.64v43.1h-39.64v-43.1Zm0,44.95h39.64v43.1h-39.64v-43.1ZM336.47-35.49h39.65V7.62h-39.65V-35.49Zm0,44.96h39.65V52.57h-39.65V9.47Zm0,44.95h39.65v43.1h-39.65V54.42Zm0,44.95h39.65v43.1h-39.65v-43.1Zm0,44.95h39.65v43.1h-39.65v-43.1Zm0,44.96h39.65v43.1h-39.65v-43.1Zm0,44.95h39.65v43.1h-39.65v-43.1Zm0,44.95h39.65v43.1h-39.65v-43.1Zm0,44.95h39.65v43.1h-39.65v-43.1Zm0,44.96h39.65v43.1h-39.65v-43.1Zm0,44.95h39.65v43.1h-39.65v-43.1Zm0,44.95h39.65v43.1h-39.65v-43.1Zm0,44.95h39.65v43.1h-39.65v-43.1Zm0,44.96h39.65v43.1h-39.65v-43.1Zm0,44.95h39.65v43.1h-39.65v-43.1Zm0,44.95h39.65v43.1h-39.65v-43.1Zm0,44.96h39.65v43.1h-39.65v-43.1Zm0,44.95h39.65v43.1h-39.65v-43.1Zm0,44.95h39.65v43.1h-39.65v-43.1Zm0,44.95h39.65v43.1h-39.65v-43.1Zm0,44.95h39.65v43.1h-39.65v-43.1Zm0,44.95h39.65v43.1h-39.65v-43.1Zm0,44.95h39.65v43.1h-39.65v-43.1ZM294.98-35.49h39.64V7.62h-39.64V-35.49Zm0,44.96h39.64V52.57h-39.64V9.47Zm0,44.95h39.64v43.1h-39.64V54.42Zm0,44.95h39.64v43.1h-39.64v-43.1Zm0,44.95h39.64v43.1h-39.64v-43.1Zm0,44.96h39.64v43.1h-39.64v-43.1Zm0,44.95h39.64v43.1h-39.64v-43.1Zm0,44.95h39.64v43.1h-39.64v-43.1Zm0,44.95h39.64v43.1h-39.64v-43.1Zm0,44.96h39.64v43.1h-39.64v-43.1Zm0,44.95h39.64v43.1h-39.64v-43.1Zm0,44.95h39.64v43.1h-39.64v-43.1Zm0,44.95h39.64v43.1h-39.64v-43.1Zm0,44.96h39.64v43.1h-39.64v-43.1Zm0,44.95h39.64v43.1h-39.64v-43.1Zm0,44.95h39.64v43.1h-39.64v-43.1Zm0,44.96h39.64v43.1h-39.64v-43.1Zm0,44.95h39.64v43.1h-39.64v-43.1Zm0,44.95h39.64v43.1h-39.64v-43.1Zm0,44.95h39.64v43.1h-39.64v-43.1Zm0,44.95h39.64v43.1h-39.64v-43.1Zm0,44.95h39.64v43.1h-39.64v-43.1Zm0,44.95h39.64v43.1h-39.64v-43.1ZM253.48-35.49h39.64V7.62h-39.64V-35.49Zm0,44.96h39.64V52.57h-39.64V9.47Zm0,44.95h39.64v43.1h-39.64V54.42Zm0,44.95h39.64v43.1h-39.64v-43.1Zm0,44.95h39.64v43.1h-39.64v-43.1Zm0,44.96h39.64v43.1h-39.64v-43.1Zm0,44.95h39.64v43.1h-39.64v-43.1Zm0,44.95h39.64v43.1h-39.64v-43.1Zm0,44.95h39.64v43.1h-39.64v-43.1Zm0,44.96h39.64v43.1h-39.64v-43.1Zm0,44.95h39.64v43.1h-39.64v-43.1Zm0,44.95h39.64v43.1h-39.64v-43.1Zm0,44.95h39.64v43.1h-39.64v-43.1Zm0,44.96h39.64v43.1h-39.64v-43.1Zm0,44.95h39.64v43.1h-39.64v-43.1Zm0,44.95h39.64v43.1h-39.64v-43.1Zm0,44.96h39.64v43.1h-39.64v-43.1Zm0,44.95h39.64v43.1h-39.64v-43.1Zm0,44.95h39.64v43.1h-39.64v-43.1Zm0,44.95h39.64v43.1h-39.64v-43.1Zm0,44.95h39.64v43.1h-39.64v-43.1Zm0,44.95h39.64v43.1h-39.64v-43.1Zm0,44.95h39.64v43.1h-39.64v-43.1ZM211.99-35.49h39.65V7.62h-39.65V-35.49Zm0,44.96h39.65V52.57h-39.65V9.47Zm0,44.95h39.65v43.1h-39.65V54.42Zm0,44.95h39.65v43.1h-39.65v-43.1Zm0,44.95h39.65v43.1h-39.65v-43.1Zm0,44.96h39.65v43.1h-39.65v-43.1Zm0,44.95h39.65v43.1h-39.65v-43.1Zm0,44.95h39.65v43.1h-39.65v-43.1Zm0,44.95h39.65v43.1h-39.65v-43.1Zm0,44.96h39.65v43.1h-39.65v-43.1Zm0,44.95h39.65v43.1h-39.65v-43.1Zm0,44.95h39.65v43.1h-39.65v-43.1Zm0,44.95h39.65v43.1h-39.65v-43.1Zm0,44.96h39.65v43.1h-39.65v-43.1Zm0,44.95h39.65v43.1h-39.65v-43.1Zm0,44.95h39.65v43.1h-39.65v-43.1Zm0,44.96h39.65v43.1h-39.65v-43.1Zm0,44.95h39.65v43.1h-39.65v-43.1Zm0,44.95h39.65v43.1h-39.65v-43.1Zm0,44.95h39.65v43.1h-39.65v-43.1Zm0,44.95h39.65v43.1h-39.65v-43.1Zm0,44.95h39.65v43.1h-39.65v-43.1Zm0,44.95h39.65v43.1h-39.65v-43.1ZM170.49-35.49h39.64V7.62h-39.64V-35.49Zm0,44.96h39.64V52.57h-39.64V9.47Zm0,44.95h39.64v43.1h-39.64V54.42Zm0,44.95h39.64v43.1h-39.64v-43.1Zm0,44.95h39.64v43.1h-39.64v-43.1Zm0,44.96h39.64v43.1h-39.64v-43.1Zm0,44.95h39.64v43.1h-39.64v-43.1Zm0,44.95h39.64v43.1h-39.64v-43.1Zm0,44.95h39.64v43.1h-39.64v-43.1Zm0,44.96h39.64v43.1h-39.64v-43.1Zm0,44.95h39.64v43.1h-39.64v-43.1Zm0,44.95h39.64v43.1h-39.64v-43.1Zm0,44.95h39.64v43.1h-39.64v-43.1Zm0,44.96h39.64v43.1h-39.64v-43.1Zm0,44.95h39.64v43.1h-39.64v-43.1Zm0,44.95h39.64v43.1h-39.64v-43.1Zm0,44.96h39.64v43.1h-39.64v-43.1Zm0,44.95h39.64v43.1h-39.64v-43.1Zm0,44.95h39.64v43.1h-39.64v-43.1Zm0,44.95h39.64v43.1h-39.64v-43.1Zm0,44.95h39.64v43.1h-39.64v-43.1Zm0,44.95h39.64v43.1h-39.64v-43.1Zm0,44.95h39.64v43.1h-39.64v-43.1ZM129-35.49h39.65V7.62h-39.65V-35.49Zm0,44.96h39.65V52.57h-39.65V9.47Zm0,44.95h39.65v43.1h-39.65V54.42Zm0,44.95h39.65v43.1h-39.65v-43.1Zm0,44.95h39.65v43.1h-39.65v-43.1Zm0,44.96h39.65v43.1h-39.65v-43.1Zm0,44.95h39.65v43.1h-39.65v-43.1Zm0,44.95h39.65v43.1h-39.65v-43.1Zm0,44.95h39.65v43.1h-39.65v-43.1Zm0,44.96h39.65v43.1h-39.65v-43.1Zm0,44.95h39.65v43.1h-39.65v-43.1Zm0,44.95h39.65v43.1h-39.65v-43.1Zm0,44.95h39.65v43.1h-39.65v-43.1Zm0,44.96h39.65v43.1h-39.65v-43.1Zm0,44.95h39.65v43.1h-39.65v-43.1Zm0,44.95h39.65v43.1h-39.65v-43.1Zm0,44.96h39.65v43.1h-39.65v-43.1Zm0,44.95h39.65v43.1h-39.65v-43.1Zm0,44.95h39.65v43.1h-39.65v-43.1Zm0,44.95h39.65v43.1h-39.65v-43.1Zm0,44.95h39.65v43.1h-39.65v-43.1Zm0,44.95h39.65v43.1h-39.65v-43.1Zm0,44.95h39.65v43.1h-39.65v-43.1ZM87.5-35.49h39.64V7.62h-39.64V-35.49Zm0,44.96h39.64V52.57h-39.64V9.47Zm0,44.95h39.64v43.1h-39.64V54.42Zm0,44.95h39.64v43.1h-39.64v-43.1Zm0,44.95h39.64v43.1h-39.64v-43.1Zm0,44.96h39.64v43.1h-39.64v-43.1Zm0,44.95h39.64v43.1h-39.64v-43.1Zm0,44.95h39.64v43.1h-39.64v-43.1Zm0,44.95h39.64v43.1h-39.64v-43.1Zm0,44.96h39.64v43.1h-39.64v-43.1Zm0,44.95h39.64v43.1h-39.64v-43.1Zm0,44.95h39.64v43.1h-39.64v-43.1Zm0,44.95h39.64v43.1h-39.64v-43.1Zm0,44.96h39.64v43.1h-39.64v-43.1Zm0,44.95h39.64v43.1h-39.64v-43.1Zm0,44.95h39.64v43.1h-39.64v-43.1Zm0,44.96h39.64v43.1h-39.64v-43.1Zm0,44.95h39.64v43.1h-39.64v-43.1Zm0,44.95h39.64v43.1h-39.64v-43.1Zm0,44.95h39.64v43.1h-39.64v-43.1Zm0,44.95h39.64v43.1h-39.64v-43.1Zm0,44.95h39.64v43.1h-39.64v-43.1Zm0,44.95h39.64v43.1h-39.64v-43.1ZM46-35.49h39.65V7.62H46V-35.49Zm0,44.96h39.65V52.57H46V9.47Zm0,44.95h39.65v43.1H46V54.42Zm0,44.95h39.65v43.1H46v-43.1Zm0,44.95h39.65v43.1H46v-43.1Zm0,44.96h39.65v43.1H46v-43.1Zm0,44.95h39.65v43.1H46v-43.1Zm0,44.95h39.65v43.1H46v-43.1Zm0,44.95h39.65v43.1H46v-43.1Zm0,44.96h39.65v43.1H46v-43.1Zm0,44.95h39.65v43.1H46v-43.1Zm0,44.95h39.65v43.1H46v-43.1Zm0,44.95h39.65v43.1H46v-43.1Zm0,44.96h39.65v43.1H46v-43.1Zm0,44.95h39.65v43.1H46v-43.1Zm0,44.95h39.65v43.1H46v-43.1Zm0,44.96h39.65v43.1H46v-43.1Zm0,44.95h39.65v43.1H46v-43.1Zm0,44.95h39.65v43.1H46v-43.1Zm0,44.95h39.65v43.1H46v-43.1Zm0,44.95h39.65v43.1H46v-43.1Zm0,44.95h39.65v43.1H46v-43.1Zm0,44.95h39.65v43.1H46v-43.1ZM4.51-35.49H44.15V7.62H4.51V-35.49Zm0,44.96H44.15V52.57H4.51V9.47Zm0,44.95H44.15v43.1H4.51V54.42Zm0,44.95H44.15v43.1H4.51v-43.1Zm0,44.95H44.15v43.1H4.51v-43.1Zm0,44.96H44.15v43.1H4.51v-43.1Zm0,44.95H44.15v43.1H4.51v-43.1Zm0,44.95H44.15v43.1H4.51v-43.1Zm0,44.95H44.15v43.1H4.51v-43.1Zm0,44.96H44.15v43.1H4.51v-43.1Zm0,44.95H44.15v43.1H4.51v-43.1Zm0,44.95H44.15v43.1H4.51v-43.1Zm0,44.95H44.15v43.1H4.51v-43.1Zm0,44.96H44.15v43.1H4.51v-43.1Zm0,44.95H44.15v43.1H4.51v-43.1Zm0,44.95H44.15v43.1H4.51v-43.1Zm0,44.96H44.15v43.1H4.51v-43.1Zm0,44.95H44.15v43.1H4.51v-43.1Zm0,44.95H44.15v43.1H4.51v-43.1Zm0,44.95H44.15v43.1H4.51v-43.1Zm0,44.95H44.15v43.1H4.51v-43.1Zm0,44.95H44.15v43.1H4.51v-43.1Zm0,44.95H44.15v43.1H4.51v-43.1ZM-36.99-35.49H2.66V7.62H-36.99V-35.49Zm0,44.96H2.66V52.57H-36.99V9.47Zm0,44.95H2.66v43.1H-36.99V54.42Zm0,44.95H2.66v43.1H-36.99v-43.1Zm0,44.95H2.66v43.1H-36.99v-43.1Zm0,44.96H2.66v43.1H-36.99v-43.1Zm0,44.95H2.66v43.1H-36.99v-43.1Zm0,44.95H2.66v43.1H-36.99v-43.1Zm0,44.95H2.66v43.1H-36.99v-43.1Zm0,44.96H2.66v43.1H-36.99v-43.1Zm0,44.95H2.66v43.1H-36.99v-43.1Zm0,44.95H2.66v43.1H-36.99v-43.1Zm0,44.95H2.66v43.1H-36.99v-43.1Zm0,44.96H2.66v43.1H-36.99v-43.1Zm0,44.95H2.66v43.1H-36.99v-43.1Zm0,44.95H2.66v43.1H-36.99v-43.1Zm0,44.96H2.66v43.1H-36.99v-43.1Zm0,44.95H2.66v43.1H-36.99v-43.1Zm0,44.95H2.66v43.1H-36.99v-43.1Zm0,44.95H2.66v43.1H-36.99v-43.1Zm0,44.95H2.66v43.1H-36.99v-43.1Zm0,44.95H2.66v43.1H-36.99v-43.1Zm0,44.95H2.66v43.1H-36.99v-43.1ZM-78.48-35.49H-38.84V7.62h-39.64V-35.49Zm0,44.96H-38.84V52.57h-39.64V9.47Zm0,44.95H-38.84v43.1h-39.64V54.42Zm0,44.95H-38.84v43.1h-39.64v-43.1Zm0,44.95H-38.84v43.1h-39.64v-43.1Zm0,44.96H-38.84v43.1h-39.64v-43.1Zm0,44.95H-38.84v43.1h-39.64v-43.1Zm0,44.95H-38.84v43.1h-39.64v-43.1Zm0,44.95H-38.84v43.1h-39.64v-43.1Zm0,44.96H-38.84v43.1h-39.64v-43.1Zm0,44.95H-38.84v43.1h-39.64v-43.1Zm0,44.95H-38.84v43.1h-39.64v-43.1Zm0,44.95H-38.84v43.1h-39.64v-43.1Zm0,44.96H-38.84v43.1h-39.64v-43.1Zm0,44.95H-38.84v43.1h-39.64v-43.1Zm0,44.95H-38.84v43.1h-39.64v-43.1Zm0,44.96H-38.84v43.1h-39.64v-43.1Zm0,44.95H-38.84v43.1h-39.64v-43.1Zm0,44.95H-38.84v43.1h-39.64v-43.1Zm0,44.95H-38.84v43.1h-39.64v-43.1Zm0,44.95H-38.84v43.1h-39.64v-43.1Zm0,44.95H-38.84v43.1h-39.64v-43.1Zm0,44.95H-38.84v43.1h-39.64v-43.1ZM-119.98-35.49h39.65V7.62h-39.65V-35.49Zm0,44.96h39.65V52.57h-39.65V9.47Zm0,44.95h39.65v43.1h-39.65V54.42Zm0,44.95h39.65v43.1h-39.65v-43.1Zm0,44.95h39.65v43.1h-39.65v-43.1Zm0,44.96h39.65v43.1h-39.65v-43.1Zm0,44.95h39.65v43.1h-39.65v-43.1Zm0,44.95h39.65v43.1h-39.65v-43.1Zm0,44.95h39.65v43.1h-39.65v-43.1Zm0,44.96h39.65v43.1h-39.65v-43.1Zm0,44.95h39.65v43.1h-39.65v-43.1Zm0,44.95h39.65v43.1h-39.65v-43.1Zm0,44.95h39.65v43.1h-39.65v-43.1Zm0,44.96h39.65v43.1h-39.65v-43.1Zm0,44.95h39.65v43.1h-39.65v-43.1Zm0,44.95h39.65v43.1h-39.65v-43.1Zm0,44.96h39.65v43.1h-39.65v-43.1Zm0,44.95h39.65v43.1h-39.65v-43.1Zm0,44.95h39.65v43.1h-39.65v-43.1Zm0,44.95h39.65v43.1h-39.65v-43.1Zm0,44.95h39.65v43.1h-39.65v-43.1Zm0,44.95h39.65v43.1h-39.65v-43.1Zm0,44.95h39.65v43.1h-39.65v-43.1ZM-161.47-35.49h39.64V7.62h-39.64V-35.49Zm0,44.96h39.64V52.57h-39.64V9.47Zm0,44.95h39.64v43.1h-39.64V54.42Zm0,44.95h39.64v43.1h-39.64v-43.1Zm0,44.95h39.64v43.1h-39.64v-43.1Zm0,44.96h39.64v43.1h-39.64v-43.1Zm0,44.95h39.64v43.1h-39.64v-43.1Zm0,44.95h39.64v43.1h-39.64v-43.1Zm0,44.95h39.64v43.1h-39.64v-43.1Zm0,44.96h39.64v43.1h-39.64v-43.1Zm0,44.95h39.64v43.1h-39.64v-43.1Zm0,44.95h39.64v43.1h-39.64v-43.1Zm0,44.95h39.64v43.1h-39.64v-43.1Zm0,44.96h39.64v43.1h-39.64v-43.1Zm0,44.95h39.64v43.1h-39.64v-43.1Zm0,44.95h39.64v43.1h-39.64v-43.1Zm0,44.96h39.64v43.1h-39.64v-43.1Zm0,44.95h39.64v43.1h-39.64v-43.1Zm0,44.95h39.64v43.1h-39.64v-43.1Zm0,44.95h39.64v43.1h-39.64v-43.1Zm0,44.95h39.64v43.1h-39.64v-43.1Zm0,44.95h39.64v43.1h-39.64v-43.1Zm0,44.95h39.64v43.1h-39.64v-43.1ZM-202.97-35.49h39.65V7.62h-39.65V-35.49Zm0,44.96h39.65V52.57h-39.65V9.47Zm0,44.95h39.65v43.1h-39.65V54.42Zm0,44.95h39.65v43.1h-39.65v-43.1Zm0,44.95h39.65v43.1h-39.65v-43.1Zm0,44.96h39.65v43.1h-39.65v-43.1Zm0,44.95h39.65v43.1h-39.65v-43.1Zm0,44.95h39.65v43.1h-39.65v-43.1Zm0,44.95h39.65v43.1h-39.65v-43.1Zm0,44.96h39.65v43.1h-39.65v-43.1Zm0,44.95h39.65v43.1h-39.65v-43.1Zm0,44.95h39.65v43.1h-39.65v-43.1Zm0,44.95h39.65v43.1h-39.65v-43.1Zm0,44.96h39.65v43.1h-39.65v-43.1Zm0,44.95h39.65v43.1h-39.65v-43.1Zm0,44.95h39.65v43.1h-39.65v-43.1Zm0,44.96h39.65v43.1h-39.65v-43.1Zm0,44.95h39.65v43.1h-39.65v-43.1Zm0,44.95h39.65v43.1h-39.65v-43.1Zm0,44.95h39.65v43.1h-39.65v-43.1Zm0,44.95h39.65v43.1h-39.65v-43.1Zm0,44.95h39.65v43.1h-39.65v-43.1Zm0,44.95h39.65v43.1h-39.65v-43.1ZM-244.47-35.49h39.64V7.62h-39.64V-35.49Zm0,44.96h39.64V52.57h-39.64V9.47Zm0,44.95h39.64v43.1h-39.64V54.42Zm0,44.95h39.64v43.1h-39.64v-43.1Zm0,44.95h39.64v43.1h-39.64v-43.1Zm0,44.96h39.64v43.1h-39.64v-43.1Zm0,44.95h39.64v43.1h-39.64v-43.1Zm0,44.95h39.64v43.1h-39.64v-43.1Zm0,44.95h39.64v43.1h-39.64v-43.1Zm0,44.96h39.64v43.1h-39.64v-43.1Zm0,44.95h39.64v43.1h-39.64v-43.1Zm0,44.95h39.64v43.1h-39.64v-43.1Zm0,44.95h39.64v43.1h-39.64v-43.1Zm0,44.96h39.64v43.1h-39.64v-43.1Zm0,44.95h39.64v43.1h-39.64v-43.1Zm0,44.95h39.64v43.1h-39.64v-43.1Zm0,44.96h39.64v43.1h-39.64v-43.1Zm0,44.95h39.64v43.1h-39.64v-43.1Zm0,44.95h39.64v43.1h-39.64v-43.1Zm0,44.95h39.64v43.1h-39.64v-43.1Zm0,44.95h39.64v43.1h-39.64v-43.1Zm0,44.95h39.64v43.1h-39.64v-43.1Zm0,44.95h39.64v43.1h-39.64v-43.1ZM-285.96-35.49h39.65V7.62h-39.65V-35.49Zm0,44.96h39.65V52.57h-39.65V9.47Zm0,44.95h39.65v43.1h-39.65V54.42Zm0,44.95h39.65v43.1h-39.65v-43.1Zm0,44.95h39.65v43.1h-39.65v-43.1Zm0,44.96h39.65v43.1h-39.65v-43.1Zm0,44.95h39.65v43.1h-39.65v-43.1Zm0,44.95h39.65v43.1h-39.65v-43.1Zm0,44.95h39.65v43.1h-39.65v-43.1Zm0,44.96h39.65v43.1h-39.65v-43.1Zm0,44.95h39.65v43.1h-39.65v-43.1Zm0,44.95h39.65v43.1h-39.65v-43.1Zm0,44.95h39.65v43.1h-39.65v-43.1Zm0,44.96h39.65v43.1h-39.65v-43.1Zm0,44.95h39.65v43.1h-39.65v-43.1Zm0,44.95h39.65v43.1h-39.65v-43.1Zm0,44.96h39.65v43.1h-39.65v-43.1Zm0,44.95h39.65v43.1h-39.65v-43.1Zm0,44.95h39.65v43.1h-39.65v-43.1Zm0,44.95h39.65v43.1h-39.65v-43.1Zm0,44.95h39.65v43.1h-39.65v-43.1Zm0,44.95h39.65v43.1h-39.65v-43.1Zm0,44.95h39.65v43.1h-39.65v-43.1ZM-327.46-35.49h39.64V7.62h-39.64V-35.49Zm0,44.96h39.64V52.57h-39.64V9.47Zm0,44.95h39.64v43.1h-39.64V54.42Zm0,44.95h39.64v43.1h-39.64v-43.1Zm0,44.95h39.64v43.1h-39.64v-43.1Zm0,44.96h39.64v43.1h-39.64v-43.1Zm0,44.95h39.64v43.1h-39.64v-43.1Zm0,44.95h39.64v43.1h-39.64v-43.1Zm0,44.95h39.64v43.1h-39.64v-43.1Zm0,44.96h39.64v43.1h-39.64v-43.1Zm0,44.95h39.64v43.1h-39.64v-43.1Zm0,44.95h39.64v43.1h-39.64v-43.1Zm0,44.95h39.64v43.1h-39.64v-43.1Zm0,44.96h39.64v43.1h-39.64v-43.1Zm0,44.95h39.64v43.1h-39.64v-43.1Zm0,44.95h39.64v43.1h-39.64v-43.1Zm0,44.96h39.64v43.1h-39.64v-43.1Zm0,44.95h39.64v43.1h-39.64v-43.1Zm0,44.95h39.64v43.1h-39.64v-43.1Zm0,44.95h39.64v43.1h-39.64v-43.1Zm0,44.95h39.64v43.1h-39.64v-43.1Zm0,44.95h39.64v43.1h-39.64v-43.1Zm0,44.95h39.64v43.1h-39.64v-43.1ZM-368.95-35.49h39.65V7.62h-39.65V-35.49Zm0,44.96h39.65V52.57h-39.65V9.47Zm0,44.95h39.65v43.1h-39.65V54.42Zm0,44.95h39.65v43.1h-39.65v-43.1Zm0,44.95h39.65v43.1h-39.65v-43.1Zm0,44.96h39.65v43.1h-39.65v-43.1Zm0,44.95h39.65v43.1h-39.65v-43.1Zm0,44.95h39.65v43.1h-39.65v-43.1Zm0,44.95h39.65v43.1h-39.65v-43.1Zm0,44.96h39.65v43.1h-39.65v-43.1Zm0,44.95h39.65v43.1h-39.65v-43.1Zm0,44.95h39.65v43.1h-39.65v-43.1Zm0,44.95h39.65v43.1h-39.65v-43.1Zm0,44.96h39.65v43.1h-39.65v-43.1Zm0,44.95h39.65v43.1h-39.65v-43.1Zm0,44.95h39.65v43.1h-39.65v-43.1Zm0,44.96h39.65v43.1h-39.65v-43.1Zm0,44.95h39.65v43.1h-39.65v-43.1Zm0,44.95h39.65v43.1h-39.65v-43.1Zm0,44.95h39.65v43.1h-39.65v-43.1Zm0,44.95h39.65v43.1h-39.65v-43.1Zm0,44.95h39.65v43.1h-39.65v-43.1Zm0,44.95h39.65v43.1h-39.65v-43.1ZM-410.45-35.49h39.64V7.62h-39.64V-35.49Zm0,44.96h39.64V52.57h-39.64V9.47Zm0,44.95h39.64v43.1h-39.64V54.42Zm0,44.95h39.64v43.1h-39.64v-43.1Zm0,44.95h39.64v43.1h-39.64v-43.1Zm0,44.96h39.64v43.1h-39.64v-43.1Zm0,44.95h39.64v43.1h-39.64v-43.1Zm0,44.95h39.64v43.1h-39.64v-43.1Zm0,44.95h39.64v43.1h-39.64v-43.1Zm0,44.96h39.64v43.1h-39.64v-43.1Zm0,44.95h39.64v43.1h-39.64v-43.1Zm0,44.95h39.64v43.1h-39.64v-43.1Zm0,44.95h39.64v43.1h-39.64v-43.1Zm0,44.96h39.64v43.1h-39.64v-43.1Zm0,44.95h39.64v43.1h-39.64v-43.1Zm0,44.95h39.64v43.1h-39.64v-43.1Zm0,44.96h39.64v43.1h-39.64v-43.1Zm0,44.95h39.64v43.1h-39.64v-43.1Zm0,44.95h39.64v43.1h-39.64v-43.1Zm0,44.95h39.64v43.1h-39.64v-43.1Zm0,44.95h39.64v43.1h-39.64v-43.1Zm0,44.95h39.64v43.1h-39.64v-43.1Zm0,44.95h39.64v43.1h-39.64v-43.1ZM-451.95-35.49h39.65V7.62h-39.65V-35.49Zm0,44.96h39.65V52.57h-39.65V9.47Zm0,44.95h39.65v43.1h-39.65V54.42Zm0,44.95h39.65v43.1h-39.65v-43.1Zm0,44.95h39.65v43.1h-39.65v-43.1Zm0,44.96h39.65v43.1h-39.65v-43.1Zm0,44.95h39.65v43.1h-39.65v-43.1Zm0,44.95h39.65v43.1h-39.65v-43.1Zm0,44.95h39.65v43.1h-39.65v-43.1Zm0,44.96h39.65v43.1h-39.65v-43.1Zm0,44.95h39.65v43.1h-39.65v-43.1Zm0,44.95h39.65v43.1h-39.65v-43.1Zm0,44.95h39.65v43.1h-39.65v-43.1Zm0,44.96h39.65v43.1h-39.65v-43.1Zm0,44.95h39.65v43.1h-39.65v-43.1Zm0,44.95h39.65v43.1h-39.65v-43.1Zm0,44.96h39.65v43.1h-39.65v-43.1Zm0,44.95h39.65v43.1h-39.65v-43.1Zm0,44.95h39.65v43.1h-39.65v-43.1Zm0,44.95h39.65v43.1h-39.65v-43.1Zm0,44.95h39.65v43.1h-39.65v-43.1Zm0,44.95h39.65v43.1h-39.65v-43.1Zm0,44.95h39.65v43.1h-39.65v-43.1ZM-493.44-35.49h39.64V7.62h-39.64V-35.49Zm0,44.96h39.64V52.57h-39.64V9.47Zm0,44.95h39.64v43.1h-39.64V54.42Zm0,44.95h39.64v43.1h-39.64v-43.1Zm0,44.95h39.64v43.1h-39.64v-43.1Zm0,44.96h39.64v43.1h-39.64v-43.1Zm0,44.95h39.64v43.1h-39.64v-43.1Zm0,44.95h39.64v43.1h-39.64v-43.1Zm0,44.95h39.64v43.1h-39.64v-43.1Zm0,44.96h39.64v43.1h-39.64v-43.1Zm0,44.95h39.64v43.1h-39.64v-43.1Zm0,44.95h39.64v43.1h-39.64v-43.1Zm0,44.95h39.64v43.1h-39.64v-43.1Zm0,44.96h39.64v43.1h-39.64v-43.1Zm0,44.95h39.64v43.1h-39.64v-43.1Zm0,44.95h39.64v43.1h-39.64v-43.1Zm0,44.96h39.64v43.1h-39.64v-43.1Zm0,44.95h39.64v43.1h-39.64v-43.1Zm0,44.95h39.64v43.1h-39.64v-43.1Zm0,44.95h39.64v43.1h-39.64v-43.1Zm0,44.95h39.64v43.1h-39.64v-43.1Zm0,44.95h39.64v43.1h-39.64v-43.1Zm0,44.95h39.64v43.1h-39.64v-43.1Z" fill="url(#uuid-66c3592f-ef17-4083-926c-8633d6a90b1c)" mix-blend-mode="color-dodge"/>
              </g>
            </g>
          </g>
        </g>
        <g>
          <path d="M523.55,661.8v294.27c0,27.64-22.41,50.05-50.05,50.05H122.13c-27.64,0-50.05-22.41-50.05-50.05v-294.27c149.01-29.82,302.46-29.82,451.47,0Z" fill="#429f06"/>
          <path d="M523.55,661.8v29.8c-42.82-10.8-140.16-33.35-219.11-36.99-78.91-3.64-185.14,24.14-232.36,37.94v-30.75c149.01-29.82,302.46-29.82,451.47,0Z" fill="#4eb30d"/>
        </g>
        <g>
          <path d="M544.36,341.92v-112.68h-5.43V61.59c0-29.62-24.01-53.64-53.64-53.64H115.84c-30.87,0-56.13,25.26-56.13,56.13v71.48c-2.25,0-4.07,1.82-4.07,4.07v28.51c0,2.25,1.82,4.07,4.07,4.07v33.94c-2.25,0-4.07,1.82-4.07,4.07v61.09c0,2.25,1.82,4.07,4.07,4.07v20.36c-2.25,0-4.07,1.82-4.07,4.07v61.09c0,2.25,1.82,4.07,4.07,4.07V878.87h.09v17.6h-.02v65.94c0,29.62,24.01,53.64,53.64,53.64H482.88c30.87,0,56.13-25.26,56.13-56.13v-2.62h.05v-80.64h-.12V341.92h5.43Zm-68.25,659.85H118.73c-25.06,0-43.57-18.32-43.57-43.38l.58-892.78c0-25.06,21.79-43.38,46.85-43.38H479.98c25.06,0,43.57,18.32,43.57,43.38l-.58,892.78c0,25.06-21.79,43.38-46.85,43.38Z" fill="#4d4d4d"/>
          <path d="M118.82,55.34c.87-.72,1.55-1.3,2.05-1.76,.5-.46,.92-.94,1.27-1.45,.34-.5,.52-.99,.52-1.47,0-.36-.08-.65-.25-.85s-.42-.3-.76-.3-.6,.12-.79,.38c-.19,.25-.28,.61-.28,1.07h-2.19c.02-.75,.18-1.38,.48-1.88,.31-.5,.71-.87,1.2-1.11,.5-.24,1.05-.36,1.66-.36,1.05,0,1.84,.27,2.38,.81s.8,1.24,.8,2.11c0,.95-.33,1.82-.97,2.63-.64,.81-1.47,1.6-2.47,2.37h3.58v1.84h-6.66v-1.68c.3-.24,.44-.35,.41-.33Z" fill="#fff"/>
          <path d="M126.39,55.34c.87-.72,1.55-1.3,2.05-1.76,.5-.46,.92-.94,1.27-1.45,.34-.5,.52-.99,.52-1.47,0-.36-.08-.65-.25-.85s-.42-.3-.76-.3-.6,.12-.79,.38c-.19,.25-.28,.61-.28,1.07h-2.19c.02-.75,.18-1.38,.48-1.88,.31-.5,.71-.87,1.2-1.11,.5-.24,1.05-.36,1.66-.36,1.05,0,1.84,.27,2.38,.81,.54,.54,.8,1.24,.8,2.11,0,.95-.32,1.82-.97,2.63-.64,.81-1.47,1.6-2.47,2.37h3.58v1.84h-6.66v-1.68c.3-.24,.44-.35,.41-.33Z" fill="#fff"/>
          <path d="M133.94,51.84c-.25-.23-.38-.52-.38-.87s.13-.65,.38-.89,.58-.36,.98-.36,.71,.12,.96,.36,.38,.54,.38,.89-.13,.63-.38,.87c-.25,.23-.57,.35-.96,.35s-.72-.12-.98-.35Zm0,5.4c-.25-.23-.38-.52-.38-.87s.13-.65,.38-.89c.25-.24,.58-.36,.98-.36s.71,.12,.96,.36c.25,.24,.38,.54,.38,.89s-.13,.63-.38,.87c-.25,.23-.57,.35-.96,.35s-.72-.12-.98-.35Z" fill="#fff"/>
          <path d="M137.45,55.76v-1.83l4.19-5.99h2.53v5.86h1.09v1.96h-1.09v1.72h-2.27v-1.72h-4.46Zm4.61-5.33l-2.23,3.37h2.23v-3.37Z" fill="#fff"/>
          <path d="M152.55,49.5l-3.33,7.98h-2.32l3.37-7.73h-4.13v-1.94h6.41v1.68Z" fill="#fff"/>
          <path id="uuid-be913e1f-d500-4b66-b1a5-6da0f0aae8cf" data-name="Battery Icon - 100%" d="M481.14,52.59c0,1.07-.59,1.93-1.66,1.93v-3.87c1.07,0,1.66,.87,1.66,1.93Zm-2.21-3.59v7.18h0c0,.92-.74,1.66-1.66,1.66h-21.55c-.92,0-1.66-.73-1.66-1.65h0v-7.19c0-.92,.74-1.66,1.66-1.66h21.55c.92,0,1.66,.74,1.66,1.66Zm-23.2-1.11c-.61,0-1.1,.5-1.1,1.11v7.18c0,.61,.5,1.1,1.1,1.1h21.55c.61,0,1.11-.5,1.11-1.1v-7.18c0-.61-.5-1.11-1.11-1.11h-21.55Zm-.55,1.11v7.18c0,.3,.25,.55,.55,.55h21.55c.3,0,.55-.25,.55-.55v-7.18c0-.3-.25-.55-.55-.55h-21.55c-.3,0-.55,.25-.55,.55Z" fill="#fff" fill-rule="evenodd"/>
          <path id="uuid-e9be0a63-07bb-4072-9799-13fdd244615a" data-name="Wi-Fi Icon" d="M441.53,47.34c2.33,0,4.68,.92,6.63,2.58l-.88,.98c-1.61-1.36-3.65-2.1-5.75-2.1s-4.14,.74-5.74,2.09l-.88-.98c1.95-1.66,4.3-2.57,6.63-2.57Zm0,3.43c1.57,0,3.13,.58,4.4,1.63l-.94,1.05c-.97-.79-2.2-1.22-3.45-1.22s-2.47,.43-3.45,1.22l-.94-1.05c1.27-1.05,2.82-1.63,4.39-1.63Zm0,3.39c.74,0,1.49,.27,2.13,.77l-2.13,2.36-2.12-2.36c.64-.49,1.39-.76,2.12-.76Z" fill="#fff"/>
          <rect x="234.62" y="35.72" width="119.02" height="34.87" rx="11.53" ry="11.53" fill="#333"/>
          <circle cx="332.91" cy="52.99" r="10.93" fill="#111012"/>
          <ellipse cx="332.91" cy="52.99" rx="8.62" ry="8.64" transform="translate(60.04 250.92) rotate(-45)" fill="#17161c"/>
          <path d="M333.58,59.58c-4.18,.41-7.68-3.09-7.25-7.28,.31-3.09,2.82-5.59,5.91-5.9,4.18-.41,7.68,3.09,7.25,7.28-.31,3.09-2.82,5.59-5.91,5.9Z" fill="#0a1118"/>
          <path d="M329.19,58.45c-1.81-1.23-2.9-3.28-2.9-5.47h1.45c0,1.71,.85,3.3,2.26,4.27l-.82,1.2Z" fill="#342a35"/>
          <path d="M337.97,52.08c-.31-1.73-1.45-3.16-3.07-3.85l.57-1.34c2.08,.88,3.55,2.72,3.94,4.94l-1.43,.25Z" fill="#342a35"/>
          <path d="M331.3,50.25s-2.55,.36-2.55,2.86,2.55,2.6,2.55,2.6v-5.46Z" fill="#417074" opacity=".38"/>
          <path d="M334.51,50.25s2.55,.36,2.55,2.86c0,2.5-2.55,2.6-2.55,2.6v-5.46Z" fill="#417074" opacity=".38"/>
          <path d="M338.27,56.65c-1.23,1.81-3.28,2.9-5.47,2.9v-1.45c1.71,0,3.3-.85,4.27-2.26l1.2,.82Z" fill="#342a35" opacity=".6"/>
          <path d="M331.9,47.86c-1.73,.31-3.16,1.45-3.85,3.07l-1.34-.57c.88-2.08,2.72-3.55,4.94-3.94l.25,1.43Z" fill="#342a35" opacity=".6"/>
        </g>
        <g>
          <ellipse cx="198.47" cy="778.24" rx="65.35" ry="31.28" fill="#2f3332"/>
          <g>
            <path d="M245.33,186.34s-16.31,56.94-3.98,97.27c12.33,40.34,31.42,112.6,39.58,116.13,8.16,3.53,23.23-17.47,19.22-29.72-4.01-12.24-2.69-23.36-2.69-23.36,0,0-40.94-78.97-46.39-88.85-5.45-9.88-5.74-71.48-5.74-71.48Z" fill="#ff8b40"/>
            <path d="M315.05,195.21l-11.55-92.36h-43.61c-7.94,35.93-22.97,112.74-14.27,145.08,11.55,42.94,64.09,129.68,85.45,125.87,21.35-3.81-17.36-95.69-25.25-122.02-6.97-23.25,.43-44.72,9.24-56.58Z" fill="#fac9aa"/>
            <g>
              <ellipse cx="367.1" cy="361.14" rx="31.28" ry="65.35" transform="translate(-146.88 329.31) rotate(-40.99)" fill="#ff8b40"/>
              <rect x="305.6" y="350.13" width="130.7" height="15.34" transform="translate(397.72 -156.89) rotate(49.01)" fill="#ffa340"/>
              <ellipse cx="375.88" cy="353.5" rx="31.28" ry="65.35" transform="translate(-139.71 333.2) rotate(-40.99)" fill="#ffd840"/>
              <ellipse cx="375.88" cy="353.5" rx="24.09" ry="51.96" transform="translate(-139.71 333.2) rotate(-40.99)" fill="#ffe066"/>
              <g>
                <path d="M364.44,343.65l-2.08-8.97,6.67,2.63,2.08,8.97c.98,4.23,5.12,8.99,9.23,10.62,4.11,1.62,6.66-.5,5.68-4.73l-2.18-9.39,6.67,2.63,2.18,9.39c1.86,8.02-2.97,12.04-10.75,8.96-7.79-3.08-15.64-12.1-17.49-20.12Z" fill="#ffa340"/>
                <polygon points="380.45 370.48 373.05 338.53 379.72 341.16 387.12 373.11 380.45 370.48" fill="#ffa340"/>
                <polygon points="391.24 374.74 383.84 342.79 390.51 345.42 397.91 377.38 391.24 374.74" fill="#ffa340"/>
                <polygon points="352.39 351.38 367.93 341.64 362.36 334.72 350.29 342.29 352.39 351.38" fill="#ffa340"/>
              </g>
            </g>
            <path d="M416.86,102.85h-113.37l11.55,92.36c1.17-1.57,2.35-2.98,3.54-4.2,10.14-10.37,45.67,16.75,46.54,29.31,.86,12.56-27.62,51.15-31.22,65.26-3.59,14.11,4.12,31.59,17.89,28.73,13.77-2.86,79.59-95.3,75.53-127.8-2.32-18.54-6.93-55.41-10.47-83.66Z" fill="#fac9aa"/>
            <path d="M375.74,290.59s-14.16-10.48-19.87-7.76c-5.71,2.73-8.86,14.5-6.15,19.14,2.71,4.64,9.46,7.34,9.46,7.34l16.55-18.73Z" fill="#ff8b40"/>
          </g>
          <g>
            <ellipse cx="212.64" cy="769.59" rx="65.35" ry="31.28" fill="#ffa340"/>
            <rect x="147.29" y="756.82" width="130.7" height="15.34" fill="#ffa340"/>
            <ellipse cx="212.64" cy="757.95" rx="65.35" ry="31.28" fill="#ffd840"/>
            <ellipse cx="212.64" cy="757.95" rx="51.97" ry="24.09" fill="#ffe066"/>
            <g>
              <path d="M197.7,760.13l-8.13-4.31,6.36-3.31,8.13,4.31c3.84,2.03,10.15,2.03,14.07,0,3.92-2.04,3.99-5.35,.15-7.39l-8.51-4.52,6.36-3.31,8.51,4.52c7.27,3.86,7.14,10.13-.29,13.99-7.43,3.86-19.39,3.86-26.66,0Z" fill="#ffa340"/>
              <polygon points="228.45 765.63 199.48 750.27 205.84 746.96 234.82 762.33 228.45 765.63" fill="#ffa340"/>
              <polygon points="238.75 760.29 209.77 744.92 216.14 741.61 245.11 756.98 238.75 760.29" fill="#ffa340"/>
              <polygon points="195.63 774.29 198.47 756.17 189.6 755.84 187.39 769.92 195.63 774.29" fill="#ffa340"/>
            </g>
          </g>
          <g>
            <ellipse cx="352.03" cy="730.39" rx="65.35" ry="31.28" fill="#2f3332"/>
            <g>
              <ellipse cx="360.32" cy="721.74" rx="65.35" ry="31.28" fill="#ffa340"/>
              <rect x="294.97" y="708.98" width="130.7" height="15.34" fill="#ffa340"/>
              <ellipse cx="360.32" cy="710.1" rx="65.35" ry="31.28" fill="#ffd840"/>
              <ellipse cx="360.32" cy="710.1" rx="51.97" ry="24.09" fill="#ffe066"/>
              <g>
                <path d="M345.37,712.28l-8.13-4.31,6.36-3.31,8.13,4.31c3.84,2.04,10.15,2.03,14.07,0,3.92-2.04,3.99-5.35,.15-7.39l-8.51-4.52,6.36-3.31,8.51,4.52c7.27,3.86,7.14,10.13-.29,13.99-7.43,3.86-19.39,3.87-26.66,0Z" fill="#ffa340"/>
                <polygon points="376.13 717.79 347.15 702.42 353.52 699.11 382.49 714.48 376.13 717.79" fill="#ffa340"/>
                <polygon points="386.42 712.44 357.45 697.07 363.81 693.77 392.79 709.13 386.42 712.44" fill="#ffa340"/>
                <polygon points="343.31 726.44 346.14 708.32 337.27 707.99 335.07 722.07 343.31 726.44" fill="#ffa340"/>
              </g>
            </g>
            <g>
              <ellipse cx="360.32" cy="699.59" rx="65.35" ry="31.28" fill="#ffa340"/>
              <rect x="294.97" y="686.82" width="130.7" height="15.34" fill="#ffa340"/>
              <ellipse cx="360.32" cy="687.95" rx="65.35" ry="31.28" fill="#ffd840"/>
              <ellipse cx="360.32" cy="687.95" rx="51.97" ry="24.09" fill="#ffe066"/>
              <g>
                <path d="M345.37,690.13l-8.13-4.31,6.36-3.31,8.13,4.31c3.84,2.03,10.15,2.03,14.07,0,3.92-2.04,3.99-5.35,.15-7.39l-8.51-4.52,6.36-3.31,8.51,4.52c7.27,3.86,7.14,10.13-.29,13.99-7.43,3.86-19.39,3.86-26.66,0Z" fill="#ffa340"/>
                <polygon points="376.13 695.63 347.15 680.26 353.52 676.96 382.49 692.32 376.13 695.63" fill="#ffa340"/>
                <polygon points="386.42 690.28 357.45 674.91 363.81 671.61 392.79 686.97 386.42 690.28" fill="#ffa340"/>
                <polygon points="343.31 704.28 346.14 686.17 337.27 685.84 335.07 699.91 343.31 704.28" fill="#ffa340"/>
              </g>
            </g>
            <g>
              <ellipse cx="360.32" cy="677.43" rx="65.35" ry="31.28" fill="#ffa340"/>
              <rect x="294.97" y="664.66" width="130.7" height="15.34" fill="#ffa340"/>
              <ellipse cx="360.32" cy="665.79" rx="65.35" ry="31.28" fill="#ffd840"/>
              <ellipse cx="360.32" cy="665.79" rx="51.97" ry="24.09" fill="#ffe066"/>
              <g>
                <path d="M345.37,667.97l-8.13-4.31,6.36-3.31,8.13,4.31c3.84,2.03,10.15,2.03,14.07,0,3.92-2.04,3.99-5.35,.15-7.39l-8.51-4.52,6.36-3.31,8.51,4.52c7.27,3.86,7.14,10.13-.29,13.99-7.43,3.86-19.39,3.87-26.66,0Z" fill="#ffa340"/>
                <polygon points="376.13 673.47 347.15 658.1 353.52 654.8 382.49 670.16 376.13 673.47" fill="#ffa340"/>
                <polygon points="386.42 668.12 357.45 652.75 363.81 649.45 392.79 664.82 386.42 668.12" fill="#ffa340"/>
                <polygon points="343.31 682.13 346.14 664.01 337.27 663.68 335.07 677.76 343.31 682.13" fill="#ffa340"/>
              </g>
            </g>
            <g>
              <ellipse cx="360.32" cy="655.27" rx="65.35" ry="31.28" fill="#ffa340"/>
              <rect x="294.97" y="642.5" width="130.7" height="15.34" fill="#ffa340"/>
              <ellipse cx="360.32" cy="643.63" rx="65.35" ry="31.28" fill="#ffd840"/>
              <ellipse cx="360.32" cy="643.63" rx="51.97" ry="24.09" fill="#ffe066"/>
              <g>
                <path d="M345.37,645.81l-8.13-4.31,6.36-3.31,8.13,4.31c3.84,2.04,10.15,2.03,14.07,0,3.92-2.04,3.99-5.35,.15-7.39l-8.51-4.52,6.36-3.31,8.51,4.52c7.27,3.86,7.14,10.13-.29,13.99-7.43,3.86-19.39,3.87-26.66,0Z" fill="#ffa340"/>
                <polygon points="376.13 651.31 347.15 635.94 353.52 632.64 382.49 648 376.13 651.31" fill="#ffa340"/>
                <polygon points="386.42 645.96 357.45 630.6 363.81 627.29 392.79 642.66 386.42 645.96" fill="#ffa340"/>
                <polygon points="343.31 659.97 346.14 641.85 337.27 641.52 335.07 655.6 343.31 659.97" fill="#ffa340"/>
              </g>
            </g>
            <g>
              <ellipse cx="360.32" cy="633.11" rx="65.35" ry="31.28" fill="#ffa340"/>
              <rect x="294.97" y="620.34" width="130.7" height="15.34" fill="#ffa340"/>
              <ellipse cx="360.32" cy="621.47" rx="65.35" ry="31.28" fill="#ffd840"/>
              <ellipse cx="360.32" cy="621.47" rx="51.97" ry="24.09" fill="#ffe066"/>
              <g>
                <path d="M345.37,623.65l-8.13-4.31,6.36-3.31,8.13,4.31c3.84,2.04,10.15,2.03,14.07,0,3.92-2.04,3.99-5.35,.15-7.39l-8.51-4.52,6.36-3.31,8.51,4.52c7.27,3.86,7.14,10.13-.29,13.99-7.43,3.86-19.39,3.87-26.66,0Z" fill="#ffa340"/>
                <polygon points="376.13 629.15 347.15 613.79 353.52 610.48 382.49 625.85 376.13 629.15" fill="#ffa340"/>
                <polygon points="386.42 623.8 357.45 608.44 363.81 605.13 392.79 620.5 386.42 623.8" fill="#ffa340"/>
                <polygon points="343.31 637.81 346.14 619.69 337.27 619.36 335.07 633.44 343.31 637.81" fill="#ffa340"/>
              </g>
            </g>
            <g>
              <ellipse cx="360.32" cy="610.95" rx="65.35" ry="31.28" fill="#ffa340"/>
              <rect x="294.97" y="598.18" width="130.7" height="15.34" fill="#ffa340"/>
              <ellipse cx="360.32" cy="599.31" rx="65.35" ry="31.28" fill="#ffd840"/>
              <ellipse cx="360.32" cy="599.31" rx="51.97" ry="24.09" fill="#ffe066"/>
              <g>
                <path d="M345.37,601.49l-8.13-4.31,6.36-3.31,8.13,4.31c3.84,2.03,10.15,2.03,14.07,0,3.92-2.04,3.99-5.35,.15-7.39l-8.51-4.52,6.36-3.31,8.51,4.52c7.27,3.86,7.14,10.13-.29,13.99-7.43,3.86-19.39,3.86-26.66,0Z" fill="#ffa340"/>
                <polygon points="376.13 606.99 347.15 591.63 353.52 588.32 382.49 603.69 376.13 606.99" fill="#ffa340"/>
                <polygon points="386.42 601.65 357.45 586.28 363.81 582.97 392.79 598.34 386.42 601.65" fill="#ffa340"/>
                <polygon points="343.31 615.65 346.14 597.53 337.27 597.2 335.07 611.28 343.31 615.65" fill="#ffa340"/>
              </g>
            </g>
            <g>
              <ellipse cx="360.32" cy="588.79" rx="65.35" ry="31.28" fill="#ffa340"/>
              <rect x="294.97" y="576.02" width="130.7" height="15.34" fill="#ffa340"/>
              <ellipse cx="360.32" cy="577.15" rx="65.35" ry="31.28" fill="#ffd840"/>
              <ellipse cx="360.32" cy="577.15" rx="51.97" ry="24.09" fill="#ffe066"/>
              <g>
                <path d="M345.37,579.33l-8.13-4.31,6.36-3.31,8.13,4.31c3.84,2.03,10.15,2.03,14.07,0,3.92-2.04,3.99-5.35,.15-7.39l-8.51-4.52,6.36-3.31,8.51,4.52c7.27,3.86,7.14,10.13-.29,13.99-7.43,3.86-19.39,3.86-26.66,0Z" fill="#ffa340"/>
                <polygon points="376.13 584.83 347.15 569.47 353.52 566.16 382.49 581.53 376.13 584.83" fill="#ffa340"/>
                <polygon points="386.42 579.49 357.45 564.12 363.81 560.81 392.79 576.18 386.42 579.49" fill="#ffa340"/>
                <polygon points="343.31 593.49 346.14 575.37 337.27 575.04 335.07 589.12 343.31 593.49" fill="#ffa340"/>
              </g>
            </g>
          </g>
          <g>
            <ellipse cx="339.75" cy="834.46" rx="65.35" ry="31.28" fill="#2f3332"/>
            <g>
              <ellipse cx="348.04" cy="825.81" rx="65.35" ry="31.28" fill="#ffa340"/>
              <rect x="282.69" y="813.04" width="130.7" height="15.34" fill="#ffa340"/>
              <ellipse cx="348.04" cy="814.17" rx="65.35" ry="31.28" fill="#ffd840"/>
              <ellipse cx="348.04" cy="814.17" rx="51.97" ry="24.09" fill="#ffe066"/>
              <g>
                <path d="M333.1,816.35l-8.13-4.31,6.36-3.31,8.13,4.31c3.84,2.03,10.15,2.03,14.07,0,3.92-2.04,3.99-5.35,.15-7.39l-8.51-4.52,6.36-3.31,8.51,4.52c7.27,3.86,7.14,10.13-.29,13.99-7.43,3.86-19.39,3.87-26.66,0Z" fill="#ffa340"/>
                <polygon points="363.85 821.85 334.88 806.48 341.24 803.18 370.21 818.54 363.85 821.85" fill="#ffa340"/>
                <polygon points="374.14 816.5 345.17 801.14 351.53 797.83 380.51 813.2 374.14 816.5" fill="#ffa340"/>
                <polygon points="331.03 830.51 333.87 812.39 324.99 812.06 322.79 826.14 331.03 830.51" fill="#ffa340"/>
              </g>
            </g>
            <g>
              <ellipse cx="348.04" cy="800.35" rx="65.35" ry="31.28" fill="#ffa340"/>
              <rect x="282.69" y="787.58" width="130.7" height="15.34" fill="#ffa340"/>
              <ellipse cx="348.04" cy="788.71" rx="65.35" ry="31.28" fill="#ffd840"/>
              <ellipse cx="348.04" cy="788.71" rx="51.97" ry="24.09" fill="#ffe066"/>
              <g>
                <path d="M333.1,790.89l-8.13-4.31,6.36-3.31,8.13,4.31c3.84,2.04,10.15,2.03,14.07,0,3.92-2.04,3.99-5.35,.15-7.39l-8.51-4.52,6.36-3.31,8.51,4.52c7.27,3.86,7.14,10.13-.29,13.99-7.43,3.86-19.39,3.87-26.66,0Z" fill="#ffa340"/>
                <polygon points="363.85 796.39 334.88 781.02 341.24 777.72 370.21 793.08 363.85 796.39" fill="#ffa340"/>
                <polygon points="374.14 791.04 345.17 775.68 351.53 772.37 380.51 787.74 374.14 791.04" fill="#ffa340"/>
                <polygon points="331.03 805.05 333.87 786.93 324.99 786.6 322.79 800.68 331.03 805.05" fill="#ffa340"/>
              </g>
            </g>
            <g>
              <ellipse cx="348.04" cy="774.89" rx="65.35" ry="31.28" fill="#ffa340"/>
              <rect x="282.69" y="762.12" width="130.7" height="15.34" fill="#ffa340"/>
              <ellipse cx="348.04" cy="763.25" rx="65.35" ry="31.28" fill="#ffd840"/>
              <ellipse cx="348.04" cy="763.25" rx="51.97" ry="24.09" fill="#ffe066"/>
              <g>
                <path d="M333.1,765.43l-8.13-4.31,6.36-3.31,8.13,4.31c3.84,2.04,10.15,2.03,14.07,0,3.92-2.04,3.99-5.35,.15-7.39l-8.51-4.52,6.36-3.31,8.51,4.52c7.27,3.86,7.14,10.13-.29,13.99-7.43,3.86-19.39,3.87-26.66,0Z" fill="#ffa340"/>
                <polygon points="363.85 770.93 334.88 755.56 341.24 752.26 370.21 767.62 363.85 770.93" fill="#ffa340"/>
                <polygon points="374.14 765.58 345.17 750.21 351.53 746.91 380.51 762.28 374.14 765.58" fill="#ffa340"/>
                <polygon points="331.03 779.59 333.87 761.47 324.99 761.14 322.79 775.22 331.03 779.59" fill="#ffa340"/>
              </g>
            </g>
          </g>
        </g>
      </g>
    </g>
  </g>
</svg>