<?xml version="1.0" encoding="utf-8"?>
<!-- Generator: Adobe Illustrator 27.0.0, SVG Export Plug-In . SVG Version: 6.00 Build 0)  -->
<svg version="1.1" id="Layer_1" xmlns="http://www.w3.org/2000/svg" xmlns:xlink="http://www.w3.org/1999/xlink" x="0px" y="0px"
	 viewBox="0 0 600 1024" style="enable-background:new 0 0 600 1024;" xml:space="preserve">
<style type="text/css">
	.st0{fill:#0F0E0E;}
	.st1{opacity:0.7;}
	.st2{clip-path:url(#SVGID_00000035501239400219775820000010236322994042094252_);}
	.st3{fill:#142600;}
	.st4{fill:url(#SVGID_00000034057978677463518750000015342009553608064652_);}
	.st5{clip-path:url(#SVGID_00000163071152561482989330000000313373768068774060_);}
	.st6{fill:url(#SVGID_00000173871227427427393700000018224013794347915657_);}
	.st7{fill:#429F06;}
	.st8{fill:#4EB30D;}
	.st9{fill:#4D4D4D;}
	.st10{fill:#FFFFFF;}
	.st11{fill-rule:evenodd;clip-rule:evenodd;fill:#FFFFFF;}
	.st12{fill:#333333;}
	.st13{fill:#111012;}
	.st14{fill:#17161C;}
	.st15{fill:#0A1118;}
	.st16{fill:#342A35;}
	.st17{opacity:0.38;fill:#417074;enable-background:new    ;}
	.st18{opacity:0.6;fill:#342A35;enable-background:new    ;}
	.st19{fill:#2F3332;}
	.st20{fill:#FF8B40;}
	.st21{fill:#FAC9AA;}
	.st22{fill:#FFA340;}
	.st23{fill:#FFD840;}
	.st24{fill:#FFE066;}
</style>
<path class="st0" d="M478.1,1007.3H116.7c-25.3,0-44.1-18.5-44.1-43.9l0.6-902.9c0-25.3,22-43.9,47.4-43.9H482
	c25.4,0,44.1,18.5,44.1,43.9l-0.6,902.9C525.5,988.8,503.4,1007.3,478.1,1007.3L478.1,1007.3z"/>
<g>
	<g id="uuid-572e0799-f51c-4955-83b7-f92122c5e96f">
		<g>
			<g class="st1">
				<g>
					<g>
						<defs>
							<path id="SVGID_1_" d="M476.1,1001.8H118.7c-25.1,0-43.6-18.3-43.6-43.4l0.6-892.8c0-25.1,21.8-43.4,46.8-43.4H480
								c25.1,0,43.6,18.3,43.6,43.4L523,958.4C523,983.5,501.2,1001.8,476.1,1001.8L476.1,1001.8z"/>
						</defs>
						<clipPath id="SVGID_00000048486097829372400030000015884323108005618087_">
							<use xlink:href="#SVGID_1_"  style="overflow:visible;"/>
						</clipPath>
						<g style="clip-path:url(#SVGID_00000048486097829372400030000015884323108005618087_);">
							<g>
								<rect x="-461" y="-28.5" class="st3" width="1548.7" height="1032.5"/>
								
									<radialGradient id="SVGID_00000047745720177815719030000017181893764793607097_" cx="51.0169" cy="772.7995" r="597.5638" gradientTransform="matrix(1.18 0 0 0.71 255.2 -98.56)" gradientUnits="userSpaceOnUse">
									<stop  offset="7.000000e-02" style="stop-color:#218F00"/>
									<stop  offset="8.000000e-02" style="stop-color:#208C00"/>
									<stop  offset="0.3" style="stop-color:#145A00"/>
									<stop  offset="0.51" style="stop-color:#0B3300"/>
									<stop  offset="0.71" style="stop-color:#051700"/>
									<stop  offset="0.87" style="stop-color:#010600"/>
									<stop  offset="1" style="stop-color:#000000"/>
								</radialGradient>
								
									<ellipse style="fill:url(#SVGID_00000047745720177815719030000017181893764793607097_);" cx="315.4" cy="454.9" rx="704.2" ry="426.8"/>
								<g>
									<g>
										<defs>
											
												<rect id="SVGID_00000047061716171105011040000011831533501464575387_" x="-461" y="-28.5" width="1548.7" height="1032.5"/>
										</defs>
										<clipPath id="SVGID_00000104686039223880141570000008239303568736438701_">
											<use xlink:href="#SVGID_00000047061716171105011040000011831533501464575387_"  style="overflow:visible;"/>
										</clipPath>
										<g style="clip-path:url(#SVGID_00000104686039223880141570000008239303568736438701_);">
											
												<radialGradient id="SVGID_00000080912960212442832390000013401532027339364495_" cx="257.51" cy="-237.49" r="1580.25" gradientTransform="matrix(1 0 0 1 0 232)" gradientUnits="userSpaceOnUse">
												<stop  offset="0" style="stop-color:#665847"/>
												<stop  offset="8.000000e-02" style="stop-color:#55493B"/>
												<stop  offset="0.24" style="stop-color:#362F26"/>
												<stop  offset="0.4" style="stop-color:#1E1A15"/>
												<stop  offset="0.58" style="stop-color:#0D0B09"/>
												<stop  offset="0.77" style="stop-color:#030202"/>
												<stop  offset="1" style="stop-color:#000000"/>
											</radialGradient>
											<path style="fill:url(#SVGID_00000080912960212442832390000013401532027339364495_);" d="M-493.4,1031.1v-32.6h39.6v32.6
												h1.9v-32.6h39.6v32.6h1.9v-32.6h39.6v32.6h1.9v-32.6h39.6v32.6h1.9v-32.6h39.6v32.6h1.9v-32.6h39.6v32.6h1.9v-32.6h39.6
												v32.6h1.9v-32.6h39.7v32.6h1.9v-32.6h39.6v32.6h1.8v-32.6h39.7v32.6h1.8v-32.6h39.6v32.6h1.8v-32.6H2.7v32.6h1.9v-32.6
												h39.6v32.6H46v-32.6h39.7v32.6h1.8v-32.6h39.6v32.6h1.9v-32.6h39.7v32.6h1.9v-32.6h39.6v32.6h1.9v-32.6h39.7v32.6h1.9
												v-32.6h39.6v32.6h1.9v-32.6h39.6v32.6h1.9v-32.6h39.6v32.6h1.9v-32.6h39.6v32.6h1.9v-32.6h39.6v32.6h1.9v-32.6h39.6v32.6
												h1.9v-32.6h39.6v32.6h1.8v-32.6h39.6v32.6h1.8v-32.6h39.7v32.6h1.8v-32.6h39.6v32.6h1.8v-32.6h39.7v32.6h1.8v-32.6h39.6
												v32.6h1.8v-32.6H791v32.6h1.8v-32.6h39.6v32.6h1.8v-32.6H874v32.6h1.8v-32.6h39.6v32.6h1.8v-32.6H957v32.6h1.8v-32.6
												h39.6v32.6h1.8v-32.6h39.6v32.6h1.8v-32.6h39.6v32.6h1.8v-32.6h39.7v32.6h1.8V-51.2h-1.8v13.9H1083v-13.9h-1.8v13.9
												h-39.6v-13.9h-1.8v13.9h-39.7v-13.9h-1.8v13.9h-39.6v-13.9H957v13.9h-39.7v-13.9h-1.8v13.9h-39.6v-13.9H874v13.9h-39.7
												v-13.9h-1.8v13.9h-39.6v-13.9h-1.8v13.9h-39.7v-13.9h-1.8v13.9H710v-13.9h-1.8v13.9h-39.7v-13.9h-1.8v13.9h-39.6v-13.9
												h-1.8v13.9h-39.7v-13.9h-1.8v13.9h-39.6v-13.9h-1.8v13.9h-39.6v-13.9h-1.9v13.9h-39.6v-13.9h-1.9v13.9h-39.6v-13.9h-1.9
												v13.9H378v-13.9h-1.9v13.9h-39.6v-13.9h-1.9v13.9H295v-13.9h-1.9v13.9h-39.6v-13.9h-1.9v13.9H212v-13.9h-1.9v13.9h-39.6
												v-13.9h-1.9v13.9H129v-13.9h-1.8v13.9H87.5v-13.9h-1.8v13.9H46v-13.9h-1.8v13.9H4.5v-13.9H2.7v13.9H-37v-13.9h-1.8v13.9
												h-39.6v-13.9h-1.8v13.9H-120v-13.9h-1.8v13.9h-39.6v-13.9h-1.9v13.9H-203v-13.9h-1.9v13.9h-39.6v-13.9h-1.9v13.9H-286
												v-13.9h-1.9v13.9h-39.6v-13.9h-1.9v13.9H-369v-13.9h-1.9v13.9h-39.6v-13.9h-1.9v13.9H-452v-13.9h-1.9v13.9h-39.6v-13.9
												h-1.9v1082.3L-493.4,1031.1L-493.4,1031.1z M1083.4-35.5h39.7V7.6h-39.7V-35.5z M1083.4,9.5h39.7v43.1h-39.7V9.5z
												 M1083.4,54.4h39.7v43.1h-39.7V54.4z M1083.4,99.4h39.7v43.1h-39.7V99.4z M1083.4,144.3h39.7v43.1h-39.7V144.3
												L1083.4,144.3z M1083.4,189.3h39.7v43.1h-39.7V189.3z M1083.4,234.2h39.7v43.1h-39.7V234.2L1083.4,234.2z M1083.4,279.2
												h39.7v43.1h-39.7V279.2z M1083.4,324.1h39.7v43.1h-39.7V324.1z M1083.4,369.1h39.7v43.1h-39.7V369.1z M1083.4,414h39.7
												v43.1h-39.7V414z M1083.4,459h39.7v43.1h-39.7V459z M1083.4,503.9h39.7V547h-39.7V503.9z M1083.4,548.9h39.7V592h-39.7
												V548.9z M1083.4,593.9h39.7V637h-39.7V593.9z M1083.4,638.8h39.7v43.1h-39.7V638.8z M1083.4,683.8h39.7v43.1h-39.7V683.8
												z M1083.4,728.7h39.7v43.1h-39.7V728.7z M1083.4,773.7h39.7v43.1h-39.7V773.7z M1083.4,818.6h39.7v43.1h-39.7V818.6z
												 M1083.4,863.6h39.7v43.1h-39.7V863.6z M1083.4,908.5h39.7v43.1h-39.7V908.5z M1083.4,953.5h39.7v43.1h-39.7V953.5z
												 M1041.9-35.5h39.6V7.6h-39.6V-35.5L1041.9-35.5z M1041.9,9.4h39.6v43.1h-39.6V9.4L1041.9,9.4z M1041.9,54.4h39.6v43.1
												h-39.6V54.4L1041.9,54.4z M1041.9,99.3h39.6v43.1h-39.6V99.3z M1041.9,144.3h39.6v43.1h-39.6V144.3z M1041.9,189.3h39.6
												v43.1h-39.6V189.3z M1041.9,234.2h39.6v43.1h-39.6V234.2L1041.9,234.2z M1041.9,279.2h39.6v43.1h-39.6V279.2z
												 M1041.9,324.1h39.6v43.1h-39.6V324.1z M1041.9,369.1h39.6v43.1h-39.6V369.1z M1041.9,414h39.6v43.1h-39.6V414z
												 M1041.9,459h39.6v43.1h-39.6V459z M1041.9,503.9h39.6V547h-39.6V503.9z M1041.9,548.9h39.6V592h-39.6V548.9z
												 M1041.9,593.8h39.6v43.1h-39.6V593.8z M1041.9,638.8h39.6v43.1h-39.6V638.8z M1041.9,683.7h39.6v43.1h-39.6V683.7z
												 M1041.9,728.7h39.6v43.1h-39.6V728.7z M1041.9,773.6h39.6v43.1h-39.6V773.6z M1041.9,818.6h39.6v43.1h-39.6V818.6z
												 M1041.9,863.5h39.6v43.1h-39.6V863.5z M1041.9,908.5h39.6v43.1h-39.6V908.5z M1041.9,953.4h39.6v43.1h-39.6V953.4z
												 M1000.4-35.5h39.6V7.6h-39.7L1000.4-35.5L1000.4-35.5z M1000.4,9.5h39.6v43.1h-39.7L1000.4,9.5L1000.4,9.5z
												 M1000.4,54.4h39.6v43.1h-39.7L1000.4,54.4L1000.4,54.4z M1000.4,99.4h39.6v43.1h-39.7L1000.4,99.4L1000.4,99.4z
												 M1000.4,144.3h39.6v43.1h-39.7L1000.4,144.3L1000.4,144.3z M1000.4,189.3h39.6v43.1h-39.7L1000.4,189.3L1000.4,189.3z
												 M1000.4,234.2h39.6v43.1h-39.7L1000.4,234.2L1000.4,234.2z M1000.4,279.2h39.6v43.1h-39.7L1000.4,279.2L1000.4,279.2z
												 M1000.4,324.1h39.6v43.1h-39.7L1000.4,324.1L1000.4,324.1z M1000.4,369.1h39.6v43.1h-39.7L1000.4,369.1L1000.4,369.1z
												 M1000.4,414h39.6v43.1h-39.7L1000.4,414L1000.4,414z M1000.4,459h39.6v43.1h-39.7L1000.4,459L1000.4,459z M1000.4,503.9
												h39.6V547h-39.7L1000.4,503.9L1000.4,503.9z M1000.4,548.9h39.6V592h-39.7L1000.4,548.9L1000.4,548.9z M1000.4,593.9
												h39.6V637h-39.7L1000.4,593.9L1000.4,593.9z M1000.4,638.8h39.6v43.1h-39.7L1000.4,638.8L1000.4,638.8z M1000.4,683.8
												h39.6v43.1h-39.7L1000.4,683.8L1000.4,683.8z M1000.4,728.7h39.6v43.1h-39.7L1000.4,728.7L1000.4,728.7z M1000.4,773.7
												h39.6v43.1h-39.7L1000.4,773.7L1000.4,773.7z M1000.4,818.6h39.6v43.1h-39.7L1000.4,818.6L1000.4,818.6z M1000.4,863.6
												h39.6v43.1h-39.7L1000.4,863.6L1000.4,863.6z M1000.4,908.5h39.6v43.1h-39.7L1000.4,908.5L1000.4,908.5z M1000.4,953.5
												h39.6v43.1h-39.7L1000.4,953.5L1000.4,953.5z M958.9-35.5h39.6V7.6h-39.6V-35.5z M958.9,9.5h39.6v43.1h-39.6V9.5z
												 M958.9,54.4h39.6v43.1h-39.6V54.4z M958.9,99.4h39.6v43.1h-39.6V99.4z M958.9,144.3h39.6v43.1h-39.6V144.3L958.9,144.3z
												 M958.9,189.3h39.6v43.1h-39.6V189.3z M958.9,234.2h39.6v43.1h-39.6V234.2L958.9,234.2z M958.9,279.2h39.6v43.1h-39.6
												V279.2z M958.9,324.1h39.6v43.1h-39.6V324.1z M958.9,369.1h39.6v43.1h-39.6V369.1z M958.9,414h39.6v43.1h-39.6V414z
												 M958.9,459h39.6v43.1h-39.6V459z M958.9,503.9h39.6V547h-39.6V503.9z M958.9,548.9h39.6V592h-39.6V548.9z M958.9,593.9
												h39.6V637h-39.6V593.9z M958.9,638.8h39.6v43.1h-39.6V638.8z M958.9,683.8h39.6v43.1h-39.6V683.8z M958.9,728.7h39.6
												v43.1h-39.6V728.7z M958.9,773.7h39.6v43.1h-39.6V773.7z M958.9,818.6h39.6v43.1h-39.6V818.6z M958.9,863.6h39.6v43.1
												h-39.6V863.6z M958.9,908.5h39.6v43.1h-39.6V908.5z M958.9,953.5h39.6v43.1h-39.6V953.5z M917.4-35.5h39.7V7.6h-39.7
												V-35.5z M917.4,9.5h39.7v43.1h-39.7V9.5z M917.4,54.4h39.7v43.1h-39.7V54.4z M917.4,99.4h39.7v43.1h-39.7V99.4z
												 M917.4,144.3h39.7v43.1h-39.7V144.3L917.4,144.3z M917.4,189.3h39.7v43.1h-39.7V189.3z M917.4,234.2h39.7v43.1h-39.7
												V234.2L917.4,234.2z M917.4,279.2h39.7v43.1h-39.7V279.2z M917.4,324.1h39.7v43.1h-39.7V324.1z M917.4,369.1h39.7v43.1
												h-39.7V369.1z M917.4,414h39.7v43.1h-39.7V414z M917.4,459h39.7v43.1h-39.7V459z M917.4,503.9h39.7V547h-39.7V503.9z
												 M917.4,548.9h39.7V592h-39.7V548.9z M917.4,593.9h39.7V637h-39.7V593.9z M917.4,638.8h39.7v43.1h-39.7V638.8z
												 M917.4,683.8h39.7v43.1h-39.7V683.8z M917.4,728.7h39.7v43.1h-39.7V728.7z M917.4,773.7h39.7v43.1h-39.7V773.7z
												 M917.4,818.6h39.7v43.1h-39.7V818.6z M917.4,863.6h39.7v43.1h-39.7V863.6z M917.4,908.5h39.7v43.1h-39.7V908.5z
												 M917.4,953.5h39.7v43.1h-39.7V953.5z M875.9-35.5h39.6V7.6h-39.6V-35.5z M875.9,9.5h39.6v43.1h-39.6V9.5z M875.9,54.4
												h39.6v43.1h-39.6V54.4z M875.9,99.4h39.6v43.1h-39.6V99.4z M875.9,144.3h39.6v43.1h-39.6V144.3L875.9,144.3z
												 M875.9,189.3h39.6v43.1h-39.6V189.3z M875.9,234.2h39.6v43.1h-39.6V234.2L875.9,234.2z M875.9,279.2h39.6v43.1h-39.6
												V279.2z M875.9,324.1h39.6v43.1h-39.6V324.1z M875.9,369.1h39.6v43.1h-39.6V369.1z M875.9,414h39.6v43.1h-39.6V414z
												 M875.9,459h39.6v43.1h-39.6V459z M875.9,503.9h39.6V547h-39.6V503.9z M875.9,548.9h39.6V592h-39.6V548.9z M875.9,593.9
												h39.6V637h-39.6V593.9z M875.9,638.8h39.6v43.1h-39.6V638.8z M875.9,683.8h39.6v43.1h-39.6V683.8z M875.9,728.7h39.6
												v43.1h-39.6V728.7z M875.9,773.7h39.6v43.1h-39.6V773.7z M875.9,818.6h39.6v43.1h-39.6V818.6z M875.9,863.6h39.6v43.1
												h-39.6V863.6z M875.9,908.5h39.6v43.1h-39.6V908.5z M875.9,953.5h39.6v43.1h-39.6V953.5z M834.4-35.5h39.7V7.6h-39.7
												V-35.5z M834.4,9.5h39.7v43.1h-39.7V9.5z M834.4,54.4h39.7v43.1h-39.7V54.4z M834.4,99.4h39.7v43.1h-39.7V99.4z
												 M834.4,144.3h39.7v43.1h-39.7V144.3L834.4,144.3z M834.4,189.3h39.7v43.1h-39.7V189.3z M834.4,234.2h39.7v43.1h-39.7
												V234.2L834.4,234.2z M834.4,279.2h39.7v43.1h-39.7V279.2z M834.4,324.1h39.7v43.1h-39.7V324.1z M834.4,369.1h39.7v43.1
												h-39.7V369.1z M834.4,414h39.7v43.1h-39.7V414z M834.4,459h39.7v43.1h-39.7V459z M834.4,503.9h39.7V547h-39.7V503.9z
												 M834.4,548.9h39.7V592h-39.7V548.9z M834.4,593.9h39.7V637h-39.7V593.9z M834.4,638.8h39.7v43.1h-39.7V638.8z
												 M834.4,683.8h39.7v43.1h-39.7V683.8z M834.4,728.7h39.7v43.1h-39.7V728.7z M834.4,773.7h39.7v43.1h-39.7V773.7z
												 M834.4,818.6h39.7v43.1h-39.7V818.6z M834.4,863.6h39.7v43.1h-39.7V863.6z M834.4,908.5h39.7v43.1h-39.7V908.5z
												 M834.4,953.5h39.7v43.1h-39.7V953.5z M792.9-35.5h39.6V7.6h-39.6V-35.5z M792.9,9.5h39.6v43.1h-39.6V9.5z M792.9,54.4
												h39.6v43.1h-39.6V54.4z M792.9,99.4h39.6v43.1h-39.6V99.4z M792.9,144.3h39.6v43.1h-39.6V144.3L792.9,144.3z
												 M792.9,189.3h39.6v43.1h-39.6V189.3z M792.9,234.2h39.6v43.1h-39.6V234.2L792.9,234.2z M792.9,279.2h39.6v43.1h-39.6
												V279.2z M792.9,324.1h39.6v43.1h-39.6V324.1z M792.9,369.1h39.6v43.1h-39.6V369.1z M792.9,414h39.6v43.1h-39.6V414z
												 M792.9,459h39.6v43.1h-39.6V459z M792.9,503.9h39.6V547h-39.6V503.9z M792.9,548.9h39.6V592h-39.6V548.9z M792.9,593.9
												h39.6V637h-39.6V593.9z M792.9,638.8h39.6v43.1h-39.6V638.8z M792.9,683.8h39.6v43.1h-39.6V683.8z M792.9,728.7h39.6
												v43.1h-39.6V728.7z M792.9,773.7h39.6v43.1h-39.6V773.7z M792.9,818.6h39.6v43.1h-39.6V818.6z M792.9,863.6h39.6v43.1
												h-39.6V863.6z M792.9,908.5h39.6v43.1h-39.6V908.5z M792.9,953.5h39.6v43.1h-39.6V953.5z M751.4-35.5h39.7V7.6h-39.7
												V-35.5z M751.4,9.5h39.7v43.1h-39.7V9.5z M751.4,54.4h39.7v43.1h-39.7V54.4z M751.4,99.4h39.7v43.1h-39.7V99.4z
												 M751.4,144.3h39.7v43.1h-39.7V144.3L751.4,144.3z M751.4,189.3h39.7v43.1h-39.7V189.3z M751.4,234.2h39.7v43.1h-39.7
												V234.2L751.4,234.2z M751.4,279.2h39.7v43.1h-39.7V279.2z M751.4,324.1h39.7v43.1h-39.7V324.1z M751.4,369.1h39.7v43.1
												h-39.7V369.1z M751.4,414h39.7v43.1h-39.7V414z M751.4,459h39.7v43.1h-39.7V459z M751.4,503.9h39.7V547h-39.7V503.9z
												 M751.4,548.9h39.7V592h-39.7V548.9z M751.4,593.9h39.7V637h-39.7V593.9z M751.4,638.8h39.7v43.1h-39.7V638.8z
												 M751.4,683.8h39.7v43.1h-39.7V683.8z M751.4,728.7h39.7v43.1h-39.7V728.7z M751.4,773.7h39.7v43.1h-39.7V773.7z
												 M751.4,818.6h39.7v43.1h-39.7V818.6z M751.4,863.6h39.7v43.1h-39.7V863.6z M751.4,908.5h39.7v43.1h-39.7V908.5z
												 M751.4,953.5h39.7v43.1h-39.7V953.5z M709.9-35.5h39.6V7.6h-39.6V-35.5z M709.9,9.5h39.6v43.1h-39.6V9.5z M709.9,54.4
												h39.6v43.1h-39.6V54.4z M709.9,99.4h39.6v43.1h-39.6V99.4z M709.9,144.3h39.6v43.1h-39.6V144.3L709.9,144.3z
												 M709.9,189.3h39.6v43.1h-39.6V189.3z M709.9,234.2h39.6v43.1h-39.6V234.2L709.9,234.2z M709.9,279.2h39.6v43.1h-39.6
												V279.2z M709.9,324.1h39.6v43.1h-39.6V324.1z M709.9,369.1h39.6v43.1h-39.6V369.1z M709.9,414h39.6v43.1h-39.6V414z
												 M709.9,459h39.6v43.1h-39.6V459z M709.9,503.9h39.6V547h-39.6V503.9z M709.9,548.9h39.6V592h-39.6V548.9z M709.9,593.9
												h39.6V637h-39.6V593.9z M709.9,638.8h39.6v43.1h-39.6V638.8z M709.9,683.8h39.6v43.1h-39.6V683.8z M709.9,728.7h39.6
												v43.1h-39.6V728.7z M709.9,773.7h39.6v43.1h-39.6V773.7z M709.9,818.6h39.6v43.1h-39.6V818.6z M709.9,863.6h39.6v43.1
												h-39.6V863.6z M709.9,908.5h39.6v43.1h-39.6V908.5z M709.9,953.5h39.6v43.1h-39.6V953.5z M668.4-35.5h39.7V7.6h-39.7
												V-35.5z M668.4,9.5h39.7v43.1h-39.7V9.5z M668.4,54.4h39.7v43.1h-39.7V54.4z M668.4,99.4h39.7v43.1h-39.7V99.4z
												 M668.4,144.3h39.7v43.1h-39.7V144.3L668.4,144.3z M668.4,189.3h39.7v43.1h-39.7V189.3z M668.4,234.2h39.7v43.1h-39.7
												V234.2L668.4,234.2z M668.4,279.2h39.7v43.1h-39.7V279.2z M668.4,324.1h39.7v43.1h-39.7V324.1z M668.4,369.1h39.7v43.1
												h-39.7V369.1z M668.4,414h39.7v43.1h-39.7V414z M668.4,459h39.7v43.1h-39.7V459z M668.4,503.9h39.7V547h-39.7V503.9z
												 M668.4,548.9h39.7V592h-39.7V548.9z M668.4,593.9h39.7V637h-39.7V593.9z M668.4,638.8h39.7v43.1h-39.7V638.8z
												 M668.4,683.8h39.7v43.1h-39.7V683.8z M668.4,728.7h39.7v43.1h-39.7V728.7z M668.4,773.7h39.7v43.1h-39.7V773.7z
												 M668.4,818.6h39.7v43.1h-39.7V818.6z M668.4,863.6h39.7v43.1h-39.7V863.6z M668.4,908.5h39.7v43.1h-39.7V908.5z
												 M668.4,953.5h39.7v43.1h-39.7V953.5z M627-35.5h39.6V7.6H627V-35.5z M627,9.5h39.6v43.1H627V9.5z M627,54.4h39.6v43.1
												H627V54.4z M627,99.4h39.6v43.1H627V99.4z M627,144.3h39.6v43.1H627V144.3L627,144.3z M627,189.3h39.6v43.1H627V189.3z
												 M627,234.2h39.6v43.1H627V234.2L627,234.2z M627,279.2h39.6v43.1H627V279.2z M627,324.1h39.6v43.1H627V324.1z
												 M627,369.1h39.6v43.1H627V369.1z M627,414h39.6v43.1H627V414z M627,459h39.6v43.1H627V459z M627,503.9h39.6V547H627
												V503.9z M627,548.9h39.6V592H627V548.9z M627,593.9h39.6V637H627V593.9z M627,638.8h39.6v43.1H627V638.8z M627,683.8
												h39.6v43.1H627V683.8z M627,728.7h39.6v43.1H627V728.7z M627,773.7h39.6v43.1H627V773.7z M627,818.6h39.6v43.1H627V818.6
												z M627,863.6h39.6v43.1H627V863.6z M627,908.5h39.6v43.1H627V908.5z M627,953.5h39.6v43.1H627V953.5z M585.5-35.5h39.7
												V7.6h-39.7V-35.5z M585.5,9.5h39.7v43.1h-39.7V9.5z M585.5,54.4h39.7v43.1h-39.7V54.4z M585.5,99.4h39.7v43.1h-39.7V99.4
												z M585.5,144.3h39.7v43.1h-39.7V144.3L585.5,144.3z M585.5,189.3h39.7v43.1h-39.7V189.3z M585.5,234.2h39.7v43.1h-39.7
												V234.2L585.5,234.2z M585.5,279.2h39.7v43.1h-39.7V279.2z M585.5,324.1h39.7v43.1h-39.7V324.1z M585.5,369.1h39.7v43.1
												h-39.7V369.1z M585.5,414h39.7v43.1h-39.7V414z M585.5,459h39.7v43.1h-39.7V459z M585.5,503.9h39.7V547h-39.7V503.9z
												 M585.5,548.9h39.7V592h-39.7V548.9z M585.5,593.9h39.7V637h-39.7V593.9z M585.5,638.8h39.7v43.1h-39.7V638.8z
												 M585.5,683.8h39.7v43.1h-39.7V683.8z M585.5,728.7h39.7v43.1h-39.7V728.7z M585.5,773.7h39.7v43.1h-39.7V773.7z
												 M585.5,818.6h39.7v43.1h-39.7V818.6z M585.5,863.6h39.7v43.1h-39.7V863.6z M585.5,908.5h39.7v43.1h-39.7V908.5z
												 M585.5,953.5h39.7v43.1h-39.7V953.5z M544-35.5h39.6V7.6H544V-35.5z M544,9.5h39.6v43.1H544V9.5z M544,54.4h39.6v43.1
												H544V54.4z M544,99.4h39.6v43.1H544V99.4z M544,144.3h39.6v43.1H544V144.3L544,144.3z M544,189.3h39.6v43.1H544V189.3z
												 M544,234.2h39.6v43.1H544V234.2L544,234.2z M544,279.2h39.6v43.1H544V279.2z M544,324.1h39.6v43.1H544V324.1z
												 M544,369.1h39.6v43.1H544V369.1z M544,414h39.6v43.1H544V414z M544,459h39.6v43.1H544V459z M544,503.9h39.6V547H544
												V503.9z M544,548.9h39.6V592H544V548.9z M544,593.9h39.6V637H544V593.9z M544,638.8h39.6v43.1H544V638.8z M544,683.8
												h39.6v43.1H544V683.8z M544,728.7h39.6v43.1H544V728.7z M544,773.7h39.6v43.1H544V773.7z M544,818.6h39.6v43.1H544V818.6
												z M544,863.6h39.6v43.1H544V863.6z M544,908.5h39.6v43.1H544V908.5z M544,953.5h39.6v43.1H544V953.5z M502.5-35.5h39.6
												V7.6h-39.6L502.5-35.5L502.5-35.5z M502.5,9.5h39.6v43.1h-39.6C502.5,52.6,502.5,9.5,502.5,9.5z M502.5,54.4h39.6v43.1
												h-39.6L502.5,54.4L502.5,54.4z M502.5,99.4h39.6v43.1h-39.6C502.5,142.5,502.5,99.4,502.5,99.4z M502.5,144.3h39.6v43.1
												h-39.6L502.5,144.3L502.5,144.3z M502.5,189.3h39.6v43.1h-39.6L502.5,189.3L502.5,189.3z M502.5,234.2h39.6v43.1h-39.6
												L502.5,234.2L502.5,234.2z M502.5,279.2h39.6v43.1h-39.6L502.5,279.2L502.5,279.2z M502.5,324.1h39.6v43.1h-39.6
												L502.5,324.1L502.5,324.1z M502.5,369.1h39.6v43.1h-39.6L502.5,369.1L502.5,369.1z M502.5,414h39.6v43.1h-39.6L502.5,414
												L502.5,414z M502.5,459h39.6v43.1h-39.6L502.5,459L502.5,459z M502.5,503.9h39.6V547h-39.6L502.5,503.9L502.5,503.9z
												 M502.5,548.9h39.6V592h-39.6L502.5,548.9L502.5,548.9z M502.5,593.9h39.6V637h-39.6L502.5,593.9L502.5,593.9z
												 M502.5,638.8h39.6v43.1h-39.6L502.5,638.8L502.5,638.8z M502.5,683.8h39.6v43.1h-39.6L502.5,683.8L502.5,683.8z
												 M502.5,728.7h39.6v43.1h-39.6L502.5,728.7L502.5,728.7z M502.5,773.7h39.6v43.1h-39.6L502.5,773.7L502.5,773.7z
												 M502.5,818.6h39.6v43.1h-39.6L502.5,818.6L502.5,818.6z M502.5,863.6h39.6v43.1h-39.6L502.5,863.6L502.5,863.6z
												 M502.5,908.5h39.6v43.1h-39.6L502.5,908.5L502.5,908.5z M502.5,953.5h39.6v43.1h-39.6L502.5,953.5L502.5,953.5z
												 M461-35.5h39.6V7.6H461V-35.5L461-35.5z M461,9.5h39.6v43.1H461V9.5L461,9.5z M461,54.4h39.6v43.1H461V54.4L461,54.4z
												 M461,99.4h39.6v43.1H461V99.4L461,99.4z M461,144.3h39.6v43.1H461V144.3L461,144.3z M461,189.3h39.6v43.1H461V189.3
												L461,189.3z M461,234.2h39.6v43.1H461V234.2L461,234.2z M461,279.2h39.6v43.1H461V279.2L461,279.2z M461,324.1h39.6v43.1
												H461V324.1L461,324.1z M461,369.1h39.6v43.1H461V369.1L461,369.1z M461,414h39.6v43.1H461V414L461,414z M461,459h39.6
												v43.1H461V459L461,459z M461,503.9h39.6V547H461V503.9L461,503.9z M461,548.9h39.6V592H461V548.9L461,548.9z M461,593.9
												h39.6V637H461V593.9L461,593.9z M461,638.8h39.6v43.1H461V638.8L461,638.8z M461,683.8h39.6v43.1H461V683.8L461,683.8z
												 M461,728.7h39.6v43.1H461V728.7L461,728.7z M461,773.7h39.6v43.1H461V773.7L461,773.7z M461,818.6h39.6v43.1H461V818.6
												L461,818.6z M461,863.6h39.6v43.1H461V863.6L461,863.6z M461,908.5h39.6v43.1H461V908.5L461,908.5z M461,953.5h39.6v43.1
												H461V953.5L461,953.5z M419.5-35.5h39.6V7.6h-39.6V-35.5z M419.5,9.5h39.6v43.1h-39.6V9.5z M419.5,54.4h39.6v43.1h-39.6
												V54.4z M419.5,99.4h39.6v43.1h-39.6V99.4z M419.5,144.3h39.6v43.1h-39.6V144.3L419.5,144.3z M419.5,189.3h39.6v43.1
												h-39.6V189.3z M419.5,234.2h39.6v43.1h-39.6V234.2L419.5,234.2z M419.5,279.2h39.6v43.1h-39.6V279.2z M419.5,324.1h39.6
												v43.1h-39.6V324.1z M419.5,369.1h39.6v43.1h-39.6V369.1z M419.5,414h39.6v43.1h-39.6V414z M419.5,459h39.6v43.1h-39.6
												V459z M419.5,503.9h39.6V547h-39.6V503.9z M419.5,548.9h39.6V592h-39.6V548.9z M419.5,593.9h39.6V637h-39.6V593.9z
												 M419.5,638.8h39.6v43.1h-39.6V638.8z M419.5,683.8h39.6v43.1h-39.6V683.8z M419.5,728.7h39.6v43.1h-39.6V728.7z
												 M419.5,773.7h39.6v43.1h-39.6V773.7z M419.5,818.6h39.6v43.1h-39.6V818.6z M419.5,863.6h39.6v43.1h-39.6V863.6z
												 M419.5,908.5h39.6v43.1h-39.6V908.5z M419.5,953.5h39.6v43.1h-39.6V953.5z M378-35.5h39.6V7.6H378V-35.5L378-35.5z
												 M378,9.5h39.6v43.1H378V9.5L378,9.5z M378,54.4h39.6v43.1H378V54.4L378,54.4z M378,99.4h39.6v43.1H378V99.4L378,99.4z
												 M378,144.3h39.6v43.1H378V144.3L378,144.3z M378,189.3h39.6v43.1H378V189.3L378,189.3z M378,234.2h39.6v43.1H378V234.2
												L378,234.2z M378,279.2h39.6v43.1H378V279.2L378,279.2z M378,324.1h39.6v43.1H378V324.1L378,324.1z M378,369.1h39.6v43.1
												H378V369.1L378,369.1z M378,414h39.6v43.1H378V414L378,414z M378,459h39.6v43.1H378V459L378,459z M378,503.9h39.6V547
												H378V503.9L378,503.9z M378,548.9h39.6V592H378V548.9L378,548.9z M378,593.9h39.6V637H378V593.9L378,593.9z M378,638.8
												h39.6v43.1H378V638.8L378,638.8z M378,683.8h39.6v43.1H378V683.8L378,683.8z M378,728.7h39.6v43.1H378V728.7L378,728.7z
												 M378,773.7h39.6v43.1H378V773.7L378,773.7z M378,818.6h39.6v43.1H378V818.6L378,818.6z M378,863.6h39.6v43.1H378V863.6
												L378,863.6z M378,908.5h39.6v43.1H378V908.5L378,908.5z M378,953.5h39.6v43.1H378V953.5L378,953.5z M336.5-35.5h39.6V7.6
												h-39.6V-35.5z M336.5,9.5h39.6v43.1h-39.6V9.5z M336.5,54.4h39.6v43.1h-39.6V54.4z M336.5,99.4h39.6v43.1h-39.6V99.4z
												 M336.5,144.3h39.6v43.1h-39.6V144.3L336.5,144.3z M336.5,189.3h39.6v43.1h-39.6V189.3z M336.5,234.2h39.6v43.1h-39.6
												V234.2L336.5,234.2z M336.5,279.2h39.6v43.1h-39.6V279.2z M336.5,324.1h39.6v43.1h-39.6V324.1z M336.5,369.1h39.6v43.1
												h-39.6V369.1z M336.5,414h39.6v43.1h-39.6V414z M336.5,459h39.6v43.1h-39.6V459z M336.5,503.9h39.6V547h-39.6V503.9z
												 M336.5,548.9h39.6V592h-39.6V548.9z M336.5,593.9h39.6V637h-39.6V593.9z M336.5,638.8h39.6v43.1h-39.6V638.8z
												 M336.5,683.8h39.6v43.1h-39.6V683.8z M336.5,728.7h39.6v43.1h-39.6V728.7z M336.5,773.7h39.6v43.1h-39.6V773.7z
												 M336.5,818.6h39.6v43.1h-39.6V818.6z M336.5,863.6h39.6v43.1h-39.6V863.6z M336.5,908.5h39.6v43.1h-39.6V908.5z
												 M336.5,953.5h39.6v43.1h-39.6V953.5z M295-35.5h39.6V7.6H295V-35.5L295-35.5z M295,9.5h39.6v43.1H295V9.5L295,9.5z
												 M295,54.4h39.6v43.1H295V54.4L295,54.4z M295,99.4h39.6v43.1H295V99.4L295,99.4z M295,144.3h39.6v43.1H295V144.3
												L295,144.3z M295,189.3h39.6v43.1H295V189.3L295,189.3z M295,234.2h39.6v43.1H295V234.2L295,234.2z M295,279.2h39.6v43.1
												H295V279.2L295,279.2z M295,324.1h39.6v43.1H295V324.1L295,324.1z M295,369.1h39.6v43.1H295V369.1L295,369.1z M295,414
												h39.6v43.1H295V414L295,414z M295,459h39.6v43.1H295V459L295,459z M295,503.9h39.6V547H295V503.9L295,503.9z M295,548.9
												h39.6V592H295V548.9L295,548.9z M295,593.9h39.6V637H295V593.9L295,593.9z M295,638.8h39.6v43.1H295V638.8L295,638.8z
												 M295,683.8h39.6v43.1H295V683.8L295,683.8z M295,728.7h39.6v43.1H295V728.7L295,728.7z M295,773.7h39.6v43.1H295V773.7
												L295,773.7z M295,818.6h39.6v43.1H295V818.6L295,818.6z M295,863.6h39.6v43.1H295V863.6L295,863.6z M295,908.5h39.6v43.1
												H295V908.5L295,908.5z M295,953.5h39.6v43.1H295V953.5L295,953.5z M253.5-35.5h39.6V7.6h-39.6V-35.5z M253.5,9.5h39.6
												v43.1h-39.6V9.5z M253.5,54.4h39.6v43.1h-39.6V54.4z M253.5,99.4h39.6v43.1h-39.6V99.4z M253.5,144.3h39.6v43.1h-39.6
												V144.3L253.5,144.3z M253.5,189.3h39.6v43.1h-39.6V189.3z M253.5,234.2h39.6v43.1h-39.6V234.2L253.5,234.2z M253.5,279.2
												h39.6v43.1h-39.6V279.2z M253.5,324.1h39.6v43.1h-39.6V324.1z M253.5,369.1h39.6v43.1h-39.6V369.1z M253.5,414h39.6v43.1
												h-39.6V414z M253.5,459h39.6v43.1h-39.6V459z M253.5,503.9h39.6V547h-39.6V503.9z M253.5,548.9h39.6V592h-39.6V548.9z
												 M253.5,593.9h39.6V637h-39.6V593.9z M253.5,638.8h39.6v43.1h-39.6V638.8z M253.5,683.8h39.6v43.1h-39.6V683.8z
												 M253.5,728.7h39.6v43.1h-39.6V728.7z M253.5,773.7h39.6v43.1h-39.6V773.7z M253.5,818.6h39.6v43.1h-39.6V818.6z
												 M253.5,863.6h39.6v43.1h-39.6V863.6z M253.5,908.5h39.6v43.1h-39.6V908.5z M253.5,953.5h39.6v43.1h-39.6V953.5z
												 M212-35.5h39.7V7.6H212V-35.5L212-35.5z M212,9.5h39.7v43.1H212V9.5L212,9.5z M212,54.4h39.7v43.1H212V54.4L212,54.4z
												 M212,99.4h39.7v43.1H212V99.4L212,99.4z M212,144.3h39.7v43.1H212V144.3L212,144.3z M212,189.3h39.7v43.1H212V189.3
												L212,189.3z M212,234.2h39.7v43.1H212V234.2L212,234.2z M212,279.2h39.7v43.1H212V279.2L212,279.2z M212,324.1h39.7v43.1
												H212V324.1L212,324.1z M212,369.1h39.7v43.1H212V369.1L212,369.1z M212,414h39.7v43.1H212V414L212,414z M212,459h39.7
												v43.1H212V459L212,459z M212,503.9h39.7V547H212V503.9L212,503.9z M212,548.9h39.7V592H212V548.9L212,548.9z M212,593.9
												h39.7V637H212V593.9L212,593.9z M212,638.8h39.7v43.1H212V638.8L212,638.8z M212,683.8h39.7v43.1H212V683.8L212,683.8z
												 M212,728.7h39.7v43.1H212V728.7L212,728.7z M212,773.7h39.7v43.1H212V773.7L212,773.7z M212,818.6h39.7v43.1H212V818.6
												L212,818.6z M212,863.6h39.7v43.1H212V863.6L212,863.6z M212,908.5h39.7v43.1H212V908.5L212,908.5z M212,953.5h39.7v43.1
												H212V953.5L212,953.5z M170.5-35.5h39.6V7.6h-39.6V-35.5z M170.5,9.5h39.6v43.1h-39.6V9.5z M170.5,54.4h39.6v43.1h-39.6
												V54.4z M170.5,99.4h39.6v43.1h-39.6V99.4z M170.5,144.3h39.6v43.1h-39.6V144.3L170.5,144.3z M170.5,189.3h39.6v43.1
												h-39.6V189.3z M170.5,234.2h39.6v43.1h-39.6V234.2L170.5,234.2z M170.5,279.2h39.6v43.1h-39.6V279.2z M170.5,324.1h39.6
												v43.1h-39.6V324.1z M170.5,369.1h39.6v43.1h-39.6V369.1z M170.5,414h39.6v43.1h-39.6V414z M170.5,459h39.6v43.1h-39.6
												V459z M170.5,503.9h39.6V547h-39.6V503.9z M170.5,548.9h39.6V592h-39.6V548.9z M170.5,593.9h39.6V637h-39.6V593.9z
												 M170.5,638.8h39.6v43.1h-39.6V638.8z M170.5,683.8h39.6v43.1h-39.6V683.8z M170.5,728.7h39.6v43.1h-39.6V728.7z
												 M170.5,773.7h39.6v43.1h-39.6V773.7z M170.5,818.6h39.6v43.1h-39.6V818.6z M170.5,863.6h39.6v43.1h-39.6V863.6z
												 M170.5,908.5h39.6v43.1h-39.6V908.5z M170.5,953.5h39.6v43.1h-39.6V953.5z M129-35.5h39.6V7.6H129V-35.5z M129,9.5h39.6
												v43.1H129V9.5z M129,54.4h39.6v43.1H129V54.4z M129,99.4h39.6v43.1H129V99.4z M129,144.3h39.6v43.1H129V144.3L129,144.3z
												 M129,189.3h39.6v43.1H129V189.3z M129,234.2h39.6v43.1H129V234.2L129,234.2z M129,279.2h39.6v43.1H129V279.2z
												 M129,324.1h39.6v43.1H129V324.1z M129,369.1h39.6v43.1H129V369.1z M129,414h39.6v43.1H129V414z M129,459h39.6v43.1H129
												V459z M129,503.9h39.6V547H129V503.9z M129,548.9h39.6V592H129V548.9z M129,593.9h39.6V637H129V593.9z M129,638.8h39.6
												v43.1H129V638.8z M129,683.8h39.6v43.1H129V683.8z M129,728.7h39.6v43.1H129V728.7z M129,773.7h39.6v43.1H129V773.7z
												 M129,818.6h39.6v43.1H129V818.6z M129,863.6h39.6v43.1H129V863.6z M129,908.5h39.6v43.1H129V908.5z M129,953.5h39.6
												v43.1H129V953.5z M87.5-35.5h39.6V7.6H87.5V-35.5z M87.5,9.5h39.6v43.1H87.5V9.5z M87.5,54.4h39.6v43.1H87.5V54.4z
												 M87.5,99.4h39.6v43.1H87.5V99.4z M87.5,144.3h39.6v43.1H87.5V144.3L87.5,144.3z M87.5,189.3h39.6v43.1H87.5V189.3z
												 M87.5,234.2h39.6v43.1H87.5V234.2L87.5,234.2z M87.5,279.2h39.6v43.1H87.5V279.2z M87.5,324.1h39.6v43.1H87.5V324.1z
												 M87.5,369.1h39.6v43.1H87.5V369.1z M87.5,414h39.6v43.1H87.5V414z M87.5,459h39.6v43.1H87.5V459z M87.5,503.9h39.6V547
												H87.5V503.9z M87.5,548.9h39.6V592H87.5V548.9z M87.5,593.9h39.6V637H87.5V593.9z M87.5,638.8h39.6v43.1H87.5V638.8z
												 M87.5,683.8h39.6v43.1H87.5V683.8z M87.5,728.7h39.6v43.1H87.5V728.7z M87.5,773.7h39.6v43.1H87.5V773.7z M87.5,818.6
												h39.6v43.1H87.5V818.6z M87.5,863.6h39.6v43.1H87.5V863.6z M87.5,908.5h39.6v43.1H87.5V908.5z M87.5,953.5h39.6v43.1
												H87.5V953.5z M46-35.5h39.7V7.6H46V-35.5z M46,9.5h39.7v43.1H46V9.5z M46,54.4h39.7v43.1H46V54.4z M46,99.4h39.7v43.1H46
												V99.4z M46,144.3h39.7v43.1H46V144.3L46,144.3z M46,189.3h39.7v43.1H46V189.3z M46,234.2h39.7v43.1H46V234.2L46,234.2z
												 M46,279.2h39.7v43.1H46V279.2z M46,324.1h39.7v43.1H46V324.1z M46,369.1h39.7v43.1H46V369.1z M46,414h39.7v43.1H46V414z
												 M46,459h39.7v43.1H46V459z M46,503.9h39.7V547H46V503.9z M46,548.9h39.7V592H46V548.9z M46,593.9h39.7V637H46V593.9z
												 M46,638.8h39.7v43.1H46V638.8z M46,683.8h39.7v43.1H46V683.8z M46,728.7h39.7v43.1H46V728.7z M46,773.7h39.7v43.1H46
												V773.7z M46,818.6h39.7v43.1H46V818.6z M46,863.6h39.7v43.1H46V863.6z M46,908.5h39.7v43.1H46V908.5z M46,953.5h39.7
												v43.1H46V953.5z M4.5-35.5h39.6V7.6H4.5V-35.5z M4.5,9.5h39.6v43.1H4.5V9.5z M4.5,54.4h39.6v43.1H4.5V54.4z M4.5,99.4
												h39.6v43.1H4.5V99.4z M4.5,144.3h39.6v43.1H4.5V144.3L4.5,144.3z M4.5,189.3h39.6v43.1H4.5V189.3z M4.5,234.2h39.6v43.1
												H4.5V234.2L4.5,234.2z M4.5,279.2h39.6v43.1H4.5V279.2z M4.5,324.1h39.6v43.1H4.5V324.1z M4.5,369.1h39.6v43.1H4.5V369.1
												z M4.5,414h39.6v43.1H4.5V414z M4.5,459h39.6v43.1H4.5V459z M4.5,503.9h39.6V547H4.5V503.9z M4.5,548.9h39.6V592H4.5
												V548.9z M4.5,593.9h39.6V637H4.5V593.9z M4.5,638.8h39.6v43.1H4.5V638.8z M4.5,683.8h39.6v43.1H4.5V683.8z M4.5,728.7
												h39.6v43.1H4.5V728.7z M4.5,773.7h39.6v43.1H4.5V773.7z M4.5,818.6h39.6v43.1H4.5V818.6z M4.5,863.6h39.6v43.1H4.5V863.6
												z M4.5,908.5h39.6v43.1H4.5V908.5z M4.5,953.5h39.6v43.1H4.5V953.5z M-37-35.5H2.7V7.6H-37V-35.5z M-37,9.5H2.7v43.1H-37
												V9.5z M-37,54.4H2.7v43.1H-37V54.4z M-37,99.4H2.7v43.1H-37V99.4z M-37,144.3H2.7v43.1H-37V144.3L-37,144.3z M-37,189.3
												H2.7v43.1H-37V189.3z M-37,234.2H2.7v43.1H-37V234.2L-37,234.2z M-37,279.2H2.7v43.1H-37V279.2z M-37,324.1H2.7v43.1H-37
												V324.1z M-37,369.1H2.7v43.1H-37V369.1z M-37,414H2.7v43.1H-37V414z M-37,459H2.7v43.1H-37V459z M-37,503.9H2.7V547H-37
												V503.9z M-37,548.9H2.7V592H-37V548.9z M-37,593.9H2.7V637H-37V593.9z M-37,638.8H2.7v43.1H-37V638.8z M-37,683.8H2.7
												v43.1H-37V683.8z M-37,728.7H2.7v43.1H-37V728.7z M-37,773.7H2.7v43.1H-37V773.7z M-37,818.6H2.7v43.1H-37V818.6z
												 M-37,863.6H2.7v43.1H-37V863.6z M-37,908.5H2.7v43.1H-37V908.5z M-37,953.5H2.7v43.1H-37V953.5z M-78.5-35.5h39.6V7.6
												h-39.6V-35.5z M-78.5,9.5h39.6v43.1h-39.6V9.5z M-78.5,54.4h39.6v43.1h-39.6V54.4z M-78.5,99.4h39.6v43.1h-39.6V99.4z
												 M-78.5,144.3h39.6v43.1h-39.6V144.3L-78.5,144.3z M-78.5,189.3h39.6v43.1h-39.6V189.3z M-78.5,234.2h39.6v43.1h-39.6
												V234.2L-78.5,234.2z M-78.5,279.2h39.6v43.1h-39.6C-78.5,322.3-78.5,279.2-78.5,279.2z M-78.5,324.1h39.6v43.1h-39.6
												V324.1z M-78.5,369.1h39.6v43.1h-39.6V369.1z M-78.5,414h39.6v43.1h-39.6V414z M-78.5,459h39.6v43.1h-39.6V459z
												 M-78.5,503.9h39.6V547h-39.6V503.9z M-78.5,548.9h39.6V592h-39.6V548.9z M-78.5,593.9h39.6V637h-39.6V593.9z
												 M-78.5,638.8h39.6v43.1h-39.6C-78.5,681.9-78.5,638.8-78.5,638.8z M-78.5,683.8h39.6v43.1h-39.6
												C-78.5,726.9-78.5,683.8-78.5,683.8z M-78.5,728.7h39.6v43.1h-39.6V728.7z M-78.5,773.7h39.6v43.1h-39.6V773.7z
												 M-78.5,818.6h39.6v43.1h-39.6C-78.5,861.7-78.5,818.6-78.5,818.6z M-78.5,863.6h39.6v43.1h-39.6
												C-78.5,906.7-78.5,863.6-78.5,863.6z M-78.5,908.5h39.6v43.1h-39.6V908.5z M-78.5,953.5h39.6v43.1h-39.6V953.5z
												 M-120-35.5h39.7V7.6H-120V-35.5z M-120,9.5h39.7v43.1H-120V9.5z M-120,54.4h39.7v43.1H-120V54.4z M-120,99.4h39.7v43.1
												H-120V99.4z M-120,144.3h39.7v43.1H-120V144.3L-120,144.3z M-120,189.3h39.7v43.1H-120V189.3z M-120,234.2h39.7v43.1
												H-120V234.2L-120,234.2z M-120,279.2h39.7v43.1H-120V279.2z M-120,324.1h39.7v43.1H-120V324.1z M-120,369.1h39.7v43.1
												H-120V369.1z M-120,414h39.7v43.1H-120V414z M-120,459h39.7v43.1H-120V459z M-120,503.9h39.7V547H-120V503.9z
												 M-120,548.9h39.7V592H-120V548.9z M-120,593.9h39.7V637H-120V593.9z M-120,638.8h39.7v43.1H-120V638.8z M-120,683.8
												h39.7v43.1H-120V683.8z M-120,728.7h39.7v43.1H-120V728.7z M-120,773.7h39.7v43.1H-120V773.7z M-120,818.6h39.7v43.1
												H-120V818.6z M-120,863.6h39.7v43.1H-120V863.6z M-120,908.5h39.7v43.1H-120V908.5z M-120,953.5h39.7v43.1H-120V953.5z
												 M-161.5-35.5h39.6V7.6h-39.6V-35.5z M-161.5,9.5h39.6v43.1h-39.6V9.5z M-161.5,54.4h39.6v43.1h-39.6V54.4z M-161.5,99.4
												h39.6v43.1h-39.6V99.4z M-161.5,144.3h39.6v43.1h-39.6V144.3L-161.5,144.3z M-161.5,189.3h39.6v43.1h-39.6V189.3z
												 M-161.5,234.2h39.6v43.1h-39.6V234.2L-161.5,234.2z M-161.5,279.2h39.6v43.1h-39.6V279.2z M-161.5,324.1h39.6v43.1
												h-39.6V324.1z M-161.5,369.1h39.6v43.1h-39.6V369.1z M-161.5,414h39.6v43.1h-39.6V414z M-161.5,459h39.6v43.1h-39.6V459z
												 M-161.5,503.9h39.6V547h-39.6V503.9z M-161.5,548.9h39.6V592h-39.6V548.9z M-161.5,593.9h39.6V637h-39.6V593.9z
												 M-161.5,638.8h39.6v43.1h-39.6V638.8z M-161.5,683.8h39.6v43.1h-39.6V683.8z M-161.5,728.7h39.6v43.1h-39.6V728.7z
												 M-161.5,773.7h39.6v43.1h-39.6V773.7z M-161.5,818.6h39.6v43.1h-39.6V818.6z M-161.5,863.6h39.6v43.1h-39.6V863.6z
												 M-161.5,908.5h39.6v43.1h-39.6V908.5z M-161.5,953.5h39.6v43.1h-39.6V953.5z M-203-35.5h39.6V7.6H-203V-35.5z M-203,9.5
												h39.6v43.1H-203V9.5z M-203,54.4h39.6v43.1H-203V54.4z M-203,99.4h39.6v43.1H-203V99.4z M-203,144.3h39.6v43.1H-203
												V144.3L-203,144.3z M-203,189.3h39.6v43.1H-203V189.3z M-203,234.2h39.6v43.1H-203V234.2L-203,234.2z M-203,279.2h39.6
												v43.1H-203V279.2z M-203,324.1h39.6v43.1H-203V324.1z M-203,369.1h39.6v43.1H-203V369.1z M-203,414h39.6v43.1H-203V414z
												 M-203,459h39.6v43.1H-203V459z M-203,503.9h39.6V547H-203V503.9z M-203,548.9h39.6V592H-203V548.9z M-203,593.9h39.6
												V637H-203V593.9z M-203,638.8h39.6v43.1H-203V638.8z M-203,683.8h39.6v43.1H-203V683.8z M-203,728.7h39.6v43.1H-203
												V728.7z M-203,773.7h39.6v43.1H-203V773.7z M-203,818.6h39.6v43.1H-203V818.6z M-203,863.6h39.6v43.1H-203V863.6z
												 M-203,908.5h39.6v43.1H-203V908.5z M-203,953.5h39.6v43.1H-203V953.5z M-244.5-35.5h39.6V7.6h-39.6V-35.5z M-244.5,9.5
												h39.6v43.1h-39.6V9.5z M-244.5,54.4h39.6v43.1h-39.6V54.4z M-244.5,99.4h39.6v43.1h-39.6V99.4z M-244.5,144.3h39.6v43.1
												h-39.6V144.3L-244.5,144.3z M-244.5,189.3h39.6v43.1h-39.6V189.3z M-244.5,234.2h39.6v43.1h-39.6V234.2L-244.5,234.2z
												 M-244.5,279.2h39.6v43.1h-39.6V279.2z M-244.5,324.1h39.6v43.1h-39.6V324.1z M-244.5,369.1h39.6v43.1h-39.6V369.1z
												 M-244.5,414h39.6v43.1h-39.6V414z M-244.5,459h39.6v43.1h-39.6V459z M-244.5,503.9h39.6V547h-39.6V503.9z M-244.5,548.9
												h39.6V592h-39.6V548.9z M-244.5,593.9h39.6V637h-39.6V593.9z M-244.5,638.8h39.6v43.1h-39.6V638.8z M-244.5,683.8h39.6
												v43.1h-39.6V683.8z M-244.5,728.7h39.6v43.1h-39.6V728.7z M-244.5,773.7h39.6v43.1h-39.6V773.7z M-244.5,818.6h39.6v43.1
												h-39.6V818.6z M-244.5,863.6h39.6v43.1h-39.6V863.6z M-244.5,908.5h39.6v43.1h-39.6V908.5z M-244.5,953.5h39.6v43.1
												h-39.6V953.5z M-286-35.5h39.6V7.6H-286V-35.5z M-286,9.5h39.6v43.1H-286V9.5z M-286,54.4h39.6v43.1H-286V54.4z
												 M-286,99.4h39.6v43.1H-286V99.4z M-286,144.3h39.6v43.1H-286V144.3L-286,144.3z M-286,189.3h39.6v43.1H-286V189.3z
												 M-286,234.2h39.6v43.1H-286V234.2L-286,234.2z M-286,279.2h39.6v43.1H-286V279.2z M-286,324.1h39.6v43.1H-286V324.1z
												 M-286,369.1h39.6v43.1H-286V369.1z M-286,414h39.6v43.1H-286V414z M-286,459h39.6v43.1H-286V459z M-286,503.9h39.6V547
												H-286V503.9z M-286,548.9h39.6V592H-286V548.9z M-286,593.9h39.6V637H-286V593.9z M-286,638.8h39.6v43.1H-286V638.8z
												 M-286,683.8h39.6v43.1H-286V683.8z M-286,728.7h39.6v43.1H-286V728.7z M-286,773.7h39.6v43.1H-286V773.7z M-286,818.6
												h39.6v43.1H-286V818.6z M-286,863.6h39.6v43.1H-286V863.6z M-286,908.5h39.6v43.1H-286V908.5z M-286,953.5h39.6v43.1
												H-286V953.5z M-327.5-35.5h39.6V7.6h-39.6V-35.5L-327.5-35.5z M-327.5,9.5h39.6v43.1h-39.6V9.5L-327.5,9.5z M-327.5,54.4
												h39.6v43.1h-39.6V54.4L-327.5,54.4z M-327.5,99.4h39.6v43.1h-39.6V99.4L-327.5,99.4z M-327.5,144.3h39.6v43.1h-39.6
												V144.3L-327.5,144.3z M-327.5,189.3h39.6v43.1h-39.6V189.3L-327.5,189.3z M-327.5,234.2h39.6v43.1h-39.6V234.2
												L-327.5,234.2z M-327.5,279.2h39.6v43.1h-39.6V279.2L-327.5,279.2z M-327.5,324.1h39.6v43.1h-39.6V324.1L-327.5,324.1z
												 M-327.5,369.1h39.6v43.1h-39.6V369.1L-327.5,369.1z M-327.5,414h39.6v43.1h-39.6V414L-327.5,414z M-327.5,459h39.6v43.1
												h-39.6V459L-327.5,459z M-327.5,503.9h39.6V547h-39.6V503.9L-327.5,503.9z M-327.5,548.9h39.6V592h-39.6V548.9
												L-327.5,548.9z M-327.5,593.9h39.6V637h-39.6V593.9L-327.5,593.9z M-327.5,638.8h39.6v43.1h-39.6V638.8L-327.5,638.8z
												 M-327.5,683.8h39.6v43.1h-39.6V683.8L-327.5,683.8z M-327.5,728.7h39.6v43.1h-39.6V728.7L-327.5,728.7z M-327.5,773.7
												h39.6v43.1h-39.6V773.7L-327.5,773.7z M-327.5,818.6h39.6v43.1h-39.6V818.6L-327.5,818.6z M-327.5,863.6h39.6v43.1h-39.6
												V863.6L-327.5,863.6z M-327.5,908.5h39.6v43.1h-39.6V908.5L-327.5,908.5z M-327.5,953.5h39.6v43.1h-39.6V953.5
												L-327.5,953.5z M-369-35.5h39.6V7.6H-369V-35.5z M-369,9.5h39.6v43.1H-369V9.5z M-369,54.4h39.6v43.1H-369V54.4z
												 M-369,99.4h39.6v43.1H-369V99.4z M-369,144.3h39.6v43.1H-369V144.3L-369,144.3z M-369,189.3h39.6v43.1H-369V189.3z
												 M-369,234.2h39.6v43.1H-369V234.2L-369,234.2z M-369,279.2h39.6v43.1H-369V279.2z M-369,324.1h39.6v43.1H-369V324.1z
												 M-369,369.1h39.6v43.1H-369V369.1z M-369,414h39.6v43.1H-369V414z M-369,459h39.6v43.1H-369V459z M-369,503.9h39.6V547
												H-369V503.9z M-369,548.9h39.6V592H-369V548.9z M-369,593.9h39.6V637H-369V593.9z M-369,638.8h39.6v43.1H-369V638.8z
												 M-369,683.8h39.6v43.1H-369V683.8z M-369,728.7h39.6v43.1H-369V728.7z M-369,773.7h39.6v43.1H-369V773.7z M-369,818.6
												h39.6v43.1H-369V818.6z M-369,863.6h39.6v43.1H-369V863.6z M-369,908.5h39.6v43.1H-369V908.5z M-369,953.5h39.6v43.1
												H-369V953.5z M-410.5-35.5h39.6V7.6h-39.6V-35.5z M-410.5,9.5h39.6v43.1h-39.6V9.5z M-410.5,54.4h39.6v43.1h-39.6V54.4z
												 M-410.5,99.4h39.6v43.1h-39.6V99.4z M-410.5,144.3h39.6v43.1h-39.6V144.3L-410.5,144.3z M-410.5,189.3h39.6v43.1h-39.6
												V189.3z M-410.5,234.2h39.6v43.1h-39.6V234.2L-410.5,234.2z M-410.5,279.2h39.6v43.1h-39.6V279.2z M-410.5,324.1h39.6
												v43.1h-39.6V324.1z M-410.5,369.1h39.6v43.1h-39.6V369.1z M-410.5,414h39.6v43.1h-39.6V414z M-410.5,459h39.6v43.1h-39.6
												V459z M-410.5,503.9h39.6V547h-39.6V503.9z M-410.5,548.9h39.6V592h-39.6V548.9z M-410.5,593.9h39.6V637h-39.6V593.9z
												 M-410.5,638.8h39.6v43.1h-39.6V638.8z M-410.5,683.8h39.6v43.1h-39.6V683.8z M-410.5,728.7h39.6v43.1h-39.6V728.7z
												 M-410.5,773.7h39.6v43.1h-39.6V773.7z M-410.5,818.6h39.6v43.1h-39.6V818.6z M-410.5,863.6h39.6v43.1h-39.6V863.6z
												 M-410.5,908.5h39.6v43.1h-39.6V908.5z M-410.5,953.5h39.6v43.1h-39.6V953.5z M-452-35.5h39.6V7.6H-452V-35.5z M-452,9.5
												h39.6v43.1H-452V9.5z M-452,54.4h39.6v43.1H-452V54.4z M-452,99.4h39.6v43.1H-452V99.4z M-452,144.3h39.6v43.1H-452
												V144.3L-452,144.3z M-452,189.3h39.6v43.1H-452V189.3z M-452,234.2h39.6v43.1H-452V234.2L-452,234.2z M-452,279.2h39.6
												v43.1H-452V279.2z M-452,324.1h39.6v43.1H-452V324.1z M-452,369.1h39.6v43.1H-452V369.1z M-452,414h39.6v43.1H-452V414z
												 M-452,459h39.6v43.1H-452V459z M-452,503.9h39.6V547H-452V503.9z M-452,548.9h39.6V592H-452V548.9z M-452,593.9h39.6
												V637H-452V593.9z M-452,638.8h39.6v43.1H-452V638.8z M-452,683.8h39.6v43.1H-452V683.8z M-452,728.7h39.6v43.1H-452
												V728.7z M-452,773.7h39.6v43.1H-452V773.7z M-452,818.6h39.6v43.1H-452V818.6z M-452,863.6h39.6v43.1H-452V863.6z
												 M-452,908.5h39.6v43.1H-452V908.5z M-452,953.5h39.6v43.1H-452V953.5z M-493.4-35.5h39.6V7.6h-39.6V-35.5z M-493.4,9.5
												h39.6v43.1h-39.6V9.5z M-493.4,54.4h39.6v43.1h-39.6V54.4z M-493.4,99.4h39.6v43.1h-39.6V99.4z M-493.4,144.3h39.6v43.1
												h-39.6V144.3L-493.4,144.3z M-493.4,189.3h39.6v43.1h-39.6V189.3z M-493.4,234.2h39.6v43.1h-39.6V234.2L-493.4,234.2z
												 M-493.4,279.2h39.6v43.1h-39.6V279.2z M-493.4,324.1h39.6v43.1h-39.6V324.1z M-493.4,369.1h39.6v43.1h-39.6V369.1z
												 M-493.4,414h39.6v43.1h-39.6V414z M-493.4,459h39.6v43.1h-39.6V459z M-493.4,503.9h39.6V547h-39.6V503.9z M-493.4,548.9
												h39.6V592h-39.6V548.9z M-493.4,593.9h39.6V637h-39.6V593.9z M-493.4,638.8h39.6v43.1h-39.6V638.8z M-493.4,683.8h39.6
												v43.1h-39.6V683.8z M-493.4,728.7h39.6v43.1h-39.6V728.7z M-493.4,773.7h39.6v43.1h-39.6V773.7z M-493.4,818.6h39.6v43.1
												h-39.6V818.6z M-493.4,863.6h39.6v43.1h-39.6V863.6z M-493.4,908.5h39.6v43.1h-39.6V908.5z M-493.4,953.5h39.6v43.1
												h-39.6V953.5z"/>
										</g>
									</g>
								</g>
							</g>
						</g>
					</g>
				</g>
			</g>
			<g>
				<path class="st7" d="M523.5,661.8v294.3c0,27.6-22.4,50-50,50H122.1c-27.6,0-50-22.4-50-50V661.8
					C221.1,632,374.5,632,523.5,661.8L523.5,661.8z"/>
				<path class="st8" d="M523.5,661.8v29.8c-42.8-10.8-140.2-33.3-219.1-37C225.5,651,119.3,678.7,72,692.5v-30.8
					C221.1,632,374.5,632,523.5,661.8z"/>
			</g>
			<g>
				<path class="st9" d="M544.4,341.9V229.2H539V61.6C539,32,515,8,485.4,8H115.8C85,8,59.7,33.2,59.7,64.1v71.5
					c-2.2,0-4.1,1.8-4.1,4.1v28.5c0,2.2,1.8,4.1,4.1,4.1v33.9c-2.2,0-4.1,1.8-4.1,4.1v61.1c0,2.2,1.8,4.1,4.1,4.1v20.4
					c-2.2,0-4.1,1.8-4.1,4.1v61.1c0,2.2,1.8,4.1,4.1,4.1v513.9h0.1v17.6l0,0v65.9c0,29.6,24,53.6,53.6,53.6h369.5
					c30.9,0,56.1-25.3,56.1-56.1v-2.6l0,0v-80.6h-0.1v-535H544.4L544.4,341.9z M476.1,1001.8H118.7c-25.1,0-43.6-18.3-43.6-43.4
					l0.6-892.8c0-25.1,21.8-43.4,46.8-43.4H480c25.1,0,43.6,18.3,43.6,43.4L523,958.4C523,983.5,501.2,1001.8,476.1,1001.8
					L476.1,1001.8z"/>
				<path class="st10" d="M118.8,55.3c0.9-0.7,1.6-1.3,2.1-1.8s0.9-0.9,1.3-1.5c0.3-0.5,0.5-1,0.5-1.5c0-0.4-0.1-0.7-0.2-0.8
					s-0.4-0.3-0.8-0.3s-0.6,0.1-0.8,0.4c-0.2,0.2-0.3,0.6-0.3,1.1h-2.2c0-0.8,0.2-1.4,0.5-1.9s0.7-0.9,1.2-1.1
					c0.5-0.2,1.1-0.4,1.7-0.4c1.1,0,1.8,0.3,2.4,0.8s0.8,1.2,0.8,2.1c0,1-0.3,1.8-1,2.6s-1.5,1.6-2.5,2.4h3.6v1.8h-6.7v-1.7
					C118.7,55.5,118.8,55.3,118.8,55.3L118.8,55.3z"/>
				<path class="st10" d="M126.4,55.3c0.9-0.7,1.6-1.3,2.1-1.8s0.9-0.9,1.3-1.5c0.3-0.5,0.5-1,0.5-1.5c0-0.4-0.1-0.7-0.2-0.8
					s-0.4-0.3-0.8-0.3s-0.6,0.1-0.8,0.4c-0.2,0.2-0.3,0.6-0.3,1.1H126c0-0.8,0.2-1.4,0.5-1.9s0.7-0.9,1.2-1.1c0.5-0.2,1-0.4,1.7-0.4
					c1.1,0,1.8,0.3,2.4,0.8c0.5,0.5,0.8,1.2,0.8,2.1c0,1-0.3,1.8-1,2.6c-0.6,0.8-1.5,1.6-2.5,2.4h3.6v1.8H126v-1.7
					C126.3,55.5,126.4,55.3,126.4,55.3L126.4,55.3z"/>
				<path class="st10" d="M133.9,51.8c-0.2-0.2-0.4-0.5-0.4-0.9s0.1-0.7,0.4-0.9s0.6-0.4,1-0.4s0.7,0.1,1,0.4s0.4,0.5,0.4,0.9
					s-0.1,0.6-0.4,0.9c-0.2,0.2-0.6,0.3-1,0.3S134.2,52.1,133.9,51.8z M133.9,57.2c-0.2-0.2-0.4-0.5-0.4-0.9s0.1-0.7,0.4-0.9
					c0.2-0.2,0.6-0.4,1-0.4s0.7,0.1,1,0.4s0.4,0.5,0.4,0.9s-0.1,0.6-0.4,0.9c-0.2,0.2-0.6,0.3-1,0.3S134.2,57.5,133.9,57.2z"/>
				<path class="st10" d="M137.4,55.8V54l4.2-6h2.5v5.9h1.1v2h-1.1v1.7h-2.3v-1.7L137.4,55.8L137.4,55.8z M142.1,50.4l-2.2,3.4h2.2
					V50.4z"/>
				<path class="st10" d="M152.6,49.5l-3.3,8H147l3.4-7.7h-4.1v-1.9h6.4L152.6,49.5L152.6,49.5z"/>
				<path id="uuid-be913e1f-d500-4b66-b1a5-6da0f0aae8cf" class="st11" d="M481.1,52.6c0,1.1-0.6,1.9-1.7,1.9v-3.9
					C480.6,50.7,481.1,51.5,481.1,52.6L481.1,52.6z M478.9,49v7.2l0,0c0,0.9-0.7,1.7-1.7,1.7h-21.5c-0.9,0-1.7-0.7-1.7-1.7l0,0V49
					c0-0.9,0.7-1.7,1.7-1.7h21.5C478.2,47.3,478.9,48.1,478.9,49z M455.7,47.9c-0.6,0-1.1,0.5-1.1,1.1v7.2c0,0.6,0.5,1.1,1.1,1.1
					h21.5c0.6,0,1.1-0.5,1.1-1.1V49c0-0.6-0.5-1.1-1.1-1.1H455.7z M455.2,49v7.2c0,0.3,0.2,0.5,0.5,0.5h21.5c0.3,0,0.5-0.2,0.5-0.5
					V49c0-0.3-0.2-0.5-0.5-0.5h-21.5C455.4,48.5,455.2,48.7,455.2,49z"/>
				<path id="uuid-e9be0a63-07bb-4072-9799-13fdd244615a" class="st10" d="M441.5,47.3c2.3,0,4.7,0.9,6.6,2.6l-0.9,1
					c-1.6-1.4-3.6-2.1-5.8-2.1s-4.1,0.7-5.7,2.1l-0.9-1C436.9,48.2,439.2,47.3,441.5,47.3L441.5,47.3z M441.5,50.8
					c1.6,0,3.1,0.6,4.4,1.6l-0.9,1c-1-0.8-2.2-1.2-3.5-1.2s-2.5,0.4-3.5,1.2l-0.9-1C438.4,51.4,440,50.8,441.5,50.8L441.5,50.8z
					 M441.5,54.2c0.7,0,1.5,0.3,2.1,0.8l-2.1,2.4l-2.1-2.4C440.1,54.4,440.8,54.2,441.5,54.2L441.5,54.2z"/>
				<path class="st12" d="M246.1,35.7h96c6.4,0,11.5,5.2,11.5,11.5V59c0,6.4-5.2,11.5-11.5,11.5h-96c-6.4,0-11.5-5.2-11.5-11.5V47.2
					C234.6,40.9,239.8,35.7,246.1,35.7z"/>
				<circle class="st13" cx="332.9" cy="53" r="10.9"/>
				<ellipse class="st14" cx="332.9" cy="53" rx="8.6" ry="8.6"/>
				<path class="st15" d="M333.6,59.6c-4.2,0.4-7.7-3.1-7.2-7.3c0.3-3.1,2.8-5.6,5.9-5.9c4.2-0.4,7.7,3.1,7.2,7.3
					C339.2,56.8,336.7,59.3,333.6,59.6z"/>
				<path class="st16" d="M329.2,58.5c-1.8-1.2-2.9-3.3-2.9-5.5h1.5c0,1.7,0.9,3.3,2.3,4.3L329.2,58.5L329.2,58.5z"/>
				<path class="st16" d="M338,52.1c-0.3-1.7-1.5-3.2-3.1-3.8l0.6-1.3c2.1,0.9,3.5,2.7,3.9,4.9L338,52.1L338,52.1z"/>
				<path class="st17" d="M331.3,50.2c0,0-2.5,0.4-2.5,2.9s2.5,2.6,2.5,2.6V50.2z"/>
				<path class="st17" d="M334.5,50.2c0,0,2.5,0.4,2.5,2.9s-2.5,2.6-2.5,2.6V50.2z"/>
				<path class="st18" d="M338.3,56.7c-1.2,1.8-3.3,2.9-5.5,2.9v-1.5c1.7,0,3.3-0.8,4.3-2.3L338.3,56.7L338.3,56.7z"/>
				<path class="st18" d="M331.9,47.9c-1.7,0.3-3.2,1.5-3.9,3.1l-1.3-0.6c0.9-2.1,2.7-3.5,4.9-3.9L331.9,47.9L331.9,47.9z"/>
			</g>
			<g>
				<ellipse class="st19" cx="198.5" cy="778.2" rx="65.4" ry="31.3"/>
				<g>
					<path class="st20" d="M245.3,186.3c0,0-16.3,56.9-4,97.3c12.3,40.3,31.4,112.6,39.6,116.1c8.2,3.5,23.2-17.5,19.2-29.7
						s-2.7-23.4-2.7-23.4s-40.9-79-46.4-88.9S245.3,186.3,245.3,186.3L245.3,186.3z"/>
					<path class="st21" d="M315,195.2l-11.5-92.4h-43.6c-7.9,35.9-23,112.7-14.3,145.1c11.6,42.9,64.1,129.7,85.4,125.9
						c21.4-3.8-17.4-95.7-25.2-122C298.9,228.5,306.2,207.1,315,195.2L315,195.2z"/>
					<g>
						
							<ellipse transform="matrix(0.7548 -0.6559 0.6559 0.7548 -146.8609 329.3027)" class="st20" cx="367.1" cy="361.1" rx="31.3" ry="65.4"/>
						
							<rect x="363.3" y="292.5" transform="matrix(0.7548 -0.6559 0.6559 0.7548 -143.7696 331.0588)" class="st22" width="15.3" height="130.7"/>
						
							<ellipse transform="matrix(0.7548 -0.6559 0.6559 0.7548 -139.7019 333.2204)" class="st23" cx="375.9" cy="353.5" rx="31.3" ry="65.4"/>
						
							<ellipse transform="matrix(0.7548 -0.6559 0.6559 0.7548 -139.7019 333.2204)" class="st24" cx="375.9" cy="353.5" rx="24.1" ry="52"/>
						<g>
							<path class="st22" d="M364.4,343.6l-2.1-9l6.7,2.6l2.1,9c1,4.2,5.1,9,9.2,10.6s6.7-0.5,5.7-4.7l-2.2-9.4l6.7,2.6l2.2,9.4
								c1.9,8-3,12-10.8,9C374.2,360.7,366.3,351.7,364.4,343.6L364.4,343.6z"/>
							<polygon class="st22" points="380.5,370.5 373,338.5 379.7,341.2 387.1,373.1 							"/>
							<polygon class="st22" points="391.2,374.7 383.8,342.8 390.5,345.4 397.9,377.4 							"/>
							<polygon class="st22" points="352.4,351.4 367.9,341.6 362.4,334.7 350.3,342.3 							"/>
						</g>
					</g>
					<path class="st21" d="M416.9,102.8H303.5l11.5,92.4c1.2-1.6,2.4-3,3.5-4.2c10.1-10.4,45.7,16.8,46.5,29.3
						c0.9,12.6-27.6,51.2-31.2,65.3s4.1,31.6,17.9,28.7s79.6-95.3,75.5-127.8C425,168,420.4,131.1,416.9,102.8L416.9,102.8z"/>
					<path class="st20" d="M375.7,290.6c0,0-14.2-10.5-19.9-7.8c-5.7,2.7-8.9,14.5-6.1,19.1c2.7,4.6,9.5,7.3,9.5,7.3L375.7,290.6
						L375.7,290.6z"/>
				</g>
				<g>
					<ellipse class="st22" cx="212.6" cy="769.6" rx="65.3" ry="31.3"/>
					<rect x="147.3" y="756.8" class="st22" width="130.7" height="15.3"/>
					<ellipse class="st23" cx="212.6" cy="758" rx="65.3" ry="31.3"/>
					<ellipse class="st24" cx="212.6" cy="758" rx="52" ry="24.1"/>
					<g>
						<path class="st22" d="M197.7,760.1l-8.1-4.3l6.4-3.3l8.1,4.3c3.8,2,10.1,2,14.1,0c3.9-2,4-5.3,0.1-7.4l-8.5-4.5l6.4-3.3
							l8.5,4.5c7.3,3.9,7.1,10.1-0.3,14S205,764,197.7,760.1L197.7,760.1z"/>
						<polygon class="st22" points="228.4,765.6 199.5,750.3 205.8,747 234.8,762.3 						"/>
						<polygon class="st22" points="238.8,760.3 209.8,744.9 216.1,741.6 245.1,757 						"/>
						<polygon class="st22" points="195.6,774.3 198.5,756.2 189.6,755.8 187.4,769.9 						"/>
					</g>
				</g>
				<g>
					<ellipse class="st19" cx="352" cy="730.4" rx="65.4" ry="31.3"/>
					<g>
						<ellipse class="st22" cx="360.3" cy="721.7" rx="65.4" ry="31.3"/>
						<rect x="295" y="709" class="st22" width="130.7" height="15.3"/>
						<ellipse class="st23" cx="360.3" cy="710.1" rx="65.4" ry="31.3"/>
						<ellipse class="st24" cx="360.3" cy="710.1" rx="52" ry="24.1"/>
						<g>
							<path class="st22" d="M345.4,712.3l-8.1-4.3l6.4-3.3l8.1,4.3c3.8,2,10.1,2,14.1,0c3.9-2,4-5.3,0.1-7.4l-8.5-4.5l6.4-3.3
								l8.5,4.5c7.3,3.9,7.1,10.1-0.3,14C364.6,716.1,352.6,716.1,345.4,712.3L345.4,712.3z"/>
							<polygon class="st22" points="376.1,717.8 347.1,702.4 353.5,699.1 382.5,714.5 							"/>
							<polygon class="st22" points="386.4,712.4 357.5,697.1 363.8,693.8 392.8,709.1 							"/>
							<polygon class="st22" points="343.3,726.4 346.1,708.3 337.3,708 335.1,722.1 							"/>
						</g>
					</g>
					<g>
						<ellipse class="st22" cx="360.3" cy="699.6" rx="65.4" ry="31.3"/>
						<rect x="295" y="686.8" class="st22" width="130.7" height="15.3"/>
						<ellipse class="st23" cx="360.3" cy="688" rx="65.4" ry="31.3"/>
						<ellipse class="st24" cx="360.3" cy="688" rx="52" ry="24.1"/>
						<g>
							<path class="st22" d="M345.4,690.1l-8.1-4.3l6.4-3.3l8.1,4.3c3.8,2,10.1,2,14.1,0c3.9-2,4-5.3,0.1-7.4l-8.5-4.5l6.4-3.3
								l8.5,4.5c7.3,3.9,7.1,10.1-0.3,14C364.6,694,352.6,694,345.4,690.1L345.4,690.1z"/>
							<polygon class="st22" points="376.1,695.6 347.1,680.3 353.5,677 382.5,692.3 							"/>
							<polygon class="st22" points="386.4,690.3 357.5,674.9 363.8,671.6 392.8,687 							"/>
							<polygon class="st22" points="343.3,704.3 346.1,686.2 337.3,685.8 335.1,699.9 							"/>
						</g>
					</g>
					<g>
						<ellipse class="st22" cx="360.3" cy="677.4" rx="65.4" ry="31.3"/>
						<rect x="295" y="664.7" class="st22" width="130.7" height="15.3"/>
						<ellipse class="st23" cx="360.3" cy="665.8" rx="65.4" ry="31.3"/>
						<ellipse class="st24" cx="360.3" cy="665.8" rx="52" ry="24.1"/>
						<g>
							<path class="st22" d="M345.4,668l-8.1-4.3l6.4-3.3l8.1,4.3c3.8,2,10.1,2,14.1,0c3.9-2,4-5.3,0.1-7.4l-8.5-4.5l6.4-3.3
								l8.5,4.5c7.3,3.9,7.1,10.1-0.3,14C364.6,671.8,352.6,671.8,345.4,668L345.4,668z"/>
							<polygon class="st22" points="376.1,673.5 347.1,658.1 353.5,654.8 382.5,670.2 							"/>
							<polygon class="st22" points="386.4,668.1 357.5,652.8 363.8,649.5 392.8,664.8 							"/>
							<polygon class="st22" points="343.3,682.1 346.1,664 337.3,663.7 335.1,677.8 							"/>
						</g>
					</g>
					<g>
						<ellipse class="st22" cx="360.3" cy="655.3" rx="65.4" ry="31.3"/>
						<rect x="295" y="642.5" class="st22" width="130.7" height="15.3"/>
						<ellipse class="st23" cx="360.3" cy="643.6" rx="65.4" ry="31.3"/>
						<ellipse class="st24" cx="360.3" cy="643.6" rx="52" ry="24.1"/>
						<g>
							<path class="st22" d="M345.4,645.8l-8.1-4.3l6.4-3.3l8.1,4.3c3.8,2,10.1,2,14.1,0c3.9-2,4-5.3,0.1-7.4l-8.5-4.5l6.4-3.3
								l8.5,4.5c7.3,3.9,7.1,10.1-0.3,14C364.6,649.6,352.6,649.7,345.4,645.8L345.4,645.8z"/>
							<polygon class="st22" points="376.1,651.3 347.1,635.9 353.5,632.6 382.5,648 							"/>
							<polygon class="st22" points="386.4,646 357.5,630.6 363.8,627.3 392.8,642.7 							"/>
							<polygon class="st22" points="343.3,660 346.1,641.8 337.3,641.5 335.1,655.6 							"/>
						</g>
					</g>
					<g>
						<ellipse class="st22" cx="360.3" cy="633.1" rx="65.4" ry="31.3"/>
						<rect x="295" y="620.3" class="st22" width="130.7" height="15.3"/>
						<ellipse class="st23" cx="360.3" cy="621.5" rx="65.4" ry="31.3"/>
						<ellipse class="st24" cx="360.3" cy="621.5" rx="52" ry="24.1"/>
						<g>
							<path class="st22" d="M345.4,623.7l-8.1-4.3l6.4-3.3l8.1,4.3c3.8,2,10.1,2,14.1,0c3.9-2,4-5.3,0.1-7.4l-8.5-4.5l6.4-3.3
								l8.5,4.5c7.3,3.9,7.1,10.1-0.3,14C364.6,627.5,352.6,627.5,345.4,623.7L345.4,623.7z"/>
							<polygon class="st22" points="376.1,629.2 347.1,613.8 353.5,610.5 382.5,625.8 							"/>
							<polygon class="st22" points="386.4,623.8 357.5,608.4 363.8,605.1 392.8,620.5 							"/>
							<polygon class="st22" points="343.3,637.8 346.1,619.7 337.3,619.4 335.1,633.4 							"/>
						</g>
					</g>
					<g>
						<ellipse class="st22" cx="360.3" cy="611" rx="65.4" ry="31.3"/>
						<rect x="295" y="598.2" class="st22" width="130.7" height="15.3"/>
						<ellipse class="st23" cx="360.3" cy="599.3" rx="65.4" ry="31.3"/>
						<ellipse class="st24" cx="360.3" cy="599.3" rx="52" ry="24.1"/>
						<g>
							<path class="st22" d="M345.4,601.5l-8.1-4.3l6.4-3.3l8.1,4.3c3.8,2,10.1,2,14.1,0c3.9-2,4-5.3,0.1-7.4l-8.5-4.5l6.4-3.3
								l8.5,4.5c7.3,3.9,7.1,10.1-0.3,14C364.6,605.3,352.6,605.3,345.4,601.5L345.4,601.5z"/>
							<polygon class="st22" points="376.1,607 347.1,591.6 353.5,588.3 382.5,603.7 							"/>
							<polygon class="st22" points="386.4,601.7 357.5,586.3 363.8,583 392.8,598.3 							"/>
							<polygon class="st22" points="343.3,615.7 346.1,597.5 337.3,597.2 335.1,611.3 							"/>
						</g>
					</g>
					<g>
						<ellipse class="st22" cx="360.3" cy="588.8" rx="65.4" ry="31.3"/>
						<rect x="295" y="576" class="st22" width="130.7" height="15.3"/>
						<ellipse class="st23" cx="360.3" cy="577.2" rx="65.4" ry="31.3"/>
						<ellipse class="st24" cx="360.3" cy="577.2" rx="52" ry="24.1"/>
						<g>
							<path class="st22" d="M345.4,579.3l-8.1-4.3l6.4-3.3l8.1,4.3c3.8,2,10.1,2,14.1,0c3.9-2,4-5.3,0.1-7.4l-8.5-4.5l6.4-3.3
								l8.5,4.5c7.3,3.9,7.1,10.1-0.3,14C364.6,583.2,352.6,583.2,345.4,579.3L345.4,579.3z"/>
							<polygon class="st22" points="376.1,584.8 347.1,569.5 353.5,566.2 382.5,581.5 							"/>
							<polygon class="st22" points="386.4,579.5 357.5,564.1 363.8,560.8 392.8,576.2 							"/>
							<polygon class="st22" points="343.3,593.5 346.1,575.4 337.3,575 335.1,589.1 							"/>
						</g>
					</g>
				</g>
				<g>
					<ellipse class="st19" cx="339.8" cy="834.5" rx="65.4" ry="31.3"/>
					<g>
						<ellipse class="st22" cx="348" cy="825.8" rx="65.4" ry="31.3"/>
						<rect x="282.7" y="813" class="st22" width="130.7" height="15.3"/>
						<ellipse class="st23" cx="348" cy="814.2" rx="65.4" ry="31.3"/>
						<ellipse class="st24" cx="348" cy="814.2" rx="52" ry="24.1"/>
						<g>
							<path class="st22" d="M333.1,816.3L325,812l6.4-3.3l8.1,4.3c3.8,2,10.1,2,14.1,0c3.9-2,4-5.3,0.1-7.4l-8.5-4.5l6.4-3.3
								l8.5,4.5c7.3,3.9,7.1,10.1-0.3,14C352.3,820.2,340.4,820.2,333.1,816.3L333.1,816.3z"/>
							<polygon class="st22" points="363.9,821.8 334.9,806.5 341.2,803.2 370.2,818.5 							"/>
							<polygon class="st22" points="374.1,816.5 345.2,801.1 351.5,797.8 380.5,813.2 							"/>
							<polygon class="st22" points="331,830.5 333.9,812.4 325,812.1 322.8,826.1 							"/>
						</g>
					</g>
					<g>
						<ellipse class="st22" cx="348" cy="800.3" rx="65.4" ry="31.3"/>
						<rect x="282.7" y="787.6" class="st22" width="130.7" height="15.3"/>
						<ellipse class="st23" cx="348" cy="788.7" rx="65.4" ry="31.3"/>
						<ellipse class="st24" cx="348" cy="788.7" rx="52" ry="24.1"/>
						<g>
							<path class="st22" d="M333.1,790.9l-8.1-4.3l6.4-3.3l8.1,4.3c3.8,2,10.1,2,14.1,0c3.9-2,4-5.3,0.1-7.4l-8.5-4.5l6.4-3.3
								l8.5,4.5c7.3,3.9,7.1,10.1-0.3,14C352.3,794.7,340.4,794.7,333.1,790.9L333.1,790.9z"/>
							<polygon class="st22" points="363.9,796.4 334.9,781 341.2,777.7 370.2,793.1 							"/>
							<polygon class="st22" points="374.1,791 345.2,775.7 351.5,772.4 380.5,787.7 							"/>
							<polygon class="st22" points="331,805 333.9,786.9 325,786.6 322.8,800.7 							"/>
						</g>
					</g>
					<g>
						<ellipse class="st22" cx="348" cy="774.9" rx="65.4" ry="31.3"/>
						<rect x="282.7" y="762.1" class="st22" width="130.7" height="15.3"/>
						<ellipse class="st23" cx="348" cy="763.2" rx="65.4" ry="31.3"/>
						<ellipse class="st24" cx="348" cy="763.2" rx="52" ry="24.1"/>
						<g>
							<path class="st22" d="M333.1,765.4l-8.1-4.3l6.4-3.3l8.1,4.3c3.8,2,10.1,2,14.1,0c3.9-2,4-5.3,0.1-7.4l-8.5-4.5l6.4-3.3
								l8.5,4.5c7.3,3.9,7.1,10.1-0.3,14C352.3,769.3,340.4,769.3,333.1,765.4L333.1,765.4z"/>
							<polygon class="st22" points="363.9,770.9 334.9,755.6 341.2,752.3 370.2,767.6 							"/>
							<polygon class="st22" points="374.1,765.6 345.2,750.2 351.5,746.9 380.5,762.3 							"/>
							<polygon class="st22" points="331,779.6 333.9,761.5 325,761.1 322.8,775.2 							"/>
						</g>
					</g>
				</g>
			</g>
		</g>
	</g>
</g>
</svg>
