<?xml version="1.0" encoding="utf-8"?>
<!-- Generator: Adobe Illustrator 27.0.0, SVG Export Plug-In . SVG Version: 6.00 Build 0)  -->
<svg version="1.1" id="Layer_1" xmlns="http://www.w3.org/2000/svg" xmlns:xlink="http://www.w3.org/1999/xlink" x="0px" y="0px"
	 viewBox="0 0 600 1024" style="enable-background:new 0 0 600 1024;" xml:space="preserve">
<style type="text/css">
	.st0{fill:#161616;}
	.st1{clip-path:url(#SVGID_00000091705432781689437400000010600538542074872454_);}
	.st2{opacity:0.1;}
	.st3{fill:#FFFFFF;}
	.st4{fill:#4D4D4D;}
	.st5{fill-rule:evenodd;clip-rule:evenodd;fill:#FFFFFF;}
	.st6{fill:#333333;}
	.st7{fill:#111012;}
	.st8{fill:#17161C;}
	.st9{fill:#0A1118;}
	.st10{fill:#342A35;}
	.st11{opacity:0.38;fill:#417074;enable-background:new    ;}
	.st12{opacity:0.6;fill:#342A35;enable-background:new    ;}
	.st13{opacity:0.5;fill:#B3B3B3;enable-background:new    ;}
	.st14{fill:#D05C00;}
	.st15{opacity:0.2;fill:url(#SVGID_00000146481216768137997610000002202873467247325365_);enable-background:new    ;}
	.st16{opacity:0.2;fill:url(#SVGID_00000143592060110155988310000004219727833921733772_);enable-background:new    ;}
	.st17{opacity:0.2;fill:url(#SVGID_00000173148309007975443710000005146801254733068684_);enable-background:new    ;}
	.st18{opacity:0.2;fill:url(#SVGID_00000131331299193337767810000013631531668598949270_);enable-background:new    ;}
	.st19{opacity:0.2;fill:url(#SVGID_00000112628391711597189830000005756485362898126515_);enable-background:new    ;}
	.st20{opacity:0.2;fill:url(#SVGID_00000174600593098843476240000005898344640333877133_);enable-background:new    ;}
	.st21{opacity:0.3;fill:url(#SVGID_00000049901840535145031430000014494907280084698539_);enable-background:new    ;}
	.st22{fill:#8E3C00;}
	.st23{fill:#B14D00;}
	.st24{fill:#F88834;}
	.st25{opacity:0.5;fill:#AC4B00;enable-background:new    ;}
	.st26{fill:#7A7A7A;}
	.st27{fill:#939393;}
	.st28{fill:#9C9C9C;}
	.st29{fill:#929292;}
	.st30{opacity:0.5;}
	.st31{fill:url(#SVGID_00000128462105657639666100000010977986529430247310_);}
	.st32{fill:#949494;}
	.st33{fill:url(#SVGID_00000062877396040924522660000017060298049211125384_);}
	.st34{fill:#E58F00;}
	.st35{opacity:0.5;fill:#E58F00;enable-background:new    ;}
	.st36{fill:#FFDA00;}
	.st37{fill:#FFB000;}
	.st38{fill:#6A9304;}
	.st39{fill:#8CC004;}
	.st40{fill:#A4CC4A;}
	.st41{fill:#F1F1F1;}
	.st42{fill:#FF8C00;}
	.st43{fill:#C2C2C2;}
	.st44{fill:#BB5B00;}
	.st45{opacity:0.4;fill:#6A9304;enable-background:new    ;}
	.st46{fill:#F56C00;}
	.st47{opacity:0.2;fill:url(#SVGID_00000024718586730818062220000011754075586523280778_);enable-background:new    ;}
	.st48{opacity:0.2;fill:url(#SVGID_00000056394397419610929370000011105648285414390424_);enable-background:new    ;}
	.st49{opacity:0.2;fill:url(#SVGID_00000088108611339585163860000000146238482761707671_);enable-background:new    ;}
	.st50{opacity:0.2;fill:url(#SVGID_00000147938589254642371770000008282262085821040547_);enable-background:new    ;}
	.st51{opacity:0.2;fill:url(#SVGID_00000182489090737087590300000010794794335253615001_);enable-background:new    ;}
	.st52{opacity:0.2;fill:url(#SVGID_00000070812739175396412900000015249708553639254929_);enable-background:new    ;}
	.st53{opacity:0.3;fill:url(#SVGID_00000124151292023974353920000002485916325338374555_);enable-background:new    ;}
</style>
<path class="st0" d="M478.1,1007.3H116.7c-25.3,0-44.1-18.5-44.1-43.9l0.6-902.9c0-25.3,22-43.9,47.4-43.9H482
	c25.4,0,44.1,18.5,44.1,43.9l-0.6,902.9C525.5,988.8,503.4,1007.3,478.1,1007.3L478.1,1007.3z"/>
<g>
	<g id="uuid-c3f366b2-360b-4fad-ae22-c890996dea16">
		<g>
			<g>
				<defs>
					<path id="SVGID_1_" d="M475.9,1001.1H119c-25,0-43.5-18.3-43.5-43.3l0.6-891.5c0-25,21.8-43.3,46.8-43.3h356.9
						c25,0,43.5,18.3,43.5,43.3l-0.6,891.5C522.7,982.8,500.9,1001.1,475.9,1001.1L475.9,1001.1z"/>
				</defs>
				<clipPath id="SVGID_00000176759797252881862980000011672752750990137787_">
					<use xlink:href="#SVGID_1_"  style="overflow:visible;"/>
				</clipPath>
				<g style="clip-path:url(#SVGID_00000176759797252881862980000011672752750990137787_);">
					<g class="st2">
						<g>
							<polygon class="st3" points="471.6,224.3 385.1,224.3 385.1,222 469.3,222 469.3,190.9 587.3,190.9 587.3,93.2 774.6,93.2 
								774.6,95.5 589.6,95.5 589.6,193.2 471.6,193.2 							"/>
							<polygon class="st3" points="696.6,1042.4 694.3,1042.4 694.3,850 742.4,850 742.4,461.5 619.8,461.5 619.8,415.5 
								714.5,415.5 714.5,72.2 588.8,72.2 588.8,13.7 591.1,13.7 591.1,69.9 716.8,69.9 716.8,417.8 622.1,417.8 622.1,459.1 
								744.7,459.1 744.7,852.3 696.6,852.3 							"/>
							<polygon class="st3" points="598.9,430.9 467.8,430.9 467.8,312.7 316.9,312.7 316.9,310.4 470.1,310.4 470.1,428.6 
								596.6,428.6 596.6,379.9 774.6,379.9 774.6,382.2 598.9,382.2 							"/>
							<polygon class="st3" points="591.1,886.8 466.2,886.8 466.2,696 355.9,696 355.9,693.7 468.5,693.7 468.5,884.5 588.8,884.5 
								588.8,825.6 761.8,825.6 761.8,827.9 591.1,827.9 							"/>
							<polygon class="st3" points="774.6,925.6 636.9,925.6 636.9,756.5 546.9,756.5 546.9,834.1 368.5,834.1 368.5,807.7 
								333.9,807.7 333.9,805.4 370.8,805.4 370.8,831.8 544.6,831.8 544.6,754.2 639.2,754.2 639.2,923.3 774.6,923.3 							"/>
							<polygon class="st3" points="774.6,446.2 636.9,446.2 636.9,277 546.9,277 546.9,354.6 368.5,354.6 368.5,328.2 292.7,328.2 
								292.7,325.9 370.8,325.9 370.8,352.3 544.6,352.3 544.6,274.7 639.2,274.7 639.2,443.9 774.6,443.9 							"/>
							<polygon class="st3" points="515.1,258.4 295.1,258.4 295.1,256.1 512.8,256.1 512.8,144.4 774.6,144.4 774.6,146.7 
								515.1,146.7 							"/>
							<polygon class="st3" points="515.1,634.7 295.1,634.7 295.1,632.4 512.8,632.4 512.8,520.7 774.6,520.7 774.6,523 515.1,523 
															"/>
							<polygon class="st3" points="591.1,1030 588.8,1030 588.8,925.6 492.6,925.6 492.6,459.1 578.7,459.1 578.7,241.4 
								537.4,241.4 537.4,13.7 539.7,13.7 539.7,239.1 581,239.1 581,461.5 494.9,461.5 494.9,923.3 591.1,923.3 							"/>
							<polygon class="st3" points="774.6,117.2 408.8,117.2 408.8,67.6 128.1,67.6 128.1,65.3 411.1,65.3 411.1,114.9 774.6,114.9 
															"/>
							<polygon class="st3" points="619,1030 616.7,1030 616.7,944.2 436.8,944.2 436.8,523 349.1,523 349.1,117.2 319.6,117.2 
								319.6,26.1 321.9,26.1 321.9,114.9 351.4,114.9 351.4,520.7 439,520.7 439,942 619,942 							"/>
							<polygon class="st3" points="560.1,730.1 377.3,730.1 377.3,727.8 557.8,727.8 557.8,569.5 782.4,569.5 782.4,571.8 
								560.1,571.8 							"/>
							<polygon class="st3" points="488.7,405.8 256.4,405.8 256.4,403.5 486.4,403.5 486.4,212.7 782.4,212.7 782.4,215 488.7,215 
															"/>
							<polygon class="st3" points="782.4,663.4 377.8,663.4 377.8,578.8 256.4,578.8 256.4,576.5 380.1,576.5 380.1,661.1 
								782.4,661.1 							"/>
							<rect x="171" y="492" class="st3" width="538" height="2.3"/>
							<polygon class="st3" points="494.9,159.9 295.1,159.9 295.1,157.6 492.6,157.6 492.6,26.1 494.9,26.1 							"/>
							<polygon class="st3" points="611.3,903.9 370.8,903.9 370.8,901.6 609,901.6 609,789.1 782.4,789.1 782.4,791.4 611.3,791.4 
															"/>
							<polygon class="st3" points="395.6,994.3 393.3,994.3 393.3,767.4 345.2,767.4 345.2,544.5 419.7,544.5 419.7,277 319.6,277 
								319.6,128.9 384,128.9 384,13.7 386.3,13.7 386.3,131.2 321.9,131.2 321.9,274.7 422,274.7 422,546.8 347.5,546.8 
								347.5,765.1 395.6,765.1 							"/>
							<path class="st3" d="M588.2,100c-3.1,0-5.7-2.6-5.7-5.7s2.5-5.7,5.7-5.7s5.7,2.6,5.7,5.7S591.3,100,588.2,100z"/>
							<path class="st3" d="M493.8,498.8c-3.1,0-5.7-2.5-5.7-5.7s2.5-5.7,5.7-5.7s5.7,2.5,5.7,5.7S496.9,498.8,493.8,498.8z"/>
							<path class="st3" d="M493.8,639.2c-3.1,0-5.7-2.5-5.7-5.7s2.5-5.7,5.7-5.7s5.7,2.5,5.7,5.7S496.9,639.2,493.8,639.2z"/>
							<path class="st3" d="M420.8,498.8c-3.1,0-5.7-2.5-5.7-5.7s2.5-5.7,5.7-5.7s5.7,2.5,5.7,5.7S424,498.8,420.8,498.8z"/>
							<path class="st3" d="M350,332.1c-3.1,0-5.7-2.5-5.7-5.7s2.5-5.7,5.7-5.7s5.7,2.5,5.7,5.7S353.2,332.1,350,332.1z"/>
							<path class="st3" d="M292.7,263c-3.1,0-5.7-2.5-5.7-5.7s2.5-5.7,5.7-5.7s5.7,2.6,5.7,5.7C298.4,260.4,295.9,263,292.7,263z"
								/>
							<path class="st3" d="M350,164.4c-3.1,0-5.7-2.6-5.7-5.7s2.5-5.7,5.7-5.7s5.7,2.6,5.7,5.7S353.2,164.4,350,164.4z"/>
							<path class="st3" d="M385.1,72.1c-3.1,0-5.7-2.6-5.7-5.7s2.5-5.7,5.7-5.7s5.7,2.5,5.7,5.7S388.3,72.1,385.1,72.1z"/>
							<path class="st3" d="M320.8,72.1c-3.1,0-5.7-2.6-5.7-5.7s2.5-5.7,5.7-5.7s5.7,2.5,5.7,5.7S323.9,72.1,320.8,72.1z"/>
							<path class="st3" d="M201,72.1c-3.1,0-5.7-2.6-5.7-5.7s2.6-5.7,5.7-5.7s5.7,2.5,5.7,5.7S204.2,72.1,201,72.1z"/>
							<g>
								<path class="st3" d="M385.1,235.1c-6.6,0-12-5.4-12-12s5.4-12,12-12s12,5.4,12,12S391.8,235.1,385.1,235.1z"/>
								<path class="st3" d="M385.1,242.8c-10.8,0-19.6-8.8-19.6-19.6s8.8-19.6,19.6-19.6s19.6,8.8,19.6,19.6S396,242.8,385.1,242.8
									L385.1,242.8z M385.1,205.8c-9.6,0-17.3,7.8-17.3,17.3s7.8,17.3,17.3,17.3s17.3-7.8,17.3-17.3S394.7,205.8,385.1,205.8z"/>
							</g>
							<g>
								<path class="st3" d="M538.8,157.5c-6.6,0-12-5.4-12-12s5.4-12,12-12s12,5.4,12,12S545.4,157.5,538.8,157.5z"/>
								<path class="st3" d="M538.8,165.2c-10.8,0-19.6-8.8-19.6-19.6s8.8-19.6,19.6-19.6s19.6,8.8,19.6,19.6
									S549.6,165.2,538.8,165.2z M538.8,128.2c-9.6,0-17.3,7.8-17.3,17.3s7.8,17.3,17.3,17.3s17.3-7.8,17.3-17.3
									S548.3,128.2,538.8,128.2z"/>
							</g>
							<g>
								<path class="st3" d="M421.3,416.6c-6.6,0-12-5.4-12-12s5.4-12,12-12s12,5.4,12,12S427.9,416.6,421.3,416.6z"/>
								<path class="st3" d="M421.3,424.3c-10.8,0-19.6-8.8-19.6-19.6s8.8-19.6,19.6-19.6s19.6,8.8,19.6,19.6
									S432.1,424.3,421.3,424.3z M421.3,387.3c-9.6,0-17.3,7.8-17.3,17.3s7.8,17.3,17.3,17.3s17.4-7.8,17.4-17.3
									S430.9,387.3,421.3,387.3z"/>
							</g>
							<g>
								<path class="st3" d="M579.9,472.7c-6.6,0-12-5.4-12-12s5.4-12,12-12s12,5.4,12,12S586.5,472.7,579.9,472.7z"/>
								<path class="st3" d="M579.9,480.3c-10.8,0-19.6-8.8-19.6-19.6S569,441,579.9,441s19.6,8.8,19.6,19.6
									S590.7,480.3,579.9,480.3L579.9,480.3z M579.9,443.3c-9.6,0-17.3,7.8-17.3,17.3s7.8,17.3,17.3,17.3s17.3-7.8,17.3-17.3
									S589.4,443.3,579.9,443.3z"/>
							</g>
							<g>
								<path class="st3" d="M560,740.9c-6.6,0-12-5.4-12-12s5.4-12,12-12s12,5.4,12,12S566.6,740.9,560,740.9z"/>
								<path class="st3" d="M560,748.6c-10.8,0-19.6-8.8-19.6-19.6s8.8-19.6,19.6-19.6s19.6,8.8,19.6,19.6S570.8,748.6,560,748.6z
									 M560,711.6c-9.6,0-17.3,7.8-17.3,17.3s7.8,17.3,17.3,17.3s17.3-7.8,17.3-17.3S569.5,711.6,560,711.6z"/>
							</g>
							<g>
								<path class="st3" d="M437.1,645.5c-6.6,0-12-5.4-12-12s5.4-12,12-12s12,5.4,12,12S443.7,645.5,437.1,645.5z"/>
								<path class="st3" d="M437.1,653.2c-10.8,0-19.6-8.8-19.6-19.6s8.8-19.6,19.6-19.6s19.6,8.8,19.6,19.6
									S447.9,653.2,437.1,653.2z M437.1,616.2c-9.6,0-17.3,7.8-17.3,17.3s7.8,17.3,17.3,17.3s17.3-7.8,17.3-17.3
									S446.7,616.2,437.1,616.2z"/>
							</g>
							<g>
								<path class="st3" d="M545.7,364.1c-6.6,0-12-5.4-12-12s5.4-12,12-12s12,5.4,12,12S552.4,364.1,545.7,364.1z"/>
								<path class="st3" d="M545.7,371.8c-10.8,0-19.6-8.8-19.6-19.6s8.8-19.6,19.6-19.6s19.6,8.8,19.6,19.6
									S556.6,371.8,545.7,371.8z M545.7,334.8c-9.6,0-17.3,7.8-17.3,17.3s7.8,17.3,17.3,17.3s17.3-7.8,17.3-17.3
									S555.3,334.8,545.7,334.8z"/>
							</g>
							<g>
								<path class="st3" d="M409.3,128c-6.6,0-12-5.4-12-12s5.4-12,12-12s12,5.4,12,12S415.9,128,409.3,128z"/>
								<path class="st3" d="M409.3,135.7c-10.8,0-19.6-8.8-19.6-19.6s8.8-19.6,19.6-19.6s19.6,8.8,19.6,19.6
									S420.2,135.7,409.3,135.7L409.3,135.7z M409.3,98.7c-9.6,0-17.3,7.8-17.3,17.3s7.8,17.3,17.3,17.3s17.3-7.8,17.3-17.3
									S418.9,98.7,409.3,98.7z"/>
							</g>
							<g>
								<path class="st3" d="M365.3,914.7c-6.6,0-12-5.4-12-12s5.4-12,12-12s12,5.4,12,12S371.9,914.7,365.3,914.7z"/>
								<path class="st3" d="M365.3,922.4c-10.8,0-19.6-8.8-19.6-19.6s8.8-19.6,19.6-19.6s19.6,8.8,19.6,19.6
									S376.2,922.4,365.3,922.4z M365.3,885.4c-9.6,0-17.3,7.8-17.3,17.3s7.8,17.3,17.3,17.3s17.3-7.8,17.3-17.3
									S374.9,885.4,365.3,885.4z"/>
							</g>
							<g>
								<path class="st3" d="M284,169.5c-6.6,0-12-5.4-12-12s5.4-12,12-12s12,5.4,12,12S290.6,169.5,284,169.5z"/>
								<path class="st3" d="M284,177.2c-10.8,0-19.6-8.8-19.6-19.6s8.8-19.6,19.6-19.6s19.6,8.8,19.6,19.6S294.8,177.2,284,177.2z
									 M284,140.2c-9.6,0-17.3,7.8-17.3,17.3s7.8,17.3,17.3,17.3s17.3-7.8,17.3-17.3S293.5,140.2,284,140.2z"/>
							</g>
							<g>
								<path class="st3" d="M295.1,505.1c-6.6,0-12-5.4-12-12s5.4-12,12-12s12,5.4,12,12S301.8,505.1,295.1,505.1z"/>
								<path class="st3" d="M295.1,512.8c-10.8,0-19.6-8.8-19.6-19.6s8.8-19.6,19.6-19.6s19.6,8.8,19.6,19.6S306,512.8,295.1,512.8
									L295.1,512.8z M295.1,475.8c-9.6,0-17.3,7.8-17.3,17.3s7.8,17.3,17.3,17.3s17.3-7.8,17.3-17.3S304.7,475.8,295.1,475.8z"/>
							</g>
							<g>
								<path class="st3" d="M295.1,645.5c-6.6,0-12-5.4-12-12s5.4-12,12-12s12,5.4,12,12S301.8,645.5,295.1,645.5z"/>
								<path class="st3" d="M295.1,653.2c-10.8,0-19.6-8.8-19.6-19.6s8.8-19.6,19.6-19.6s19.6,8.8,19.6,19.6S306,653.2,295.1,653.2
									L295.1,653.2z M295.1,616.2c-9.6,0-17.3,7.8-17.3,17.3s7.8,17.3,17.3,17.3s17.3-7.8,17.3-17.3S304.7,616.2,295.1,616.2z"/>
							</g>
							<path class="st3" d="M296.4,339c-6.6,0-12-5.4-12-12s5.4-12,12-12s12,5.4,12,12S303,339,296.4,339z"/>
							<path class="st3" d="M260.6,244.4c-6.6,0-12-5.4-12-12s5.4-12,12-12s12,5.4,12,12S267.2,244.4,260.6,244.4z"/>
							<path class="st3" d="M420.8,281.6c-3.1,0-5.7-2.5-5.7-5.7s2.5-5.7,5.7-5.7s5.7,2.5,5.7,5.7S424,281.6,420.8,281.6z"/>
							<path class="st3" d="M590,948.7c-3.1,0-5.7-2.5-5.7-5.7s2.5-5.7,5.7-5.7s5.7,2.5,5.7,5.7S593.1,948.7,590,948.7z"/>
							<path class="st3" d="M467.3,734.7c-3.1,0-5.7-2.5-5.7-5.7s2.5-5.7,5.7-5.7s5.7,2.5,5.7,5.7S470.4,734.7,467.3,734.7z"/>
							<path class="st3" d="M467.3,410.4c-3.1,0-5.7-2.5-5.7-5.7s2.5-5.7,5.7-5.7s5.7,2.5,5.7,5.7S470.4,410.4,467.3,410.4z"/>
							<path class="st3" d="M513.7,263c-3.1,0-5.7-2.5-5.7-5.7s2.5-5.7,5.7-5.7s5.7,2.6,5.7,5.7C519.4,260.4,516.8,263,513.7,263z"
								/>
							<circle class="st3" cx="560" cy="662.2" r="5.7"/>
							<path class="st3" d="M598.8,387.7c-3.2,0-5.7-2.5-5.7-5.7s2.5-5.7,5.7-5.7s5.7,2.5,5.7,5.7S601.9,387.7,598.8,387.7z"/>
							<rect x="401.5" y="349.6" class="st3" width="39.6" height="8.6"/>
							<rect x="295.1" y="400.4" class="st3" width="39.6" height="8.6"/>
							<rect x="365.3" y="488.8" class="st3" width="39.6" height="8.6"/>
							<rect x="570.1" y="517.5" class="st3" width="39.7" height="8.6"/>
							<rect x="473.9" y="111.8" class="st3" width="39.7" height="8.6"/>
							<rect x="590" y="658" class="st3" width="39.7" height="8.6"/>
							<rect x="365.3" y="541.7" class="st3" width="39.6" height="8.6"/>
							<rect x="385.1" y="724.7" class="st3" width="39.6" height="8.6"/>
							<rect x="521.7" y="881.4" class="st3" width="39.7" height="8.6"/>
							<rect x="473.9" y="828.5" class="st3" width="39.7" height="8.6"/>
						</g>
						<g>
							<polygon class="st3" points="8.1,945.5 -179.2,945.5 -179.2,943.2 5.8,943.2 5.8,845.4 123.8,845.4 123.8,814.4 210.3,814.4 
								210.3,816.7 126.1,816.7 126.1,847.7 8.1,847.7 							"/>
							<polygon class="st3" points="6.6,1025 4.3,1025 4.3,968.7 -121.4,968.7 -121.4,620.8 -26.7,620.8 -26.7,579.5 -149.3,579.5 
								-149.3,186.4 -101.2,186.4 -101.2,-3.8 -98.9,-3.8 -98.9,188.7 -147,188.7 -147,577.2 -24.4,577.2 -24.4,623.1 -119.1,623.1 
								-119.1,966.4 6.6,966.4 							"/>
							<polygon class="st3" points="278.5,728.2 125.3,728.2 125.3,610 -1.2,610 -1.2,658.7 -179.2,658.7 -179.2,656.4 -3.5,656.4 
								-3.5,607.8 127.6,607.8 127.6,725.9 278.5,725.9 							"/>
							<polygon class="st3" points="267.3,345 126.9,345 126.9,154.1 6.6,154.1 6.6,213.1 -166.4,213.1 -166.4,210.8 4.3,210.8 
								4.3,151.8 129.2,151.8 129.2,342.7 267.3,342.7 							"/>
							<polygon class="st3" points="50.8,284.5 -43.8,284.5 -43.8,115.3 -179.2,115.3 -179.2,113 -41.5,113 -41.5,282.1 48.5,282.1 
								48.5,204.6 226.9,204.6 226.9,230.9 261.5,230.9 261.5,233.2 224.6,233.2 224.6,206.9 50.8,206.9 							"/>
							<polygon class="st3" points="50.8,763.9 -43.8,763.9 -43.8,594.8 -179.2,594.8 -179.2,592.5 -41.5,592.5 -41.5,761.6 
								48.5,761.6 48.5,684 226.9,684 226.9,710.4 329.7,710.4 329.7,712.7 224.6,712.7 224.6,686.3 50.8,686.3 							"/>
							<polygon class="st3" points="82.6,894.2 -179.2,894.2 -179.2,892 80.3,892 80.3,780.2 300.2,780.2 300.2,782.5 82.6,782.5 
															"/>
							<polygon class="st3" points="82.6,518 -179.2,518 -179.2,515.7 80.3,515.7 80.3,404 300.2,404 300.2,406.2 82.6,406.2 
															"/>
							<polygon class="st3" points="58,1025 55.7,1025 55.7,799.6 14.4,799.6 14.4,577.2 100.5,577.2 100.5,115.3 4.3,115.3 
								4.3,8.7 6.6,8.7 6.6,113 102.8,113 102.8,579.5 16.7,579.5 16.7,797.3 58,797.3 							"/>
							<rect x="-179.2" y="921.4" class="st3" width="364.6" height="2.3"/>
							<polygon class="st3" points="275.8,1012.6 273.5,1012.6 273.5,923.7 244,923.7 244,518 156.4,518 156.4,96.7 -23.6,96.7 
								-23.6,8.7 -21.3,8.7 -21.3,94.4 158.6,94.4 158.6,515.7 246.3,515.7 246.3,921.4 275.8,921.4 							"/>
							<polygon class="st3" points="37.6,469.1 -187,469.1 -187,466.8 35.3,466.8 35.3,308.5 261.6,308.5 261.6,310.8 37.6,310.8 
															"/>
							<polygon class="st3" points="109,826 -187,826 -187,823.7 106.7,823.7 106.7,632.8 339,632.8 339,635.1 109,635.1 							"/>
							<polygon class="st3" points="339,462.1 215.3,462.1 215.3,377.5 -187,377.5 -187,375.2 217.6,375.2 217.6,459.8 339,459.8 
															"/>
							<rect x="-113.6" y="544.4" class="st3" width="538" height="2.3"/>
							<polygon class="st3" points="102.8,1012.6 100.5,1012.6 100.5,878.8 300.2,878.8 300.2,881.1 102.8,881.1 							"/>
							<polygon class="st3" points="-13.6,249.5 -187,249.5 -187,247.2 -15.9,247.2 -15.9,134.8 224.6,134.8 224.6,137 -13.6,137 
															"/>
							<polygon class="st3" points="211.4,1025 209.1,1025 209.1,907.5 273.5,907.5 273.5,763.9 173.4,763.9 173.4,491.8 
								247.9,491.8 247.9,273.6 199.8,273.6 199.8,44.3 202.1,44.3 202.1,271.3 250.2,271.3 250.2,494.1 175.7,494.1 175.7,761.6 
								275.8,761.6 275.8,909.8 211.4,909.8 							"/>
							<path class="st3" d="M7.2,938.6c3.2,0,5.7,2.5,5.7,5.7s-2.6,5.7-5.7,5.7s-5.7-2.5-5.7-5.7S4.1,938.6,7.2,938.6z"/>
							<path class="st3" d="M101.7,539.8c3.1,0,5.7,2.5,5.7,5.7s-2.6,5.7-5.7,5.7s-5.7-2.5-5.7-5.7S98.5,539.8,101.7,539.8z"/>
							<path class="st3" d="M101.7,399.4c3.1,0,5.7,2.5,5.7,5.7s-2.6,5.7-5.7,5.7s-5.7-2.5-5.7-5.7S98.5,399.4,101.7,399.4z"/>
							<path class="st3" d="M174.6,539.8c3.1,0,5.7,2.5,5.7,5.7s-2.6,5.7-5.7,5.7s-5.7-2.5-5.7-5.7S171.4,539.8,174.6,539.8z"/>
							<path class="st3" d="M245.4,706.5c3.1,0,5.7,2.5,5.7,5.7s-2.6,5.7-5.7,5.7s-5.7-2.5-5.7-5.7S242.2,706.5,245.4,706.5z"/>
							<path class="st3" d="M245.4,874.2c3.1,0,5.7,2.5,5.7,5.7s-2.6,5.7-5.7,5.7s-5.7-2.5-5.7-5.7S242.2,874.2,245.4,874.2z"/>
							<path class="st3" d="M210.3,966.5c3.1,0,5.7,2.5,5.7,5.7s-2.6,5.7-5.7,5.7s-5.7-2.5-5.7-5.7S207.1,966.5,210.3,966.5z"/>
							<g>
								<path class="st3" d="M210.3,803.5c6.6,0,12,5.4,12,12s-5.4,12-12,12s-12-5.4-12-12S203.6,803.5,210.3,803.5z"/>
								<path class="st3" d="M210.3,835.2c-10.8,0-19.6-8.8-19.6-19.6s8.8-19.6,19.6-19.6s19.6,8.8,19.6,19.6
									S221.1,835.2,210.3,835.2z M210.3,798.2c-9.6,0-17.3,7.8-17.3,17.3s7.8,17.3,17.3,17.3s17.3-7.8,17.3-17.3
									S219.8,798.2,210.3,798.2z"/>
							</g>
							<g>
								<path class="st3" d="M56.7,881.1c6.6,0,12,5.4,12,12s-5.4,12-12,12s-12-5.4-12-12S50,881.1,56.7,881.1z"/>
								<path class="st3" d="M56.7,912.7c-10.8,0-19.6-8.8-19.6-19.6s8.8-19.6,19.6-19.6s19.6,8.8,19.6,19.6S67.5,912.7,56.7,912.7z
									 M56.7,875.8c-9.6,0-17.3,7.8-17.3,17.3s7.8,17.3,17.3,17.3S74,902.7,74,893.1S66.2,875.8,56.7,875.8z"/>
							</g>
							<g>
								<path class="st3" d="M174.1,622c6.6,0,12,5.4,12,12s-5.4,12-12,12s-12-5.4-12-12S167.5,622,174.1,622z"/>
								<path class="st3" d="M174.1,653.6c-10.8,0-19.6-8.8-19.6-19.6s8.8-19.6,19.6-19.6s19.6,8.8,19.6,19.6
									S184.9,653.6,174.1,653.6z M174.1,616.6c-9.6,0-17.3,7.8-17.3,17.3s7.8,17.3,17.3,17.3s17.3-7.8,17.3-17.3
									S183.7,616.6,174.1,616.6z"/>
							</g>
							<g>
								<path class="st3" d="M15.5,566c6.6,0,12,5.4,12,12s-5.4,12-12,12s-12-5.4-12-12S8.9,566,15.5,566z"/>
								<path class="st3" d="M15.5,597.6c-10.8,0-19.6-8.8-19.6-19.6s8.8-19.6,19.6-19.6s19.6,8.8,19.6,19.6S26.4,597.6,15.5,597.6z
									 M15.5,560.6c-9.6,0-17.3,7.8-17.3,17.3s7.8,17.3,17.3,17.3s17.3-7.8,17.3-17.3S25.1,560.6,15.5,560.6z"/>
							</g>
							<g>
								<path class="st3" d="M35.4,297.7c6.6,0,12,5.4,12,12s-5.4,12-12,12s-12-5.4-12-12S28.8,297.7,35.4,297.7z"/>
								<path class="st3" d="M35.4,329.3c-10.8,0-19.6-8.8-19.6-19.6S24.6,290,35.4,290s19.6,8.8,19.6,19.6S46.3,329.3,35.4,329.3z
									 M35.4,292.3c-9.6,0-17.3,7.8-17.3,17.3S25.9,327,35.4,327s17.3-7.8,17.3-17.3S45,292.3,35.4,292.3z"/>
							</g>
							<g>
								<path class="st3" d="M158.3,393.1c6.6,0,12,5.4,12,12s-5.4,12-12,12s-12-5.4-12-12S151.7,393.1,158.3,393.1z"/>
								<path class="st3" d="M158.3,424.7c-10.8,0-19.6-8.8-19.6-19.6s8.8-19.6,19.6-19.6s19.6,8.8,19.6,19.6
									S169.1,424.7,158.3,424.7z M158.3,387.8c-9.6,0-17.3,7.8-17.3,17.3s7.8,17.3,17.3,17.3s17.3-7.8,17.3-17.3
									S167.9,387.8,158.3,387.8z"/>
							</g>
							<g>
								<path class="st3" d="M49.7,674.5c6.6,0,12,5.4,12,12s-5.4,12-12,12s-12-5.4-12-12S43,674.5,49.7,674.5z"/>
								<path class="st3" d="M49.7,706.1c-10.8,0-19.6-8.8-19.6-19.6s8.8-19.6,19.6-19.6s19.6,8.8,19.6,19.6S60.5,706.1,49.7,706.1z
									 M49.7,669.1c-9.6,0-17.3,7.8-17.3,17.3s7.8,17.3,17.3,17.3S67,696,67,686.5S59.2,669.1,49.7,669.1z"/>
							</g>
							<g>
								<path class="st3" d="M186.1,910.6c6.6,0,12,5.4,12,12s-5.4,12-12,12s-12-5.4-12-12S179.5,910.6,186.1,910.6z"/>
								<path class="st3" d="M186.1,942.2c-10.8,0-19.6-8.8-19.6-19.6s8.8-19.6,19.6-19.6s19.6,8.8,19.6,19.6
									S196.9,942.2,186.1,942.2z M186.1,905.2c-9.6,0-17.3,7.8-17.3,17.3s7.8,17.3,17.3,17.3s17.3-7.8,17.3-17.3
									S195.6,905.2,186.1,905.2z"/>
							</g>
							<g>
								<path class="st3" d="M230.1,123.9c6.6,0,12,5.4,12,12s-5.4,12-12,12s-12-5.4-12-12S223.5,123.9,230.1,123.9z"/>
								<path class="st3" d="M128.1,54.4c6.6,0,12,5.4,12,12s-5.4,12-12,12s-12-5.4-12-12S121.5,54.4,128.1,54.4z"/>
								<path class="st3" d="M230.1,155.5c-10.8,0-19.6-8.8-19.6-19.6s8.8-19.6,19.6-19.6s19.6,8.8,19.6,19.6
									S240.9,155.5,230.1,155.5z M230.1,118.6c-9.6,0-17.3,7.8-17.3,17.3s7.8,17.3,17.3,17.3s17.3-7.8,17.3-17.3
									S239.6,118.6,230.1,118.6z"/>
							</g>
							<g>
								<path class="st3" d="M311.4,869.2c6.6,0,12,5.4,12,12s-5.4,12-12,12s-12-5.4-12-12S304.8,869.2,311.4,869.2z"/>
								<path class="st3" d="M300.2,769.4c6.6,0,12,5.4,12,12s-5.4,12-12,12s-12-5.4-12-12S293.6,769.4,300.2,769.4z"/>
								<path class="st3" d="M333.9,794.9c6.6,0,12,5.4,12,12s-5.4,12-12,12s-12-5.4-12-12S327.3,794.9,333.9,794.9z"/>
								<path class="st3" d="M311.4,900.8c-10.8,0-19.6-8.8-19.6-19.6s8.8-19.6,19.6-19.6s19.6,8.8,19.6,19.6
									S322.3,900.8,311.4,900.8L311.4,900.8z M311.4,863.8c-9.6,0-17.3,7.8-17.3,17.3s7.8,17.3,17.3,17.3s17.3-7.8,17.3-17.3
									S321,863.8,311.4,863.8z"/>
							</g>
							<g>
								<path class="st3" d="M300.2,533.5c6.6,0,12,5.4,12,12s-5.4,12-12,12s-12-5.4-12-12S293.6,533.5,300.2,533.5z"/>
								<path class="st3" d="M300.2,565.2c-10.8,0-19.6-8.8-19.6-19.6s8.8-19.6,19.6-19.6s19.6,8.8,19.6,19.6
									S311.1,565.2,300.2,565.2z M300.2,528.2c-9.6,0-17.3,7.8-17.3,17.3s7.8,17.3,17.3,17.3s17.4-7.8,17.4-17.3
									S309.8,528.2,300.2,528.2z"/>
							</g>
							<g>
								<path class="st3" d="M300.2,393.1c6.6,0,12,5.4,12,12s-5.4,12-12,12s-12-5.4-12-12S293.6,393.1,300.2,393.1z"/>
								<path class="st3" d="M300.2,424.7c-10.8,0-19.6-8.8-19.6-19.6s8.8-19.6,19.6-19.6s19.6,8.8,19.6,19.6
									S311.1,424.7,300.2,424.7z M300.2,387.8c-9.6,0-17.3,7.8-17.3,17.3s7.8,17.3,17.3,17.3s17.4-7.8,17.4-17.3
									S309.8,387.8,300.2,387.8z"/>
							</g>
							<path class="st3" d="M329.9,700.2c6.6,0,12,5.4,12,12s-5.4,12-12,12s-12-5.4-12-12S323.3,700.2,329.9,700.2z"/>
							<path class="st3" d="M174.6,757.1c3.1,0,5.7,2.5,5.7,5.7s-2.6,5.7-5.7,5.7s-5.7-2.5-5.7-5.7S171.4,757.1,174.6,757.1z"/>
							<path class="st3" d="M5.4,89.9c3.1,0,5.7,2.6,5.7,5.7s-2.6,5.7-5.7,5.7s-5.7-2.6-5.7-5.7S2.3,89.9,5.4,89.9z"/>
							<path class="st3" d="M128.1,304c3.1,0,5.7,2.5,5.7,5.7s-2.6,5.7-5.7,5.7s-5.7-2.5-5.7-5.7S125,304,128.1,304z"/>
							<path class="st3" d="M128.1,628.3c3.1,0,5.7,2.5,5.7,5.7s-2.6,5.7-5.7,5.7s-5.7-2.5-5.7-5.7S125,628.3,128.1,628.3z"/>
							<path class="st3" d="M81.7,775.7c3.1,0,5.7,2.5,5.7,5.7s-2.6,5.7-5.7,5.7s-5.7-2.5-5.7-5.7S78.6,775.7,81.7,775.7z"/>
							<path class="st3" d="M35.4,370.7c3.1,0,5.7,2.5,5.7,5.7s-2.5,5.7-5.7,5.7s-5.7-2.5-5.7-5.7S32.3,370.7,35.4,370.7z"/>
							<path class="st3" d="M-3.3,650.9c3.1,0,5.7,2.5,5.7,5.7s-2.5,5.7-5.7,5.7s-5.7-2.5-5.7-5.7S-6.5,650.9-3.3,650.9z"/>
							<rect x="154.3" y="680.5" class="st3" width="39.6" height="8.6"/>
							<rect x="260.6" y="629.7" class="st3" width="39.6" height="8.6"/>
							<rect x="190.4" y="541.2" class="st3" width="39.6" height="8.6"/>
							<rect x="-14.4" y="512.5" class="st3" width="39.7" height="8.6"/>
							<rect x="81.8" y="918.3" class="st3" width="39.7" height="8.6"/>
							<rect x="-34.2" y="372.1" class="st3" width="39.7" height="8.6"/>
							<rect x="190.4" y="488.4" class="st3" width="39.6" height="8.6"/>
							<rect x="190.4" y="305.4" class="st3" width="39.6" height="8.6"/>
							<rect x="34.1" y="148.7" class="st3" width="39.7" height="8.6"/>
							<rect x="81.8" y="201.5" class="st3" width="39.7" height="8.6"/>
						</g>
						<path class="st3" d="M267.3,349.5c-3.1,0-5.7-2.5-5.7-5.7s2.5-5.7,5.7-5.7s5.7,2.5,5.7,5.7S270.5,349.5,267.3,349.5z"/>
						<path class="st3" d="M261.6,315.4c-3.1,0-5.7-2.5-5.7-5.7s2.5-5.7,5.7-5.7s5.7,2.5,5.7,5.7S264.8,315.4,261.6,315.4z"/>
						<path class="st3" d="M339,466.6c-3.1,0-5.7-2.5-5.7-5.7s2.5-5.7,5.7-5.7s5.7,2.5,5.7,5.7S342.2,466.6,339,466.6z"/>
						<path class="st3" d="M256.4,583.4c-3.1,0-5.7-2.5-5.7-5.7s2.6-5.7,5.7-5.7c3.1,0,5.7,2.5,5.7,5.7S259.5,583.4,256.4,583.4z"/>
						<path class="st3" d="M276.7,732.8c-3.1,0-5.7-2.5-5.7-5.7s2.5-5.7,5.7-5.7s5.7,2.5,5.7,5.7S279.8,732.8,276.7,732.8z"/>
						<path class="st3" d="M355.9,700.5c-3.1,0-5.7-2.5-5.7-5.7s2.5-5.7,5.7-5.7s5.7,2.5,5.7,5.7S359,700.5,355.9,700.5z"/>
					</g>
				</g>
			</g>
			<g>
				<path class="st4" d="M544,342.2V229.6h-5.4V62.2c0-29.6-24-53.6-53.6-53.6h-369c-30.8,0-56,25.2-56,56v71.4
					c-2.2,0-4.1,1.8-4.1,4.1v28.5c0,2.2,1.8,4.1,4.1,4.1v33.9c-2.2,0-4.1,1.8-4.1,4.1v61c0,2.2,1.8,4.1,4.1,4.1v20.3
					c-2.2,0-4.1,1.8-4.1,4.1v61c0,2.2,1.8,4.1,4.1,4.1v513.1h0.1v17.6h0v65.8c0,29.6,24,53.6,53.6,53.6h369c30.8,0,56-25.2,56-56
					v-2.6h0v-80.5h-0.1v-534H544L544,342.2z M475.9,1001.1H119c-25,0-43.5-18.3-43.5-43.3l0.6-891.5c0-25,21.8-43.3,46.8-43.3h356.9
					c25,0,43.5,18.3,43.5,43.3l-0.6,891.5C522.7,982.8,500.9,1001.1,475.9,1001.1L475.9,1001.1z"/>
				<path class="st3" d="M119.1,56c0.9-0.7,1.6-1.3,2.1-1.8s0.9-0.9,1.3-1.4c0.3-0.5,0.5-1,0.5-1.5c0-0.4-0.1-0.7-0.2-0.8
					s-0.4-0.3-0.8-0.3s-0.6,0.1-0.8,0.4c-0.2,0.2-0.3,0.6-0.3,1.1h-2.2c0-0.8,0.2-1.4,0.5-1.9s0.7-0.9,1.2-1.1
					c0.5-0.2,1.1-0.4,1.7-0.4c1.1,0,1.8,0.3,2.4,0.8c0.5,0.5,0.8,1.2,0.8,2.1c0,0.9-0.3,1.8-1,2.6c-0.6,0.8-1.5,1.6-2.5,2.4h3.6V58
					h-6.7v-1.7C119,56.1,119.1,56,119.1,56L119.1,56z"/>
				<path class="st3" d="M126.6,56c0.9-0.7,1.5-1.3,2-1.8s0.9-0.9,1.3-1.4s0.5-1,0.5-1.5c0-0.4-0.1-0.7-0.2-0.8s-0.4-0.3-0.8-0.3
					s-0.6,0.1-0.8,0.4c-0.2,0.2-0.3,0.6-0.3,1.1h-2.2c0-0.8,0.2-1.4,0.5-1.9s0.7-0.9,1.2-1.1c0.5-0.2,1-0.4,1.7-0.4
					c1.1,0,1.8,0.3,2.4,0.8c0.5,0.5,0.8,1.2,0.8,2.1c0,0.9-0.3,1.8-1,2.6c-0.6,0.8-1.5,1.6-2.5,2.4h3.6V58h-6.7v-1.7
					C126.5,56.1,126.7,56,126.6,56L126.6,56z"/>
				<path class="st3" d="M134.2,52.5c-0.2-0.2-0.4-0.5-0.4-0.9s0.1-0.7,0.4-0.9s0.6-0.4,1-0.4s0.7,0.1,1,0.4s0.4,0.5,0.4,0.9
					s-0.1,0.6-0.4,0.9c-0.2,0.2-0.6,0.3-1,0.3S134.4,52.7,134.2,52.5z M134.2,57.9c-0.2-0.2-0.4-0.5-0.4-0.9s0.1-0.7,0.4-0.9
					c0.2-0.2,0.6-0.4,1-0.4s0.7,0.1,1,0.4s0.4,0.5,0.4,0.9s-0.1,0.6-0.4,0.9c-0.2,0.2-0.6,0.3-1,0.3S134.4,58.1,134.2,57.9z"/>
				<path class="st3" d="M137.7,56.4v-1.8l4.2-6h2.5v5.8h1.1v2h-1.1v1.7h-2.3v-1.7C142.1,56.4,137.7,56.4,137.7,56.4z M142.3,51.1
					l-2.2,3.4h2.2V51.1z"/>
				<path class="st3" d="M152.8,50.2l-3.3,8h-2.3l3.4-7.7h-4.1v-1.9h6.4L152.8,50.2L152.8,50.2z"/>
				<path id="uuid-ae059ab9-8e3f-487e-9484-24546f568d68" class="st5" d="M480.9,53.2c0,1.1-0.6,1.9-1.6,1.9v-3.9
					C480.3,51.3,480.9,52.2,480.9,53.2z M478.7,49.6v7.2l0,0c0,0.9-0.7,1.7-1.7,1.7h-21.5c-0.9,0-1.7-0.7-1.7-1.7l0,0v-7.2
					c0-0.9,0.7-1.7,1.7-1.7H477C477.9,48,478.7,48.7,478.7,49.6z M455.5,48.5c-0.6,0-1.1,0.5-1.1,1.1v7.2c0,0.6,0.5,1.1,1.1,1.1H477
					c0.6,0,1.1-0.5,1.1-1.1v-7.2c0-0.6-0.5-1.1-1.1-1.1H455.5z M455,49.6v7.2c0,0.3,0.2,0.5,0.5,0.5H477c0.3,0,0.5-0.2,0.5-0.5v-7.2
					c0-0.3-0.2-0.5-0.5-0.5h-21.5C455.2,49.1,455,49.3,455,49.6z"/>
				<path id="uuid-0153d564-c5a3-4943-ba53-955315b5a4e4" class="st3" d="M441.3,48c2.3,0,4.7,0.9,6.6,2.6l-0.9,1
					c-1.6-1.3-3.6-2.1-5.7-2.1s-4.1,0.7-5.7,2.1l-0.9-1C436.7,48.9,439,48,441.3,48z M441.3,51.4c1.6,0,3.1,0.6,4.4,1.6l-0.9,1
					c-1-0.8-2.2-1.2-3.5-1.2s-2.5,0.4-3.4,1.2l-0.9-1C438.2,52,439.8,51.4,441.3,51.4L441.3,51.4z M441.3,54.8
					c0.7,0,1.5,0.3,2.1,0.8l-2.1,2.4l-2.1-2.4C439.9,55.1,440.6,54.8,441.3,54.8L441.3,54.8z"/>
				<path class="st6" d="M246.2,36.4H342c6.4,0,11.5,5.2,11.5,11.5v11.8c0,6.4-5.2,11.5-11.5,11.5h-95.8c-6.4,0-11.5-5.2-11.5-11.5
					V47.9C234.7,41.5,239.9,36.4,246.2,36.4z"/>
				<circle class="st7" cx="332.9" cy="53.6" r="10.9"/>
				
					<ellipse transform="matrix(0.7071 -0.7071 0.7071 0.7071 59.574 251.0736)" class="st8" cx="332.9" cy="53.6" rx="8.6" ry="8.6"/>
				<path class="st9" d="M333.5,60.2c-4.2,0.4-7.7-3.1-7.2-7.3c0.3-3.1,2.8-5.6,5.9-5.9c4.2-0.4,7.7,3.1,7.2,7.3
					C339.1,57.4,336.6,59.9,333.5,60.2z"/>
				<path class="st10" d="M329.1,59.1c-1.8-1.2-2.9-3.3-2.9-5.5h1.5c0,1.7,0.8,3.3,2.3,4.3C330,57.9,329.1,59.1,329.1,59.1z"/>
				<path class="st10" d="M337.9,52.7c-0.3-1.7-1.5-3.2-3.1-3.8l0.6-1.3c2.1,0.9,3.5,2.7,3.9,4.9L337.9,52.7L337.9,52.7z"/>
				<path class="st11" d="M331.3,50.9c0,0-2.5,0.4-2.5,2.8s2.5,2.6,2.5,2.6S331.3,50.9,331.3,50.9z"/>
				<path class="st11" d="M334.5,50.9c0,0,2.5,0.4,2.5,2.8s-2.5,2.6-2.5,2.6S334.5,50.9,334.5,50.9z"/>
				<path class="st12" d="M338.2,57.3c-1.2,1.8-3.3,2.9-5.5,2.9v-1.5c1.7,0,3.3-0.8,4.3-2.3L338.2,57.3L338.2,57.3z"/>
				<path class="st12" d="M331.9,48.5c-1.7,0.3-3.2,1.5-3.8,3.1l-1.3-0.6c0.9-2.1,2.7-3.5,4.9-3.9L331.9,48.5L331.9,48.5z"/>
			</g>
			<g>
				<g>
					<path class="st13" d="M441.7,563.9c0,3.5-19.5,6.3-43.5,6.3s-43.5-2.8-43.5-6.3s19.5-6.3,43.5-6.3S441.7,560.4,441.7,563.9z"/>
					<path class="st13" d="M482.8,545.7c0,2.5-13.3,4.5-29.8,4.5s-29.8-2-29.8-4.5s13.4-4.5,29.8-4.5S482.8,543.2,482.8,545.7z"/>
					<g>
						<path class="st14" d="M486.3,518c0,18.1-15.3,24.8-34.1,24.8S418,536.1,418,518s15.3-32.8,34.1-32.8S486.3,499.8,486.3,518
							L486.3,518z"/>
						
							<linearGradient id="SVGID_00000104702719707477257330000016597241567725202326_" gradientUnits="userSpaceOnUse" x1="420.06" y1="504.68" x2="486.28" y2="504.68" gradientTransform="matrix(1 0 0 -1 0 1024)">
							<stop  offset="0" style="stop-color:#000000"/>
							<stop  offset="1" style="stop-color:#FFFFFF"/>
						</linearGradient>
						
							<path style="opacity:0.2;fill:url(#SVGID_00000104702719707477257330000016597241567725202326_);enable-background:new    ;" d="
							M477.4,495.8c2.6,4.6,4.1,9.9,4.1,15.5c0,18.1-15.3,24.8-34.1,24.8c-11.1,0-21-2.3-27.2-7.9c4.8,10.5,17.3,14.5,32.1,14.5
							c18.9,0,34.1-6.7,34.1-24.8C486.3,509.4,482.9,501.7,477.4,495.8L477.4,495.8z"/>
						
							<linearGradient id="SVGID_00000099632264444529273320000001676285571513256371_" gradientUnits="userSpaceOnUse" x1="425.87" y1="532.7251" x2="469.59" y2="532.7251" gradientTransform="matrix(1 0 0 -1 0 1024)">
							<stop  offset="0" style="stop-color:#000000"/>
							<stop  offset="1" style="stop-color:#FFFFFF"/>
						</linearGradient>
						
							<path style="opacity:0.2;fill:url(#SVGID_00000099632264444529273320000001676285571513256371_);enable-background:new    ;" d="
							M425.9,497c35,2,42.2-4.4,43.7-7.2c-5.1-2.9-11.1-4.6-17.5-4.6C441.6,485.2,432.1,489.8,425.9,497L425.9,497z"/>
						<path class="st14" d="M436.7,489.6c0,0,13.4,4.6,30.9,0c0,0-5.3-10,2.4-20.5c0,0-18.5-0.1-36.1,0.2
							C433.9,469.4,440.9,480.4,436.7,489.6L436.7,489.6z"/>
						
							<linearGradient id="SVGID_00000055708743089886488320000002003886019791273899_" gradientUnits="userSpaceOnUse" x1="446.6877" y1="532.5" x2="446.6877" y2="554.83" gradientTransform="matrix(1 0 0 -1 0 1024)">
							<stop  offset="0" style="stop-color:#000000"/>
							<stop  offset="1" style="stop-color:#FFFFFF"/>
						</linearGradient>
						
							<path style="opacity:0.2;fill:url(#SVGID_00000055708743089886488320000002003886019791273899_);enable-background:new    ;" d="
							M443.1,470.5c0,0,5.1,10.9,4.6,21l0,0c0,0,3.4-10.2,2.3-22.3c-0.7,0-1.4,0-2.1,0L443.1,470.5L443.1,470.5z"/>
						
							<linearGradient id="SVGID_00000116231081693628708980000013280835646061245091_" gradientUnits="userSpaceOnUse" x1="456.9424" y1="533.82" x2="456.9424" y2="554.87" gradientTransform="matrix(1 0 0 -1 0 1024)">
							<stop  offset="0" style="stop-color:#000000"/>
							<stop  offset="1" style="stop-color:#FFFFFF"/>
						</linearGradient>
						
							<path style="opacity:0.2;fill:url(#SVGID_00000116231081693628708980000013280835646061245091_);enable-background:new    ;" d="
							M459.3,469.1c-1.5,0-3.2,0-5,0c0.7,3.7,2.5,14.2,1.3,21C455.7,490.2,460.6,485.9,459.3,469.1L459.3,469.1z"/>
						
							<linearGradient id="SVGID_00000065047870316753208670000004868511332022315915_" gradientUnits="userSpaceOnUse" x1="436.7238" y1="534.36" x2="436.7238" y2="554.71" gradientTransform="matrix(1 0 0 -1 0 1024)">
							<stop  offset="0" style="stop-color:#000000"/>
							<stop  offset="1" style="stop-color:#FFFFFF"/>
						</linearGradient>
						
							<path style="opacity:0.2;fill:url(#SVGID_00000065047870316753208670000004868511332022315915_);enable-background:new    ;" d="
							M436.7,489.6c0,0,0.1,0,0.2,0.1c4.2-6.1,2.5-16.5,1.7-20.4c-1.6,0-3.1,0-4.7,0.1C433.9,469.4,440.9,480.4,436.7,489.6
							L436.7,489.6z"/>
						
							<linearGradient id="SVGID_00000183220402367393961230000013612628017754717374_" gradientUnits="userSpaceOnUse" x1="466.4696" y1="536.44" x2="466.4696" y2="554.89" gradientTransform="matrix(1 0 0 -1 0 1024)">
							<stop  offset="0" style="stop-color:#000000"/>
							<stop  offset="1" style="stop-color:#FFFFFF"/>
						</linearGradient>
						
							<path style="opacity:0.2;fill:url(#SVGID_00000183220402367393961230000013612628017754717374_);enable-background:new    ;" d="
							M464.3,469.1c-1.4,4.1-2.4,10.8,0.7,18.4l1.5-1.1c-1-3.8-1.5-10.4,3.5-17.3C470,469.1,467.8,469.1,464.3,469.1L464.3,469.1z"
							/>
						<path class="st14" d="M456,465.6c-1.4,0-3,2.6-4.5,2.6s-3.1-1.9-4.5-1.9c0,0,0,0-0.1,0c-1.6,0.1-3,2.1-4.4,2.2
							c-0.1,0-0.2,0-0.3,0c-1.4,0-2.8-0.8-4-0.8c-0.1,0-0.2,0-0.3,0c-2.6,0.4-4,0.9-4,1.4s1.4,1.7,4,2c1.3,0.2,2.9,0,4.6,0.1
							c0,0,0.1,0,0.1,0c1.4,0,2.9-1.9,4.5-1.9c0,0,0,0,0,0c1.5,0,2.9,2,4.5,2s3.1-1.2,4.5-1.3c0.2,0,0.4,0,0.6,0c1,0,2,0.1,2.9,0.1
							c0.3,0,0.7,0,1,0c0.1,0,0.1,0,0.2,0c1.6,0,3.1,1.4,4.4,1.4c0.1,0,0.1,0,0.2,0c2.6-0.4,4.7-2.1,4.7-2.6s-2.1-2.3-4.7-2.7
							c-0.1,0-0.2,0-0.4,0c-1.1,0-2.6,0.7-4,0.7c-0.1,0-0.2,0-0.3,0C459.2,466.9,457.7,465.7,456,465.6
							C456.1,465.7,456.1,465.7,456,465.6L456,465.6L456,465.6z"/>
						
							<linearGradient id="SVGID_00000147911300100738379950000002347415522165048987_" gradientUnits="userSpaceOnUse" x1="433.89" y1="555.345" x2="470.0299" y2="555.345" gradientTransform="matrix(1 0 0 -1 0 1024)">
							<stop  offset="0" style="stop-color:#000000"/>
							<stop  offset="1" style="stop-color:#FFFFFF"/>
						</linearGradient>
						
							<path style="opacity:0.3;fill:url(#SVGID_00000147911300100738379950000002347415522165048987_);enable-background:new    ;" d="
							M456,465.6c-1.4,0-3,2.6-4.5,2.6s-3.1-1.9-4.5-1.9c0,0,0,0-0.1,0c-1.6,0.1-3,2.1-4.4,2.2c-0.1,0-0.2,0-0.3,0
							c-1.4,0-2.8-0.8-4-0.8c-0.1,0-0.2,0-0.3,0c-2.6,0.4-4,0.9-4,1.4s1.4,1.7,4,2c1.3,0.2,2.9,0,4.6,0.1c0,0,0.1,0,0.1,0
							c1.4,0,2.9-1.9,4.5-1.9c0,0,0,0,0,0c1.5,0,2.9,2,4.5,2s3.1-1.2,4.5-1.3c0.2,0,0.4,0,0.6,0c1,0,2,0.1,2.9,0.1c0.3,0,0.7,0,1,0
							c0.1,0,0.1,0,0.2,0c1.6,0,3.1,1.4,4.4,1.4c0.1,0,0.1,0,0.2,0c2.6-0.4,4.7-2.1,4.7-2.6s-2.1-2.3-4.7-2.7c-0.1,0-0.2,0-0.4,0
							c-1.1,0-2.6,0.7-4,0.7c-0.1,0-0.2,0-0.3,0C459.2,466.9,457.7,465.7,456,465.6C456.1,465.7,456.1,465.7,456,465.6L456,465.6
							L456,465.6z"/>
						<path class="st22" d="M451.6,492.2c-8.8,0-14.5-2.3-14.8-2.5c-0.8-0.3-1.1-1.2-0.8-2c0.3-0.8,1.2-1.1,2-0.8
							c0.1,0.1,12.2,5,28.5,0c0.8-0.2,1.6,0.2,1.9,1c0.2,0.8-0.2,1.6-1,1.9C461.4,491.6,456.1,492.2,451.6,492.2L451.6,492.2z"/>
						<path class="st23" d="M451.6,489.6c-8.8,0-14.5-2.3-14.8-2.5c-0.8-0.3-1.1-1.2-0.8-2c0.3-0.8,1.2-1.1,2-0.8
							c0.1,0.1,12.2,5,28.5,0c0.8-0.2,1.6,0.2,1.9,1c0.2,0.8-0.2,1.6-1,1.9C461.4,489,456.1,489.6,451.6,489.6L451.6,489.6z"/>
						<path class="st14" d="M439.2,492.7c-0.4,0-0.8-0.3-0.9-0.8c-0.5-4.2,1.6-8.6,1.7-8.8c0.2-0.4,0.8-0.6,1.2-0.4
							c0.4,0.2,0.6,0.8,0.4,1.2c0,0-2,4.2-1.6,7.8c0.1,0.5-0.3,0.9-0.8,1C439.2,492.7,439.2,492.7,439.2,492.7L439.2,492.7z"/>
						<path class="st14" d="M465.5,492.7C465.5,492.7,465.4,492.7,465.5,492.7c-0.6,0-0.9-0.5-0.9-1c0.5-4.8-1.9-7.6-1.9-7.7
							c-0.3-0.4-0.3-0.9,0.1-1.3c0.4-0.3,1-0.3,1.3,0.1c0.1,0.1,2.9,3.5,2.3,9C466.3,492.3,465.9,492.7,465.5,492.7L465.5,492.7z"/>
						<path class="st14" d="M459.5,494.5c-0.1,0-0.2,0-0.3-0.1c-0.5-0.2-0.7-0.7-0.5-1.2c1.5-3.7-1-8.6-1-8.6c-0.2-0.4,0-1,0.4-1.2
							c0.4-0.2,1,0,1.2,0.4c0.1,0.2,2.8,5.6,1,10.1C460.2,494.3,459.8,494.5,459.5,494.5L459.5,494.5z"/>
						<path class="st14" d="M445.4,494.5c-0.4,0-0.7-0.2-0.8-0.6c-1.8-4.5,0.9-9.9,1-10.1c0.2-0.4,0.8-0.6,1.2-0.4s0.6,0.8,0.4,1.2
							c0,0-2.4,4.9-1,8.6c0.2,0.5,0,1-0.5,1.2C445.6,494.5,445.5,494.5,445.4,494.5L445.4,494.5z"/>
						<path class="st14" d="M452.1,495c-0.5,0-0.9-0.4-0.9-0.9v-9c0-0.5,0.4-0.9,0.9-0.9s0.9,0.4,0.9,0.9v9
							C453,494.6,452.6,495,452.1,495z"/>
						<path class="st22" d="M474.1,507.4c-0.6,0-1.2-0.5-1.2-1.1c-0.5-12.1-9.8-15.4-9.9-15.5c-0.6-0.2-1-0.9-0.7-1.5s0.9-1,1.5-0.7
							c0.4,0.1,10.8,3.9,11.5,17.6C475.4,506.8,474.8,507.4,474.1,507.4C474.2,507.4,474.1,507.4,474.1,507.4L474.1,507.4z"/>
						<path class="st22" d="M466.9,505.2C466.9,505.2,466.9,505.2,466.9,505.2c-0.7,0-1.2-0.6-1.2-1.2c0.4-8.7-4.1-13.5-4.2-13.5
							c-0.5-0.5-0.5-1.2,0-1.7s1.2-0.5,1.7,0c0.2,0.2,5.3,5.5,4.8,15.3C468.1,504.8,467.6,505.2,466.9,505.2L466.9,505.2z"/>
						<path class="st24" d="M456,466.4L456,466.4c0.7,0,1.4,0.3,2.2,0.7c0.7,0.3,1.5,0.7,2.3,0.7c0.1,0,0.2,0,0.4,0
							c0.9,0,1.7-0.2,2.5-0.4c0.6-0.1,1.1-0.3,1.6-0.3c0.1,0,0.2,0,0.2,0c1.8,0.3,3.4,1.3,3.9,1.9c-0.5,0.5-2.1,1.5-3.9,1.8
							c0,0,0,0-0.1,0c-0.4,0-1-0.3-1.5-0.6c-0.8-0.4-1.8-0.9-2.8-0.9c-0.1,0-0.2,0-0.2,0c-0.3,0-0.6,0-0.9,0c-0.4,0-0.9,0-1.4,0
							c-0.5,0-1,0-1.5,0c-0.2,0-0.4,0-0.7,0c-0.9,0-1.6,0.4-2.4,0.7c-0.7,0.3-1.4,0.6-2.1,0.6c-0.6,0-1.2-0.4-1.9-0.9
							c-0.8-0.5-1.6-1-2.6-1.1H447c-1,0-2,0.6-2.8,1.1c-0.6,0.4-1.2,0.8-1.6,0.8c0,0,0,0,0,0c-0.8,0-1.5,0-2.2,0
							c-0.8,0-1.6,0-2.3-0.1c-1.6-0.2-2.6-0.7-3-1.1c0.4-0.2,1.3-0.4,3.1-0.8c0.1,0,0.1,0,0.2,0c0.4,0,0.9,0.1,1.5,0.3
							c0.7,0.2,1.6,0.5,2.5,0.5c0.1,0,0.3,0,0.4,0c0.9-0.1,1.7-0.7,2.4-1.2c0.7-0.5,1.3-1,1.9-1h0c0.5,0,1.1,0.4,1.7,0.8
							c0.8,0.5,1.8,1.1,2.8,1.1c1.1,0,2-0.8,2.9-1.5C455,467,455.7,466.4,456,466.4 M456.1,465.6c-1.4,0-3,2.6-4.5,2.6
							s-3.1-1.9-4.5-1.9c0,0,0,0-0.1,0c-1.6,0.1-3,2.1-4.4,2.2c-0.1,0-0.2,0-0.3,0c-1.4,0-2.8-0.8-4-0.8c-0.1,0-0.2,0-0.3,0
							c-2.6,0.4-4,0.9-4,1.4s1.4,1.7,4,2c1.3,0.2,2.9,0,4.6,0.1c0,0,0.1,0,0.1,0c1.4,0,2.9-1.9,4.5-1.9c0,0,0,0,0,0
							c1.5,0,2.9,2,4.5,2s3.1-1.2,4.5-1.3c0.2,0,0.4,0,0.6,0c1,0,2,0.1,2.9,0.1c0.3,0,0.7,0,1,0c0.1,0,0.1,0,0.2,0
							c1.6,0,3.1,1.4,4.4,1.4c0.1,0,0.1,0,0.2,0c2.6-0.4,4.7-2.1,4.7-2.6s-2.1-2.3-4.7-2.7c-0.1,0-0.2,0-0.4,0c-1.1,0-2.6,0.7-4,0.7
							c-0.1,0-0.2,0-0.3,0C459.2,466.9,457.7,465.7,456.1,465.6C456.1,465.6,456.1,465.6,456.1,465.6L456.1,465.6L456.1,465.6z"/>
						<path class="st25" d="M470.5,515.9c0,8.4-7.8,15.2-17.4,15.2s-17.4-6.8-17.4-15.2s7.8-15.2,17.4-15.2S470.5,507.5,470.5,515.9
							z"/>
						<path class="st14" d="M455,513.1c-0.2,0-0.4-0.1-0.4-0.4V511c0-0.6-0.3-0.9-0.9-0.9h-1.1c-0.6,0-0.9,0.3-0.9,0.9v3.2l5.5,1.8
							c0.4,0.2,0.6,0.4,0.6,0.8v5.3c0,2.1-1.1,3.2-3.1,3.3v1.4c0,0.2-0.1,0.4-0.4,0.4H452c-0.2,0-0.4-0.1-0.4-0.4v-1.4
							c-2-0.1-3.1-1.2-3.1-3.3v-2.4c0-0.2,0.1-0.4,0.4-0.4h2.4c0.2,0,0.4,0.1,0.4,0.4v1.8c0,0.6,0.3,0.9,0.9,0.9h1.1
							c0.6,0,0.9-0.3,0.9-0.9v-3.1l-5.5-1.8c-0.4-0.1-0.6-0.4-0.6-0.8v-5.5c0-2.1,1.1-3.2,3.1-3.3v-1.4c0-0.2,0.1-0.4,0.4-0.4h2.2
							c0.2,0,0.4,0.1,0.4,0.4v1.4c2,0.1,3.1,1.2,3.1,3.3v2.5c0,0.2-0.1,0.4-0.4,0.4L455,513.1L455,513.1z"/>
					</g>
					<g>
						<polygon class="st26" points="436.2,342.5 408.2,337.5 394,332.9 422,337.9 						"/>
						<polygon class="st27" points="381.9,409.3 353.9,404.4 376.2,327.2 404.2,332.1 						"/>
						<polygon class="st28" points="391.6,328.1 363.6,323.1 407.8,249.1 435.8,254.1 						"/>
						<polygon class="st26" points="404.2,332.1 376.2,327.2 363.6,323.1 391.6,328.1 						"/>
						<polygon class="st29" points="390.3,448.2 362.3,443.2 307.3,388.9 335.3,393.8 						"/>
						<g class="st30">
							
								<linearGradient id="SVGID_00000084504158537152628720000009814967699481748609_" gradientUnits="userSpaceOnUse" x1="321.4279" y1="615.3054" x2="400.2476" y2="615.3054" gradientTransform="matrix(0.9977 -6.714462e-02 -6.714462e-02 -0.9977 30.066 1056.6652)">
								<stop  offset="0" style="stop-color:#000000"/>
								<stop  offset="1" style="stop-color:#FFFFFF"/>
							</linearGradient>
							<polygon style="fill:url(#SVGID_00000084504158537152628720000009814967699481748609_);" points="390.3,448.2 362.3,443.2 
								307.3,388.9 335.3,393.8 							"/>
						</g>
						<polygon class="st29" points="292.5,482 264.5,477 298.3,349.4 326.3,354.4 						"/>
						<polygon class="st32" points="302,519.5 274,514.5 203.7,453.1 231.7,458.1 						"/>
						<g class="st30">
							
								<linearGradient id="SVGID_00000006679602747447896350000002556792223936560542_" gradientUnits="userSpaceOnUse" x1="213.7449" y1="554.1209" x2="307.3615" y2="554.1209" gradientTransform="matrix(0.9977 -6.714462e-02 -6.714462e-02 -0.9977 30.066 1056.6652)">
								<stop  offset="0" style="stop-color:#000000"/>
								<stop  offset="1" style="stop-color:#FFFFFF"/>
							</linearGradient>
							<polygon style="fill:url(#SVGID_00000006679602747447896350000002556792223936560542_);" points="302,519.5 274,514.5 
								203.7,453.1 231.7,458.1 							"/>
						</g>
						<polygon class="st32" points="170.8,589.2 142.8,584.2 195.4,416.7 223.4,421.7 						"/>
						<polygon class="st26" points="188.4,596 160.4,591 142.8,584.2 170.8,589.2 						"/>
						<polygon class="st3" points="435.8,254.1 391.6,328.1 404.2,332.1 381.9,409.3 326.3,354.4 292.5,482 223.4,421.7 
							170.8,589.2 188.4,596 231.7,458.1 302,519.5 335.3,393.8 390.3,448.2 422,337.9 436.2,342.5 						"/>
					</g>
					<g>
						<path class="st13" d="M127.2,655.3c0,2.9,7,5.3,15.7,5.3s15.7-2.3,15.7-5.3s-7-5.2-15.7-5.2S127.2,652.4,127.2,655.3z"/>
						<path class="st13" d="M101,662.8c0,2.9,7,5.3,15.7,5.3s15.7-2.3,15.7-5.3s-7-5.2-15.7-5.2S101,659.9,101,662.8z"/>
						<path class="st13" d="M135.1,670.7c0,2.9,7,5.2,15.7,5.2s15.7-2.3,15.7-5.2s-7-5.2-15.7-5.2S135.1,667.8,135.1,670.7z"/>
						<path class="st13" d="M167.1,659.4c0,2.9,7,5.3,15.7,5.3s15.7-2.3,15.7-5.3s-7-5.2-15.7-5.2S167.1,656.5,167.1,659.4z"/>
						<path class="st13" d="M177.1,663.5c0,2.9,7,5.3,15.7,5.3s15.7-2.3,15.7-5.3s-7-5.2-15.7-5.2S177.1,660.5,177.1,663.5z"/>
						<g>
							<path class="st34" d="M175.5,656.5c0,2.9,7,5.2,15.7,5.2s15.7-2.3,15.7-5.2v-3.2h-31.3V656.5z"/>
							<path class="st35" d="M183.9,653.3h-8.4v3.2c0,2,3.4,3.8,8.4,4.7V653.3z"/>
							<path class="st36" d="M175.5,653.3c0,2.9,7,5.3,15.7,5.3s15.7-2.3,15.7-5.3s-7-5.2-15.7-5.2S175.5,650.4,175.5,653.3z"/>
							<path class="st34" d="M175.6,653.6c0.5,2.7,7.3,4.9,15.6,4.9s15.1-2.2,15.6-4.9c-0.5-2.7-7.3-4.9-15.6-4.9
								S176.1,650.9,175.6,653.6z M177.1,654c0-0.3,0.9-1.3,3.5-2.2c2.8-0.9,6.6-1.5,10.6-1.5s7.8,0.5,10.6,1.5
								c2.6,0.9,3.5,1.9,3.5,2.2s-0.9,1.3-3.5,2.2c-2.8,0.9-6.6,1.5-10.6,1.5s-7.8-0.5-10.6-1.5C178,655.3,177.1,654.3,177.1,654z"
								/>
							<path class="st37" d="M191.2,649.6c4,0,7.8,0.5,10.6,1.5c2.6,0.9,3.5,1.9,3.5,2.2s-0.9,1.3-3.5,2.2
								c-2.8,0.9-6.6,1.5-10.6,1.5s-7.8-0.5-10.6-1.5c-2.6-0.9-3.5-1.9-3.5-2.2s0.9-1.3,3.5-2.2
								C183.4,650.2,187.2,649.6,191.2,649.6 M191.2,648c-8.6,0-15.7,2.3-15.7,5.2s7,5.3,15.7,5.3s15.7-2.3,15.7-5.3
								S199.8,648,191.2,648L191.2,648z"/>
							<path class="st37" d="M191.2,651.2c5.9,0,9.9,1.1,11.7,2c-1.8,0.9-5.9,2-11.7,2s-9.9-1.1-11.7-2
								C181.2,652.4,185.3,651.2,191.2,651.2"/>
						</g>
						<g>
							<path class="st34" d="M169.2,651.2c0,2.9,7,5.2,15.7,5.2s15.7-2.3,15.7-5.2v-3.2h-31.3V651.2z"/>
							<path class="st35" d="M173.8,647.9h-4.5v3.2c0,1.4,1.7,2.7,4.5,3.7V647.9z"/>
							<path class="st36" d="M169.2,647.9c0,2.9,7,5.2,15.7,5.2s15.7-2.3,15.7-5.2s-7-5.2-15.7-5.2S169.2,645,169.2,647.9z"/>
							<path class="st34" d="M169.3,648.3c0.5,2.7,7.3,4.9,15.6,4.9s15.1-2.2,15.6-4.9c-0.5-2.7-7.3-4.9-15.6-4.9
								S169.8,645.5,169.3,648.3z M170.9,648.6c0-0.3,0.9-1.3,3.5-2.2c2.8-0.9,6.6-1.5,10.6-1.5s7.8,0.5,10.6,1.5
								c2.6,0.9,3.5,1.9,3.5,2.2s-0.9,1.3-3.5,2.2c-2.8,0.9-6.6,1.5-10.6,1.5s-7.8-0.5-10.6-1.5C171.7,649.9,170.9,649,170.9,648.6z
								"/>
							<path class="st37" d="M184.9,644.3c4,0,7.8,0.5,10.6,1.5c2.6,0.9,3.5,1.9,3.5,2.2s-0.9,1.3-3.5,2.2
								c-2.8,0.9-6.6,1.5-10.6,1.5s-7.8-0.5-10.6-1.5c-2.6-0.9-3.5-1.9-3.5-2.2s0.9-1.3,3.5-2.2
								C177.2,644.8,180.9,644.3,184.9,644.3 M184.9,642.7c-8.6,0-15.7,2.3-15.7,5.2s7,5.2,15.7,5.2s15.7-2.3,15.7-5.2
								S193.6,642.7,184.9,642.7L184.9,642.7z"/>
							<path class="st35" d="M182.3,643.5l-1.7-0.6c-6.6,0.6-11.4,2.7-11.4,5c0,2.2,4,4.1,9.7,4.9c4.7-0.8,7.8-1.8,7.8-1.8
								L182.3,643.5L182.3,643.5z"/>
							<path class="st37" d="M184.9,645.9c5.9,0,9.9,1.1,11.7,2c-1.8,0.9-5.9,2-11.7,2s-9.9-1.1-11.7-2
								C175,647,179.1,645.9,184.9,645.9"/>
						</g>
						<g>
							<path class="st34" d="M169.2,645.8c0,2.9,7,5.2,15.7,5.2s15.7-2.3,15.7-5.2v-3.2h-31.3V645.8z"/>
							<path class="st35" d="M175.6,642.6h-6.3v3.2c0,1.7,2.5,3.2,6.3,4.2V642.6L175.6,642.6z"/>
							<path class="st36" d="M169.2,642.6c0,2.9,7,5.2,15.7,5.2s15.7-2.3,15.7-5.2s-7-5.3-15.7-5.3S169.2,639.7,169.2,642.6z"/>
							<path class="st34" d="M169.3,643c0.5,2.7,7.3,4.9,15.6,4.9s15.1-2.2,15.6-4.9c-0.5-2.7-7.3-4.9-15.6-4.9
								S169.8,640.2,169.3,643z M170.9,643.3c0-0.3,0.9-1.3,3.5-2.2c2.8-0.9,6.6-1.5,10.6-1.5s7.8,0.5,10.6,1.5
								c2.6,0.9,3.5,1.9,3.5,2.2s-0.9,1.3-3.5,2.2c-2.8,0.9-6.6,1.5-10.6,1.5s-7.8-0.5-10.6-1.5
								C171.7,644.6,170.9,643.6,170.9,643.3z"/>
							<path class="st37" d="M184.9,639c4,0,7.8,0.5,10.6,1.5c2.6,0.9,3.5,1.9,3.5,2.2s-0.9,1.3-3.5,2.2c-2.8,0.9-6.6,1.5-10.6,1.5
								s-7.8-0.5-10.6-1.5c-2.6-0.9-3.5-1.9-3.5-2.2s0.9-1.3,3.5-2.2C177.2,639.5,180.9,639,184.9,639 M184.9,637.3
								c-8.6,0-15.7,2.3-15.7,5.3s7,5.2,15.7,5.2s15.7-2.3,15.7-5.2S193.6,637.3,184.9,637.3L184.9,637.3z"/>
							<path class="st35" d="M169.2,642.6c0,2.3,4.4,4.2,10.5,5c5.7-1.5,8.2-2.7,8.2-2.7l-1.5-7.5c-0.5,0-1,0-1.5,0
								C176.3,637.3,169.2,639.7,169.2,642.6z"/>
							<path class="st37" d="M184.9,640.6c5.9,0,9.9,1.1,11.7,2c-1.8,0.9-5.9,2-11.7,2s-9.9-1.1-11.7-2
								C175,641.7,179.1,640.6,184.9,640.6"/>
						</g>
						<g>
							<path class="st34" d="M163.9,640.5c0,2.9,7,5.2,15.7,5.2s15.7-2.3,15.7-5.2v-3.2h-31.3V640.5z"/>
							<path class="st35" d="M178.3,637.3h-14.4v3.2c0,2.8,6.4,5,14.4,5.2V637.3L178.3,637.3z"/>
							<path class="st36" d="M163.9,637.3c0,2.9,7,5.3,15.7,5.3s15.7-2.3,15.7-5.3s-7-5.2-15.7-5.2S163.9,634.4,163.9,637.3z"/>
							<path class="st34" d="M163.9,637.6c0.5,2.7,7.3,4.9,15.6,4.9s15.1-2.2,15.6-4.9c-0.5-2.7-7.3-4.9-15.6-4.9
								S164.4,634.9,163.9,637.6z M165.5,638c0-0.3,0.9-1.3,3.5-2.2c2.8-0.9,6.6-1.5,10.6-1.5s7.8,0.5,10.6,1.5
								c2.6,0.9,3.5,1.9,3.5,2.2s-0.9,1.3-3.5,2.2c-2.8,0.9-6.6,1.5-10.6,1.5s-7.8-0.5-10.6-1.5C166.3,639.2,165.5,638.3,165.5,638z
								"/>
							<path class="st37" d="M179.5,633.6c4,0,7.8,0.5,10.6,1.5c2.6,0.9,3.5,1.9,3.5,2.2s-0.9,1.3-3.5,2.2
								c-2.8,0.9-6.6,1.5-10.6,1.5s-7.8-0.5-10.6-1.5c-2.6-0.9-3.5-1.9-3.5-2.2s0.9-1.3,3.5-2.2
								C171.8,634.1,175.5,633.6,179.5,633.6 M179.5,632c-8.6,0-15.7,2.3-15.7,5.2s7,5.3,15.7,5.3s15.7-2.3,15.7-5.3
								S188.2,632,179.5,632L179.5,632z"/>
							<path class="st37" d="M179.5,635.2c5.9,0,9.9,1.1,11.7,2c-1.8,0.9-5.9,2-11.7,2s-9.9-1.1-11.7-2
								C169.6,636.3,173.7,635.2,179.5,635.2"/>
							<path class="st35" d="M163.9,637.3c0,2,3.3,3.7,8.2,4.6c12-1.7,16.1-5.1,16.1-5.1s-1-2-2.1-4.2c-2-0.3-4.2-0.5-6.6-0.5
								C170.9,632,163.8,634.4,163.9,637.3L163.9,637.3z"/>
						</g>
						<g>
							<path class="st34" d="M159.9,633.6c0,2.9,7,5.3,15.7,5.3s15.7-2.3,15.7-5.3v-3.2h-31.3V633.6z"/>
							<path class="st35" d="M161.4,635.9c2.4,1.7,7.4,2.9,13.3,3v-8.5h-13.3V635.9L161.4,635.9z"/>
							<path class="st36" d="M159.9,630.4c0,2.9,7,5.2,15.7,5.2s15.7-2.3,15.7-5.2s-7-5.2-15.7-5.2S159.9,627.5,159.9,630.4z"/>
							<path class="st34" d="M159.9,630.7c0.5,2.7,7.3,4.9,15.6,4.9s15.1-2.2,15.6-4.9c-0.5-2.7-7.3-4.9-15.6-4.9
								S160.5,628,159.9,630.7z M161.5,631.1c0-0.3,0.9-1.3,3.5-2.2c2.8-0.9,6.6-1.5,10.6-1.5s7.8,0.5,10.6,1.5
								c2.6,0.9,3.5,1.9,3.5,2.2s-0.9,1.3-3.5,2.2c-2.8,0.9-6.6,1.5-10.6,1.5s-7.8-0.5-10.6-1.5
								C162.4,632.4,161.5,631.4,161.5,631.1z"/>
							<path class="st37" d="M175.6,626.8c4,0,7.8,0.5,10.6,1.5c2.6,0.9,3.5,1.9,3.5,2.2s-0.9,1.3-3.5,2.2
								c-2.8,0.9-6.6,1.5-10.6,1.5s-7.8-0.5-10.6-1.5c-2.6-0.9-3.5-1.9-3.5-2.2s0.9-1.3,3.5-2.2
								C167.8,627.3,171.6,626.8,175.6,626.8 M175.6,625.1c-8.6,0-15.7,2.3-15.7,5.2s7,5.2,15.7,5.2s15.7-2.3,15.7-5.2
								S184.2,625.1,175.6,625.1L175.6,625.1z"/>
							<path class="st37" d="M175.6,628.4c5.9,0,9.9,1.1,11.7,2c-1.8,0.9-5.9,2-11.7,2s-9.9-1.1-11.7-2
								C165.6,629.5,169.7,628.4,175.6,628.4"/>
						</g>
						<g>
							<path class="st34" d="M134.1,653.1c0,2.9,7,5.2,15.7,5.2s15.7-2.3,15.7-5.2v-3.2h-31.3L134.1,653.1L134.1,653.1z"/>
							<path class="st36" d="M134.1,649.9c0,2.9,7,5.3,15.7,5.3s15.7-2.3,15.7-5.3s-7-5.2-15.7-5.2S134.1,647,134.1,649.9z"/>
							<path class="st34" d="M134.1,650.2c0.5,2.7,7.3,4.9,15.6,4.9s15.1-2.2,15.6-4.9c-0.5-2.7-7.3-4.9-15.6-4.9
								S134.6,647.5,134.1,650.2z M135.7,650.6c0-0.3,0.9-1.3,3.5-2.2c2.8-0.9,6.6-1.5,10.6-1.5s7.8,0.5,10.6,1.5
								c2.6,0.9,3.5,1.9,3.5,2.2s-0.9,1.3-3.5,2.2c-2.8,0.9-6.6,1.5-10.6,1.5s-7.8-0.5-10.6-1.5
								C136.5,651.9,135.7,650.9,135.7,650.6z"/>
							<path class="st37" d="M149.7,646.2c4,0,7.8,0.5,10.6,1.5c2.6,0.9,3.5,1.9,3.5,2.2s-0.9,1.3-3.5,2.2
								c-2.8,0.9-6.6,1.5-10.6,1.5s-7.8-0.5-10.6-1.5c-2.6-0.9-3.5-1.9-3.5-2.2s0.9-1.3,3.5-2.2C142,646.8,145.7,646.2,149.7,646.2
								 M149.7,644.6c-8.6,0-15.7,2.3-15.7,5.2s7,5.3,15.7,5.3s15.7-2.3,15.7-5.3S158.4,644.6,149.7,644.6L149.7,644.6z"/>
							<path class="st37" d="M149.7,647.9c5.9,0,9.9,1.1,11.7,2c-1.8,0.9-5.9,2-11.7,2s-9.9-1.1-11.7-2
								C139.8,649,143.9,647.9,149.7,647.9"/>
						</g>
						<g>
							<path class="st34" d="M134.1,647.8c0,2.9,7,5.3,15.7,5.3s15.7-2.3,15.7-5.3v-3.2h-31.3L134.1,647.8L134.1,647.8z"/>
							<path class="st36" d="M134.1,644.6c0,2.9,7,5.2,15.7,5.2s15.7-2.3,15.7-5.2s-7-5.2-15.7-5.2S134.1,641.7,134.1,644.6z"/>
							<path class="st34" d="M134.1,644.9c0.5,2.7,7.3,4.9,15.6,4.9s15.1-2.2,15.6-4.9c-0.5-2.7-7.3-4.9-15.6-4.9
								S134.6,642.2,134.1,644.9z M135.7,645.2c0-0.3,0.9-1.3,3.5-2.2c2.8-0.9,6.6-1.5,10.6-1.5s7.8,0.5,10.6,1.5
								c2.6,0.9,3.5,1.9,3.5,2.2s-0.9,1.3-3.5,2.2c-2.8,0.9-6.6,1.5-10.6,1.5s-7.8-0.5-10.6-1.5
								C136.5,646.6,135.7,645.6,135.7,645.2z"/>
							<path class="st37" d="M149.7,640.9c4,0,7.8,0.5,10.6,1.5c2.6,0.9,3.5,1.9,3.5,2.2s-0.9,1.3-3.5,2.2
								c-2.8,0.9-6.6,1.5-10.6,1.5s-7.8-0.5-10.6-1.5c-2.6-0.9-3.5-1.9-3.5-2.2s0.9-1.3,3.5-2.2C142,641.4,145.7,640.9,149.7,640.9
								 M149.7,639.3c-8.6,0-15.7,2.3-15.7,5.2s7,5.2,15.7,5.2s15.7-2.3,15.7-5.2S158.4,639.3,149.7,639.3L149.7,639.3z"/>
							<path class="st37" d="M149.7,642.5c5.9,0,9.9,1.1,11.7,2c-1.8,0.9-5.9,2-11.7,2s-9.9-1.1-11.7-2
								C139.8,643.6,143.9,642.5,149.7,642.5"/>
						</g>
						<g>
							<path class="st34" d="M134.1,642.4c0,2.9,7,5.2,15.7,5.2s15.7-2.3,15.7-5.2v-3.2h-31.3L134.1,642.4L134.1,642.4z"/>
							<path class="st36" d="M134.1,639.2c0,2.9,7,5.2,15.7,5.2s15.7-2.3,15.7-5.2s-7-5.2-15.7-5.2S134.1,636.3,134.1,639.2z"/>
							<path class="st34" d="M134.1,639.6c0.5,2.7,7.3,4.9,15.6,4.9s15.1-2.2,15.6-4.9c-0.5-2.7-7.3-4.9-15.6-4.9
								S134.6,636.8,134.1,639.6z M135.7,639.9c0-0.3,0.9-1.3,3.5-2.2c2.8-0.9,6.6-1.5,10.6-1.5s7.8,0.5,10.6,1.5
								c2.6,0.9,3.5,1.9,3.5,2.2s-0.9,1.3-3.5,2.2c-2.8,0.9-6.6,1.5-10.6,1.5s-7.8-0.5-10.6-1.5
								C136.5,641.2,135.7,640.2,135.7,639.9z"/>
							<path class="st37" d="M149.7,635.6c4,0,7.8,0.5,10.6,1.5c2.6,0.9,3.5,1.9,3.5,2.2s-0.9,1.3-3.5,2.2
								c-2.8,0.9-6.6,1.5-10.6,1.5s-7.8-0.5-10.6-1.5c-2.6-0.9-3.5-1.9-3.5-2.2s0.9-1.3,3.5-2.2C142,636.1,145.7,635.6,149.7,635.6
								 M149.7,634c-8.6,0-15.7,2.3-15.7,5.2s7,5.2,15.7,5.2s15.7-2.3,15.7-5.2S158.4,634,149.7,634L149.7,634z"/>
							<path class="st37" d="M149.7,637.2c5.9,0,9.9,1.1,11.7,2c-1.8,0.9-5.9,2-11.7,2s-9.9-1.1-11.7-2
								C139.8,638.3,143.9,637.2,149.7,637.2"/>
						</g>
						<g>
							<path class="st34" d="M134.1,637.1c0,2.9,7,5.3,15.7,5.3s15.7-2.3,15.7-5.3v-3.2h-31.3L134.1,637.1L134.1,637.1z"/>
							<path class="st36" d="M134.1,633.9c0,2.9,7,5.2,15.7,5.2s15.7-2.3,15.7-5.2s-7-5.2-15.7-5.2S134.1,631,134.1,633.9z"/>
							<path class="st34" d="M134.1,634.2c0.5,2.7,7.3,4.9,15.6,4.9s15.1-2.2,15.6-4.9c-0.5-2.7-7.3-4.9-15.6-4.9
								S134.6,631.5,134.1,634.2z M135.7,634.6c0-0.3,0.9-1.3,3.5-2.2c2.8-0.9,6.6-1.5,10.6-1.5s7.8,0.5,10.6,1.5
								c2.6,0.9,3.5,1.9,3.5,2.2s-0.9,1.3-3.5,2.2c-2.8,0.9-6.6,1.5-10.6,1.5s-7.8-0.5-10.6-1.5
								C136.5,635.9,135.7,634.9,135.7,634.6z"/>
							<path class="st37" d="M149.7,630.2c4,0,7.8,0.5,10.6,1.5c2.6,0.9,3.5,1.9,3.5,2.2s-0.9,1.3-3.5,2.2
								c-2.8,0.9-6.6,1.5-10.6,1.5s-7.8-0.5-10.6-1.5c-2.6-0.9-3.5-1.9-3.5-2.2s0.9-1.3,3.5-2.2C142,630.8,145.7,630.2,149.7,630.2
								 M149.7,628.6c-8.6,0-15.7,2.3-15.7,5.2s7,5.2,15.7,5.2s15.7-2.3,15.7-5.2S158.4,628.6,149.7,628.6L149.7,628.6z"/>
							<path class="st37" d="M149.7,631.8c5.9,0,9.9,1.1,11.7,2c-1.8,0.9-5.9,2-11.7,2s-9.9-1.1-11.7-2
								C139.8,633,143.9,631.8,149.7,631.8"/>
						</g>
						<g>
							<path class="st34" d="M134.1,631.8c0,2.9,7,5.2,15.7,5.2s15.7-2.3,15.7-5.2v-3.2h-31.3L134.1,631.8L134.1,631.8z"/>
							<path class="st36" d="M134.1,628.5c0,2.9,7,5.2,15.7,5.2s15.7-2.3,15.7-5.2s-7-5.3-15.7-5.3S134.1,625.6,134.1,628.5z"/>
							<path class="st34" d="M134.1,628.9c0.5,2.7,7.3,4.9,15.6,4.9s15.1-2.2,15.6-4.9c-0.5-2.7-7.3-4.9-15.6-4.9
								S134.6,626.1,134.1,628.9z M135.7,629.2c0-0.3,0.9-1.3,3.5-2.2c2.8-0.9,6.6-1.5,10.6-1.5s7.8,0.5,10.6,1.5
								c2.6,0.9,3.5,1.9,3.5,2.2s-0.9,1.3-3.5,2.2c-2.8,0.9-6.6,1.5-10.6,1.5s-7.8-0.5-10.6-1.5
								C136.5,630.5,135.7,629.6,135.7,629.2z"/>
							<path class="st37" d="M149.7,624.9c4,0,7.8,0.5,10.6,1.5c2.6,0.9,3.5,1.9,3.5,2.2s-0.9,1.3-3.5,2.2
								c-2.8,0.9-6.6,1.5-10.6,1.5s-7.8-0.5-10.6-1.5c-2.6-0.9-3.5-1.9-3.5-2.2s0.9-1.3,3.5-2.2C142,625.4,145.7,624.9,149.7,624.9
								 M149.7,623.3c-8.6,0-15.7,2.3-15.7,5.3s7,5.2,15.7,5.2s15.7-2.3,15.7-5.2S158.4,623.3,149.7,623.3L149.7,623.3z"/>
							<path class="st37" d="M149.7,626.5c5.9,0,9.9,1.1,11.7,2c-1.8,0.9-5.9,2-11.7,2s-9.9-1.1-11.7-2
								C139.8,627.6,143.9,626.5,149.7,626.5"/>
						</g>
						<g>
							<path class="st34" d="M134.1,626.4c0,2.9,7,5.3,15.7,5.3s15.7-2.3,15.7-5.3v-3.2h-31.3L134.1,626.4L134.1,626.4z"/>
							<path class="st36" d="M134.1,623.2c0,2.9,7,5.3,15.7,5.3s15.7-2.3,15.7-5.3s-7-5.2-15.7-5.2S134.1,620.3,134.1,623.2z"/>
							<path class="st34" d="M134.1,623.5c0.5,2.7,7.3,4.9,15.6,4.9s15.1-2.2,15.6-4.9c-0.5-2.7-7.3-4.9-15.6-4.9
								S134.6,620.8,134.1,623.5z M135.7,623.9c0-0.3,0.9-1.3,3.5-2.2c2.8-0.9,6.6-1.5,10.6-1.5s7.8,0.5,10.6,1.5
								c2.6,0.9,3.5,1.9,3.5,2.2s-0.9,1.3-3.5,2.2c-2.8,0.9-6.6,1.5-10.6,1.5s-7.8-0.5-10.6-1.5
								C136.5,625.2,135.7,624.2,135.7,623.9z"/>
							<path class="st37" d="M149.7,619.5c4,0,7.8,0.5,10.6,1.5c2.6,0.9,3.5,1.9,3.5,2.2s-0.9,1.3-3.5,2.2
								c-2.8,0.9-6.6,1.5-10.6,1.5s-7.8-0.5-10.6-1.5c-2.6-0.9-3.5-1.9-3.5-2.2s0.9-1.3,3.5-2.2C142,620.1,145.7,619.5,149.7,619.5
								 M149.7,617.9c-8.6,0-15.7,2.3-15.7,5.2s7,5.3,15.7,5.3s15.7-2.3,15.7-5.3S158.4,617.9,149.7,617.9L149.7,617.9z"/>
							<path class="st37" d="M149.7,621.2c5.9,0,9.9,1.1,11.7,2c-1.8,0.9-5.9,2-11.7,2s-9.9-1.1-11.7-2
								C139.8,622.3,143.9,621.2,149.7,621.2"/>
						</g>
						<g>
							<path class="st34" d="M134.1,621.1c0,2.9,7,5.3,15.7,5.3s15.7-2.3,15.7-5.3v-3.2h-31.3L134.1,621.1L134.1,621.1z"/>
							<path class="st36" d="M134.1,617.8c0,2.9,7,5.2,15.7,5.2s15.7-2.3,15.7-5.2s-7-5.3-15.7-5.3S134.1,614.9,134.1,617.8z"/>
							<path class="st34" d="M134.1,618.2c0.5,2.7,7.3,4.9,15.6,4.9s15.1-2.2,15.6-4.9c-0.5-2.7-7.3-4.9-15.6-4.9
								S134.6,615.5,134.1,618.2z M135.7,618.5c0-0.3,0.9-1.3,3.5-2.2c2.8-0.9,6.6-1.5,10.6-1.5s7.8,0.5,10.6,1.5
								c2.6,0.9,3.5,1.9,3.5,2.2s-0.9,1.3-3.5,2.2c-2.8,0.9-6.6,1.5-10.6,1.5s-7.8-0.5-10.6-1.5
								C136.5,619.8,135.7,618.9,135.7,618.5z"/>
							<path class="st37" d="M149.7,614.2c4,0,7.8,0.5,10.6,1.5c2.6,0.9,3.5,1.9,3.5,2.2s-0.9,1.3-3.5,2.2
								c-2.8,0.9-6.6,1.5-10.6,1.5s-7.8-0.5-10.6-1.5c-2.6-0.9-3.5-1.9-3.5-2.2s0.9-1.3,3.5-2.2C142,614.7,145.7,614.2,149.7,614.2
								 M149.7,612.6c-8.6,0-15.7,2.3-15.7,5.3s7,5.2,15.7,5.2s15.7-2.3,15.7-5.2S158.4,612.6,149.7,612.6L149.7,612.6z"/>
							<path class="st37" d="M149.7,615.8c5.9,0,9.9,1.1,11.7,2c-1.8,0.9-5.9,2-11.7,2s-9.9-1.1-11.7-2
								C139.8,616.9,143.9,615.8,149.7,615.8"/>
						</g>
						<path class="st35" d="M200.6,649.1v-1.1c0-0.4-0.1-0.7-0.3-1.1c0.2-0.3,0.3-0.7,0.3-1.1v-3.2c0-1.6-2.1-3-5.4-4v-1.4
							c0-0.9-0.6-1.7-1.8-2.4c-2.3,1.7-4.4,7.5-5.1,14.6c-0.4,4.9-0.1,9.3,0.9,12.2c0.7,0,1.3,0,2,0c3.2,0,6.1-0.3,8.6-0.9
							c1.1-2.7,1.9-6.2,2.2-10.2c0-0.4,0.1-0.8,0.1-1.2C201.6,649.4,201.1,649.2,200.6,649.1L200.6,649.1z"/>
						<g>
							<path class="st34" d="M140.4,669.6c0,2.9,7,5.2,15.7,5.2s15.7-2.3,15.7-5.2v-3.2h-31.3L140.4,669.6L140.4,669.6z"/>
							<path class="st36" d="M140.4,666.4c0,2.9,7,5.3,15.7,5.3s15.7-2.3,15.7-5.3s-7-5.2-15.7-5.2S140.4,663.5,140.4,666.4z"/>
							<path class="st34" d="M140.4,666.8c0.5,2.7,7.3,4.9,15.6,4.9s15.1-2.2,15.6-4.9c-0.5-2.7-7.3-4.9-15.6-4.9
								S140.9,664,140.4,666.8z M142,667.1c0-0.3,0.9-1.3,3.5-2.2c2.8-0.9,6.6-1.5,10.6-1.5s7.8,0.5,10.6,1.5
								c2.6,0.9,3.5,1.9,3.5,2.2s-0.9,1.3-3.5,2.2c-2.8,0.9-6.6,1.5-10.6,1.5s-7.8-0.5-10.6-1.5C142.8,668.4,142,667.4,142,667.1z"
								/>
							<path class="st37" d="M156,662.8c4,0,7.8,0.5,10.6,1.5c2.6,0.9,3.5,1.9,3.5,2.2s-0.9,1.3-3.5,2.2c-2.8,0.9-6.6,1.5-10.6,1.5
								s-7.8-0.5-10.6-1.5c-2.6-0.9-3.5-1.9-3.5-2.2s0.9-1.3,3.5-2.2C148.3,663.3,152,662.8,156,662.8 M156,661.2
								c-8.6,0-15.7,2.3-15.7,5.2s7,5.3,15.7,5.3s15.7-2.3,15.7-5.3S164.7,661.2,156,661.2L156,661.2z"/>
							<path class="st37" d="M156,664.4c5.9,0,9.9,1.1,11.7,2c-1.8,0.9-5.9,2-11.7,2s-9.9-1.1-11.7-2
								C146.1,665.5,150.2,664.4,156,664.4"/>
						</g>
						<g>
							<path class="st34" d="M145.8,663.5c0,2.9,7,5.3,15.7,5.3s15.7-2.3,15.7-5.3v-3.2h-31.3L145.8,663.5L145.8,663.5z"/>
							<path class="st36" d="M145.8,660.2c0,2.9,7,5.3,15.7,5.3s15.7-2.3,15.7-5.3s-7-5.2-15.7-5.2S145.8,657.3,145.8,660.2z"/>
							<path class="st34" d="M145.8,660.6c0.5,2.7,7.3,4.9,15.6,4.9s15.1-2.2,15.6-4.9c-0.5-2.7-7.3-4.9-15.6-4.9
								S146.4,657.8,145.8,660.6z M147.4,660.9c0-0.3,0.9-1.3,3.5-2.2c2.8-0.9,6.6-1.5,10.6-1.5s7.8,0.5,10.6,1.5
								c2.6,0.9,3.5,1.9,3.5,2.2s-0.9,1.3-3.5,2.2c-2.8,0.9-6.6,1.5-10.6,1.5s-7.8-0.5-10.6-1.5
								C148.3,662.2,147.4,661.3,147.4,660.9z"/>
							<path class="st37" d="M161.4,656.6c4,0,7.8,0.5,10.6,1.5c2.6,0.9,3.5,1.9,3.5,2.2s-0.9,1.3-3.5,2.2
								c-2.8,0.9-6.6,1.5-10.6,1.5s-7.8-0.5-10.6-1.5c-2.6-0.9-3.5-1.9-3.5-2.2s0.9-1.3,3.5-2.2
								C153.7,657.1,157.4,656.6,161.4,656.6 M161.4,655c-8.6,0-15.7,2.3-15.7,5.2s7,5.3,15.7,5.3s15.7-2.3,15.7-5.3
								S170.1,655,161.4,655L161.4,655z"/>
							<path class="st37" d="M161.4,658.2c5.9,0,9.9,1.1,11.7,2c-1.8,0.9-5.9,2-11.7,2s-9.9-1.1-11.7-2
								C151.5,659.3,155.6,658.2,161.4,658.2"/>
						</g>
						<g>
							<path class="st34" d="M207.1,665.8c-2.8,0.7-6.9-5.4-9.1-13.8c-2.2-8.4-1.7-15.7,1.1-16.5l3.1-0.8l8,30.3L207.1,665.8
								L207.1,665.8z"/>
							<path class="st36" d="M210.2,665c-2.8,0.7-6.9-5.4-9.1-13.8c-2.2-8.4-1.7-15.7,1.1-16.5c2.8-0.7,6.9,5.4,9.1,13.8
								S213,664.2,210.2,665L210.2,665z"/>
							<path class="st34" d="M210.6,648.7c-2.1-8-6-14-8.7-13.8c-2.5,1.2-2.9,8.3-0.8,16.4c2.1,8,6,14,8.7,13.8
								C212.4,663.8,212.7,656.7,210.6,648.7z M206.1,660.8c-1.6-2.5-3.1-6-4.1-9.8s-1.5-7.6-1.3-10.6c0.2-2.8,0.9-3.8,1.2-3.9
								c0.3-0.1,1.5,0.5,3,2.8c1.6,2.5,3.1,6,4.1,9.8s1.5,7.6,1.3,10.6c-0.2,2.8-0.9,3.8-1.2,3.9
								C208.8,663.7,207.6,663.1,206.1,660.8z"/>
							<path class="st37" d="M209.7,648.9c1,3.9,1.5,7.6,1.3,10.6c-0.2,2.8-0.9,3.8-1.2,3.9c-0.3,0.1-1.5-0.5-3-2.8
								c-1.6-2.5-3.1-6-4.1-9.8s-1.5-7.6-1.3-10.6c0.2-2.8,0.9-3.8,1.2-3.9c0.3-0.1,1.5,0.5,3,2.8
								C207.2,641.5,208.7,645,209.7,648.9 M211.3,648.5c-2.2-8.4-6.3-14.5-9.1-13.8c-2.8,0.7-3.3,8.1-1.1,16.5
								c2.2,8.4,6.3,14.5,9.1,13.8C213,664.2,213.5,656.8,211.3,648.5L211.3,648.5L211.3,648.5z"/>
							<path class="st37" d="M208.2,649.3c1.5,5.7,1.4,9.9,1,11.8c-1.3-1.5-3.5-5.1-5-10.8s-1.4-9.9-1-11.8
								C204.5,640,206.7,643.7,208.2,649.3"/>
						</g>
						<path class="st35" d="M134.1,617.8v3.2c0,0.4,0.1,0.7,0.3,1.1c-0.2,0.3-0.3,0.7-0.3,1.1v3.2c0,0.4,0.1,0.7,0.3,1.1
							c-0.2,0.3-0.3,0.7-0.3,1.1v3.2c0,0.4,0.1,0.7,0.3,1.1c-0.2,0.3-0.3,0.7-0.3,1.1v3.2c0,0.4,0.1,0.7,0.3,1.1
							c-0.2,0.3-0.3,0.7-0.3,1.1v3.2c0,0.4,0.1,0.7,0.3,1.1c-0.2,0.3-0.3,0.7-0.3,1.1v3.2c0,0.4,0.1,0.7,0.3,1.1
							c-0.2,0.3-0.3,0.7-0.3,1.1v3.2c0,2.8,6.8,5.2,15.2,5.2v-35.3C140.9,623,134.1,620.7,134.1,617.8L134.1,617.8z"/>
						<g>
							<path class="st34" d="M128.6,665.8c2.8,0.7,6.9-5.4,9.1-13.8c2.2-8.4,1.7-15.7-1.1-16.5l-3.1-0.8l-8,30.3L128.6,665.8
								L128.6,665.8z"/>
							<path class="st35" d="M129,651.7l-3.5,13.2l3.1,0.8c2.2,0.6,5.1-3,7.4-8.6C134.2,656.2,131.4,654.4,129,651.7L129,651.7z"/>
							<path class="st36" d="M125.5,665c2.8,0.7,6.9-5.4,9.1-13.8c2.2-8.4,1.7-15.7-1.1-16.5c-2.8-0.7-6.9,5.4-9.1,13.8
								S122.7,664.2,125.5,665L125.5,665z"/>
							<path class="st34" d="M125.9,665c2.8,0.2,6.6-5.8,8.7-13.8c2.1-8,1.8-15.2-0.8-16.4c-2.8-0.2-6.6,5.8-8.7,13.8
								C123,656.7,123.4,663.8,125.9,665z M126.6,663.6c-0.3-0.1-1.1-1.2-1.2-3.9c-0.2-2.9,0.3-6.7,1.3-10.6c1-3.9,2.5-7.4,4.1-9.8
								c1.5-2.3,2.7-2.9,3-2.8c0.3,0.1,1,1.2,1.2,3.9c0.2,2.9-0.3,6.7-1.3,10.6c-1,3.9-2.5,7.4-4.1,9.8
								C128.1,663.1,126.9,663.7,126.6,663.6L126.6,663.6z"/>
							<path class="st37" d="M126,648.9c1-3.9,2.5-7.4,4.1-9.8c1.5-2.3,2.7-2.9,3-2.8c0.3,0.1,1.1,1.2,1.2,3.9
								c0.2,2.9-0.3,6.7-1.3,10.6c-1,3.9-2.5,7.4-4.1,9.8c-1.5,2.3-2.7,2.9-3,2.8c-0.3-0.1-1.1-1.2-1.2-3.9
								C124.5,656.5,125,652.8,126,648.9 M124.4,648.5c-2.2,8.4-1.7,15.7,1.1,16.5s6.9-5.4,9.1-13.8c2.2-8.4,1.7-15.7-1.1-16.5
								C130.7,634,126.7,640.1,124.4,648.5L124.4,648.5L124.4,648.5z"/>
							<path class="st37" d="M127.6,649.3c1.5-5.7,3.6-9.3,5-10.8c0.4,2,0.5,6.2-1,11.8s-3.6,9.3-5,10.8
								C126.1,659.2,126,655,127.6,649.3"/>
						</g>
						<path class="st35" d="M136.1,615.3c-1.3,0.8-2,1.6-2,2.5c0,2.6,5.6,4.7,13,5.2l0,0c5.2-1.5,9.7-4.1,9.7-4.1L136.1,615.3
							L136.1,615.3z"/>
						<g>
							<path class="st34" d="M128.7,615.7c0,2.9,7,5.3,15.7,5.3s15.7-2.3,15.7-5.3v-3.2h-31.3V615.7z"/>
							<path class="st35" d="M128.7,615.7c0,1.6,2.1,3,5.4,4v-4.2l-2.5-3h-2.9V615.7L128.7,615.7z"/>
							<path class="st36" d="M128.7,612.5c0,2.9,7,5.2,15.7,5.2s15.7-2.3,15.7-5.2s-7-5.2-15.7-5.2S128.7,609.6,128.7,612.5z"/>
							<path class="st34" d="M128.7,612.8c0.5,2.7,7.3,4.9,15.6,4.9s15.1-2.2,15.6-4.9c-0.5-2.7-7.3-4.9-15.6-4.9
								S129.2,610.1,128.7,612.8z M130.3,613.2c0-0.3,0.9-1.3,3.5-2.2c2.8-0.9,6.6-1.5,10.6-1.5s7.8,0.5,10.6,1.5
								c2.6,0.9,3.5,1.9,3.5,2.2s-0.9,1.3-3.5,2.2c-2.8,0.9-6.6,1.5-10.6,1.5s-7.8-0.5-10.6-1.5
								C131.1,614.5,130.3,613.5,130.3,613.2z"/>
							<path class="st37" d="M144.3,608.9c4,0,7.8,0.5,10.6,1.5c2.6,0.9,3.5,1.9,3.5,2.2s-0.9,1.3-3.5,2.2
								c-2.8,0.9-6.6,1.5-10.6,1.5s-7.8-0.5-10.6-1.5c-2.6-0.9-3.5-1.9-3.5-2.2s0.9-1.3,3.5-2.2
								C136.6,609.4,140.3,608.9,144.3,608.9 M144.3,607.2c-8.6,0-15.7,2.3-15.7,5.2s7,5.2,15.7,5.2s15.7-2.3,15.7-5.2
								S153,607.2,144.3,607.2L144.3,607.2z"/>
						</g>
						<path class="st35" d="M128.7,612.5c0,2,3.2,3.7,8,4.6c11.9-1.6,17.1-5.5,17.1-5.5l-3.5-4c-1.8-0.2-3.8-0.4-5.9-0.4
							C135.7,607.2,128.7,609.6,128.7,612.5L128.7,612.5z"/>
						<g>
							<path class="st34" d="M124.7,608.9c0,2.9,7,5.3,15.7,5.3s15.7-2.3,15.7-5.3v-3.2h-31.3V608.9z"/>
							<path class="st35" d="M137.2,605.7h-12.4v3.2c0,2.5,5.3,4.6,12.4,5.1V605.7L137.2,605.7z"/>
							<path class="st36" d="M124.7,605.7c0,2.9,7,5.2,15.7,5.2s15.7-2.3,15.7-5.2s-7-5.2-15.7-5.2S124.7,602.8,124.7,605.7z"/>
							<path class="st34" d="M124.8,606c0.5,2.7,7.3,4.9,15.6,4.9s15.1-2.2,15.6-4.9c-0.5-2.7-7.3-4.9-15.6-4.9
								S125.3,603.2,124.8,606z M126.3,606.3c0-0.3,0.8-1.3,3.5-2.2c2.8-0.9,6.6-1.5,10.6-1.5s7.8,0.5,10.6,1.5
								c2.6,0.9,3.5,1.9,3.5,2.2s-0.9,1.3-3.5,2.2c-2.8,0.9-6.6,1.5-10.6,1.5s-7.8-0.5-10.6-1.5
								C127.2,607.6,126.3,606.7,126.3,606.3z"/>
							<path class="st37" d="M140.4,602c4,0,7.8,0.5,10.6,1.5c2.6,0.9,3.5,1.9,3.5,2.2s-0.9,1.3-3.5,2.2c-2.8,0.9-6.6,1.5-10.6,1.5
								s-7.8-0.5-10.6-1.5c-2.6-0.9-3.5-1.9-3.5-2.2s0.8-1.3,3.5-2.2C132.6,602.5,136.4,602,140.4,602 M140.4,600.4
								c-8.6,0-15.7,2.3-15.7,5.2s7,5.2,15.7,5.2s15.7-2.3,15.7-5.2S149,600.4,140.4,600.4L140.4,600.4z"/>
							<path class="st37" d="M140.4,603.6c5.9,0,9.9,1.1,11.7,2c-1.8,0.9-5.9,2-11.7,2s-9.9-1.1-11.7-2
								C130.5,604.7,134.5,603.6,140.4,603.6"/>
						</g>
					</g>
					<g>
						<polygon class="st13" points="333.4,600.9 283.9,603.9 255.4,603.9 271.3,588.1 318.3,588.1 						"/>
						<polygon class="st13" points="229.4,606.2 205.7,615.7 258.1,620.4 281.7,611 						"/>
						<g>
							<g>
								<polygon class="st38" points="227.4,584.4 227.4,590.5 279.7,595.2 303.3,585.8 303.3,579.7 								"/>
								<polygon class="st39" points="251,574.9 227.4,584.4 279.7,589.1 303.3,579.7 								"/>
								<path class="st40" d="M251,574.9l-23.6,9.5l52.4,4.7l23.6-9.5L251,574.9z M279.5,587.8l-46.5-4.2l18.2-7.3l46.5,4.2
									L279.5,587.8z"/>
								<path class="st38" d="M277.1,582c0,1.9-5.2,3.4-11.7,3.4s-11.7-1.5-11.7-3.4s5.2-3.4,11.7-3.4S277.1,580.2,277.1,582z"/>
								<g>
									<polygon class="st41" points="246.2,586.1 258.8,587.2 282.4,577.8 269.8,576.7 									"/>
									<g>
										<polygon class="st42" points="249.3,586.4 272.9,576.9 271,576.8 247.3,586.2 										"/>
										<polygon class="st42" points="281.1,577.7 279.1,577.5 255.5,586.9 257.4,587.1 										"/>
									</g>
								</g>
								<g>
									<polygon class="st43" points="246.2,586.1 246.2,592.2 258.8,593.4 258.8,587.2 									"/>
									<polygon class="st44" points="249.3,592.5 249.3,586.4 248.6,586.3 247.3,586.2 247.3,592.3 									"/>
									<polygon class="st44" points="255.5,593.1 257.4,593.2 257.4,587.1 255.5,586.9 									"/>
								</g>
							</g>
							<g>
								<polygon class="st38" points="227.4,577.8 227.4,583.9 279.7,588.6 303.3,579.2 303.3,573 								"/>
								<polygon class="st39" points="251,568.3 227.4,577.8 279.7,582.5 303.3,573 								"/>
								<path class="st40" d="M251,568.3l-23.6,9.5l52.4,4.7l23.6-9.5L251,568.3z M279.5,581.1l-46.5-4.2l18.2-7.3l46.5,4.2
									L279.5,581.1z"/>
								<path class="st38" d="M277.1,575.4c0,1.9-5.2,3.4-11.7,3.4s-11.7-1.5-11.7-3.4s5.2-3.4,11.7-3.4S277.1,573.5,277.1,575.4z"
									/>
								<g>
									<polygon class="st41" points="246.2,579.5 258.8,580.6 282.4,571.2 269.8,570 									"/>
									<g>
										<polygon class="st42" points="249.3,579.8 272.9,570.3 271,570.1 247.3,579.6 										"/>
										<polygon class="st42" points="281.1,571 279.1,570.9 255.5,580.3 257.4,580.5 										"/>
									</g>
								</g>
								<g>
									<polygon class="st43" points="246.2,579.5 246.2,585.6 258.8,586.7 258.8,580.6 									"/>
									<polygon class="st44" points="249.3,585.9 249.3,579.8 248.6,579.7 247.3,579.6 247.3,585.7 									"/>
									<polygon class="st44" points="255.5,586.4 257.4,586.6 257.4,580.5 255.5,580.3 									"/>
								</g>
							</g>
							<g>
								<polygon class="st38" points="227.4,571.1 227.4,577.3 279.7,582 303.3,572.5 303.3,566.4 								"/>
								<polygon class="st39" points="251,561.7 227.4,571.1 279.7,575.9 303.3,566.4 								"/>
								<path class="st40" d="M251,561.7l-23.6,9.5l52.4,4.7l23.6-9.5L251,561.7z M279.5,574.5l-46.5-4.2l18.2-7.3l46.5,4.2
									L279.5,574.5L279.5,574.5z"/>
								<path class="st38" d="M277.1,568.8c0,1.9-5.2,3.4-11.7,3.4s-11.7-1.5-11.7-3.4s5.2-3.4,11.7-3.4S277.1,566.9,277.1,568.8z"
									/>
								<g>
									<polygon class="st41" points="246.2,572.8 258.8,574 282.4,564.5 269.8,563.4 									"/>
									<g>
										<polygon class="st42" points="249.3,573.1 272.9,563.7 271,563.5 247.3,573 										"/>
										<polygon class="st42" points="281.1,564.4 279.1,564.2 255.5,573.7 257.4,573.9 										"/>
									</g>
								</g>
								<g>
									<polygon class="st43" points="246.2,572.8 246.2,579 258.8,580.1 258.8,574 									"/>
									<polygon class="st44" points="249.3,579.2 249.3,573.1 248.6,573.1 247.3,573 247.3,579.1 									"/>
									<polygon class="st44" points="255.5,579.8 257.4,580 257.4,573.9 255.5,573.7 									"/>
								</g>
							</g>
							<g>
								<polygon class="st38" points="227.4,564.5 227.4,570.6 279.7,575.4 303.3,565.9 303.3,559.8 								"/>
								<polygon class="st39" points="251,555.1 227.4,564.5 279.7,569.2 303.3,559.8 								"/>
								<path class="st40" d="M251,555.1l-23.6,9.5l52.4,4.7l23.6-9.5L251,555.1L251,555.1z M279.5,567.9l-46.5-4.2l18.2-7.3
									l46.5,4.2L279.5,567.9L279.5,567.9z"/>
								<path class="st38" d="M277.1,562.2c0,1.9-5.2,3.4-11.7,3.4s-11.7-1.5-11.7-3.4s5.2-3.4,11.7-3.4S277.1,560.3,277.1,562.2z"
									/>
								<g>
									<polygon class="st41" points="246.2,566.2 258.8,567.4 282.4,557.9 269.8,556.8 									"/>
									<g>
										<polygon class="st42" points="249.3,566.5 272.9,557 271,556.9 247.3,566.3 										"/>
										<polygon class="st42" points="281.1,557.8 279.1,557.6 255.5,567.1 257.4,567.2 										"/>
									</g>
								</g>
								<g>
									<polygon class="st43" points="246.2,566.2 246.2,572.3 258.8,573.5 258.8,567.4 									"/>
									<polygon class="st44" points="249.3,572.6 249.3,566.5 248.6,566.4 247.3,566.3 247.3,572.5 									"/>
									<polygon class="st44" points="255.5,573.2 257.4,573.4 257.4,567.2 255.5,567.1 									"/>
								</g>
							</g>
							<g>
								<polygon class="st38" points="227.4,557.9 227.4,564 279.7,568.7 303.3,559.3 303.3,553.2 								"/>
								<polygon class="st39" points="251,548.4 227.4,557.9 279.7,562.6 303.3,553.2 								"/>
								<path class="st40" d="M251,548.4l-23.6,9.5l52.4,4.7l23.6-9.5L251,548.4z M279.5,561.3l-46.5-4.2l18.2-7.3l46.5,4.2
									L279.5,561.3z"/>
								<path class="st38" d="M277.1,555.5c0,1.9-5.2,3.4-11.7,3.4s-11.7-1.5-11.7-3.4s5.2-3.4,11.7-3.4S277.1,553.6,277.1,555.5z"
									/>
								<g>
									<polygon class="st41" points="246.2,559.6 258.8,560.7 282.4,551.3 269.8,550.1 									"/>
									<g>
										<polygon class="st42" points="249.3,559.9 272.9,550.4 271,550.2 247.3,559.7 										"/>
										<polygon class="st42" points="281.1,551.2 279.1,551 255.5,560.4 257.4,560.6 										"/>
									</g>
								</g>
								<g>
									<polygon class="st43" points="246.2,559.6 246.2,565.7 258.8,566.9 258.8,560.7 									"/>
									<polygon class="st44" points="249.3,566 249.3,559.9 248.6,559.8 247.3,559.7 247.3,565.8 									"/>
									<polygon class="st44" points="255.5,566.6 257.4,566.7 257.4,560.6 255.5,560.4 									"/>
								</g>
							</g>
							<g>
								<polygon class="st38" points="227.4,551.3 227.4,557.4 279.7,562.1 303.3,552.7 303.3,546.5 								"/>
								<polygon class="st39" points="251,541.8 227.4,551.3 279.7,556 303.3,546.5 								"/>
								<path class="st40" d="M251,541.8l-23.6,9.5l52.4,4.7l23.6-9.5L251,541.8z M279.5,554.6l-46.5-4.2l18.2-7.3l46.5,4.2
									L279.5,554.6z"/>
								<path class="st38" d="M277.1,548.9c0,1.9-5.2,3.4-11.7,3.4s-11.7-1.5-11.7-3.4s5.2-3.4,11.7-3.4S277.1,547,277.1,548.9z"/>
								<g>
									<polygon class="st41" points="246.2,553 258.8,554.1 282.4,544.7 269.8,543.5 									"/>
									<g>
										<polygon class="st42" points="249.3,553.2 272.9,543.8 271,543.6 247.3,553.1 										"/>
										<polygon class="st42" points="281.1,544.5 279.1,544.3 255.5,553.8 257.4,554 										"/>
									</g>
								</g>
								<g>
									<polygon class="st43" points="246.2,553 246.2,559.1 258.8,560.2 258.8,554.1 									"/>
									<polygon class="st44" points="249.3,559.4 249.3,553.2 248.6,553.2 247.3,553.1 247.3,559.2 									"/>
									<polygon class="st44" points="255.5,559.9 257.4,560.1 257.4,554 255.5,553.8 									"/>
								</g>
							</g>
							<polygon class="st45" points="279.7,556 279.7,595.2 227.4,590.5 227.4,551.3 							"/>
							<polygon class="st45" points="279.7,556 227.4,551.3 227.4,590.5 243.7,592 							"/>
						</g>
						<g>
							<g>
								<polygon class="st38" points="281.1,590 281.1,596.1 333.4,600.9 357,591.4 357,585.3 								"/>
								<polygon class="st39" points="304.7,580.5 281.1,590 333.4,594.7 357,585.3 								"/>
								<path class="st40" d="M304.7,580.5l-23.6,9.5l52.4,4.7l23.6-9.5L304.7,580.5z M333.2,593.4l-46.5-4.2l18.2-7.3l46.5,4.2
									L333.2,593.4L333.2,593.4z"/>
								<path class="st38" d="M330.8,587.6c0,1.9-5.2,3.4-11.7,3.4s-11.7-1.5-11.7-3.4s5.2-3.4,11.7-3.4S330.8,585.8,330.8,587.6z"
									/>
								<g>
									<polygon class="st41" points="299.9,591.7 312.5,592.8 336.1,583.4 323.5,582.3 									"/>
									<g>
										<polygon class="st42" points="303,592 326.6,582.5 324.6,582.4 301,591.8 										"/>
										<polygon class="st42" points="334.8,583.3 332.8,583.1 309.2,592.6 311.1,592.7 										"/>
									</g>
								</g>
								<g>
									<polygon class="st43" points="299.9,591.7 299.9,597.8 312.5,599 312.5,592.9 									"/>
									<polygon class="st44" points="303,598.1 303,592 302.3,591.9 301,591.8 301,597.9 									"/>
									<polygon class="st44" points="309.2,598.7 311.1,598.9 311.1,592.7 309.2,592.6 									"/>
								</g>
							</g>
							<g>
								<polygon class="st38" points="281.1,583.4 281.1,589.5 333.4,594.2 357,584.8 357,578.7 								"/>
								<polygon class="st39" points="304.7,573.9 281.1,583.4 333.4,588.1 357,578.7 								"/>
								<path class="st40" d="M304.7,573.9l-23.6,9.5l52.4,4.7l23.6-9.5L304.7,573.9z M333.2,586.8l-46.5-4.2l18.2-7.3l46.5,4.2
									L333.2,586.8z"/>
								<path class="st38" d="M330.8,581c0,1.9-5.2,3.4-11.7,3.4s-11.7-1.5-11.7-3.4s5.2-3.4,11.7-3.4S330.8,579.1,330.8,581z"/>
								<g>
									<polygon class="st41" points="299.9,585.1 312.5,586.2 336.1,576.8 323.5,575.6 									"/>
									<g>
										<polygon class="st42" points="303,585.4 326.6,575.9 324.6,575.7 301,585.2 										"/>
										<polygon class="st42" points="334.8,576.7 332.8,576.5 309.2,585.9 311.1,586.1 										"/>
									</g>
								</g>
								<g>
									<polygon class="st43" points="299.9,585.1 299.9,591.2 312.5,592.3 312.5,586.2 									"/>
									<polygon class="st44" points="303,591.5 303,585.4 302.3,585.3 301,585.2 301,591.3 									"/>
									<polygon class="st44" points="309.2,592 311.1,592.2 311.1,586.1 309.2,585.9 									"/>
								</g>
							</g>
							<g>
								<polygon class="st38" points="281.1,576.8 281.1,582.9 333.4,587.6 357,578.2 357,572 								"/>
								<polygon class="st39" points="304.7,567.3 281.1,576.8 333.4,581.5 357,572 								"/>
								<path class="st40" d="M304.7,567.3l-23.6,9.5l52.4,4.7l23.6-9.5L304.7,567.3z M333.2,580.1l-46.5-4.2l18.2-7.3l46.5,4.2
									L333.2,580.1L333.2,580.1z"/>
								<path class="st38" d="M330.8,574.4c0,1.9-5.2,3.4-11.7,3.4s-11.7-1.5-11.7-3.4s5.2-3.4,11.7-3.4S330.8,572.5,330.8,574.4z"
									/>
								<g>
									<polygon class="st41" points="299.9,578.5 312.5,579.6 336.1,570.2 323.5,569 									"/>
									<g>
										<polygon class="st42" points="303,578.7 326.6,569.3 324.6,569.1 301,578.6 										"/>
										<polygon class="st42" points="334.8,570 332.8,569.8 309.2,579.3 311.1,579.5 										"/>
									</g>
								</g>
								<g>
									<polygon class="st43" points="299.9,578.5 299.9,584.6 312.5,585.7 312.5,579.6 									"/>
									<polygon class="st44" points="303,584.9 303,578.7 302.3,578.7 301,578.6 301,584.7 									"/>
									<polygon class="st44" points="309.2,585.4 311.1,585.6 311.1,579.5 309.2,579.3 									"/>
								</g>
							</g>
							<polygon class="st45" points="281.1,576.8 281.1,582.9 282.1,583 281.1,583.4 281.1,589.5 282.1,589.6 281.1,590 
								281.1,596.1 299.9,597.8 299.9,597.8 312.5,599 312.5,599 333.4,600.9 333.4,581.5 							"/>
							<polygon class="st45" points="281.1,576.8 281.1,582.9 282.1,583 281.1,583.4 281.1,589.5 282.1,589.6 281.1,590 
								281.1,596.1 299.9,597.8 312.5,599 315.6,599.2 333.4,581.5 							"/>
						</g>
						<g>
							<g>
								<polygon class="st38" points="217.5,604.9 217.5,611 269.8,615.7 293.4,606.3 293.4,600.1 								"/>
								<polygon class="st39" points="241.1,595.4 217.5,604.9 269.8,609.6 293.4,600.1 								"/>
								<path class="st40" d="M241.1,595.4l-23.6,9.5l52.4,4.7l23.6-9.5L241.1,595.4z M269.6,608.2l-46.5-4.2l18.2-7.3l46.5,4.2
									L269.6,608.2z"/>
								<path class="st38" d="M267.2,602.5c0,1.9-5.2,3.4-11.7,3.4s-11.7-1.5-11.7-3.4s5.2-3.4,11.7-3.4S267.2,600.6,267.2,602.5z"
									/>
								<g>
									<polygon class="st41" points="236.3,606.6 248.9,607.7 272.5,598.3 259.9,597.1 									"/>
									<g>
										<polygon class="st42" points="239.4,606.8 263,597.4 261,597.2 237.4,606.7 										"/>
										<polygon class="st42" points="271.2,598.1 269.2,598 245.6,607.4 247.5,607.6 										"/>
									</g>
								</g>
								<g>
									<polygon class="st43" points="236.3,606.6 236.3,612.7 248.9,613.8 248.9,607.7 									"/>
									<polygon class="st44" points="239.4,613 239.4,606.8 238.7,606.8 237.4,606.7 237.4,612.8 									"/>
									<polygon class="st44" points="245.6,613.5 247.5,613.7 247.5,607.6 245.6,607.4 									"/>
								</g>
							</g>
							<g>
								<polygon class="st38" points="217.5,598.2 217.5,604.4 269.8,609.1 293.4,599.6 293.4,593.5 								"/>
								<polygon class="st39" points="241.1,588.8 217.5,598.2 269.8,603 293.4,593.5 								"/>
								<path class="st40" d="M241.1,588.8l-23.6,9.5l52.4,4.7l23.6-9.5L241.1,588.8z M269.6,601.6l-46.5-4.2l18.2-7.3l46.5,4.2
									L269.6,601.6L269.6,601.6z"/>
								<path class="st38" d="M267.2,595.9c0,1.9-5.2,3.4-11.7,3.4s-11.7-1.5-11.7-3.4s5.2-3.4,11.7-3.4S267.2,594,267.2,595.9z"/>
								<g>
									<polygon class="st41" points="236.3,600 248.9,601.1 272.5,591.6 259.9,590.5 									"/>
									<g>
										<polygon class="st42" points="239.4,600.2 263,590.8 261,590.6 237.4,600 										"/>
										<polygon class="st42" points="271.2,591.5 269.2,591.3 245.6,600.8 247.5,601 										"/>
									</g>
								</g>
								<g>
									<polygon class="st43" points="236.3,600 236.3,606.1 248.9,607.2 248.9,601.1 									"/>
									<polygon class="st44" points="239.4,606.3 239.4,600.2 238.7,600.2 237.4,600 237.4,606.2 									"/>
									<polygon class="st44" points="245.6,606.9 247.5,607.1 247.5,601 245.6,600.8 									"/>
								</g>
							</g>
							<g>
								<polygon class="st38" points="217.5,591.6 217.5,597.7 269.8,602.5 293.4,593 293.4,586.9 								"/>
								<polygon class="st39" points="241.1,582.2 217.5,591.6 269.8,596.3 293.4,586.9 								"/>
								<path class="st40" d="M241.1,582.2l-23.6,9.5l52.4,4.7l23.6-9.5L241.1,582.2L241.1,582.2z M269.6,595l-46.5-4.2l18.2-7.3
									l46.5,4.2L269.6,595z"/>
								<path class="st38" d="M267.2,589.2c0,1.9-5.2,3.4-11.7,3.4s-11.7-1.5-11.7-3.4s5.2-3.4,11.7-3.4S267.2,587.4,267.2,589.2z"
									/>
								<g>
									<polygon class="st41" points="236.3,593.3 248.9,594.5 272.5,585 259.9,583.9 									"/>
									<g>
										<polygon class="st42" points="239.4,593.6 263,584.1 261,584 237.4,593.4 										"/>
										<polygon class="st42" points="271.2,584.9 269.2,584.7 245.6,594.2 247.5,594.3 										"/>
									</g>
								</g>
								<g>
									<polygon class="st43" points="236.3,593.3 236.3,599.5 248.9,600.6 248.9,594.5 									"/>
									<polygon class="st44" points="239.4,599.7 239.4,593.6 238.7,593.5 237.4,593.4 237.4,599.5 									"/>
									<polygon class="st44" points="245.6,600.3 247.5,600.5 247.5,594.3 245.6,594.2 									"/>
								</g>
							</g>
							<g>
								<polygon class="st38" points="217.5,585 217.5,591.1 269.8,595.8 293.4,586.4 293.4,580.3 								"/>
								<polygon class="st39" points="241.1,575.5 217.5,585 269.8,589.7 293.4,580.3 								"/>
								<path class="st40" d="M241.1,575.5l-23.6,9.5l52.4,4.7l23.6-9.5L241.1,575.5z M269.6,588.4l-46.5-4.2l18.2-7.3l46.5,4.2
									L269.6,588.4L269.6,588.4z"/>
								<path class="st38" d="M267.2,582.6c0,1.9-5.2,3.4-11.7,3.4s-11.7-1.5-11.7-3.4s5.2-3.4,11.7-3.4S267.2,580.7,267.2,582.6z"
									/>
								<g>
									<polygon class="st41" points="236.3,586.7 248.9,587.8 272.5,578.4 259.9,577.2 									"/>
									<g>
										<polygon class="st42" points="239.4,587 263,577.5 261,577.3 237.4,586.8 										"/>
										<polygon class="st42" points="271.2,578.2 269.2,578.1 245.6,587.5 247.5,587.7 										"/>
									</g>
								</g>
								<g>
									<polygon class="st43" points="236.3,586.7 236.3,592.8 248.9,594 248.9,587.8 									"/>
									<polygon class="st44" points="239.4,593.1 239.4,587 238.7,586.9 237.4,586.8 237.4,592.9 									"/>
									<polygon class="st44" points="245.6,593.7 247.5,593.8 247.5,587.7 245.6,587.5 									"/>
								</g>
							</g>
							<polygon class="st45" points="217.5,585 217.5,591.1 218.5,591.2 217.5,591.6 217.5,597.7 218.5,597.8 217.5,598.2 
								217.5,604.4 218.5,604.5 217.5,604.9 217.5,611 236.3,612.7 236.3,612.7 248.9,613.8 248.9,613.8 269.8,615.7 269.8,589.7 
															"/>
						</g>
						<polygon class="st45" points="217.5,585 217.5,591.1 218.5,591.2 217.5,591.6 217.5,597.7 218.5,597.8 217.5,598.2 
							217.5,604.4 218.5,604.5 217.5,604.9 217.5,611 236.3,612.7 246,613.6 269.8,589.7 						"/>
					</g>
					<g>
						<path class="st46" d="M446.1,528.3c0,25.5-21.5,34.9-48,34.9s-48-9.4-48-34.9s21.5-46.2,48-46.2S446.1,502.8,446.1,528.3z"/>
						
							<linearGradient id="SVGID_00000059277866386352279320000003944767452164697488_" gradientUnits="userSpaceOnUse" x1="352.96" y1="493.8351" x2="446.14" y2="493.8351" gradientTransform="matrix(1 0 0 -1 0 1024)">
							<stop  offset="0" style="stop-color:#000000"/>
							<stop  offset="1" style="stop-color:#FFFFFF"/>
						</linearGradient>
						
							<path style="opacity:0.2;fill:url(#SVGID_00000059277866386352279320000003944767452164697488_);enable-background:new    ;" d="
							M433.6,497.1c3.6,6.5,5.7,14,5.7,21.8c0,25.5-21.5,34.9-48,34.9c-15.6,0-29.5-3.3-38.3-11.2c6.7,14.7,24.4,20.5,45.1,20.5
							c26.5,0,48-9.4,48-34.9C446.1,516.3,441.4,505.3,433.6,497.1L433.6,497.1z"/>
						
							<linearGradient id="SVGID_00000034065927038653957490000003192146859299531910_" gradientUnits="userSpaceOnUse" x1="361.13" y1="533.3066" x2="422.65" y2="533.3066" gradientTransform="matrix(1 0 0 -1 0 1024)">
							<stop  offset="0" style="stop-color:#000000"/>
							<stop  offset="1" style="stop-color:#FFFFFF"/>
						</linearGradient>
						
							<path style="opacity:0.2;fill:url(#SVGID_00000034065927038653957490000003192146859299531910_);enable-background:new    ;" d="
							M361.1,498.8c49.2,2.9,59.4-6.2,61.5-10.2c-7.2-4.1-15.6-6.5-24.5-6.5C383.2,482.1,369.9,488.6,361.1,498.8L361.1,498.8z"/>
						<path class="st46" d="M376.3,488.3c0,0,18.9,6.5,43.5,0c0,0-7.4-14,3.4-28.8c0,0-26-0.1-50.8,0.3
							C372.4,459.9,382.3,475.4,376.3,488.3L376.3,488.3z"/>
						
							<linearGradient id="SVGID_00000168111713527011640760000004095713729794284714_" gradientUnits="userSpaceOnUse" x1="390.4259" y1="532.99" x2="390.4259" y2="564.42" gradientTransform="matrix(1 0 0 -1 0 1024)">
							<stop  offset="0" style="stop-color:#000000"/>
							<stop  offset="1" style="stop-color:#FFFFFF"/>
						</linearGradient>
						
							<path style="opacity:0.2;fill:url(#SVGID_00000168111713527011640760000004095713729794284714_);enable-background:new    ;" d="
							M385.4,461.4c0,0,7.2,15.4,6.5,29.6l0,0c0,0,4.8-14.4,3.2-31.4c-1,0-1.9,0-2.9,0L385.4,461.4L385.4,461.4z"/>
						
							<linearGradient id="SVGID_00000056422290471416062650000006857807424187446962_" gradientUnits="userSpaceOnUse" x1="404.8668" y1="534.86" x2="404.8668" y2="564.48" gradientTransform="matrix(1 0 0 -1 0 1024)">
							<stop  offset="0" style="stop-color:#000000"/>
							<stop  offset="1" style="stop-color:#FFFFFF"/>
						</linearGradient>
						
							<path style="opacity:0.2;fill:url(#SVGID_00000056422290471416062650000006857807424187446962_);enable-background:new    ;" d="
							M408.2,459.5c-2.2,0-4.5,0-7,0c1,5.2,3.5,20,1.9,29.6C403.1,489.1,410.1,483,408.2,459.5L408.2,459.5z"/>
						
							<linearGradient id="SVGID_00000092456373416990359980000005094228570991649203_" gradientUnits="userSpaceOnUse" x1="376.4189" y1="535.61" x2="376.4189" y2="564.25" gradientTransform="matrix(1 0 0 -1 0 1024)">
							<stop  offset="0" style="stop-color:#000000"/>
							<stop  offset="1" style="stop-color:#FFFFFF"/>
						</linearGradient>
						
							<path style="opacity:0.2;fill:url(#SVGID_00000092456373416990359980000005094228570991649203_);enable-background:new    ;" d="
							M376.3,488.3c0,0,0.1,0,0.2,0.1c5.9-8.6,3.6-23.2,2.5-28.6c-2.2,0-4.4,0.1-6.6,0.1C372.4,459.9,382.3,475.4,376.3,488.3
							L376.3,488.3z"/>
						
							<linearGradient id="SVGID_00000166646742569608088170000015097977955609524610_" gradientUnits="userSpaceOnUse" x1="418.2579" y1="538.52" x2="418.2579" y2="564.49" gradientTransform="matrix(1 0 0 -1 0 1024)">
							<stop  offset="0" style="stop-color:#000000"/>
							<stop  offset="1" style="stop-color:#FFFFFF"/>
						</linearGradient>
						
							<path style="opacity:0.2;fill:url(#SVGID_00000166646742569608088170000015097977955609524610_);enable-background:new    ;" d="
							M415.2,459.5c-1.9,5.8-3.4,15.1,1,26l2.1-1.6c-1.4-5.3-2.1-14.7,5-24.3C423.2,459.5,420.2,459.5,415.2,459.5L415.2,459.5z"/>
						<path class="st14" d="M403.6,454.6c-2,0-4.2,3.7-6.4,3.7s-4.3-2.7-6.4-2.7c0,0-0.1,0-0.1,0c-2.3,0.1-4.2,3-6.2,3.2
							c-0.1,0-0.3,0-0.5,0c-2,0-4-1.1-5.6-1.1c-0.2,0-0.3,0-0.5,0c-3.6,0.6-5.7,1.3-5.7,2s1.9,2.4,5.6,2.9c1.8,0.2,4,0.1,6.4,0.2
							c0,0,0.1,0,0.1,0c1.9,0,4.1-2.6,6.3-2.6c0,0,0,0,0.1,0c2,0,4.1,2.7,6.3,2.7s4.3-1.7,6.4-1.8c0.3,0,0.6,0,0.9,0
							c1.4,0,2.8,0.1,4.1,0.1c0.5,0,0.9,0,1.4,0c0.1,0,0.2,0,0.2,0c2.2,0,4.4,2,6.1,2c0.1,0,0.2,0,0.3,0c3.7-0.5,6.6-2.9,6.6-3.7
							s-3-3.2-6.6-3.8c-0.2,0-0.3,0-0.5,0c-1.6,0-3.6,1-5.7,1c-0.1,0-0.3,0-0.4,0C408,456.4,405.9,454.7,403.6,454.6
							C403.6,454.6,403.6,454.6,403.6,454.6L403.6,454.6L403.6,454.6z"/>
						
							<linearGradient id="SVGID_00000100345461970554190490000017981079087370656412_" gradientUnits="userSpaceOnUse" x1="372.38" y1="565.14" x2="423.22" y2="565.14" gradientTransform="matrix(1 0 0 -1 0 1024)">
							<stop  offset="0" style="stop-color:#000000"/>
							<stop  offset="1" style="stop-color:#FFFFFF"/>
						</linearGradient>
						
							<path style="opacity:0.3;fill:url(#SVGID_00000100345461970554190490000017981079087370656412_);enable-background:new    ;" d="
							M403.6,454.6c-2,0-4.2,3.7-6.4,3.7s-4.3-2.7-6.4-2.7c0,0-0.1,0-0.1,0c-2.3,0.1-4.2,3-6.2,3.2c-0.1,0-0.3,0-0.5,0
							c-2,0-4-1.1-5.6-1.1c-0.2,0-0.3,0-0.5,0c-3.6,0.6-5.7,1.3-5.7,2s1.9,2.4,5.6,2.9c1.8,0.2,4,0.1,6.4,0.2c0,0,0.1,0,0.1,0
							c1.9,0,4.1-2.6,6.3-2.6c0,0,0,0,0.1,0c2,0,4.1,2.7,6.3,2.7s4.3-1.7,6.4-1.8c0.3,0,0.6,0,0.9,0c1.4,0,2.8,0.1,4.1,0.1
							c0.5,0,0.9,0,1.4,0c0.1,0,0.2,0,0.2,0c2.2,0,4.4,2,6.1,2c0.1,0,0.2,0,0.3,0c3.7-0.5,6.6-2.9,6.6-3.7s-3-3.2-6.6-3.8
							c-0.2,0-0.3,0-0.5,0c-1.6,0-3.6,1-5.7,1c-0.1,0-0.3,0-0.4,0C408,456.4,405.9,454.7,403.6,454.6
							C403.6,454.6,403.6,454.6,403.6,454.6L403.6,454.6L403.6,454.6z"/>
						<path class="st22" d="M397.3,492c-12.4,0-20.4-3.3-20.9-3.5c-1.1-0.5-1.6-1.7-1.1-2.8s1.7-1.6,2.8-1.1
							c0.2,0.1,17.1,7,40.2-0.1c1.1-0.3,2.3,0.3,2.6,1.4c0.3,1.1-0.3,2.3-1.4,2.6C411.2,491.2,403.7,492,397.3,492L397.3,492z"/>
						<path class="st23" d="M397.3,488.3c-12.4,0-20.4-3.3-20.9-3.5c-1.1-0.5-1.6-1.7-1.1-2.8s1.7-1.6,2.8-1.1
							c0.2,0.1,17.1,7,40.2-0.1c1.1-0.3,2.3,0.3,2.6,1.4c0.3,1.1-0.3,2.3-1.4,2.6C411.2,487.5,403.7,488.3,397.3,488.3L397.3,488.3z
							"/>
						<path class="st46" d="M379.9,492.7c-0.6,0-1.2-0.5-1.2-1.1c-0.8-5.9,2.3-12.2,2.5-12.4c0.3-0.6,1.1-0.9,1.7-0.6
							c0.6,0.3,0.9,1.1,0.6,1.7c0,0.1-2.9,5.9-2.2,11c0.1,0.7-0.4,1.3-1.1,1.4C380,492.7,379.9,492.7,379.9,492.7L379.9,492.7z"/>
						<path class="st46" d="M416.8,492.7c0,0-0.1,0-0.1,0c-0.7-0.1-1.2-0.7-1.1-1.4c0.7-6.7-2.7-10.7-2.7-10.8
							c-0.5-0.5-0.4-1.3,0.2-1.8s1.3-0.4,1.8,0.1c0.2,0.2,4,4.9,3.3,12.6C418,492.2,417.5,492.7,416.8,492.7L416.8,492.7z"/>
						<path class="st46" d="M408.4,495.3c-0.1,0-0.3,0-0.5-0.1c-0.6-0.2-1-1-0.7-1.6c2.1-5.3-1.3-12.1-1.4-12.2
							c-0.3-0.6-0.1-1.4,0.6-1.7s1.4-0.1,1.7,0.6c0.2,0.3,3.9,7.9,1.5,14.2C409.4,495,408.9,495.3,408.4,495.3L408.4,495.3z"/>
						<path class="st46" d="M388.6,495.3c-0.5,0-1-0.3-1.2-0.8c-2.5-6.3,1.3-13.9,1.5-14.2c0.3-0.6,1.1-0.9,1.7-0.6s0.9,1.1,0.6,1.7
							c0,0.1-3.4,6.9-1.4,12.2c0.2,0.6-0.1,1.4-0.7,1.6C388.9,495.2,388.7,495.3,388.6,495.3L388.6,495.3z"/>
						<path class="st46" d="M398.1,496c-0.7,0-1.3-0.6-1.3-1.3v-12.6c0-0.7,0.6-1.3,1.3-1.3s1.3,0.6,1.3,1.3v12.6
							C399.4,495.4,398.8,496,398.1,496z"/>
						<path class="st22" d="M429,513.3c-0.9,0-1.6-0.7-1.7-1.6c-0.8-17-13.7-21.7-13.9-21.8c-0.9-0.3-1.3-1.3-1-2.1s1.3-1.3,2.1-1
							c0.6,0.2,15.2,5.5,16.1,24.8C430.8,512.5,430,513.3,429,513.3C429.1,513.3,429.1,513.3,429,513.3L429,513.3z"/>
						<path class="st22" d="M418.9,510.4C418.9,510.4,418.9,510.4,418.9,510.4c-1,0-1.7-0.8-1.7-1.8c0.6-12.2-5.8-19-5.9-19
							c-0.6-0.7-0.6-1.7,0-2.4c0.7-0.6,1.7-0.6,2.4,0c0.3,0.3,7.5,7.8,6.8,21.5C420.6,509.7,419.8,510.4,418.9,510.4L418.9,510.4z"
							/>
						<path class="st24" d="M403.6,455.8L403.6,455.8c1,0,2,0.5,3.1,0.9c1,0.5,2.1,0.9,3.2,1c0.2,0,0.4,0,0.5,0
							c1.2,0,2.4-0.3,3.5-0.6c0.8-0.2,1.6-0.4,2.2-0.4c0.1,0,0.2,0,0.3,0c2.6,0.4,4.8,1.9,5.5,2.6c-0.7,0.7-2.9,2.2-5.5,2.6
							c0,0-0.1,0-0.1,0c-0.5,0-1.4-0.4-2.2-0.8c-1.2-0.6-2.5-1.2-4-1.2c-0.1,0-0.2,0-0.3,0c-0.4,0-0.8,0-1.3,0c-0.6,0-1.2,0-1.9,0
							c-0.7,0-1.4,0-2.2,0c-0.3,0-0.6,0-0.9,0c-1.2,0-2.3,0.5-3.4,1c-1,0.4-2,0.8-2.9,0.8c-0.8,0-1.7-0.6-2.7-1.2
							c-1.1-0.7-2.3-1.5-3.6-1.5h-0.1c-1.5,0-2.8,0.8-4,1.6c-0.8,0.5-1.7,1.1-2.3,1.1c0,0,0,0,0,0c-1.1-0.1-2.1-0.1-3.1-0.1
							c-1.2,0-2.3,0-3.2-0.1c-2.3-0.3-3.6-1-4.3-1.5c0.6-0.2,1.8-0.6,4.4-1.1c0.1,0,0.2,0,0.3,0c0.6,0,1.3,0.2,2.1,0.5
							c1,0.3,2.2,0.6,3.4,0.6c0.2,0,0.4,0,0.6,0c1.3-0.1,2.4-0.9,3.4-1.7c0.9-0.7,1.9-1.4,2.7-1.4h0c0.6,0,1.5,0.6,2.4,1.1
							c1.2,0.7,2.5,1.6,3.9,1.6c1.5,0,2.8-1.1,4.1-2.2C402.1,456.6,403.1,455.8,403.6,455.8 M403.6,454.6c-2,0-4.2,3.7-6.4,3.7
							s-4.3-2.7-6.4-2.7c0,0-0.1,0-0.1,0c-2.3,0.1-4.2,3-6.2,3.2c-0.1,0-0.3,0-0.5,0c-2,0-4-1.1-5.6-1.1c-0.2,0-0.3,0-0.5,0
							c-3.6,0.6-5.7,1.3-5.7,2s1.9,2.4,5.6,2.9c1.8,0.2,4,0.1,6.4,0.2c0,0,0.1,0,0.1,0c1.9,0,4.1-2.6,6.3-2.6c0,0,0,0,0.1,0
							c2,0,4.1,2.7,6.3,2.7s4.3-1.7,6.4-1.8c0.3,0,0.6,0,0.9,0c1.4,0,2.8,0.1,4.1,0.1c0.5,0,0.9,0,1.4,0c0.1,0,0.2,0,0.2,0
							c2.2,0,4.4,2,6.1,2c0.1,0,0.2,0,0.3,0c3.7-0.5,6.6-2.9,6.6-3.7s-3-3.2-6.6-3.8c-0.2,0-0.3,0-0.5,0c-1.6,0-3.6,1-5.7,1
							c-0.1,0-0.3,0-0.4,0C408,456.4,405.9,454.7,403.6,454.6C403.7,454.6,403.6,454.6,403.6,454.6L403.6,454.6L403.6,454.6z"/>
						<path class="st25" d="M423.9,525.4c0,11.8-11,21.4-24.5,21.4s-24.5-9.6-24.5-21.4s11-21.4,24.5-21.4S423.9,513.6,423.9,525.4z
							"/>
						<path class="st46" d="M402.1,521.4c-0.3,0-0.5-0.2-0.5-0.5v-2.5c0-0.8-0.4-1.3-1.3-1.3h-1.6c-0.8,0-1.3,0.5-1.3,1.3v4.5
							l7.7,2.5c0.5,0.2,0.8,0.6,0.8,1.2v7.5c0,3-1.5,4.6-4.4,4.7v1.9c0,0.3-0.2,0.5-0.5,0.5H398c-0.4,0-0.5-0.2-0.5-0.5v-1.9
							c-2.8-0.1-4.4-1.7-4.4-4.7v-3.4c0-0.4,0.2-0.5,0.5-0.5h3.4c0.4,0,0.5,0.2,0.5,0.5v2.5c0,0.9,0.5,1.3,1.3,1.3h1.6
							c0.9,0,1.3-0.4,1.3-1.3v-4.3l-7.7-2.5c-0.6-0.2-0.9-0.6-0.9-1.2v-7.7c0-3,1.6-4.6,4.4-4.7v-1.9c0-0.3,0.2-0.5,0.5-0.5h3.1
							c0.3,0,0.5,0.2,0.5,0.5v1.9c2.9,0.1,4.4,1.7,4.4,4.7v3.4c0,0.3-0.2,0.5-0.5,0.5H402.1z"/>
					</g>
				</g>
				<g>
					<polygon class="st3" points="359.4,480.7 360.3,482.4 362,483.4 360.3,484.3 359.4,486 358.5,484.3 356.8,483.4 358.5,482.4 
											"/>
					<polygon class="st3" points="219.3,631.1 220.2,632.8 221.9,633.8 220.2,634.7 219.3,636.4 218.3,634.7 216.6,633.8 
						218.3,632.8 					"/>
					<polygon class="st3" points="238.4,533.8 239.6,535.9 241.7,537.1 239.6,538.3 238.4,540.4 237.2,538.3 235.1,537.1 
						237.2,535.9 					"/>
					<polygon class="st3" points="110.3,629.5 111.5,631.6 113.6,632.8 111.5,633.9 110.3,636.1 109.2,633.9 107,632.8 109.2,631.6 
											"/>
					<polygon class="st3" points="317.2,552 318.2,554 320.2,555.1 318.2,556.1 317.2,558.1 316.1,556.1 314.2,555.1 316.1,554 
											"/>
					<polygon class="st3" points="191.2,606.9 192.2,608.8 194.2,609.9 192.2,611 191.2,612.9 190.1,611 188.2,609.9 190.1,608.8 
											"/>
					<polygon class="st3" points="127.2,588.8 128.2,590.8 130.2,591.8 128.2,592.9 127.2,594.8 126.1,592.9 124.2,591.8 
						126.1,590.8 					"/>
					<polygon class="st3" points="328.3,523.9 329.5,526 331.6,527.2 329.5,528.3 328.3,530.5 327.1,528.3 325,527.2 327.1,526 
											"/>
					<polygon class="st3" points="495.7,497.4 496.9,499.5 499,500.7 496.9,501.9 495.7,504 494.5,501.9 492.4,500.7 494.5,499.5 
											"/>
					<polygon class="st3" points="475.3,421.7 476.5,423.9 478.6,425 476.5,426.2 475.3,428.3 474.1,426.2 472,425 474.1,423.9 
											"/>
					<polygon class="st3" points="482.8,468.7 483.9,470.6 485.8,471.7 483.9,472.7 482.8,474.7 481.8,472.7 479.8,471.7 
						481.8,470.6 					"/>
					<polygon class="st3" points="430.7,445.2 431.8,447.1 433.7,448.2 431.8,449.2 430.7,451.2 429.7,449.2 427.7,448.2 
						429.7,447.1 					"/>
				</g>
			</g>
		</g>
	</g>
</g>
</svg>
