<?xml version="1.0" standalone="no"?>
<!DOCTYPE svg PUBLIC "-//W3C//DTD SVG 20010904//EN"
 "http://www.w3.org/TR/2001/REC-SVG-20010904/DTD/svg10.dtd">
<svg version="1.0" xmlns="http://www.w3.org/2000/svg"
 width="700.000000pt" height="700.000000pt" viewBox="0 0 700.000000 700.000000"
 preserveAspectRatio="xMidYMid meet">
<metadata>
Created by potrace 1.14, written by Peter Selinger 2001-2017
</metadata>
<g transform="translate(0.000000,700.000000) scale(0.100000,-0.100000)"
fill="#000000" stroke="none">
<path d="M3708 5218 c-82 -39 -148 -74 -148 -77 0 -3 84 -60 185 -126 102 -66
267 -173 367 -238 159 -104 185 -118 207 -110 34 10 331 175 331 182 -1 5
-196 116 -589 336 -147 83 -190 105 -197 104 -5 0 -75 -32 -156 -71z m415
-197 c4 -1 16 -10 28 -22 41 -41 -20 -66 -81 -34 -31 16 -38 33 -20 51 9 9 31
11 73 5z"/>
<path d="M3185 4962 c-132 -65 -260 -127 -285 -139 l-44 -20 174 -115 c96 -62
217 -141 268 -173 272 -176 368 -242 377 -262 7 -14 11 -200 10 -552 0 -292 3
-531 7 -531 4 0 54 25 110 56 114 63 146 80 263 144 44 24 100 56 125 70 l45
26 0 550 0 549 -137 90 c-465 304 -653 425 -665 425 -5 0 -117 -53 -248 -118z"/>
<path d="M2710 4730 c-8 -5 -91 -46 -183 -91 -92 -45 -170 -85 -172 -89 -3 -5
20 -23 50 -41 119 -73 300 -186 518 -323 176 -111 234 -143 255 -140 15 2 86
36 157 76 72 41 145 80 164 88 l34 14 -25 20 c-14 12 -75 52 -134 91 -112 71
-313 202 -511 332 -113 74 -126 79 -153 63z m286 -325 c28 -11 35 -19 32 -37
-3 -20 -9 -23 -45 -22 -46 1 -73 17 -73 44 0 16 12 24 43 29 4 0 24 -6 43 -14z"/>
<path d="M4450 4608 c-107 -59 -100 -50 -100 -134 l0 -76 76 42 c42 23 95 52
118 64 22 12 56 32 75 43 l33 21 -23 15 c-59 36 -101 57 -112 57 -7 -1 -37
-15 -67 -32z"/>
<path d="M4443 4324 c-96 -51 -94 -49 -91 -137 l3 -76 148 81 c164 91 160 84
65 136 l-56 31 -69 -35z"/>
<path d="M2408 4302 c-32 -15 -58 -29 -58 -33 0 -5 585 -375 769 -486 l54 -32
51 28 c28 16 76 43 106 60 30 17 94 52 142 77 56 29 90 53 94 67 10 28 11 127
3 133 -8 4 -91 -39 -249 -129 -141 -81 -164 -82 -280 -6 -173 113 -557 349
-566 348 -5 -1 -35 -13 -66 -27z"/>
<path d="M4450 4038 c-108 -59 -100 -49 -100 -139 l0 -80 83 44 c45 24 105 58
132 74 28 16 59 33 70 37 19 8 19 8 -4 24 -26 18 -121 73 -124 71 -1 0 -27
-14 -57 -31z"/>
<path d="M2408 4009 c-32 -16 -58 -31 -58 -33 0 -2 89 -59 198 -126 108 -68
220 -137 247 -155 162 -105 370 -230 381 -227 7 1 63 31 126 65 62 34 139 76
170 92 101 52 102 53 103 135 0 39 -3 74 -7 76 -4 3 -49 -19 -100 -47 -259
-144 -286 -158 -311 -151 -12 3 -157 89 -322 192 -329 205 -338 210 -357 210
-7 -1 -39 -14 -70 -31z"/>
<path d="M4445 3744 c-39 -20 -76 -41 -83 -48 -9 -9 -12 -36 -10 -89 l3 -77
41 22 c22 13 89 49 148 82 59 32 104 62 99 66 -4 5 -25 18 -46 29 -21 12 -48
28 -60 36 -20 13 -28 11 -92 -21z"/>
<path d="M2415 3724 c-27 -13 -53 -28 -58 -33 -7 -7 22 -30 85 -66 22 -12 362
-224 433 -270 112 -72 248 -156 274 -169 25 -13 31 -13 57 3 16 10 63 36 104
58 41 23 108 59 149 82 41 23 77 41 81 41 21 0 34 37 34 106 1 41 -1 74 -5 74
-3 0 -69 -34 -145 -76 -211 -117 -231 -126 -258 -126 -15 0 -154 81 -346 201
-177 110 -330 201 -339 200 -9 0 -38 -11 -66 -25z"/>
<path d="M2417 3434 c-60 -31 -85 -54 -57 -54 5 0 151 -89 325 -197 173 -109
323 -202 333 -208 10 -5 47 -28 82 -50 35 -22 70 -39 78 -37 24 6 377 202 387
216 6 8 10 45 10 82 -1 57 -4 69 -17 66 -9 -1 -94 -46 -190 -99 -110 -62 -183
-97 -201 -96 -17 0 -100 46 -215 119 -103 65 -232 145 -287 179 -55 34 -118
73 -140 87 l-41 25 -67 -33z"/>
<path d="M2963 2580 c-32 -13 -56 -56 -55 -98 3 -98 149 -128 201 -41 53 87
-45 180 -146 139z"/>
<path d="M2590 2522 c-14 -5 -14 -802 0 -803 6 0 26 -1 45 -1 19 0 56 1 83 1
l47 1 0 394 c0 217 -4 398 -8 402 -7 8 -147 12 -167 6z"/>
<path d="M4704 2521 c-2 -2 -4 -184 -4 -403 0 -311 3 -398 13 -399 14 -1 121
-1 152 0 20 1 21 7 21 184 1 229 11 256 103 270 44 7 96 -18 114 -56 11 -22
15 -74 15 -209 0 -99 2 -182 5 -185 5 -4 117 -7 167 -4 13 1 15 30 14 203 -1
221 -8 263 -53 325 -62 86 -199 110 -301 51 -27 -16 -50 -34 -50 -41 0 -9 -2
-9 -8 0 -4 7 -7 67 -6 133 1 77 -3 123 -10 127 -11 7 -165 11 -172 4z"/>
<path d="M1961 2475 c-116 -32 -211 -128 -246 -249 -48 -166 4 -343 129 -437
142 -107 371 -98 495 20 43 41 101 133 101 161 0 6 -37 10 -97 10 l-98 0 -37
-40 c-91 -97 -244 -69 -303 56 -19 40 -22 154 -5 198 29 78 96 125 178 126 51
0 112 -29 142 -67 21 -27 25 -28 121 -29 l99 -1 -6 26 c-14 59 -80 144 -142
183 -88 55 -223 72 -331 43z"/>
<path d="M4232 2328 c-163 -25 -255 -149 -247 -332 8 -168 118 -276 290 -282
98 -3 164 19 220 74 38 37 88 129 79 144 -3 4 -47 8 -98 8 -87 0 -93 -1 -105
-24 -23 -42 -84 -58 -134 -35 -41 18 -62 66 -62 139 1 80 23 126 70 146 43 18
105 1 120 -33 5 -13 19 -24 30 -24 67 -5 178 -3 181 3 7 11 -32 91 -61 126
-33 40 -98 79 -145 86 -71 12 -86 12 -138 4z"/>
<path d="M2925 2320 c-2 -4 -4 -140 -3 -303 l0 -297 39 -1 c21 0 59 0 84 0 25
0 49 0 55 0 6 1 9 114 7 304 l-2 302 -88 0 c-49 1 -90 -2 -92 -5z"/>
<path d="M3269 2325 c-7 -2 -2 -598 5 -602 5 -4 46 -6 90 -6 l81 0 5 194 c5
207 10 225 58 251 29 15 90 15 120 -1 47 -25 55 -63 56 -253 1 -97 4 -179 8
-183 6 -7 62 -9 146 -6 l32 1 0 198 c0 238 -10 285 -74 348 -81 81 -226 87
-311 12 l-35 -30 0 39 0 39 -90 0 c-49 0 -91 0 -91 -1z"/>
</g>
</svg>
